%TF.GenerationSoftware,KiCad,Pcbnew,9.0.0*%
%TF.CreationDate,2025-04-18T09:14:46-04:00*%
%TF.ProjectId,where_is_my_ion,77686572-655f-4697-935f-6d795f696f6e,rev?*%
%TF.SameCoordinates,Original*%
%TF.FileFunction,Legend,Top*%
%TF.FilePolarity,Positive*%
%FSLAX46Y46*%
G04 Gerber Fmt 4.6, Leading zero omitted, Abs format (unit mm)*
G04 Created by KiCad (PCBNEW 9.0.0) date 2025-04-18 09:14:46*
%MOMM*%
%LPD*%
G01*
G04 APERTURE LIST*
%ADD10C,0.150000*%
%ADD11C,0.120000*%
%ADD12C,0.127000*%
%ADD13C,0.200000*%
G04 APERTURE END LIST*
D10*
X136892046Y-30486870D02*
X137392046Y-29620845D01*
X137392046Y-29620845D02*
X137598242Y-29739893D01*
X137598242Y-29739893D02*
X137698151Y-29852561D01*
X137698151Y-29852561D02*
X137733010Y-29982658D01*
X137733010Y-29982658D02*
X137726630Y-30088946D01*
X137726630Y-30088946D02*
X137672632Y-30277713D01*
X137672632Y-30277713D02*
X137601203Y-30401431D01*
X137601203Y-30401431D02*
X137464726Y-30542579D01*
X137464726Y-30542579D02*
X137375867Y-30601248D01*
X137375867Y-30601248D02*
X137245770Y-30636107D01*
X137245770Y-30636107D02*
X137098242Y-30605918D01*
X137098242Y-30605918D02*
X136892046Y-30486870D01*
X138169213Y-30179514D02*
X138234262Y-30162084D01*
X138234262Y-30162084D02*
X138340550Y-30168464D01*
X138340550Y-30168464D02*
X138546746Y-30287512D01*
X138546746Y-30287512D02*
X138605415Y-30376370D01*
X138605415Y-30376370D02*
X138622845Y-30441419D01*
X138622845Y-30441419D02*
X138616465Y-30547707D01*
X138616465Y-30547707D02*
X138568846Y-30630186D01*
X138568846Y-30630186D02*
X138456178Y-30730094D01*
X138456178Y-30730094D02*
X137675592Y-30939251D01*
X137675592Y-30939251D02*
X138211703Y-31248775D01*
X139000379Y-30549417D02*
X139536490Y-30858940D01*
X139536490Y-30858940D02*
X139057338Y-31022188D01*
X139057338Y-31022188D02*
X139181056Y-31093617D01*
X139181056Y-31093617D02*
X139239725Y-31182475D01*
X139239725Y-31182475D02*
X139257155Y-31247524D01*
X139257155Y-31247524D02*
X139250775Y-31353812D01*
X139250775Y-31353812D02*
X139131728Y-31560009D01*
X139131728Y-31560009D02*
X139042869Y-31618678D01*
X139042869Y-31618678D02*
X138977820Y-31636107D01*
X138977820Y-31636107D02*
X138871532Y-31629728D01*
X138871532Y-31629728D02*
X138624097Y-31486870D01*
X138624097Y-31486870D02*
X138565427Y-31398012D01*
X138565427Y-31398012D02*
X138547998Y-31332963D01*
X122407142Y-159109580D02*
X122359523Y-159157200D01*
X122359523Y-159157200D02*
X122216666Y-159204819D01*
X122216666Y-159204819D02*
X122121428Y-159204819D01*
X122121428Y-159204819D02*
X121978571Y-159157200D01*
X121978571Y-159157200D02*
X121883333Y-159061961D01*
X121883333Y-159061961D02*
X121835714Y-158966723D01*
X121835714Y-158966723D02*
X121788095Y-158776247D01*
X121788095Y-158776247D02*
X121788095Y-158633390D01*
X121788095Y-158633390D02*
X121835714Y-158442914D01*
X121835714Y-158442914D02*
X121883333Y-158347676D01*
X121883333Y-158347676D02*
X121978571Y-158252438D01*
X121978571Y-158252438D02*
X122121428Y-158204819D01*
X122121428Y-158204819D02*
X122216666Y-158204819D01*
X122216666Y-158204819D02*
X122359523Y-158252438D01*
X122359523Y-158252438D02*
X122407142Y-158300057D01*
X123359523Y-159204819D02*
X122788095Y-159204819D01*
X123073809Y-159204819D02*
X123073809Y-158204819D01*
X123073809Y-158204819D02*
X122978571Y-158347676D01*
X122978571Y-158347676D02*
X122883333Y-158442914D01*
X122883333Y-158442914D02*
X122788095Y-158490533D01*
X124216666Y-158204819D02*
X124026190Y-158204819D01*
X124026190Y-158204819D02*
X123930952Y-158252438D01*
X123930952Y-158252438D02*
X123883333Y-158300057D01*
X123883333Y-158300057D02*
X123788095Y-158442914D01*
X123788095Y-158442914D02*
X123740476Y-158633390D01*
X123740476Y-158633390D02*
X123740476Y-159014342D01*
X123740476Y-159014342D02*
X123788095Y-159109580D01*
X123788095Y-159109580D02*
X123835714Y-159157200D01*
X123835714Y-159157200D02*
X123930952Y-159204819D01*
X123930952Y-159204819D02*
X124121428Y-159204819D01*
X124121428Y-159204819D02*
X124216666Y-159157200D01*
X124216666Y-159157200D02*
X124264285Y-159109580D01*
X124264285Y-159109580D02*
X124311904Y-159014342D01*
X124311904Y-159014342D02*
X124311904Y-158776247D01*
X124311904Y-158776247D02*
X124264285Y-158681009D01*
X124264285Y-158681009D02*
X124216666Y-158633390D01*
X124216666Y-158633390D02*
X124121428Y-158585771D01*
X124121428Y-158585771D02*
X123930952Y-158585771D01*
X123930952Y-158585771D02*
X123835714Y-158633390D01*
X123835714Y-158633390D02*
X123788095Y-158681009D01*
X123788095Y-158681009D02*
X123740476Y-158776247D01*
X151357200Y-142833332D02*
X151404819Y-142690475D01*
X151404819Y-142690475D02*
X151404819Y-142452380D01*
X151404819Y-142452380D02*
X151357200Y-142357142D01*
X151357200Y-142357142D02*
X151309580Y-142309523D01*
X151309580Y-142309523D02*
X151214342Y-142261904D01*
X151214342Y-142261904D02*
X151119104Y-142261904D01*
X151119104Y-142261904D02*
X151023866Y-142309523D01*
X151023866Y-142309523D02*
X150976247Y-142357142D01*
X150976247Y-142357142D02*
X150928628Y-142452380D01*
X150928628Y-142452380D02*
X150881009Y-142642856D01*
X150881009Y-142642856D02*
X150833390Y-142738094D01*
X150833390Y-142738094D02*
X150785771Y-142785713D01*
X150785771Y-142785713D02*
X150690533Y-142833332D01*
X150690533Y-142833332D02*
X150595295Y-142833332D01*
X150595295Y-142833332D02*
X150500057Y-142785713D01*
X150500057Y-142785713D02*
X150452438Y-142738094D01*
X150452438Y-142738094D02*
X150404819Y-142642856D01*
X150404819Y-142642856D02*
X150404819Y-142404761D01*
X150404819Y-142404761D02*
X150452438Y-142261904D01*
X150404819Y-141928570D02*
X151404819Y-141690475D01*
X151404819Y-141690475D02*
X150690533Y-141499999D01*
X150690533Y-141499999D02*
X151404819Y-141309523D01*
X151404819Y-141309523D02*
X150404819Y-141071428D01*
X150500057Y-140738094D02*
X150452438Y-140690475D01*
X150452438Y-140690475D02*
X150404819Y-140595237D01*
X150404819Y-140595237D02*
X150404819Y-140357142D01*
X150404819Y-140357142D02*
X150452438Y-140261904D01*
X150452438Y-140261904D02*
X150500057Y-140214285D01*
X150500057Y-140214285D02*
X150595295Y-140166666D01*
X150595295Y-140166666D02*
X150690533Y-140166666D01*
X150690533Y-140166666D02*
X150833390Y-140214285D01*
X150833390Y-140214285D02*
X151404819Y-140785713D01*
X151404819Y-140785713D02*
X151404819Y-140166666D01*
X104535714Y-124904819D02*
X104535714Y-123904819D01*
X104535714Y-123904819D02*
X104773809Y-123904819D01*
X104773809Y-123904819D02*
X104916666Y-123952438D01*
X104916666Y-123952438D02*
X105011904Y-124047676D01*
X105011904Y-124047676D02*
X105059523Y-124142914D01*
X105059523Y-124142914D02*
X105107142Y-124333390D01*
X105107142Y-124333390D02*
X105107142Y-124476247D01*
X105107142Y-124476247D02*
X105059523Y-124666723D01*
X105059523Y-124666723D02*
X105011904Y-124761961D01*
X105011904Y-124761961D02*
X104916666Y-124857200D01*
X104916666Y-124857200D02*
X104773809Y-124904819D01*
X104773809Y-124904819D02*
X104535714Y-124904819D01*
X106059523Y-124904819D02*
X105488095Y-124904819D01*
X105773809Y-124904819D02*
X105773809Y-123904819D01*
X105773809Y-123904819D02*
X105678571Y-124047676D01*
X105678571Y-124047676D02*
X105583333Y-124142914D01*
X105583333Y-124142914D02*
X105488095Y-124190533D01*
X106964285Y-123904819D02*
X106488095Y-123904819D01*
X106488095Y-123904819D02*
X106440476Y-124381009D01*
X106440476Y-124381009D02*
X106488095Y-124333390D01*
X106488095Y-124333390D02*
X106583333Y-124285771D01*
X106583333Y-124285771D02*
X106821428Y-124285771D01*
X106821428Y-124285771D02*
X106916666Y-124333390D01*
X106916666Y-124333390D02*
X106964285Y-124381009D01*
X106964285Y-124381009D02*
X107011904Y-124476247D01*
X107011904Y-124476247D02*
X107011904Y-124714342D01*
X107011904Y-124714342D02*
X106964285Y-124809580D01*
X106964285Y-124809580D02*
X106916666Y-124857200D01*
X106916666Y-124857200D02*
X106821428Y-124904819D01*
X106821428Y-124904819D02*
X106583333Y-124904819D01*
X106583333Y-124904819D02*
X106488095Y-124857200D01*
X106488095Y-124857200D02*
X106440476Y-124809580D01*
X158458333Y-164504963D02*
X158125000Y-164028772D01*
X157886905Y-164504963D02*
X157886905Y-163504963D01*
X157886905Y-163504963D02*
X158267857Y-163504963D01*
X158267857Y-163504963D02*
X158363095Y-163552582D01*
X158363095Y-163552582D02*
X158410714Y-163600201D01*
X158410714Y-163600201D02*
X158458333Y-163695439D01*
X158458333Y-163695439D02*
X158458333Y-163838296D01*
X158458333Y-163838296D02*
X158410714Y-163933534D01*
X158410714Y-163933534D02*
X158363095Y-163981153D01*
X158363095Y-163981153D02*
X158267857Y-164028772D01*
X158267857Y-164028772D02*
X157886905Y-164028772D01*
X159315476Y-163504963D02*
X159125000Y-163504963D01*
X159125000Y-163504963D02*
X159029762Y-163552582D01*
X159029762Y-163552582D02*
X158982143Y-163600201D01*
X158982143Y-163600201D02*
X158886905Y-163743058D01*
X158886905Y-163743058D02*
X158839286Y-163933534D01*
X158839286Y-163933534D02*
X158839286Y-164314486D01*
X158839286Y-164314486D02*
X158886905Y-164409724D01*
X158886905Y-164409724D02*
X158934524Y-164457344D01*
X158934524Y-164457344D02*
X159029762Y-164504963D01*
X159029762Y-164504963D02*
X159220238Y-164504963D01*
X159220238Y-164504963D02*
X159315476Y-164457344D01*
X159315476Y-164457344D02*
X159363095Y-164409724D01*
X159363095Y-164409724D02*
X159410714Y-164314486D01*
X159410714Y-164314486D02*
X159410714Y-164076391D01*
X159410714Y-164076391D02*
X159363095Y-163981153D01*
X159363095Y-163981153D02*
X159315476Y-163933534D01*
X159315476Y-163933534D02*
X159220238Y-163885915D01*
X159220238Y-163885915D02*
X159029762Y-163885915D01*
X159029762Y-163885915D02*
X158934524Y-163933534D01*
X158934524Y-163933534D02*
X158886905Y-163981153D01*
X158886905Y-163981153D02*
X158839286Y-164076391D01*
X159633333Y-157054819D02*
X159300000Y-156578628D01*
X159061905Y-157054819D02*
X159061905Y-156054819D01*
X159061905Y-156054819D02*
X159442857Y-156054819D01*
X159442857Y-156054819D02*
X159538095Y-156102438D01*
X159538095Y-156102438D02*
X159585714Y-156150057D01*
X159585714Y-156150057D02*
X159633333Y-156245295D01*
X159633333Y-156245295D02*
X159633333Y-156388152D01*
X159633333Y-156388152D02*
X159585714Y-156483390D01*
X159585714Y-156483390D02*
X159538095Y-156531009D01*
X159538095Y-156531009D02*
X159442857Y-156578628D01*
X159442857Y-156578628D02*
X159061905Y-156578628D01*
X160538095Y-156054819D02*
X160061905Y-156054819D01*
X160061905Y-156054819D02*
X160014286Y-156531009D01*
X160014286Y-156531009D02*
X160061905Y-156483390D01*
X160061905Y-156483390D02*
X160157143Y-156435771D01*
X160157143Y-156435771D02*
X160395238Y-156435771D01*
X160395238Y-156435771D02*
X160490476Y-156483390D01*
X160490476Y-156483390D02*
X160538095Y-156531009D01*
X160538095Y-156531009D02*
X160585714Y-156626247D01*
X160585714Y-156626247D02*
X160585714Y-156864342D01*
X160585714Y-156864342D02*
X160538095Y-156959580D01*
X160538095Y-156959580D02*
X160490476Y-157007200D01*
X160490476Y-157007200D02*
X160395238Y-157054819D01*
X160395238Y-157054819D02*
X160157143Y-157054819D01*
X160157143Y-157054819D02*
X160061905Y-157007200D01*
X160061905Y-157007200D02*
X160014286Y-156959580D01*
X151164819Y-160042857D02*
X150688628Y-160376190D01*
X151164819Y-160614285D02*
X150164819Y-160614285D01*
X150164819Y-160614285D02*
X150164819Y-160233333D01*
X150164819Y-160233333D02*
X150212438Y-160138095D01*
X150212438Y-160138095D02*
X150260057Y-160090476D01*
X150260057Y-160090476D02*
X150355295Y-160042857D01*
X150355295Y-160042857D02*
X150498152Y-160042857D01*
X150498152Y-160042857D02*
X150593390Y-160090476D01*
X150593390Y-160090476D02*
X150641009Y-160138095D01*
X150641009Y-160138095D02*
X150688628Y-160233333D01*
X150688628Y-160233333D02*
X150688628Y-160614285D01*
X150260057Y-159661904D02*
X150212438Y-159614285D01*
X150212438Y-159614285D02*
X150164819Y-159519047D01*
X150164819Y-159519047D02*
X150164819Y-159280952D01*
X150164819Y-159280952D02*
X150212438Y-159185714D01*
X150212438Y-159185714D02*
X150260057Y-159138095D01*
X150260057Y-159138095D02*
X150355295Y-159090476D01*
X150355295Y-159090476D02*
X150450533Y-159090476D01*
X150450533Y-159090476D02*
X150593390Y-159138095D01*
X150593390Y-159138095D02*
X151164819Y-159709523D01*
X151164819Y-159709523D02*
X151164819Y-159090476D01*
X150164819Y-158471428D02*
X150164819Y-158376190D01*
X150164819Y-158376190D02*
X150212438Y-158280952D01*
X150212438Y-158280952D02*
X150260057Y-158233333D01*
X150260057Y-158233333D02*
X150355295Y-158185714D01*
X150355295Y-158185714D02*
X150545771Y-158138095D01*
X150545771Y-158138095D02*
X150783866Y-158138095D01*
X150783866Y-158138095D02*
X150974342Y-158185714D01*
X150974342Y-158185714D02*
X151069580Y-158233333D01*
X151069580Y-158233333D02*
X151117200Y-158280952D01*
X151117200Y-158280952D02*
X151164819Y-158376190D01*
X151164819Y-158376190D02*
X151164819Y-158471428D01*
X151164819Y-158471428D02*
X151117200Y-158566666D01*
X151117200Y-158566666D02*
X151069580Y-158614285D01*
X151069580Y-158614285D02*
X150974342Y-158661904D01*
X150974342Y-158661904D02*
X150783866Y-158709523D01*
X150783866Y-158709523D02*
X150545771Y-158709523D01*
X150545771Y-158709523D02*
X150355295Y-158661904D01*
X150355295Y-158661904D02*
X150260057Y-158614285D01*
X150260057Y-158614285D02*
X150212438Y-158566666D01*
X150212438Y-158566666D02*
X150164819Y-158471428D01*
X107035714Y-150884819D02*
X107035714Y-149884819D01*
X107035714Y-149884819D02*
X107273809Y-149884819D01*
X107273809Y-149884819D02*
X107416666Y-149932438D01*
X107416666Y-149932438D02*
X107511904Y-150027676D01*
X107511904Y-150027676D02*
X107559523Y-150122914D01*
X107559523Y-150122914D02*
X107607142Y-150313390D01*
X107607142Y-150313390D02*
X107607142Y-150456247D01*
X107607142Y-150456247D02*
X107559523Y-150646723D01*
X107559523Y-150646723D02*
X107511904Y-150741961D01*
X107511904Y-150741961D02*
X107416666Y-150837200D01*
X107416666Y-150837200D02*
X107273809Y-150884819D01*
X107273809Y-150884819D02*
X107035714Y-150884819D01*
X108559523Y-150884819D02*
X107988095Y-150884819D01*
X108273809Y-150884819D02*
X108273809Y-149884819D01*
X108273809Y-149884819D02*
X108178571Y-150027676D01*
X108178571Y-150027676D02*
X108083333Y-150122914D01*
X108083333Y-150122914D02*
X107988095Y-150170533D01*
X109178571Y-149884819D02*
X109273809Y-149884819D01*
X109273809Y-149884819D02*
X109369047Y-149932438D01*
X109369047Y-149932438D02*
X109416666Y-149980057D01*
X109416666Y-149980057D02*
X109464285Y-150075295D01*
X109464285Y-150075295D02*
X109511904Y-150265771D01*
X109511904Y-150265771D02*
X109511904Y-150503866D01*
X109511904Y-150503866D02*
X109464285Y-150694342D01*
X109464285Y-150694342D02*
X109416666Y-150789580D01*
X109416666Y-150789580D02*
X109369047Y-150837200D01*
X109369047Y-150837200D02*
X109273809Y-150884819D01*
X109273809Y-150884819D02*
X109178571Y-150884819D01*
X109178571Y-150884819D02*
X109083333Y-150837200D01*
X109083333Y-150837200D02*
X109035714Y-150789580D01*
X109035714Y-150789580D02*
X108988095Y-150694342D01*
X108988095Y-150694342D02*
X108940476Y-150503866D01*
X108940476Y-150503866D02*
X108940476Y-150265771D01*
X108940476Y-150265771D02*
X108988095Y-150075295D01*
X108988095Y-150075295D02*
X109035714Y-149980057D01*
X109035714Y-149980057D02*
X109083333Y-149932438D01*
X109083333Y-149932438D02*
X109178571Y-149884819D01*
X132785714Y-70454819D02*
X132785714Y-69454819D01*
X132785714Y-69454819D02*
X133023809Y-69454819D01*
X133023809Y-69454819D02*
X133166666Y-69502438D01*
X133166666Y-69502438D02*
X133261904Y-69597676D01*
X133261904Y-69597676D02*
X133309523Y-69692914D01*
X133309523Y-69692914D02*
X133357142Y-69883390D01*
X133357142Y-69883390D02*
X133357142Y-70026247D01*
X133357142Y-70026247D02*
X133309523Y-70216723D01*
X133309523Y-70216723D02*
X133261904Y-70311961D01*
X133261904Y-70311961D02*
X133166666Y-70407200D01*
X133166666Y-70407200D02*
X133023809Y-70454819D01*
X133023809Y-70454819D02*
X132785714Y-70454819D01*
X133690476Y-69454819D02*
X134309523Y-69454819D01*
X134309523Y-69454819D02*
X133976190Y-69835771D01*
X133976190Y-69835771D02*
X134119047Y-69835771D01*
X134119047Y-69835771D02*
X134214285Y-69883390D01*
X134214285Y-69883390D02*
X134261904Y-69931009D01*
X134261904Y-69931009D02*
X134309523Y-70026247D01*
X134309523Y-70026247D02*
X134309523Y-70264342D01*
X134309523Y-70264342D02*
X134261904Y-70359580D01*
X134261904Y-70359580D02*
X134214285Y-70407200D01*
X134214285Y-70407200D02*
X134119047Y-70454819D01*
X134119047Y-70454819D02*
X133833333Y-70454819D01*
X133833333Y-70454819D02*
X133738095Y-70407200D01*
X133738095Y-70407200D02*
X133690476Y-70359580D01*
X134785714Y-70454819D02*
X134976190Y-70454819D01*
X134976190Y-70454819D02*
X135071428Y-70407200D01*
X135071428Y-70407200D02*
X135119047Y-70359580D01*
X135119047Y-70359580D02*
X135214285Y-70216723D01*
X135214285Y-70216723D02*
X135261904Y-70026247D01*
X135261904Y-70026247D02*
X135261904Y-69645295D01*
X135261904Y-69645295D02*
X135214285Y-69550057D01*
X135214285Y-69550057D02*
X135166666Y-69502438D01*
X135166666Y-69502438D02*
X135071428Y-69454819D01*
X135071428Y-69454819D02*
X134880952Y-69454819D01*
X134880952Y-69454819D02*
X134785714Y-69502438D01*
X134785714Y-69502438D02*
X134738095Y-69550057D01*
X134738095Y-69550057D02*
X134690476Y-69645295D01*
X134690476Y-69645295D02*
X134690476Y-69883390D01*
X134690476Y-69883390D02*
X134738095Y-69978628D01*
X134738095Y-69978628D02*
X134785714Y-70026247D01*
X134785714Y-70026247D02*
X134880952Y-70073866D01*
X134880952Y-70073866D02*
X135071428Y-70073866D01*
X135071428Y-70073866D02*
X135166666Y-70026247D01*
X135166666Y-70026247D02*
X135214285Y-69978628D01*
X135214285Y-69978628D02*
X135261904Y-69883390D01*
X103085714Y-41084819D02*
X103085714Y-40084819D01*
X103085714Y-40084819D02*
X103323809Y-40084819D01*
X103323809Y-40084819D02*
X103466666Y-40132438D01*
X103466666Y-40132438D02*
X103561904Y-40227676D01*
X103561904Y-40227676D02*
X103609523Y-40322914D01*
X103609523Y-40322914D02*
X103657142Y-40513390D01*
X103657142Y-40513390D02*
X103657142Y-40656247D01*
X103657142Y-40656247D02*
X103609523Y-40846723D01*
X103609523Y-40846723D02*
X103561904Y-40941961D01*
X103561904Y-40941961D02*
X103466666Y-41037200D01*
X103466666Y-41037200D02*
X103323809Y-41084819D01*
X103323809Y-41084819D02*
X103085714Y-41084819D01*
X103990476Y-40084819D02*
X104657142Y-40084819D01*
X104657142Y-40084819D02*
X104228571Y-41084819D01*
X105514285Y-40084819D02*
X105038095Y-40084819D01*
X105038095Y-40084819D02*
X104990476Y-40561009D01*
X104990476Y-40561009D02*
X105038095Y-40513390D01*
X105038095Y-40513390D02*
X105133333Y-40465771D01*
X105133333Y-40465771D02*
X105371428Y-40465771D01*
X105371428Y-40465771D02*
X105466666Y-40513390D01*
X105466666Y-40513390D02*
X105514285Y-40561009D01*
X105514285Y-40561009D02*
X105561904Y-40656247D01*
X105561904Y-40656247D02*
X105561904Y-40894342D01*
X105561904Y-40894342D02*
X105514285Y-40989580D01*
X105514285Y-40989580D02*
X105466666Y-41037200D01*
X105466666Y-41037200D02*
X105371428Y-41084819D01*
X105371428Y-41084819D02*
X105133333Y-41084819D01*
X105133333Y-41084819D02*
X105038095Y-41037200D01*
X105038095Y-41037200D02*
X104990476Y-40989580D01*
X103585714Y-140634819D02*
X103585714Y-139634819D01*
X103585714Y-139634819D02*
X103823809Y-139634819D01*
X103823809Y-139634819D02*
X103966666Y-139682438D01*
X103966666Y-139682438D02*
X104061904Y-139777676D01*
X104061904Y-139777676D02*
X104109523Y-139872914D01*
X104109523Y-139872914D02*
X104157142Y-140063390D01*
X104157142Y-140063390D02*
X104157142Y-140206247D01*
X104157142Y-140206247D02*
X104109523Y-140396723D01*
X104109523Y-140396723D02*
X104061904Y-140491961D01*
X104061904Y-140491961D02*
X103966666Y-140587200D01*
X103966666Y-140587200D02*
X103823809Y-140634819D01*
X103823809Y-140634819D02*
X103585714Y-140634819D01*
X105109523Y-140634819D02*
X104538095Y-140634819D01*
X104823809Y-140634819D02*
X104823809Y-139634819D01*
X104823809Y-139634819D02*
X104728571Y-139777676D01*
X104728571Y-139777676D02*
X104633333Y-139872914D01*
X104633333Y-139872914D02*
X104538095Y-139920533D01*
X105490476Y-139730057D02*
X105538095Y-139682438D01*
X105538095Y-139682438D02*
X105633333Y-139634819D01*
X105633333Y-139634819D02*
X105871428Y-139634819D01*
X105871428Y-139634819D02*
X105966666Y-139682438D01*
X105966666Y-139682438D02*
X106014285Y-139730057D01*
X106014285Y-139730057D02*
X106061904Y-139825295D01*
X106061904Y-139825295D02*
X106061904Y-139920533D01*
X106061904Y-139920533D02*
X106014285Y-140063390D01*
X106014285Y-140063390D02*
X105442857Y-140634819D01*
X105442857Y-140634819D02*
X106061904Y-140634819D01*
X122985714Y-112624819D02*
X122985714Y-111624819D01*
X122985714Y-111624819D02*
X123223809Y-111624819D01*
X123223809Y-111624819D02*
X123366666Y-111672438D01*
X123366666Y-111672438D02*
X123461904Y-111767676D01*
X123461904Y-111767676D02*
X123509523Y-111862914D01*
X123509523Y-111862914D02*
X123557142Y-112053390D01*
X123557142Y-112053390D02*
X123557142Y-112196247D01*
X123557142Y-112196247D02*
X123509523Y-112386723D01*
X123509523Y-112386723D02*
X123461904Y-112481961D01*
X123461904Y-112481961D02*
X123366666Y-112577200D01*
X123366666Y-112577200D02*
X123223809Y-112624819D01*
X123223809Y-112624819D02*
X122985714Y-112624819D01*
X124461904Y-111624819D02*
X123985714Y-111624819D01*
X123985714Y-111624819D02*
X123938095Y-112101009D01*
X123938095Y-112101009D02*
X123985714Y-112053390D01*
X123985714Y-112053390D02*
X124080952Y-112005771D01*
X124080952Y-112005771D02*
X124319047Y-112005771D01*
X124319047Y-112005771D02*
X124414285Y-112053390D01*
X124414285Y-112053390D02*
X124461904Y-112101009D01*
X124461904Y-112101009D02*
X124509523Y-112196247D01*
X124509523Y-112196247D02*
X124509523Y-112434342D01*
X124509523Y-112434342D02*
X124461904Y-112529580D01*
X124461904Y-112529580D02*
X124414285Y-112577200D01*
X124414285Y-112577200D02*
X124319047Y-112624819D01*
X124319047Y-112624819D02*
X124080952Y-112624819D01*
X124080952Y-112624819D02*
X123985714Y-112577200D01*
X123985714Y-112577200D02*
X123938095Y-112529580D01*
X124842857Y-111624819D02*
X125461904Y-111624819D01*
X125461904Y-111624819D02*
X125128571Y-112005771D01*
X125128571Y-112005771D02*
X125271428Y-112005771D01*
X125271428Y-112005771D02*
X125366666Y-112053390D01*
X125366666Y-112053390D02*
X125414285Y-112101009D01*
X125414285Y-112101009D02*
X125461904Y-112196247D01*
X125461904Y-112196247D02*
X125461904Y-112434342D01*
X125461904Y-112434342D02*
X125414285Y-112529580D01*
X125414285Y-112529580D02*
X125366666Y-112577200D01*
X125366666Y-112577200D02*
X125271428Y-112624819D01*
X125271428Y-112624819D02*
X124985714Y-112624819D01*
X124985714Y-112624819D02*
X124890476Y-112577200D01*
X124890476Y-112577200D02*
X124842857Y-112529580D01*
X115654819Y-108614285D02*
X114654819Y-108614285D01*
X114654819Y-108614285D02*
X114654819Y-108376190D01*
X114654819Y-108376190D02*
X114702438Y-108233333D01*
X114702438Y-108233333D02*
X114797676Y-108138095D01*
X114797676Y-108138095D02*
X114892914Y-108090476D01*
X114892914Y-108090476D02*
X115083390Y-108042857D01*
X115083390Y-108042857D02*
X115226247Y-108042857D01*
X115226247Y-108042857D02*
X115416723Y-108090476D01*
X115416723Y-108090476D02*
X115511961Y-108138095D01*
X115511961Y-108138095D02*
X115607200Y-108233333D01*
X115607200Y-108233333D02*
X115654819Y-108376190D01*
X115654819Y-108376190D02*
X115654819Y-108614285D01*
X114654819Y-107138095D02*
X114654819Y-107614285D01*
X114654819Y-107614285D02*
X115131009Y-107661904D01*
X115131009Y-107661904D02*
X115083390Y-107614285D01*
X115083390Y-107614285D02*
X115035771Y-107519047D01*
X115035771Y-107519047D02*
X115035771Y-107280952D01*
X115035771Y-107280952D02*
X115083390Y-107185714D01*
X115083390Y-107185714D02*
X115131009Y-107138095D01*
X115131009Y-107138095D02*
X115226247Y-107090476D01*
X115226247Y-107090476D02*
X115464342Y-107090476D01*
X115464342Y-107090476D02*
X115559580Y-107138095D01*
X115559580Y-107138095D02*
X115607200Y-107185714D01*
X115607200Y-107185714D02*
X115654819Y-107280952D01*
X115654819Y-107280952D02*
X115654819Y-107519047D01*
X115654819Y-107519047D02*
X115607200Y-107614285D01*
X115607200Y-107614285D02*
X115559580Y-107661904D01*
X115654819Y-106138095D02*
X115654819Y-106709523D01*
X115654819Y-106423809D02*
X114654819Y-106423809D01*
X114654819Y-106423809D02*
X114797676Y-106519047D01*
X114797676Y-106519047D02*
X114892914Y-106614285D01*
X114892914Y-106614285D02*
X114940533Y-106709523D01*
X122585714Y-96554819D02*
X122585714Y-95554819D01*
X122585714Y-95554819D02*
X122823809Y-95554819D01*
X122823809Y-95554819D02*
X122966666Y-95602438D01*
X122966666Y-95602438D02*
X123061904Y-95697676D01*
X123061904Y-95697676D02*
X123109523Y-95792914D01*
X123109523Y-95792914D02*
X123157142Y-95983390D01*
X123157142Y-95983390D02*
X123157142Y-96126247D01*
X123157142Y-96126247D02*
X123109523Y-96316723D01*
X123109523Y-96316723D02*
X123061904Y-96411961D01*
X123061904Y-96411961D02*
X122966666Y-96507200D01*
X122966666Y-96507200D02*
X122823809Y-96554819D01*
X122823809Y-96554819D02*
X122585714Y-96554819D01*
X123490476Y-95554819D02*
X124109523Y-95554819D01*
X124109523Y-95554819D02*
X123776190Y-95935771D01*
X123776190Y-95935771D02*
X123919047Y-95935771D01*
X123919047Y-95935771D02*
X124014285Y-95983390D01*
X124014285Y-95983390D02*
X124061904Y-96031009D01*
X124061904Y-96031009D02*
X124109523Y-96126247D01*
X124109523Y-96126247D02*
X124109523Y-96364342D01*
X124109523Y-96364342D02*
X124061904Y-96459580D01*
X124061904Y-96459580D02*
X124014285Y-96507200D01*
X124014285Y-96507200D02*
X123919047Y-96554819D01*
X123919047Y-96554819D02*
X123633333Y-96554819D01*
X123633333Y-96554819D02*
X123538095Y-96507200D01*
X123538095Y-96507200D02*
X123490476Y-96459580D01*
X124966666Y-95888152D02*
X124966666Y-96554819D01*
X124728571Y-95507200D02*
X124490476Y-96221485D01*
X124490476Y-96221485D02*
X125109523Y-96221485D01*
X113057142Y-82424819D02*
X112723809Y-81948628D01*
X112485714Y-82424819D02*
X112485714Y-81424819D01*
X112485714Y-81424819D02*
X112866666Y-81424819D01*
X112866666Y-81424819D02*
X112961904Y-81472438D01*
X112961904Y-81472438D02*
X113009523Y-81520057D01*
X113009523Y-81520057D02*
X113057142Y-81615295D01*
X113057142Y-81615295D02*
X113057142Y-81758152D01*
X113057142Y-81758152D02*
X113009523Y-81853390D01*
X113009523Y-81853390D02*
X112961904Y-81901009D01*
X112961904Y-81901009D02*
X112866666Y-81948628D01*
X112866666Y-81948628D02*
X112485714Y-81948628D01*
X114009523Y-82424819D02*
X113438095Y-82424819D01*
X113723809Y-82424819D02*
X113723809Y-81424819D01*
X113723809Y-81424819D02*
X113628571Y-81567676D01*
X113628571Y-81567676D02*
X113533333Y-81662914D01*
X113533333Y-81662914D02*
X113438095Y-81710533D01*
X114628571Y-81424819D02*
X114723809Y-81424819D01*
X114723809Y-81424819D02*
X114819047Y-81472438D01*
X114819047Y-81472438D02*
X114866666Y-81520057D01*
X114866666Y-81520057D02*
X114914285Y-81615295D01*
X114914285Y-81615295D02*
X114961904Y-81805771D01*
X114961904Y-81805771D02*
X114961904Y-82043866D01*
X114961904Y-82043866D02*
X114914285Y-82234342D01*
X114914285Y-82234342D02*
X114866666Y-82329580D01*
X114866666Y-82329580D02*
X114819047Y-82377200D01*
X114819047Y-82377200D02*
X114723809Y-82424819D01*
X114723809Y-82424819D02*
X114628571Y-82424819D01*
X114628571Y-82424819D02*
X114533333Y-82377200D01*
X114533333Y-82377200D02*
X114485714Y-82329580D01*
X114485714Y-82329580D02*
X114438095Y-82234342D01*
X114438095Y-82234342D02*
X114390476Y-82043866D01*
X114390476Y-82043866D02*
X114390476Y-81805771D01*
X114390476Y-81805771D02*
X114438095Y-81615295D01*
X114438095Y-81615295D02*
X114485714Y-81520057D01*
X114485714Y-81520057D02*
X114533333Y-81472438D01*
X114533333Y-81472438D02*
X114628571Y-81424819D01*
X170538095Y-163754819D02*
X170538095Y-164564342D01*
X170538095Y-164564342D02*
X170585714Y-164659580D01*
X170585714Y-164659580D02*
X170633333Y-164707200D01*
X170633333Y-164707200D02*
X170728571Y-164754819D01*
X170728571Y-164754819D02*
X170919047Y-164754819D01*
X170919047Y-164754819D02*
X171014285Y-164707200D01*
X171014285Y-164707200D02*
X171061904Y-164659580D01*
X171061904Y-164659580D02*
X171109523Y-164564342D01*
X171109523Y-164564342D02*
X171109523Y-163754819D01*
X172109523Y-164754819D02*
X171538095Y-164754819D01*
X171823809Y-164754819D02*
X171823809Y-163754819D01*
X171823809Y-163754819D02*
X171728571Y-163897676D01*
X171728571Y-163897676D02*
X171633333Y-163992914D01*
X171633333Y-163992914D02*
X171538095Y-164040533D01*
X151457200Y-147133332D02*
X151504819Y-146990475D01*
X151504819Y-146990475D02*
X151504819Y-146752380D01*
X151504819Y-146752380D02*
X151457200Y-146657142D01*
X151457200Y-146657142D02*
X151409580Y-146609523D01*
X151409580Y-146609523D02*
X151314342Y-146561904D01*
X151314342Y-146561904D02*
X151219104Y-146561904D01*
X151219104Y-146561904D02*
X151123866Y-146609523D01*
X151123866Y-146609523D02*
X151076247Y-146657142D01*
X151076247Y-146657142D02*
X151028628Y-146752380D01*
X151028628Y-146752380D02*
X150981009Y-146942856D01*
X150981009Y-146942856D02*
X150933390Y-147038094D01*
X150933390Y-147038094D02*
X150885771Y-147085713D01*
X150885771Y-147085713D02*
X150790533Y-147133332D01*
X150790533Y-147133332D02*
X150695295Y-147133332D01*
X150695295Y-147133332D02*
X150600057Y-147085713D01*
X150600057Y-147085713D02*
X150552438Y-147038094D01*
X150552438Y-147038094D02*
X150504819Y-146942856D01*
X150504819Y-146942856D02*
X150504819Y-146704761D01*
X150504819Y-146704761D02*
X150552438Y-146561904D01*
X150504819Y-146228570D02*
X151504819Y-145990475D01*
X151504819Y-145990475D02*
X150790533Y-145799999D01*
X150790533Y-145799999D02*
X151504819Y-145609523D01*
X151504819Y-145609523D02*
X150504819Y-145371428D01*
X150504819Y-145085713D02*
X150504819Y-144466666D01*
X150504819Y-144466666D02*
X150885771Y-144799999D01*
X150885771Y-144799999D02*
X150885771Y-144657142D01*
X150885771Y-144657142D02*
X150933390Y-144561904D01*
X150933390Y-144561904D02*
X150981009Y-144514285D01*
X150981009Y-144514285D02*
X151076247Y-144466666D01*
X151076247Y-144466666D02*
X151314342Y-144466666D01*
X151314342Y-144466666D02*
X151409580Y-144514285D01*
X151409580Y-144514285D02*
X151457200Y-144561904D01*
X151457200Y-144561904D02*
X151504819Y-144657142D01*
X151504819Y-144657142D02*
X151504819Y-144942856D01*
X151504819Y-144942856D02*
X151457200Y-145038094D01*
X151457200Y-145038094D02*
X151409580Y-145085713D01*
X154904819Y-160792857D02*
X154428628Y-161126190D01*
X154904819Y-161364285D02*
X153904819Y-161364285D01*
X153904819Y-161364285D02*
X153904819Y-160983333D01*
X153904819Y-160983333D02*
X153952438Y-160888095D01*
X153952438Y-160888095D02*
X154000057Y-160840476D01*
X154000057Y-160840476D02*
X154095295Y-160792857D01*
X154095295Y-160792857D02*
X154238152Y-160792857D01*
X154238152Y-160792857D02*
X154333390Y-160840476D01*
X154333390Y-160840476D02*
X154381009Y-160888095D01*
X154381009Y-160888095D02*
X154428628Y-160983333D01*
X154428628Y-160983333D02*
X154428628Y-161364285D01*
X154000057Y-160411904D02*
X153952438Y-160364285D01*
X153952438Y-160364285D02*
X153904819Y-160269047D01*
X153904819Y-160269047D02*
X153904819Y-160030952D01*
X153904819Y-160030952D02*
X153952438Y-159935714D01*
X153952438Y-159935714D02*
X154000057Y-159888095D01*
X154000057Y-159888095D02*
X154095295Y-159840476D01*
X154095295Y-159840476D02*
X154190533Y-159840476D01*
X154190533Y-159840476D02*
X154333390Y-159888095D01*
X154333390Y-159888095D02*
X154904819Y-160459523D01*
X154904819Y-160459523D02*
X154904819Y-159840476D01*
X154000057Y-159459523D02*
X153952438Y-159411904D01*
X153952438Y-159411904D02*
X153904819Y-159316666D01*
X153904819Y-159316666D02*
X153904819Y-159078571D01*
X153904819Y-159078571D02*
X153952438Y-158983333D01*
X153952438Y-158983333D02*
X154000057Y-158935714D01*
X154000057Y-158935714D02*
X154095295Y-158888095D01*
X154095295Y-158888095D02*
X154190533Y-158888095D01*
X154190533Y-158888095D02*
X154333390Y-158935714D01*
X154333390Y-158935714D02*
X154904819Y-159507142D01*
X154904819Y-159507142D02*
X154904819Y-158888095D01*
X159733333Y-41409580D02*
X159685714Y-41457200D01*
X159685714Y-41457200D02*
X159542857Y-41504819D01*
X159542857Y-41504819D02*
X159447619Y-41504819D01*
X159447619Y-41504819D02*
X159304762Y-41457200D01*
X159304762Y-41457200D02*
X159209524Y-41361961D01*
X159209524Y-41361961D02*
X159161905Y-41266723D01*
X159161905Y-41266723D02*
X159114286Y-41076247D01*
X159114286Y-41076247D02*
X159114286Y-40933390D01*
X159114286Y-40933390D02*
X159161905Y-40742914D01*
X159161905Y-40742914D02*
X159209524Y-40647676D01*
X159209524Y-40647676D02*
X159304762Y-40552438D01*
X159304762Y-40552438D02*
X159447619Y-40504819D01*
X159447619Y-40504819D02*
X159542857Y-40504819D01*
X159542857Y-40504819D02*
X159685714Y-40552438D01*
X159685714Y-40552438D02*
X159733333Y-40600057D01*
X160066667Y-40504819D02*
X160685714Y-40504819D01*
X160685714Y-40504819D02*
X160352381Y-40885771D01*
X160352381Y-40885771D02*
X160495238Y-40885771D01*
X160495238Y-40885771D02*
X160590476Y-40933390D01*
X160590476Y-40933390D02*
X160638095Y-40981009D01*
X160638095Y-40981009D02*
X160685714Y-41076247D01*
X160685714Y-41076247D02*
X160685714Y-41314342D01*
X160685714Y-41314342D02*
X160638095Y-41409580D01*
X160638095Y-41409580D02*
X160590476Y-41457200D01*
X160590476Y-41457200D02*
X160495238Y-41504819D01*
X160495238Y-41504819D02*
X160209524Y-41504819D01*
X160209524Y-41504819D02*
X160114286Y-41457200D01*
X160114286Y-41457200D02*
X160066667Y-41409580D01*
X139754819Y-151614285D02*
X138754819Y-151614285D01*
X138754819Y-151614285D02*
X138754819Y-151376190D01*
X138754819Y-151376190D02*
X138802438Y-151233333D01*
X138802438Y-151233333D02*
X138897676Y-151138095D01*
X138897676Y-151138095D02*
X138992914Y-151090476D01*
X138992914Y-151090476D02*
X139183390Y-151042857D01*
X139183390Y-151042857D02*
X139326247Y-151042857D01*
X139326247Y-151042857D02*
X139516723Y-151090476D01*
X139516723Y-151090476D02*
X139611961Y-151138095D01*
X139611961Y-151138095D02*
X139707200Y-151233333D01*
X139707200Y-151233333D02*
X139754819Y-151376190D01*
X139754819Y-151376190D02*
X139754819Y-151614285D01*
X139183390Y-150471428D02*
X139135771Y-150566666D01*
X139135771Y-150566666D02*
X139088152Y-150614285D01*
X139088152Y-150614285D02*
X138992914Y-150661904D01*
X138992914Y-150661904D02*
X138945295Y-150661904D01*
X138945295Y-150661904D02*
X138850057Y-150614285D01*
X138850057Y-150614285D02*
X138802438Y-150566666D01*
X138802438Y-150566666D02*
X138754819Y-150471428D01*
X138754819Y-150471428D02*
X138754819Y-150280952D01*
X138754819Y-150280952D02*
X138802438Y-150185714D01*
X138802438Y-150185714D02*
X138850057Y-150138095D01*
X138850057Y-150138095D02*
X138945295Y-150090476D01*
X138945295Y-150090476D02*
X138992914Y-150090476D01*
X138992914Y-150090476D02*
X139088152Y-150138095D01*
X139088152Y-150138095D02*
X139135771Y-150185714D01*
X139135771Y-150185714D02*
X139183390Y-150280952D01*
X139183390Y-150280952D02*
X139183390Y-150471428D01*
X139183390Y-150471428D02*
X139231009Y-150566666D01*
X139231009Y-150566666D02*
X139278628Y-150614285D01*
X139278628Y-150614285D02*
X139373866Y-150661904D01*
X139373866Y-150661904D02*
X139564342Y-150661904D01*
X139564342Y-150661904D02*
X139659580Y-150614285D01*
X139659580Y-150614285D02*
X139707200Y-150566666D01*
X139707200Y-150566666D02*
X139754819Y-150471428D01*
X139754819Y-150471428D02*
X139754819Y-150280952D01*
X139754819Y-150280952D02*
X139707200Y-150185714D01*
X139707200Y-150185714D02*
X139659580Y-150138095D01*
X139659580Y-150138095D02*
X139564342Y-150090476D01*
X139564342Y-150090476D02*
X139373866Y-150090476D01*
X139373866Y-150090476D02*
X139278628Y-150138095D01*
X139278628Y-150138095D02*
X139231009Y-150185714D01*
X139231009Y-150185714D02*
X139183390Y-150280952D01*
X138754819Y-149757142D02*
X138754819Y-149138095D01*
X138754819Y-149138095D02*
X139135771Y-149471428D01*
X139135771Y-149471428D02*
X139135771Y-149328571D01*
X139135771Y-149328571D02*
X139183390Y-149233333D01*
X139183390Y-149233333D02*
X139231009Y-149185714D01*
X139231009Y-149185714D02*
X139326247Y-149138095D01*
X139326247Y-149138095D02*
X139564342Y-149138095D01*
X139564342Y-149138095D02*
X139659580Y-149185714D01*
X139659580Y-149185714D02*
X139707200Y-149233333D01*
X139707200Y-149233333D02*
X139754819Y-149328571D01*
X139754819Y-149328571D02*
X139754819Y-149614285D01*
X139754819Y-149614285D02*
X139707200Y-149709523D01*
X139707200Y-149709523D02*
X139659580Y-149757142D01*
X164061905Y-19804819D02*
X164061905Y-18804819D01*
X164061905Y-18804819D02*
X164300000Y-18804819D01*
X164300000Y-18804819D02*
X164442857Y-18852438D01*
X164442857Y-18852438D02*
X164538095Y-18947676D01*
X164538095Y-18947676D02*
X164585714Y-19042914D01*
X164585714Y-19042914D02*
X164633333Y-19233390D01*
X164633333Y-19233390D02*
X164633333Y-19376247D01*
X164633333Y-19376247D02*
X164585714Y-19566723D01*
X164585714Y-19566723D02*
X164538095Y-19661961D01*
X164538095Y-19661961D02*
X164442857Y-19757200D01*
X164442857Y-19757200D02*
X164300000Y-19804819D01*
X164300000Y-19804819D02*
X164061905Y-19804819D01*
X165538095Y-18804819D02*
X165061905Y-18804819D01*
X165061905Y-18804819D02*
X165014286Y-19281009D01*
X165014286Y-19281009D02*
X165061905Y-19233390D01*
X165061905Y-19233390D02*
X165157143Y-19185771D01*
X165157143Y-19185771D02*
X165395238Y-19185771D01*
X165395238Y-19185771D02*
X165490476Y-19233390D01*
X165490476Y-19233390D02*
X165538095Y-19281009D01*
X165538095Y-19281009D02*
X165585714Y-19376247D01*
X165585714Y-19376247D02*
X165585714Y-19614342D01*
X165585714Y-19614342D02*
X165538095Y-19709580D01*
X165538095Y-19709580D02*
X165490476Y-19757200D01*
X165490476Y-19757200D02*
X165395238Y-19804819D01*
X165395238Y-19804819D02*
X165157143Y-19804819D01*
X165157143Y-19804819D02*
X165061905Y-19757200D01*
X165061905Y-19757200D02*
X165014286Y-19709580D01*
X103173214Y-44204819D02*
X103173214Y-43204819D01*
X103173214Y-43204819D02*
X103411309Y-43204819D01*
X103411309Y-43204819D02*
X103554166Y-43252438D01*
X103554166Y-43252438D02*
X103649404Y-43347676D01*
X103649404Y-43347676D02*
X103697023Y-43442914D01*
X103697023Y-43442914D02*
X103744642Y-43633390D01*
X103744642Y-43633390D02*
X103744642Y-43776247D01*
X103744642Y-43776247D02*
X103697023Y-43966723D01*
X103697023Y-43966723D02*
X103649404Y-44061961D01*
X103649404Y-44061961D02*
X103554166Y-44157200D01*
X103554166Y-44157200D02*
X103411309Y-44204819D01*
X103411309Y-44204819D02*
X103173214Y-44204819D01*
X104077976Y-43204819D02*
X104744642Y-43204819D01*
X104744642Y-43204819D02*
X104316071Y-44204819D01*
X105554166Y-43538152D02*
X105554166Y-44204819D01*
X105316071Y-43157200D02*
X105077976Y-43871485D01*
X105077976Y-43871485D02*
X105697023Y-43871485D01*
X123785714Y-85454819D02*
X123785714Y-84454819D01*
X123785714Y-84454819D02*
X124023809Y-84454819D01*
X124023809Y-84454819D02*
X124166666Y-84502438D01*
X124166666Y-84502438D02*
X124261904Y-84597676D01*
X124261904Y-84597676D02*
X124309523Y-84692914D01*
X124309523Y-84692914D02*
X124357142Y-84883390D01*
X124357142Y-84883390D02*
X124357142Y-85026247D01*
X124357142Y-85026247D02*
X124309523Y-85216723D01*
X124309523Y-85216723D02*
X124261904Y-85311961D01*
X124261904Y-85311961D02*
X124166666Y-85407200D01*
X124166666Y-85407200D02*
X124023809Y-85454819D01*
X124023809Y-85454819D02*
X123785714Y-85454819D01*
X124690476Y-84454819D02*
X125309523Y-84454819D01*
X125309523Y-84454819D02*
X124976190Y-84835771D01*
X124976190Y-84835771D02*
X125119047Y-84835771D01*
X125119047Y-84835771D02*
X125214285Y-84883390D01*
X125214285Y-84883390D02*
X125261904Y-84931009D01*
X125261904Y-84931009D02*
X125309523Y-85026247D01*
X125309523Y-85026247D02*
X125309523Y-85264342D01*
X125309523Y-85264342D02*
X125261904Y-85359580D01*
X125261904Y-85359580D02*
X125214285Y-85407200D01*
X125214285Y-85407200D02*
X125119047Y-85454819D01*
X125119047Y-85454819D02*
X124833333Y-85454819D01*
X124833333Y-85454819D02*
X124738095Y-85407200D01*
X124738095Y-85407200D02*
X124690476Y-85359580D01*
X126166666Y-84454819D02*
X125976190Y-84454819D01*
X125976190Y-84454819D02*
X125880952Y-84502438D01*
X125880952Y-84502438D02*
X125833333Y-84550057D01*
X125833333Y-84550057D02*
X125738095Y-84692914D01*
X125738095Y-84692914D02*
X125690476Y-84883390D01*
X125690476Y-84883390D02*
X125690476Y-85264342D01*
X125690476Y-85264342D02*
X125738095Y-85359580D01*
X125738095Y-85359580D02*
X125785714Y-85407200D01*
X125785714Y-85407200D02*
X125880952Y-85454819D01*
X125880952Y-85454819D02*
X126071428Y-85454819D01*
X126071428Y-85454819D02*
X126166666Y-85407200D01*
X126166666Y-85407200D02*
X126214285Y-85359580D01*
X126214285Y-85359580D02*
X126261904Y-85264342D01*
X126261904Y-85264342D02*
X126261904Y-85026247D01*
X126261904Y-85026247D02*
X126214285Y-84931009D01*
X126214285Y-84931009D02*
X126166666Y-84883390D01*
X126166666Y-84883390D02*
X126071428Y-84835771D01*
X126071428Y-84835771D02*
X125880952Y-84835771D01*
X125880952Y-84835771D02*
X125785714Y-84883390D01*
X125785714Y-84883390D02*
X125738095Y-84931009D01*
X125738095Y-84931009D02*
X125690476Y-85026247D01*
X161733333Y-156959580D02*
X161685714Y-157007200D01*
X161685714Y-157007200D02*
X161542857Y-157054819D01*
X161542857Y-157054819D02*
X161447619Y-157054819D01*
X161447619Y-157054819D02*
X161304762Y-157007200D01*
X161304762Y-157007200D02*
X161209524Y-156911961D01*
X161209524Y-156911961D02*
X161161905Y-156816723D01*
X161161905Y-156816723D02*
X161114286Y-156626247D01*
X161114286Y-156626247D02*
X161114286Y-156483390D01*
X161114286Y-156483390D02*
X161161905Y-156292914D01*
X161161905Y-156292914D02*
X161209524Y-156197676D01*
X161209524Y-156197676D02*
X161304762Y-156102438D01*
X161304762Y-156102438D02*
X161447619Y-156054819D01*
X161447619Y-156054819D02*
X161542857Y-156054819D01*
X161542857Y-156054819D02*
X161685714Y-156102438D01*
X161685714Y-156102438D02*
X161733333Y-156150057D01*
X162590476Y-156054819D02*
X162400000Y-156054819D01*
X162400000Y-156054819D02*
X162304762Y-156102438D01*
X162304762Y-156102438D02*
X162257143Y-156150057D01*
X162257143Y-156150057D02*
X162161905Y-156292914D01*
X162161905Y-156292914D02*
X162114286Y-156483390D01*
X162114286Y-156483390D02*
X162114286Y-156864342D01*
X162114286Y-156864342D02*
X162161905Y-156959580D01*
X162161905Y-156959580D02*
X162209524Y-157007200D01*
X162209524Y-157007200D02*
X162304762Y-157054819D01*
X162304762Y-157054819D02*
X162495238Y-157054819D01*
X162495238Y-157054819D02*
X162590476Y-157007200D01*
X162590476Y-157007200D02*
X162638095Y-156959580D01*
X162638095Y-156959580D02*
X162685714Y-156864342D01*
X162685714Y-156864342D02*
X162685714Y-156626247D01*
X162685714Y-156626247D02*
X162638095Y-156531009D01*
X162638095Y-156531009D02*
X162590476Y-156483390D01*
X162590476Y-156483390D02*
X162495238Y-156435771D01*
X162495238Y-156435771D02*
X162304762Y-156435771D01*
X162304762Y-156435771D02*
X162209524Y-156483390D01*
X162209524Y-156483390D02*
X162161905Y-156531009D01*
X162161905Y-156531009D02*
X162114286Y-156626247D01*
X135607142Y-20054819D02*
X135273809Y-19578628D01*
X135035714Y-20054819D02*
X135035714Y-19054819D01*
X135035714Y-19054819D02*
X135416666Y-19054819D01*
X135416666Y-19054819D02*
X135511904Y-19102438D01*
X135511904Y-19102438D02*
X135559523Y-19150057D01*
X135559523Y-19150057D02*
X135607142Y-19245295D01*
X135607142Y-19245295D02*
X135607142Y-19388152D01*
X135607142Y-19388152D02*
X135559523Y-19483390D01*
X135559523Y-19483390D02*
X135511904Y-19531009D01*
X135511904Y-19531009D02*
X135416666Y-19578628D01*
X135416666Y-19578628D02*
X135035714Y-19578628D01*
X135988095Y-19150057D02*
X136035714Y-19102438D01*
X136035714Y-19102438D02*
X136130952Y-19054819D01*
X136130952Y-19054819D02*
X136369047Y-19054819D01*
X136369047Y-19054819D02*
X136464285Y-19102438D01*
X136464285Y-19102438D02*
X136511904Y-19150057D01*
X136511904Y-19150057D02*
X136559523Y-19245295D01*
X136559523Y-19245295D02*
X136559523Y-19340533D01*
X136559523Y-19340533D02*
X136511904Y-19483390D01*
X136511904Y-19483390D02*
X135940476Y-20054819D01*
X135940476Y-20054819D02*
X136559523Y-20054819D01*
X137511904Y-20054819D02*
X136940476Y-20054819D01*
X137226190Y-20054819D02*
X137226190Y-19054819D01*
X137226190Y-19054819D02*
X137130952Y-19197676D01*
X137130952Y-19197676D02*
X137035714Y-19292914D01*
X137035714Y-19292914D02*
X136940476Y-19340533D01*
X134985714Y-17754819D02*
X134985714Y-16754819D01*
X134985714Y-16754819D02*
X135223809Y-16754819D01*
X135223809Y-16754819D02*
X135366666Y-16802438D01*
X135366666Y-16802438D02*
X135461904Y-16897676D01*
X135461904Y-16897676D02*
X135509523Y-16992914D01*
X135509523Y-16992914D02*
X135557142Y-17183390D01*
X135557142Y-17183390D02*
X135557142Y-17326247D01*
X135557142Y-17326247D02*
X135509523Y-17516723D01*
X135509523Y-17516723D02*
X135461904Y-17611961D01*
X135461904Y-17611961D02*
X135366666Y-17707200D01*
X135366666Y-17707200D02*
X135223809Y-17754819D01*
X135223809Y-17754819D02*
X134985714Y-17754819D01*
X136128571Y-17183390D02*
X136033333Y-17135771D01*
X136033333Y-17135771D02*
X135985714Y-17088152D01*
X135985714Y-17088152D02*
X135938095Y-16992914D01*
X135938095Y-16992914D02*
X135938095Y-16945295D01*
X135938095Y-16945295D02*
X135985714Y-16850057D01*
X135985714Y-16850057D02*
X136033333Y-16802438D01*
X136033333Y-16802438D02*
X136128571Y-16754819D01*
X136128571Y-16754819D02*
X136319047Y-16754819D01*
X136319047Y-16754819D02*
X136414285Y-16802438D01*
X136414285Y-16802438D02*
X136461904Y-16850057D01*
X136461904Y-16850057D02*
X136509523Y-16945295D01*
X136509523Y-16945295D02*
X136509523Y-16992914D01*
X136509523Y-16992914D02*
X136461904Y-17088152D01*
X136461904Y-17088152D02*
X136414285Y-17135771D01*
X136414285Y-17135771D02*
X136319047Y-17183390D01*
X136319047Y-17183390D02*
X136128571Y-17183390D01*
X136128571Y-17183390D02*
X136033333Y-17231009D01*
X136033333Y-17231009D02*
X135985714Y-17278628D01*
X135985714Y-17278628D02*
X135938095Y-17373866D01*
X135938095Y-17373866D02*
X135938095Y-17564342D01*
X135938095Y-17564342D02*
X135985714Y-17659580D01*
X135985714Y-17659580D02*
X136033333Y-17707200D01*
X136033333Y-17707200D02*
X136128571Y-17754819D01*
X136128571Y-17754819D02*
X136319047Y-17754819D01*
X136319047Y-17754819D02*
X136414285Y-17707200D01*
X136414285Y-17707200D02*
X136461904Y-17659580D01*
X136461904Y-17659580D02*
X136509523Y-17564342D01*
X136509523Y-17564342D02*
X136509523Y-17373866D01*
X136509523Y-17373866D02*
X136461904Y-17278628D01*
X136461904Y-17278628D02*
X136414285Y-17231009D01*
X136414285Y-17231009D02*
X136319047Y-17183390D01*
X137461904Y-17754819D02*
X136890476Y-17754819D01*
X137176190Y-17754819D02*
X137176190Y-16754819D01*
X137176190Y-16754819D02*
X137080952Y-16897676D01*
X137080952Y-16897676D02*
X136985714Y-16992914D01*
X136985714Y-16992914D02*
X136890476Y-17040533D01*
X108385714Y-116054819D02*
X108385714Y-115054819D01*
X108385714Y-115054819D02*
X108623809Y-115054819D01*
X108623809Y-115054819D02*
X108766666Y-115102438D01*
X108766666Y-115102438D02*
X108861904Y-115197676D01*
X108861904Y-115197676D02*
X108909523Y-115292914D01*
X108909523Y-115292914D02*
X108957142Y-115483390D01*
X108957142Y-115483390D02*
X108957142Y-115626247D01*
X108957142Y-115626247D02*
X108909523Y-115816723D01*
X108909523Y-115816723D02*
X108861904Y-115911961D01*
X108861904Y-115911961D02*
X108766666Y-116007200D01*
X108766666Y-116007200D02*
X108623809Y-116054819D01*
X108623809Y-116054819D02*
X108385714Y-116054819D01*
X109861904Y-115054819D02*
X109385714Y-115054819D01*
X109385714Y-115054819D02*
X109338095Y-115531009D01*
X109338095Y-115531009D02*
X109385714Y-115483390D01*
X109385714Y-115483390D02*
X109480952Y-115435771D01*
X109480952Y-115435771D02*
X109719047Y-115435771D01*
X109719047Y-115435771D02*
X109814285Y-115483390D01*
X109814285Y-115483390D02*
X109861904Y-115531009D01*
X109861904Y-115531009D02*
X109909523Y-115626247D01*
X109909523Y-115626247D02*
X109909523Y-115864342D01*
X109909523Y-115864342D02*
X109861904Y-115959580D01*
X109861904Y-115959580D02*
X109814285Y-116007200D01*
X109814285Y-116007200D02*
X109719047Y-116054819D01*
X109719047Y-116054819D02*
X109480952Y-116054819D01*
X109480952Y-116054819D02*
X109385714Y-116007200D01*
X109385714Y-116007200D02*
X109338095Y-115959580D01*
X110528571Y-115054819D02*
X110623809Y-115054819D01*
X110623809Y-115054819D02*
X110719047Y-115102438D01*
X110719047Y-115102438D02*
X110766666Y-115150057D01*
X110766666Y-115150057D02*
X110814285Y-115245295D01*
X110814285Y-115245295D02*
X110861904Y-115435771D01*
X110861904Y-115435771D02*
X110861904Y-115673866D01*
X110861904Y-115673866D02*
X110814285Y-115864342D01*
X110814285Y-115864342D02*
X110766666Y-115959580D01*
X110766666Y-115959580D02*
X110719047Y-116007200D01*
X110719047Y-116007200D02*
X110623809Y-116054819D01*
X110623809Y-116054819D02*
X110528571Y-116054819D01*
X110528571Y-116054819D02*
X110433333Y-116007200D01*
X110433333Y-116007200D02*
X110385714Y-115959580D01*
X110385714Y-115959580D02*
X110338095Y-115864342D01*
X110338095Y-115864342D02*
X110290476Y-115673866D01*
X110290476Y-115673866D02*
X110290476Y-115435771D01*
X110290476Y-115435771D02*
X110338095Y-115245295D01*
X110338095Y-115245295D02*
X110385714Y-115150057D01*
X110385714Y-115150057D02*
X110433333Y-115102438D01*
X110433333Y-115102438D02*
X110528571Y-115054819D01*
X102535714Y-132454819D02*
X102535714Y-131454819D01*
X102535714Y-131454819D02*
X102773809Y-131454819D01*
X102773809Y-131454819D02*
X102916666Y-131502438D01*
X102916666Y-131502438D02*
X103011904Y-131597676D01*
X103011904Y-131597676D02*
X103059523Y-131692914D01*
X103059523Y-131692914D02*
X103107142Y-131883390D01*
X103107142Y-131883390D02*
X103107142Y-132026247D01*
X103107142Y-132026247D02*
X103059523Y-132216723D01*
X103059523Y-132216723D02*
X103011904Y-132311961D01*
X103011904Y-132311961D02*
X102916666Y-132407200D01*
X102916666Y-132407200D02*
X102773809Y-132454819D01*
X102773809Y-132454819D02*
X102535714Y-132454819D01*
X104059523Y-132454819D02*
X103488095Y-132454819D01*
X103773809Y-132454819D02*
X103773809Y-131454819D01*
X103773809Y-131454819D02*
X103678571Y-131597676D01*
X103678571Y-131597676D02*
X103583333Y-131692914D01*
X103583333Y-131692914D02*
X103488095Y-131740533D01*
X104392857Y-131454819D02*
X105011904Y-131454819D01*
X105011904Y-131454819D02*
X104678571Y-131835771D01*
X104678571Y-131835771D02*
X104821428Y-131835771D01*
X104821428Y-131835771D02*
X104916666Y-131883390D01*
X104916666Y-131883390D02*
X104964285Y-131931009D01*
X104964285Y-131931009D02*
X105011904Y-132026247D01*
X105011904Y-132026247D02*
X105011904Y-132264342D01*
X105011904Y-132264342D02*
X104964285Y-132359580D01*
X104964285Y-132359580D02*
X104916666Y-132407200D01*
X104916666Y-132407200D02*
X104821428Y-132454819D01*
X104821428Y-132454819D02*
X104535714Y-132454819D01*
X104535714Y-132454819D02*
X104440476Y-132407200D01*
X104440476Y-132407200D02*
X104392857Y-132359580D01*
X161954819Y-138817857D02*
X161478628Y-139151190D01*
X161954819Y-139389285D02*
X160954819Y-139389285D01*
X160954819Y-139389285D02*
X160954819Y-139008333D01*
X160954819Y-139008333D02*
X161002438Y-138913095D01*
X161002438Y-138913095D02*
X161050057Y-138865476D01*
X161050057Y-138865476D02*
X161145295Y-138817857D01*
X161145295Y-138817857D02*
X161288152Y-138817857D01*
X161288152Y-138817857D02*
X161383390Y-138865476D01*
X161383390Y-138865476D02*
X161431009Y-138913095D01*
X161431009Y-138913095D02*
X161478628Y-139008333D01*
X161478628Y-139008333D02*
X161478628Y-139389285D01*
X161954819Y-137865476D02*
X161954819Y-138436904D01*
X161954819Y-138151190D02*
X160954819Y-138151190D01*
X160954819Y-138151190D02*
X161097676Y-138246428D01*
X161097676Y-138246428D02*
X161192914Y-138341666D01*
X161192914Y-138341666D02*
X161240533Y-138436904D01*
X160954819Y-137532142D02*
X160954819Y-136913095D01*
X160954819Y-136913095D02*
X161335771Y-137246428D01*
X161335771Y-137246428D02*
X161335771Y-137103571D01*
X161335771Y-137103571D02*
X161383390Y-137008333D01*
X161383390Y-137008333D02*
X161431009Y-136960714D01*
X161431009Y-136960714D02*
X161526247Y-136913095D01*
X161526247Y-136913095D02*
X161764342Y-136913095D01*
X161764342Y-136913095D02*
X161859580Y-136960714D01*
X161859580Y-136960714D02*
X161907200Y-137008333D01*
X161907200Y-137008333D02*
X161954819Y-137103571D01*
X161954819Y-137103571D02*
X161954819Y-137389285D01*
X161954819Y-137389285D02*
X161907200Y-137484523D01*
X161907200Y-137484523D02*
X161859580Y-137532142D01*
X129423214Y-51154819D02*
X129423214Y-50154819D01*
X129423214Y-50154819D02*
X129661309Y-50154819D01*
X129661309Y-50154819D02*
X129804166Y-50202438D01*
X129804166Y-50202438D02*
X129899404Y-50297676D01*
X129899404Y-50297676D02*
X129947023Y-50392914D01*
X129947023Y-50392914D02*
X129994642Y-50583390D01*
X129994642Y-50583390D02*
X129994642Y-50726247D01*
X129994642Y-50726247D02*
X129947023Y-50916723D01*
X129947023Y-50916723D02*
X129899404Y-51011961D01*
X129899404Y-51011961D02*
X129804166Y-51107200D01*
X129804166Y-51107200D02*
X129661309Y-51154819D01*
X129661309Y-51154819D02*
X129423214Y-51154819D01*
X130947023Y-51154819D02*
X130375595Y-51154819D01*
X130661309Y-51154819D02*
X130661309Y-50154819D01*
X130661309Y-50154819D02*
X130566071Y-50297676D01*
X130566071Y-50297676D02*
X130470833Y-50392914D01*
X130470833Y-50392914D02*
X130375595Y-50440533D01*
X131423214Y-51154819D02*
X131613690Y-51154819D01*
X131613690Y-51154819D02*
X131708928Y-51107200D01*
X131708928Y-51107200D02*
X131756547Y-51059580D01*
X131756547Y-51059580D02*
X131851785Y-50916723D01*
X131851785Y-50916723D02*
X131899404Y-50726247D01*
X131899404Y-50726247D02*
X131899404Y-50345295D01*
X131899404Y-50345295D02*
X131851785Y-50250057D01*
X131851785Y-50250057D02*
X131804166Y-50202438D01*
X131804166Y-50202438D02*
X131708928Y-50154819D01*
X131708928Y-50154819D02*
X131518452Y-50154819D01*
X131518452Y-50154819D02*
X131423214Y-50202438D01*
X131423214Y-50202438D02*
X131375595Y-50250057D01*
X131375595Y-50250057D02*
X131327976Y-50345295D01*
X131327976Y-50345295D02*
X131327976Y-50583390D01*
X131327976Y-50583390D02*
X131375595Y-50678628D01*
X131375595Y-50678628D02*
X131423214Y-50726247D01*
X131423214Y-50726247D02*
X131518452Y-50773866D01*
X131518452Y-50773866D02*
X131708928Y-50773866D01*
X131708928Y-50773866D02*
X131804166Y-50726247D01*
X131804166Y-50726247D02*
X131851785Y-50678628D01*
X131851785Y-50678628D02*
X131899404Y-50583390D01*
X144807142Y-162704819D02*
X144473809Y-162228628D01*
X144235714Y-162704819D02*
X144235714Y-161704819D01*
X144235714Y-161704819D02*
X144616666Y-161704819D01*
X144616666Y-161704819D02*
X144711904Y-161752438D01*
X144711904Y-161752438D02*
X144759523Y-161800057D01*
X144759523Y-161800057D02*
X144807142Y-161895295D01*
X144807142Y-161895295D02*
X144807142Y-162038152D01*
X144807142Y-162038152D02*
X144759523Y-162133390D01*
X144759523Y-162133390D02*
X144711904Y-162181009D01*
X144711904Y-162181009D02*
X144616666Y-162228628D01*
X144616666Y-162228628D02*
X144235714Y-162228628D01*
X145188095Y-161800057D02*
X145235714Y-161752438D01*
X145235714Y-161752438D02*
X145330952Y-161704819D01*
X145330952Y-161704819D02*
X145569047Y-161704819D01*
X145569047Y-161704819D02*
X145664285Y-161752438D01*
X145664285Y-161752438D02*
X145711904Y-161800057D01*
X145711904Y-161800057D02*
X145759523Y-161895295D01*
X145759523Y-161895295D02*
X145759523Y-161990533D01*
X145759523Y-161990533D02*
X145711904Y-162133390D01*
X145711904Y-162133390D02*
X145140476Y-162704819D01*
X145140476Y-162704819D02*
X145759523Y-162704819D01*
X146616666Y-162038152D02*
X146616666Y-162704819D01*
X146378571Y-161657200D02*
X146140476Y-162371485D01*
X146140476Y-162371485D02*
X146759523Y-162371485D01*
X103838095Y-71254819D02*
X103838095Y-72064342D01*
X103838095Y-72064342D02*
X103885714Y-72159580D01*
X103885714Y-72159580D02*
X103933333Y-72207200D01*
X103933333Y-72207200D02*
X104028571Y-72254819D01*
X104028571Y-72254819D02*
X104219047Y-72254819D01*
X104219047Y-72254819D02*
X104314285Y-72207200D01*
X104314285Y-72207200D02*
X104361904Y-72159580D01*
X104361904Y-72159580D02*
X104409523Y-72064342D01*
X104409523Y-72064342D02*
X104409523Y-71254819D01*
X105314285Y-71588152D02*
X105314285Y-72254819D01*
X105076190Y-71207200D02*
X104838095Y-71921485D01*
X104838095Y-71921485D02*
X105457142Y-71921485D01*
X133470988Y-38136741D02*
X133970988Y-37270716D01*
X133970988Y-37270716D02*
X134177184Y-37389764D01*
X134177184Y-37389764D02*
X134277093Y-37502432D01*
X134277093Y-37502432D02*
X134311952Y-37632529D01*
X134311952Y-37632529D02*
X134305572Y-37738817D01*
X134305572Y-37738817D02*
X134251574Y-37927584D01*
X134251574Y-37927584D02*
X134180145Y-38051302D01*
X134180145Y-38051302D02*
X134043668Y-38192450D01*
X134043668Y-38192450D02*
X133954809Y-38251119D01*
X133954809Y-38251119D02*
X133824712Y-38285978D01*
X133824712Y-38285978D02*
X133677184Y-38255789D01*
X133677184Y-38255789D02*
X133470988Y-38136741D01*
X134748155Y-37829385D02*
X134813204Y-37811955D01*
X134813204Y-37811955D02*
X134919492Y-37818335D01*
X134919492Y-37818335D02*
X135125688Y-37937383D01*
X135125688Y-37937383D02*
X135184357Y-38026241D01*
X135184357Y-38026241D02*
X135201787Y-38091290D01*
X135201787Y-38091290D02*
X135195407Y-38197578D01*
X135195407Y-38197578D02*
X135147788Y-38280057D01*
X135147788Y-38280057D02*
X135035120Y-38379965D01*
X135035120Y-38379965D02*
X134254534Y-38589122D01*
X134254534Y-38589122D02*
X134790645Y-38898646D01*
X135615432Y-39374837D02*
X135120560Y-39089122D01*
X135367996Y-39231980D02*
X135867996Y-38365954D01*
X135867996Y-38365954D02*
X135714089Y-38442053D01*
X135714089Y-38442053D02*
X135583991Y-38476913D01*
X135583991Y-38476913D02*
X135477703Y-38470533D01*
X159556714Y-22717935D02*
X160422740Y-22217935D01*
X160422740Y-22217935D02*
X160541787Y-22424132D01*
X160541787Y-22424132D02*
X160571977Y-22571659D01*
X160571977Y-22571659D02*
X160537117Y-22701757D01*
X160537117Y-22701757D02*
X160478448Y-22790615D01*
X160478448Y-22790615D02*
X160337300Y-22927093D01*
X160337300Y-22927093D02*
X160213582Y-22998521D01*
X160213582Y-22998521D02*
X160024816Y-23052520D01*
X160024816Y-23052520D02*
X159918527Y-23058900D01*
X159918527Y-23058900D02*
X159788430Y-23024040D01*
X159788430Y-23024040D02*
X159675762Y-22924132D01*
X159675762Y-22924132D02*
X159556714Y-22717935D01*
X160848350Y-23621781D02*
X160271000Y-23955114D01*
X161059217Y-23225108D02*
X160321580Y-23376055D01*
X160321580Y-23376055D02*
X160631104Y-23912166D01*
X175959580Y-115042857D02*
X176007200Y-115090476D01*
X176007200Y-115090476D02*
X176054819Y-115233333D01*
X176054819Y-115233333D02*
X176054819Y-115328571D01*
X176054819Y-115328571D02*
X176007200Y-115471428D01*
X176007200Y-115471428D02*
X175911961Y-115566666D01*
X175911961Y-115566666D02*
X175816723Y-115614285D01*
X175816723Y-115614285D02*
X175626247Y-115661904D01*
X175626247Y-115661904D02*
X175483390Y-115661904D01*
X175483390Y-115661904D02*
X175292914Y-115614285D01*
X175292914Y-115614285D02*
X175197676Y-115566666D01*
X175197676Y-115566666D02*
X175102438Y-115471428D01*
X175102438Y-115471428D02*
X175054819Y-115328571D01*
X175054819Y-115328571D02*
X175054819Y-115233333D01*
X175054819Y-115233333D02*
X175102438Y-115090476D01*
X175102438Y-115090476D02*
X175150057Y-115042857D01*
X176054819Y-114090476D02*
X176054819Y-114661904D01*
X176054819Y-114376190D02*
X175054819Y-114376190D01*
X175054819Y-114376190D02*
X175197676Y-114471428D01*
X175197676Y-114471428D02*
X175292914Y-114566666D01*
X175292914Y-114566666D02*
X175340533Y-114661904D01*
X175054819Y-113757142D02*
X175054819Y-113138095D01*
X175054819Y-113138095D02*
X175435771Y-113471428D01*
X175435771Y-113471428D02*
X175435771Y-113328571D01*
X175435771Y-113328571D02*
X175483390Y-113233333D01*
X175483390Y-113233333D02*
X175531009Y-113185714D01*
X175531009Y-113185714D02*
X175626247Y-113138095D01*
X175626247Y-113138095D02*
X175864342Y-113138095D01*
X175864342Y-113138095D02*
X175959580Y-113185714D01*
X175959580Y-113185714D02*
X176007200Y-113233333D01*
X176007200Y-113233333D02*
X176054819Y-113328571D01*
X176054819Y-113328571D02*
X176054819Y-113614285D01*
X176054819Y-113614285D02*
X176007200Y-113709523D01*
X176007200Y-113709523D02*
X175959580Y-113757142D01*
X173854819Y-112442857D02*
X173378628Y-112776190D01*
X173854819Y-113014285D02*
X172854819Y-113014285D01*
X172854819Y-113014285D02*
X172854819Y-112633333D01*
X172854819Y-112633333D02*
X172902438Y-112538095D01*
X172902438Y-112538095D02*
X172950057Y-112490476D01*
X172950057Y-112490476D02*
X173045295Y-112442857D01*
X173045295Y-112442857D02*
X173188152Y-112442857D01*
X173188152Y-112442857D02*
X173283390Y-112490476D01*
X173283390Y-112490476D02*
X173331009Y-112538095D01*
X173331009Y-112538095D02*
X173378628Y-112633333D01*
X173378628Y-112633333D02*
X173378628Y-113014285D01*
X173854819Y-111490476D02*
X173854819Y-112061904D01*
X173854819Y-111776190D02*
X172854819Y-111776190D01*
X172854819Y-111776190D02*
X172997676Y-111871428D01*
X172997676Y-111871428D02*
X173092914Y-111966666D01*
X173092914Y-111966666D02*
X173140533Y-112061904D01*
X172854819Y-111157142D02*
X172854819Y-110490476D01*
X172854819Y-110490476D02*
X173854819Y-110919047D01*
X124135714Y-62304819D02*
X124135714Y-61304819D01*
X124135714Y-61304819D02*
X124373809Y-61304819D01*
X124373809Y-61304819D02*
X124516666Y-61352438D01*
X124516666Y-61352438D02*
X124611904Y-61447676D01*
X124611904Y-61447676D02*
X124659523Y-61542914D01*
X124659523Y-61542914D02*
X124707142Y-61733390D01*
X124707142Y-61733390D02*
X124707142Y-61876247D01*
X124707142Y-61876247D02*
X124659523Y-62066723D01*
X124659523Y-62066723D02*
X124611904Y-62161961D01*
X124611904Y-62161961D02*
X124516666Y-62257200D01*
X124516666Y-62257200D02*
X124373809Y-62304819D01*
X124373809Y-62304819D02*
X124135714Y-62304819D01*
X125659523Y-62304819D02*
X125088095Y-62304819D01*
X125373809Y-62304819D02*
X125373809Y-61304819D01*
X125373809Y-61304819D02*
X125278571Y-61447676D01*
X125278571Y-61447676D02*
X125183333Y-61542914D01*
X125183333Y-61542914D02*
X125088095Y-61590533D01*
X125992857Y-61304819D02*
X126659523Y-61304819D01*
X126659523Y-61304819D02*
X126230952Y-62304819D01*
X171437193Y-22293517D02*
X170730087Y-21586410D01*
X170730087Y-21586410D02*
X170898445Y-21418051D01*
X170898445Y-21418051D02*
X171033132Y-21350708D01*
X171033132Y-21350708D02*
X171167819Y-21350708D01*
X171167819Y-21350708D02*
X171268835Y-21384380D01*
X171268835Y-21384380D02*
X171437193Y-21485395D01*
X171437193Y-21485395D02*
X171538209Y-21586410D01*
X171538209Y-21586410D02*
X171639224Y-21754769D01*
X171639224Y-21754769D02*
X171672896Y-21855784D01*
X171672896Y-21855784D02*
X171672896Y-21990471D01*
X171672896Y-21990471D02*
X171605552Y-22125158D01*
X171605552Y-22125158D02*
X171437193Y-22293517D01*
X171740239Y-20576258D02*
X171605552Y-20710945D01*
X171605552Y-20710945D02*
X171571880Y-20811960D01*
X171571880Y-20811960D02*
X171571880Y-20879303D01*
X171571880Y-20879303D02*
X171605552Y-21047662D01*
X171605552Y-21047662D02*
X171706567Y-21216021D01*
X171706567Y-21216021D02*
X171975941Y-21485395D01*
X171975941Y-21485395D02*
X172076957Y-21519067D01*
X172076957Y-21519067D02*
X172144300Y-21519067D01*
X172144300Y-21519067D02*
X172245315Y-21485395D01*
X172245315Y-21485395D02*
X172380002Y-21350708D01*
X172380002Y-21350708D02*
X172413674Y-21249693D01*
X172413674Y-21249693D02*
X172413674Y-21182349D01*
X172413674Y-21182349D02*
X172380002Y-21081334D01*
X172380002Y-21081334D02*
X172211644Y-20912975D01*
X172211644Y-20912975D02*
X172110628Y-20879303D01*
X172110628Y-20879303D02*
X172043285Y-20879303D01*
X172043285Y-20879303D02*
X171942270Y-20912975D01*
X171942270Y-20912975D02*
X171807583Y-21047662D01*
X171807583Y-21047662D02*
X171773911Y-21148677D01*
X171773911Y-21148677D02*
X171773911Y-21216021D01*
X171773911Y-21216021D02*
X171807583Y-21317036D01*
X120008095Y-44866819D02*
X120008095Y-45676342D01*
X120008095Y-45676342D02*
X120055714Y-45771580D01*
X120055714Y-45771580D02*
X120103333Y-45819200D01*
X120103333Y-45819200D02*
X120198571Y-45866819D01*
X120198571Y-45866819D02*
X120389047Y-45866819D01*
X120389047Y-45866819D02*
X120484285Y-45819200D01*
X120484285Y-45819200D02*
X120531904Y-45771580D01*
X120531904Y-45771580D02*
X120579523Y-45676342D01*
X120579523Y-45676342D02*
X120579523Y-44866819D01*
X120960476Y-44866819D02*
X121627142Y-44866819D01*
X121627142Y-44866819D02*
X121198571Y-45866819D01*
X158533333Y-162554819D02*
X158200000Y-162078628D01*
X157961905Y-162554819D02*
X157961905Y-161554819D01*
X157961905Y-161554819D02*
X158342857Y-161554819D01*
X158342857Y-161554819D02*
X158438095Y-161602438D01*
X158438095Y-161602438D02*
X158485714Y-161650057D01*
X158485714Y-161650057D02*
X158533333Y-161745295D01*
X158533333Y-161745295D02*
X158533333Y-161888152D01*
X158533333Y-161888152D02*
X158485714Y-161983390D01*
X158485714Y-161983390D02*
X158438095Y-162031009D01*
X158438095Y-162031009D02*
X158342857Y-162078628D01*
X158342857Y-162078628D02*
X157961905Y-162078628D01*
X159485714Y-162554819D02*
X158914286Y-162554819D01*
X159200000Y-162554819D02*
X159200000Y-161554819D01*
X159200000Y-161554819D02*
X159104762Y-161697676D01*
X159104762Y-161697676D02*
X159009524Y-161792914D01*
X159009524Y-161792914D02*
X158914286Y-161840533D01*
X173057142Y-121154819D02*
X172723809Y-120678628D01*
X172485714Y-121154819D02*
X172485714Y-120154819D01*
X172485714Y-120154819D02*
X172866666Y-120154819D01*
X172866666Y-120154819D02*
X172961904Y-120202438D01*
X172961904Y-120202438D02*
X173009523Y-120250057D01*
X173009523Y-120250057D02*
X173057142Y-120345295D01*
X173057142Y-120345295D02*
X173057142Y-120488152D01*
X173057142Y-120488152D02*
X173009523Y-120583390D01*
X173009523Y-120583390D02*
X172961904Y-120631009D01*
X172961904Y-120631009D02*
X172866666Y-120678628D01*
X172866666Y-120678628D02*
X172485714Y-120678628D01*
X174009523Y-121154819D02*
X173438095Y-121154819D01*
X173723809Y-121154819D02*
X173723809Y-120154819D01*
X173723809Y-120154819D02*
X173628571Y-120297676D01*
X173628571Y-120297676D02*
X173533333Y-120392914D01*
X173533333Y-120392914D02*
X173438095Y-120440533D01*
X174914285Y-120154819D02*
X174438095Y-120154819D01*
X174438095Y-120154819D02*
X174390476Y-120631009D01*
X174390476Y-120631009D02*
X174438095Y-120583390D01*
X174438095Y-120583390D02*
X174533333Y-120535771D01*
X174533333Y-120535771D02*
X174771428Y-120535771D01*
X174771428Y-120535771D02*
X174866666Y-120583390D01*
X174866666Y-120583390D02*
X174914285Y-120631009D01*
X174914285Y-120631009D02*
X174961904Y-120726247D01*
X174961904Y-120726247D02*
X174961904Y-120964342D01*
X174961904Y-120964342D02*
X174914285Y-121059580D01*
X174914285Y-121059580D02*
X174866666Y-121107200D01*
X174866666Y-121107200D02*
X174771428Y-121154819D01*
X174771428Y-121154819D02*
X174533333Y-121154819D01*
X174533333Y-121154819D02*
X174438095Y-121107200D01*
X174438095Y-121107200D02*
X174390476Y-121059580D01*
X121185714Y-105804819D02*
X121185714Y-104804819D01*
X121185714Y-104804819D02*
X121423809Y-104804819D01*
X121423809Y-104804819D02*
X121566666Y-104852438D01*
X121566666Y-104852438D02*
X121661904Y-104947676D01*
X121661904Y-104947676D02*
X121709523Y-105042914D01*
X121709523Y-105042914D02*
X121757142Y-105233390D01*
X121757142Y-105233390D02*
X121757142Y-105376247D01*
X121757142Y-105376247D02*
X121709523Y-105566723D01*
X121709523Y-105566723D02*
X121661904Y-105661961D01*
X121661904Y-105661961D02*
X121566666Y-105757200D01*
X121566666Y-105757200D02*
X121423809Y-105804819D01*
X121423809Y-105804819D02*
X121185714Y-105804819D01*
X122661904Y-104804819D02*
X122185714Y-104804819D01*
X122185714Y-104804819D02*
X122138095Y-105281009D01*
X122138095Y-105281009D02*
X122185714Y-105233390D01*
X122185714Y-105233390D02*
X122280952Y-105185771D01*
X122280952Y-105185771D02*
X122519047Y-105185771D01*
X122519047Y-105185771D02*
X122614285Y-105233390D01*
X122614285Y-105233390D02*
X122661904Y-105281009D01*
X122661904Y-105281009D02*
X122709523Y-105376247D01*
X122709523Y-105376247D02*
X122709523Y-105614342D01*
X122709523Y-105614342D02*
X122661904Y-105709580D01*
X122661904Y-105709580D02*
X122614285Y-105757200D01*
X122614285Y-105757200D02*
X122519047Y-105804819D01*
X122519047Y-105804819D02*
X122280952Y-105804819D01*
X122280952Y-105804819D02*
X122185714Y-105757200D01*
X122185714Y-105757200D02*
X122138095Y-105709580D01*
X123614285Y-104804819D02*
X123138095Y-104804819D01*
X123138095Y-104804819D02*
X123090476Y-105281009D01*
X123090476Y-105281009D02*
X123138095Y-105233390D01*
X123138095Y-105233390D02*
X123233333Y-105185771D01*
X123233333Y-105185771D02*
X123471428Y-105185771D01*
X123471428Y-105185771D02*
X123566666Y-105233390D01*
X123566666Y-105233390D02*
X123614285Y-105281009D01*
X123614285Y-105281009D02*
X123661904Y-105376247D01*
X123661904Y-105376247D02*
X123661904Y-105614342D01*
X123661904Y-105614342D02*
X123614285Y-105709580D01*
X123614285Y-105709580D02*
X123566666Y-105757200D01*
X123566666Y-105757200D02*
X123471428Y-105804819D01*
X123471428Y-105804819D02*
X123233333Y-105804819D01*
X123233333Y-105804819D02*
X123138095Y-105757200D01*
X123138095Y-105757200D02*
X123090476Y-105709580D01*
X139322080Y-138166666D02*
X139369700Y-138214285D01*
X139369700Y-138214285D02*
X139417319Y-138357142D01*
X139417319Y-138357142D02*
X139417319Y-138452380D01*
X139417319Y-138452380D02*
X139369700Y-138595237D01*
X139369700Y-138595237D02*
X139274461Y-138690475D01*
X139274461Y-138690475D02*
X139179223Y-138738094D01*
X139179223Y-138738094D02*
X138988747Y-138785713D01*
X138988747Y-138785713D02*
X138845890Y-138785713D01*
X138845890Y-138785713D02*
X138655414Y-138738094D01*
X138655414Y-138738094D02*
X138560176Y-138690475D01*
X138560176Y-138690475D02*
X138464938Y-138595237D01*
X138464938Y-138595237D02*
X138417319Y-138452380D01*
X138417319Y-138452380D02*
X138417319Y-138357142D01*
X138417319Y-138357142D02*
X138464938Y-138214285D01*
X138464938Y-138214285D02*
X138512557Y-138166666D01*
X138417319Y-137261904D02*
X138417319Y-137738094D01*
X138417319Y-137738094D02*
X138893509Y-137785713D01*
X138893509Y-137785713D02*
X138845890Y-137738094D01*
X138845890Y-137738094D02*
X138798271Y-137642856D01*
X138798271Y-137642856D02*
X138798271Y-137404761D01*
X138798271Y-137404761D02*
X138845890Y-137309523D01*
X138845890Y-137309523D02*
X138893509Y-137261904D01*
X138893509Y-137261904D02*
X138988747Y-137214285D01*
X138988747Y-137214285D02*
X139226842Y-137214285D01*
X139226842Y-137214285D02*
X139322080Y-137261904D01*
X139322080Y-137261904D02*
X139369700Y-137309523D01*
X139369700Y-137309523D02*
X139417319Y-137404761D01*
X139417319Y-137404761D02*
X139417319Y-137642856D01*
X139417319Y-137642856D02*
X139369700Y-137738094D01*
X139369700Y-137738094D02*
X139322080Y-137785713D01*
X137204819Y-151664285D02*
X136204819Y-151664285D01*
X136204819Y-151664285D02*
X136204819Y-151426190D01*
X136204819Y-151426190D02*
X136252438Y-151283333D01*
X136252438Y-151283333D02*
X136347676Y-151188095D01*
X136347676Y-151188095D02*
X136442914Y-151140476D01*
X136442914Y-151140476D02*
X136633390Y-151092857D01*
X136633390Y-151092857D02*
X136776247Y-151092857D01*
X136776247Y-151092857D02*
X136966723Y-151140476D01*
X136966723Y-151140476D02*
X137061961Y-151188095D01*
X137061961Y-151188095D02*
X137157200Y-151283333D01*
X137157200Y-151283333D02*
X137204819Y-151426190D01*
X137204819Y-151426190D02*
X137204819Y-151664285D01*
X136633390Y-150521428D02*
X136585771Y-150616666D01*
X136585771Y-150616666D02*
X136538152Y-150664285D01*
X136538152Y-150664285D02*
X136442914Y-150711904D01*
X136442914Y-150711904D02*
X136395295Y-150711904D01*
X136395295Y-150711904D02*
X136300057Y-150664285D01*
X136300057Y-150664285D02*
X136252438Y-150616666D01*
X136252438Y-150616666D02*
X136204819Y-150521428D01*
X136204819Y-150521428D02*
X136204819Y-150330952D01*
X136204819Y-150330952D02*
X136252438Y-150235714D01*
X136252438Y-150235714D02*
X136300057Y-150188095D01*
X136300057Y-150188095D02*
X136395295Y-150140476D01*
X136395295Y-150140476D02*
X136442914Y-150140476D01*
X136442914Y-150140476D02*
X136538152Y-150188095D01*
X136538152Y-150188095D02*
X136585771Y-150235714D01*
X136585771Y-150235714D02*
X136633390Y-150330952D01*
X136633390Y-150330952D02*
X136633390Y-150521428D01*
X136633390Y-150521428D02*
X136681009Y-150616666D01*
X136681009Y-150616666D02*
X136728628Y-150664285D01*
X136728628Y-150664285D02*
X136823866Y-150711904D01*
X136823866Y-150711904D02*
X137014342Y-150711904D01*
X137014342Y-150711904D02*
X137109580Y-150664285D01*
X137109580Y-150664285D02*
X137157200Y-150616666D01*
X137157200Y-150616666D02*
X137204819Y-150521428D01*
X137204819Y-150521428D02*
X137204819Y-150330952D01*
X137204819Y-150330952D02*
X137157200Y-150235714D01*
X137157200Y-150235714D02*
X137109580Y-150188095D01*
X137109580Y-150188095D02*
X137014342Y-150140476D01*
X137014342Y-150140476D02*
X136823866Y-150140476D01*
X136823866Y-150140476D02*
X136728628Y-150188095D01*
X136728628Y-150188095D02*
X136681009Y-150235714D01*
X136681009Y-150235714D02*
X136633390Y-150330952D01*
X136538152Y-149283333D02*
X137204819Y-149283333D01*
X136157200Y-149521428D02*
X136871485Y-149759523D01*
X136871485Y-149759523D02*
X136871485Y-149140476D01*
X103785714Y-146134819D02*
X103785714Y-145134819D01*
X103785714Y-145134819D02*
X104023809Y-145134819D01*
X104023809Y-145134819D02*
X104166666Y-145182438D01*
X104166666Y-145182438D02*
X104261904Y-145277676D01*
X104261904Y-145277676D02*
X104309523Y-145372914D01*
X104309523Y-145372914D02*
X104357142Y-145563390D01*
X104357142Y-145563390D02*
X104357142Y-145706247D01*
X104357142Y-145706247D02*
X104309523Y-145896723D01*
X104309523Y-145896723D02*
X104261904Y-145991961D01*
X104261904Y-145991961D02*
X104166666Y-146087200D01*
X104166666Y-146087200D02*
X104023809Y-146134819D01*
X104023809Y-146134819D02*
X103785714Y-146134819D01*
X105309523Y-146134819D02*
X104738095Y-146134819D01*
X105023809Y-146134819D02*
X105023809Y-145134819D01*
X105023809Y-145134819D02*
X104928571Y-145277676D01*
X104928571Y-145277676D02*
X104833333Y-145372914D01*
X104833333Y-145372914D02*
X104738095Y-145420533D01*
X106261904Y-146134819D02*
X105690476Y-146134819D01*
X105976190Y-146134819D02*
X105976190Y-145134819D01*
X105976190Y-145134819D02*
X105880952Y-145277676D01*
X105880952Y-145277676D02*
X105785714Y-145372914D01*
X105785714Y-145372914D02*
X105690476Y-145420533D01*
X173357142Y-79959580D02*
X173309523Y-80007200D01*
X173309523Y-80007200D02*
X173166666Y-80054819D01*
X173166666Y-80054819D02*
X173071428Y-80054819D01*
X173071428Y-80054819D02*
X172928571Y-80007200D01*
X172928571Y-80007200D02*
X172833333Y-79911961D01*
X172833333Y-79911961D02*
X172785714Y-79816723D01*
X172785714Y-79816723D02*
X172738095Y-79626247D01*
X172738095Y-79626247D02*
X172738095Y-79483390D01*
X172738095Y-79483390D02*
X172785714Y-79292914D01*
X172785714Y-79292914D02*
X172833333Y-79197676D01*
X172833333Y-79197676D02*
X172928571Y-79102438D01*
X172928571Y-79102438D02*
X173071428Y-79054819D01*
X173071428Y-79054819D02*
X173166666Y-79054819D01*
X173166666Y-79054819D02*
X173309523Y-79102438D01*
X173309523Y-79102438D02*
X173357142Y-79150057D01*
X174309523Y-80054819D02*
X173738095Y-80054819D01*
X174023809Y-80054819D02*
X174023809Y-79054819D01*
X174023809Y-79054819D02*
X173928571Y-79197676D01*
X173928571Y-79197676D02*
X173833333Y-79292914D01*
X173833333Y-79292914D02*
X173738095Y-79340533D01*
X174928571Y-79054819D02*
X175023809Y-79054819D01*
X175023809Y-79054819D02*
X175119047Y-79102438D01*
X175119047Y-79102438D02*
X175166666Y-79150057D01*
X175166666Y-79150057D02*
X175214285Y-79245295D01*
X175214285Y-79245295D02*
X175261904Y-79435771D01*
X175261904Y-79435771D02*
X175261904Y-79673866D01*
X175261904Y-79673866D02*
X175214285Y-79864342D01*
X175214285Y-79864342D02*
X175166666Y-79959580D01*
X175166666Y-79959580D02*
X175119047Y-80007200D01*
X175119047Y-80007200D02*
X175023809Y-80054819D01*
X175023809Y-80054819D02*
X174928571Y-80054819D01*
X174928571Y-80054819D02*
X174833333Y-80007200D01*
X174833333Y-80007200D02*
X174785714Y-79959580D01*
X174785714Y-79959580D02*
X174738095Y-79864342D01*
X174738095Y-79864342D02*
X174690476Y-79673866D01*
X174690476Y-79673866D02*
X174690476Y-79435771D01*
X174690476Y-79435771D02*
X174738095Y-79245295D01*
X174738095Y-79245295D02*
X174785714Y-79150057D01*
X174785714Y-79150057D02*
X174833333Y-79102438D01*
X174833333Y-79102438D02*
X174928571Y-79054819D01*
X125198214Y-80054819D02*
X125198214Y-79054819D01*
X125198214Y-79054819D02*
X125436309Y-79054819D01*
X125436309Y-79054819D02*
X125579166Y-79102438D01*
X125579166Y-79102438D02*
X125674404Y-79197676D01*
X125674404Y-79197676D02*
X125722023Y-79292914D01*
X125722023Y-79292914D02*
X125769642Y-79483390D01*
X125769642Y-79483390D02*
X125769642Y-79626247D01*
X125769642Y-79626247D02*
X125722023Y-79816723D01*
X125722023Y-79816723D02*
X125674404Y-79911961D01*
X125674404Y-79911961D02*
X125579166Y-80007200D01*
X125579166Y-80007200D02*
X125436309Y-80054819D01*
X125436309Y-80054819D02*
X125198214Y-80054819D01*
X126102976Y-79054819D02*
X126722023Y-79054819D01*
X126722023Y-79054819D02*
X126388690Y-79435771D01*
X126388690Y-79435771D02*
X126531547Y-79435771D01*
X126531547Y-79435771D02*
X126626785Y-79483390D01*
X126626785Y-79483390D02*
X126674404Y-79531009D01*
X126674404Y-79531009D02*
X126722023Y-79626247D01*
X126722023Y-79626247D02*
X126722023Y-79864342D01*
X126722023Y-79864342D02*
X126674404Y-79959580D01*
X126674404Y-79959580D02*
X126626785Y-80007200D01*
X126626785Y-80007200D02*
X126531547Y-80054819D01*
X126531547Y-80054819D02*
X126245833Y-80054819D01*
X126245833Y-80054819D02*
X126150595Y-80007200D01*
X126150595Y-80007200D02*
X126102976Y-79959580D01*
X127055357Y-79054819D02*
X127722023Y-79054819D01*
X127722023Y-79054819D02*
X127293452Y-80054819D01*
X140359580Y-135166666D02*
X140407200Y-135214285D01*
X140407200Y-135214285D02*
X140454819Y-135357142D01*
X140454819Y-135357142D02*
X140454819Y-135452380D01*
X140454819Y-135452380D02*
X140407200Y-135595237D01*
X140407200Y-135595237D02*
X140311961Y-135690475D01*
X140311961Y-135690475D02*
X140216723Y-135738094D01*
X140216723Y-135738094D02*
X140026247Y-135785713D01*
X140026247Y-135785713D02*
X139883390Y-135785713D01*
X139883390Y-135785713D02*
X139692914Y-135738094D01*
X139692914Y-135738094D02*
X139597676Y-135690475D01*
X139597676Y-135690475D02*
X139502438Y-135595237D01*
X139502438Y-135595237D02*
X139454819Y-135452380D01*
X139454819Y-135452380D02*
X139454819Y-135357142D01*
X139454819Y-135357142D02*
X139502438Y-135214285D01*
X139502438Y-135214285D02*
X139550057Y-135166666D01*
X139788152Y-134309523D02*
X140454819Y-134309523D01*
X139407200Y-134547618D02*
X140121485Y-134785713D01*
X140121485Y-134785713D02*
X140121485Y-134166666D01*
X166833333Y-152159580D02*
X166785714Y-152207200D01*
X166785714Y-152207200D02*
X166642857Y-152254819D01*
X166642857Y-152254819D02*
X166547619Y-152254819D01*
X166547619Y-152254819D02*
X166404762Y-152207200D01*
X166404762Y-152207200D02*
X166309524Y-152111961D01*
X166309524Y-152111961D02*
X166261905Y-152016723D01*
X166261905Y-152016723D02*
X166214286Y-151826247D01*
X166214286Y-151826247D02*
X166214286Y-151683390D01*
X166214286Y-151683390D02*
X166261905Y-151492914D01*
X166261905Y-151492914D02*
X166309524Y-151397676D01*
X166309524Y-151397676D02*
X166404762Y-151302438D01*
X166404762Y-151302438D02*
X166547619Y-151254819D01*
X166547619Y-151254819D02*
X166642857Y-151254819D01*
X166642857Y-151254819D02*
X166785714Y-151302438D01*
X166785714Y-151302438D02*
X166833333Y-151350057D01*
X167785714Y-152254819D02*
X167214286Y-152254819D01*
X167500000Y-152254819D02*
X167500000Y-151254819D01*
X167500000Y-151254819D02*
X167404762Y-151397676D01*
X167404762Y-151397676D02*
X167309524Y-151492914D01*
X167309524Y-151492914D02*
X167214286Y-151540533D01*
X110461905Y-155384819D02*
X110461905Y-154384819D01*
X110461905Y-154384819D02*
X110700000Y-154384819D01*
X110700000Y-154384819D02*
X110842857Y-154432438D01*
X110842857Y-154432438D02*
X110938095Y-154527676D01*
X110938095Y-154527676D02*
X110985714Y-154622914D01*
X110985714Y-154622914D02*
X111033333Y-154813390D01*
X111033333Y-154813390D02*
X111033333Y-154956247D01*
X111033333Y-154956247D02*
X110985714Y-155146723D01*
X110985714Y-155146723D02*
X110938095Y-155241961D01*
X110938095Y-155241961D02*
X110842857Y-155337200D01*
X110842857Y-155337200D02*
X110700000Y-155384819D01*
X110700000Y-155384819D02*
X110461905Y-155384819D01*
X111509524Y-155384819D02*
X111700000Y-155384819D01*
X111700000Y-155384819D02*
X111795238Y-155337200D01*
X111795238Y-155337200D02*
X111842857Y-155289580D01*
X111842857Y-155289580D02*
X111938095Y-155146723D01*
X111938095Y-155146723D02*
X111985714Y-154956247D01*
X111985714Y-154956247D02*
X111985714Y-154575295D01*
X111985714Y-154575295D02*
X111938095Y-154480057D01*
X111938095Y-154480057D02*
X111890476Y-154432438D01*
X111890476Y-154432438D02*
X111795238Y-154384819D01*
X111795238Y-154384819D02*
X111604762Y-154384819D01*
X111604762Y-154384819D02*
X111509524Y-154432438D01*
X111509524Y-154432438D02*
X111461905Y-154480057D01*
X111461905Y-154480057D02*
X111414286Y-154575295D01*
X111414286Y-154575295D02*
X111414286Y-154813390D01*
X111414286Y-154813390D02*
X111461905Y-154908628D01*
X111461905Y-154908628D02*
X111509524Y-154956247D01*
X111509524Y-154956247D02*
X111604762Y-155003866D01*
X111604762Y-155003866D02*
X111795238Y-155003866D01*
X111795238Y-155003866D02*
X111890476Y-154956247D01*
X111890476Y-154956247D02*
X111938095Y-154908628D01*
X111938095Y-154908628D02*
X111985714Y-154813390D01*
X157361069Y-23706098D02*
X156361069Y-23706098D01*
X156361069Y-23706098D02*
X156361069Y-23468003D01*
X156361069Y-23468003D02*
X156408688Y-23325146D01*
X156408688Y-23325146D02*
X156503926Y-23229908D01*
X156503926Y-23229908D02*
X156599164Y-23182289D01*
X156599164Y-23182289D02*
X156789640Y-23134670D01*
X156789640Y-23134670D02*
X156932497Y-23134670D01*
X156932497Y-23134670D02*
X157122973Y-23182289D01*
X157122973Y-23182289D02*
X157218211Y-23229908D01*
X157218211Y-23229908D02*
X157313450Y-23325146D01*
X157313450Y-23325146D02*
X157361069Y-23468003D01*
X157361069Y-23468003D02*
X157361069Y-23706098D01*
X156361069Y-22801336D02*
X156361069Y-22182289D01*
X156361069Y-22182289D02*
X156742021Y-22515622D01*
X156742021Y-22515622D02*
X156742021Y-22372765D01*
X156742021Y-22372765D02*
X156789640Y-22277527D01*
X156789640Y-22277527D02*
X156837259Y-22229908D01*
X156837259Y-22229908D02*
X156932497Y-22182289D01*
X156932497Y-22182289D02*
X157170592Y-22182289D01*
X157170592Y-22182289D02*
X157265830Y-22229908D01*
X157265830Y-22229908D02*
X157313450Y-22277527D01*
X157313450Y-22277527D02*
X157361069Y-22372765D01*
X157361069Y-22372765D02*
X157361069Y-22658479D01*
X157361069Y-22658479D02*
X157313450Y-22753717D01*
X157313450Y-22753717D02*
X157265830Y-22801336D01*
X150443317Y-23206204D02*
X151309343Y-22706204D01*
X151309343Y-22706204D02*
X151428390Y-22912401D01*
X151428390Y-22912401D02*
X151458580Y-23059928D01*
X151458580Y-23059928D02*
X151423720Y-23190026D01*
X151423720Y-23190026D02*
X151365051Y-23278884D01*
X151365051Y-23278884D02*
X151223903Y-23415362D01*
X151223903Y-23415362D02*
X151100185Y-23486790D01*
X151100185Y-23486790D02*
X150911419Y-23540789D01*
X150911419Y-23540789D02*
X150805130Y-23547169D01*
X150805130Y-23547169D02*
X150675033Y-23512309D01*
X150675033Y-23512309D02*
X150562365Y-23412401D01*
X150562365Y-23412401D02*
X150443317Y-23206204D01*
X151703055Y-23578609D02*
X151768103Y-23596039D01*
X151768103Y-23596039D02*
X151856962Y-23654708D01*
X151856962Y-23654708D02*
X151976009Y-23860905D01*
X151976009Y-23860905D02*
X151982389Y-23967193D01*
X151982389Y-23967193D02*
X151964959Y-24032242D01*
X151964959Y-24032242D02*
X151906290Y-24121100D01*
X151906290Y-24121100D02*
X151823812Y-24168719D01*
X151823812Y-24168719D02*
X151676284Y-24198908D01*
X151676284Y-24198908D02*
X150895698Y-23989751D01*
X150895698Y-23989751D02*
X151205222Y-24525862D01*
X103535714Y-130204819D02*
X103535714Y-129204819D01*
X103535714Y-129204819D02*
X103773809Y-129204819D01*
X103773809Y-129204819D02*
X103916666Y-129252438D01*
X103916666Y-129252438D02*
X104011904Y-129347676D01*
X104011904Y-129347676D02*
X104059523Y-129442914D01*
X104059523Y-129442914D02*
X104107142Y-129633390D01*
X104107142Y-129633390D02*
X104107142Y-129776247D01*
X104107142Y-129776247D02*
X104059523Y-129966723D01*
X104059523Y-129966723D02*
X104011904Y-130061961D01*
X104011904Y-130061961D02*
X103916666Y-130157200D01*
X103916666Y-130157200D02*
X103773809Y-130204819D01*
X103773809Y-130204819D02*
X103535714Y-130204819D01*
X105059523Y-130204819D02*
X104488095Y-130204819D01*
X104773809Y-130204819D02*
X104773809Y-129204819D01*
X104773809Y-129204819D02*
X104678571Y-129347676D01*
X104678571Y-129347676D02*
X104583333Y-129442914D01*
X104583333Y-129442914D02*
X104488095Y-129490533D01*
X105916666Y-129538152D02*
X105916666Y-130204819D01*
X105678571Y-129157200D02*
X105440476Y-129871485D01*
X105440476Y-129871485D02*
X106059523Y-129871485D01*
X123785714Y-58004819D02*
X123785714Y-57004819D01*
X123785714Y-57004819D02*
X124023809Y-57004819D01*
X124023809Y-57004819D02*
X124166666Y-57052438D01*
X124166666Y-57052438D02*
X124261904Y-57147676D01*
X124261904Y-57147676D02*
X124309523Y-57242914D01*
X124309523Y-57242914D02*
X124357142Y-57433390D01*
X124357142Y-57433390D02*
X124357142Y-57576247D01*
X124357142Y-57576247D02*
X124309523Y-57766723D01*
X124309523Y-57766723D02*
X124261904Y-57861961D01*
X124261904Y-57861961D02*
X124166666Y-57957200D01*
X124166666Y-57957200D02*
X124023809Y-58004819D01*
X124023809Y-58004819D02*
X123785714Y-58004819D01*
X125309523Y-58004819D02*
X124738095Y-58004819D01*
X125023809Y-58004819D02*
X125023809Y-57004819D01*
X125023809Y-57004819D02*
X124928571Y-57147676D01*
X124928571Y-57147676D02*
X124833333Y-57242914D01*
X124833333Y-57242914D02*
X124738095Y-57290533D01*
X125880952Y-57433390D02*
X125785714Y-57385771D01*
X125785714Y-57385771D02*
X125738095Y-57338152D01*
X125738095Y-57338152D02*
X125690476Y-57242914D01*
X125690476Y-57242914D02*
X125690476Y-57195295D01*
X125690476Y-57195295D02*
X125738095Y-57100057D01*
X125738095Y-57100057D02*
X125785714Y-57052438D01*
X125785714Y-57052438D02*
X125880952Y-57004819D01*
X125880952Y-57004819D02*
X126071428Y-57004819D01*
X126071428Y-57004819D02*
X126166666Y-57052438D01*
X126166666Y-57052438D02*
X126214285Y-57100057D01*
X126214285Y-57100057D02*
X126261904Y-57195295D01*
X126261904Y-57195295D02*
X126261904Y-57242914D01*
X126261904Y-57242914D02*
X126214285Y-57338152D01*
X126214285Y-57338152D02*
X126166666Y-57385771D01*
X126166666Y-57385771D02*
X126071428Y-57433390D01*
X126071428Y-57433390D02*
X125880952Y-57433390D01*
X125880952Y-57433390D02*
X125785714Y-57481009D01*
X125785714Y-57481009D02*
X125738095Y-57528628D01*
X125738095Y-57528628D02*
X125690476Y-57623866D01*
X125690476Y-57623866D02*
X125690476Y-57814342D01*
X125690476Y-57814342D02*
X125738095Y-57909580D01*
X125738095Y-57909580D02*
X125785714Y-57957200D01*
X125785714Y-57957200D02*
X125880952Y-58004819D01*
X125880952Y-58004819D02*
X126071428Y-58004819D01*
X126071428Y-58004819D02*
X126166666Y-57957200D01*
X126166666Y-57957200D02*
X126214285Y-57909580D01*
X126214285Y-57909580D02*
X126261904Y-57814342D01*
X126261904Y-57814342D02*
X126261904Y-57623866D01*
X126261904Y-57623866D02*
X126214285Y-57528628D01*
X126214285Y-57528628D02*
X126166666Y-57481009D01*
X126166666Y-57481009D02*
X126071428Y-57433390D01*
X122123214Y-102204819D02*
X122123214Y-101204819D01*
X122123214Y-101204819D02*
X122361309Y-101204819D01*
X122361309Y-101204819D02*
X122504166Y-101252438D01*
X122504166Y-101252438D02*
X122599404Y-101347676D01*
X122599404Y-101347676D02*
X122647023Y-101442914D01*
X122647023Y-101442914D02*
X122694642Y-101633390D01*
X122694642Y-101633390D02*
X122694642Y-101776247D01*
X122694642Y-101776247D02*
X122647023Y-101966723D01*
X122647023Y-101966723D02*
X122599404Y-102061961D01*
X122599404Y-102061961D02*
X122504166Y-102157200D01*
X122504166Y-102157200D02*
X122361309Y-102204819D01*
X122361309Y-102204819D02*
X122123214Y-102204819D01*
X123027976Y-101204819D02*
X123647023Y-101204819D01*
X123647023Y-101204819D02*
X123313690Y-101585771D01*
X123313690Y-101585771D02*
X123456547Y-101585771D01*
X123456547Y-101585771D02*
X123551785Y-101633390D01*
X123551785Y-101633390D02*
X123599404Y-101681009D01*
X123599404Y-101681009D02*
X123647023Y-101776247D01*
X123647023Y-101776247D02*
X123647023Y-102014342D01*
X123647023Y-102014342D02*
X123599404Y-102109580D01*
X123599404Y-102109580D02*
X123551785Y-102157200D01*
X123551785Y-102157200D02*
X123456547Y-102204819D01*
X123456547Y-102204819D02*
X123170833Y-102204819D01*
X123170833Y-102204819D02*
X123075595Y-102157200D01*
X123075595Y-102157200D02*
X123027976Y-102109580D01*
X123980357Y-101204819D02*
X124599404Y-101204819D01*
X124599404Y-101204819D02*
X124266071Y-101585771D01*
X124266071Y-101585771D02*
X124408928Y-101585771D01*
X124408928Y-101585771D02*
X124504166Y-101633390D01*
X124504166Y-101633390D02*
X124551785Y-101681009D01*
X124551785Y-101681009D02*
X124599404Y-101776247D01*
X124599404Y-101776247D02*
X124599404Y-102014342D01*
X124599404Y-102014342D02*
X124551785Y-102109580D01*
X124551785Y-102109580D02*
X124504166Y-102157200D01*
X124504166Y-102157200D02*
X124408928Y-102204819D01*
X124408928Y-102204819D02*
X124123214Y-102204819D01*
X124123214Y-102204819D02*
X124027976Y-102157200D01*
X124027976Y-102157200D02*
X123980357Y-102109580D01*
X108407142Y-159209580D02*
X108359523Y-159257200D01*
X108359523Y-159257200D02*
X108216666Y-159304819D01*
X108216666Y-159304819D02*
X108121428Y-159304819D01*
X108121428Y-159304819D02*
X107978571Y-159257200D01*
X107978571Y-159257200D02*
X107883333Y-159161961D01*
X107883333Y-159161961D02*
X107835714Y-159066723D01*
X107835714Y-159066723D02*
X107788095Y-158876247D01*
X107788095Y-158876247D02*
X107788095Y-158733390D01*
X107788095Y-158733390D02*
X107835714Y-158542914D01*
X107835714Y-158542914D02*
X107883333Y-158447676D01*
X107883333Y-158447676D02*
X107978571Y-158352438D01*
X107978571Y-158352438D02*
X108121428Y-158304819D01*
X108121428Y-158304819D02*
X108216666Y-158304819D01*
X108216666Y-158304819D02*
X108359523Y-158352438D01*
X108359523Y-158352438D02*
X108407142Y-158400057D01*
X109359523Y-159304819D02*
X108788095Y-159304819D01*
X109073809Y-159304819D02*
X109073809Y-158304819D01*
X109073809Y-158304819D02*
X108978571Y-158447676D01*
X108978571Y-158447676D02*
X108883333Y-158542914D01*
X108883333Y-158542914D02*
X108788095Y-158590533D01*
X109835714Y-159304819D02*
X110026190Y-159304819D01*
X110026190Y-159304819D02*
X110121428Y-159257200D01*
X110121428Y-159257200D02*
X110169047Y-159209580D01*
X110169047Y-159209580D02*
X110264285Y-159066723D01*
X110264285Y-159066723D02*
X110311904Y-158876247D01*
X110311904Y-158876247D02*
X110311904Y-158495295D01*
X110311904Y-158495295D02*
X110264285Y-158400057D01*
X110264285Y-158400057D02*
X110216666Y-158352438D01*
X110216666Y-158352438D02*
X110121428Y-158304819D01*
X110121428Y-158304819D02*
X109930952Y-158304819D01*
X109930952Y-158304819D02*
X109835714Y-158352438D01*
X109835714Y-158352438D02*
X109788095Y-158400057D01*
X109788095Y-158400057D02*
X109740476Y-158495295D01*
X109740476Y-158495295D02*
X109740476Y-158733390D01*
X109740476Y-158733390D02*
X109788095Y-158828628D01*
X109788095Y-158828628D02*
X109835714Y-158876247D01*
X109835714Y-158876247D02*
X109930952Y-158923866D01*
X109930952Y-158923866D02*
X110121428Y-158923866D01*
X110121428Y-158923866D02*
X110216666Y-158876247D01*
X110216666Y-158876247D02*
X110264285Y-158828628D01*
X110264285Y-158828628D02*
X110311904Y-158733390D01*
X131385714Y-43854819D02*
X131385714Y-42854819D01*
X131385714Y-42854819D02*
X131623809Y-42854819D01*
X131623809Y-42854819D02*
X131766666Y-42902438D01*
X131766666Y-42902438D02*
X131861904Y-42997676D01*
X131861904Y-42997676D02*
X131909523Y-43092914D01*
X131909523Y-43092914D02*
X131957142Y-43283390D01*
X131957142Y-43283390D02*
X131957142Y-43426247D01*
X131957142Y-43426247D02*
X131909523Y-43616723D01*
X131909523Y-43616723D02*
X131861904Y-43711961D01*
X131861904Y-43711961D02*
X131766666Y-43807200D01*
X131766666Y-43807200D02*
X131623809Y-43854819D01*
X131623809Y-43854819D02*
X131385714Y-43854819D01*
X132338095Y-42950057D02*
X132385714Y-42902438D01*
X132385714Y-42902438D02*
X132480952Y-42854819D01*
X132480952Y-42854819D02*
X132719047Y-42854819D01*
X132719047Y-42854819D02*
X132814285Y-42902438D01*
X132814285Y-42902438D02*
X132861904Y-42950057D01*
X132861904Y-42950057D02*
X132909523Y-43045295D01*
X132909523Y-43045295D02*
X132909523Y-43140533D01*
X132909523Y-43140533D02*
X132861904Y-43283390D01*
X132861904Y-43283390D02*
X132290476Y-43854819D01*
X132290476Y-43854819D02*
X132909523Y-43854819D01*
X133528571Y-42854819D02*
X133623809Y-42854819D01*
X133623809Y-42854819D02*
X133719047Y-42902438D01*
X133719047Y-42902438D02*
X133766666Y-42950057D01*
X133766666Y-42950057D02*
X133814285Y-43045295D01*
X133814285Y-43045295D02*
X133861904Y-43235771D01*
X133861904Y-43235771D02*
X133861904Y-43473866D01*
X133861904Y-43473866D02*
X133814285Y-43664342D01*
X133814285Y-43664342D02*
X133766666Y-43759580D01*
X133766666Y-43759580D02*
X133719047Y-43807200D01*
X133719047Y-43807200D02*
X133623809Y-43854819D01*
X133623809Y-43854819D02*
X133528571Y-43854819D01*
X133528571Y-43854819D02*
X133433333Y-43807200D01*
X133433333Y-43807200D02*
X133385714Y-43759580D01*
X133385714Y-43759580D02*
X133338095Y-43664342D01*
X133338095Y-43664342D02*
X133290476Y-43473866D01*
X133290476Y-43473866D02*
X133290476Y-43235771D01*
X133290476Y-43235771D02*
X133338095Y-43045295D01*
X133338095Y-43045295D02*
X133385714Y-42950057D01*
X133385714Y-42950057D02*
X133433333Y-42902438D01*
X133433333Y-42902438D02*
X133528571Y-42854819D01*
X106584819Y-70076785D02*
X105584819Y-70076785D01*
X105584819Y-70076785D02*
X105584819Y-69838690D01*
X105584819Y-69838690D02*
X105632438Y-69695833D01*
X105632438Y-69695833D02*
X105727676Y-69600595D01*
X105727676Y-69600595D02*
X105822914Y-69552976D01*
X105822914Y-69552976D02*
X106013390Y-69505357D01*
X106013390Y-69505357D02*
X106156247Y-69505357D01*
X106156247Y-69505357D02*
X106346723Y-69552976D01*
X106346723Y-69552976D02*
X106441961Y-69600595D01*
X106441961Y-69600595D02*
X106537200Y-69695833D01*
X106537200Y-69695833D02*
X106584819Y-69838690D01*
X106584819Y-69838690D02*
X106584819Y-70076785D01*
X105918152Y-68648214D02*
X106584819Y-68648214D01*
X105537200Y-68886309D02*
X106251485Y-69124404D01*
X106251485Y-69124404D02*
X106251485Y-68505357D01*
X106584819Y-68076785D02*
X106584819Y-67886309D01*
X106584819Y-67886309D02*
X106537200Y-67791071D01*
X106537200Y-67791071D02*
X106489580Y-67743452D01*
X106489580Y-67743452D02*
X106346723Y-67648214D01*
X106346723Y-67648214D02*
X106156247Y-67600595D01*
X106156247Y-67600595D02*
X105775295Y-67600595D01*
X105775295Y-67600595D02*
X105680057Y-67648214D01*
X105680057Y-67648214D02*
X105632438Y-67695833D01*
X105632438Y-67695833D02*
X105584819Y-67791071D01*
X105584819Y-67791071D02*
X105584819Y-67981547D01*
X105584819Y-67981547D02*
X105632438Y-68076785D01*
X105632438Y-68076785D02*
X105680057Y-68124404D01*
X105680057Y-68124404D02*
X105775295Y-68172023D01*
X105775295Y-68172023D02*
X106013390Y-68172023D01*
X106013390Y-68172023D02*
X106108628Y-68124404D01*
X106108628Y-68124404D02*
X106156247Y-68076785D01*
X106156247Y-68076785D02*
X106203866Y-67981547D01*
X106203866Y-67981547D02*
X106203866Y-67791071D01*
X106203866Y-67791071D02*
X106156247Y-67695833D01*
X106156247Y-67695833D02*
X106108628Y-67648214D01*
X106108628Y-67648214D02*
X106013390Y-67600595D01*
X134538993Y-33842991D02*
X135038993Y-32976966D01*
X135038993Y-32976966D02*
X135245189Y-33096014D01*
X135245189Y-33096014D02*
X135345098Y-33208682D01*
X135345098Y-33208682D02*
X135379957Y-33338779D01*
X135379957Y-33338779D02*
X135373577Y-33445067D01*
X135373577Y-33445067D02*
X135319579Y-33633834D01*
X135319579Y-33633834D02*
X135248150Y-33757552D01*
X135248150Y-33757552D02*
X135111673Y-33898700D01*
X135111673Y-33898700D02*
X135022814Y-33957369D01*
X135022814Y-33957369D02*
X134892717Y-33992228D01*
X134892717Y-33992228D02*
X134745189Y-33962039D01*
X134745189Y-33962039D02*
X134538993Y-33842991D01*
X135816160Y-33535635D02*
X135881209Y-33518205D01*
X135881209Y-33518205D02*
X135987497Y-33524585D01*
X135987497Y-33524585D02*
X136193693Y-33643633D01*
X136193693Y-33643633D02*
X136252362Y-33732491D01*
X136252362Y-33732491D02*
X136269792Y-33797540D01*
X136269792Y-33797540D02*
X136263412Y-33903828D01*
X136263412Y-33903828D02*
X136215793Y-33986307D01*
X136215793Y-33986307D02*
X136103125Y-34086215D01*
X136103125Y-34086215D02*
X135322539Y-34295372D01*
X135322539Y-34295372D02*
X135858650Y-34604896D01*
X136640946Y-34011826D02*
X136705995Y-33994396D01*
X136705995Y-33994396D02*
X136812283Y-34000776D01*
X136812283Y-34000776D02*
X137018479Y-34119823D01*
X137018479Y-34119823D02*
X137077148Y-34208682D01*
X137077148Y-34208682D02*
X137094578Y-34273730D01*
X137094578Y-34273730D02*
X137088198Y-34380019D01*
X137088198Y-34380019D02*
X137040579Y-34462497D01*
X137040579Y-34462497D02*
X136927912Y-34562406D01*
X136927912Y-34562406D02*
X136147326Y-34771563D01*
X136147326Y-34771563D02*
X136683437Y-35081087D01*
X156882142Y-131054819D02*
X156548809Y-130578628D01*
X156310714Y-131054819D02*
X156310714Y-130054819D01*
X156310714Y-130054819D02*
X156691666Y-130054819D01*
X156691666Y-130054819D02*
X156786904Y-130102438D01*
X156786904Y-130102438D02*
X156834523Y-130150057D01*
X156834523Y-130150057D02*
X156882142Y-130245295D01*
X156882142Y-130245295D02*
X156882142Y-130388152D01*
X156882142Y-130388152D02*
X156834523Y-130483390D01*
X156834523Y-130483390D02*
X156786904Y-130531009D01*
X156786904Y-130531009D02*
X156691666Y-130578628D01*
X156691666Y-130578628D02*
X156310714Y-130578628D01*
X157834523Y-131054819D02*
X157263095Y-131054819D01*
X157548809Y-131054819D02*
X157548809Y-130054819D01*
X157548809Y-130054819D02*
X157453571Y-130197676D01*
X157453571Y-130197676D02*
X157358333Y-130292914D01*
X157358333Y-130292914D02*
X157263095Y-130340533D01*
X158691666Y-130054819D02*
X158501190Y-130054819D01*
X158501190Y-130054819D02*
X158405952Y-130102438D01*
X158405952Y-130102438D02*
X158358333Y-130150057D01*
X158358333Y-130150057D02*
X158263095Y-130292914D01*
X158263095Y-130292914D02*
X158215476Y-130483390D01*
X158215476Y-130483390D02*
X158215476Y-130864342D01*
X158215476Y-130864342D02*
X158263095Y-130959580D01*
X158263095Y-130959580D02*
X158310714Y-131007200D01*
X158310714Y-131007200D02*
X158405952Y-131054819D01*
X158405952Y-131054819D02*
X158596428Y-131054819D01*
X158596428Y-131054819D02*
X158691666Y-131007200D01*
X158691666Y-131007200D02*
X158739285Y-130959580D01*
X158739285Y-130959580D02*
X158786904Y-130864342D01*
X158786904Y-130864342D02*
X158786904Y-130626247D01*
X158786904Y-130626247D02*
X158739285Y-130531009D01*
X158739285Y-130531009D02*
X158691666Y-130483390D01*
X158691666Y-130483390D02*
X158596428Y-130435771D01*
X158596428Y-130435771D02*
X158405952Y-130435771D01*
X158405952Y-130435771D02*
X158310714Y-130483390D01*
X158310714Y-130483390D02*
X158263095Y-130531009D01*
X158263095Y-130531009D02*
X158215476Y-130626247D01*
X126434819Y-158114285D02*
X125434819Y-158114285D01*
X125434819Y-158114285D02*
X125434819Y-157876190D01*
X125434819Y-157876190D02*
X125482438Y-157733333D01*
X125482438Y-157733333D02*
X125577676Y-157638095D01*
X125577676Y-157638095D02*
X125672914Y-157590476D01*
X125672914Y-157590476D02*
X125863390Y-157542857D01*
X125863390Y-157542857D02*
X126006247Y-157542857D01*
X126006247Y-157542857D02*
X126196723Y-157590476D01*
X126196723Y-157590476D02*
X126291961Y-157638095D01*
X126291961Y-157638095D02*
X126387200Y-157733333D01*
X126387200Y-157733333D02*
X126434819Y-157876190D01*
X126434819Y-157876190D02*
X126434819Y-158114285D01*
X125434819Y-157209523D02*
X125434819Y-156542857D01*
X125434819Y-156542857D02*
X126434819Y-156971428D01*
X125530057Y-156209523D02*
X125482438Y-156161904D01*
X125482438Y-156161904D02*
X125434819Y-156066666D01*
X125434819Y-156066666D02*
X125434819Y-155828571D01*
X125434819Y-155828571D02*
X125482438Y-155733333D01*
X125482438Y-155733333D02*
X125530057Y-155685714D01*
X125530057Y-155685714D02*
X125625295Y-155638095D01*
X125625295Y-155638095D02*
X125720533Y-155638095D01*
X125720533Y-155638095D02*
X125863390Y-155685714D01*
X125863390Y-155685714D02*
X126434819Y-156257142D01*
X126434819Y-156257142D02*
X126434819Y-155638095D01*
X133116666Y-154504819D02*
X133116666Y-155219104D01*
X133116666Y-155219104D02*
X133069047Y-155361961D01*
X133069047Y-155361961D02*
X132973809Y-155457200D01*
X132973809Y-155457200D02*
X132830952Y-155504819D01*
X132830952Y-155504819D02*
X132735714Y-155504819D01*
X134116666Y-155504819D02*
X133545238Y-155504819D01*
X133830952Y-155504819D02*
X133830952Y-154504819D01*
X133830952Y-154504819D02*
X133735714Y-154647676D01*
X133735714Y-154647676D02*
X133640476Y-154742914D01*
X133640476Y-154742914D02*
X133545238Y-154790533D01*
X125398214Y-75254819D02*
X125398214Y-74254819D01*
X125398214Y-74254819D02*
X125636309Y-74254819D01*
X125636309Y-74254819D02*
X125779166Y-74302438D01*
X125779166Y-74302438D02*
X125874404Y-74397676D01*
X125874404Y-74397676D02*
X125922023Y-74492914D01*
X125922023Y-74492914D02*
X125969642Y-74683390D01*
X125969642Y-74683390D02*
X125969642Y-74826247D01*
X125969642Y-74826247D02*
X125922023Y-75016723D01*
X125922023Y-75016723D02*
X125874404Y-75111961D01*
X125874404Y-75111961D02*
X125779166Y-75207200D01*
X125779166Y-75207200D02*
X125636309Y-75254819D01*
X125636309Y-75254819D02*
X125398214Y-75254819D01*
X126302976Y-74254819D02*
X126922023Y-74254819D01*
X126922023Y-74254819D02*
X126588690Y-74635771D01*
X126588690Y-74635771D02*
X126731547Y-74635771D01*
X126731547Y-74635771D02*
X126826785Y-74683390D01*
X126826785Y-74683390D02*
X126874404Y-74731009D01*
X126874404Y-74731009D02*
X126922023Y-74826247D01*
X126922023Y-74826247D02*
X126922023Y-75064342D01*
X126922023Y-75064342D02*
X126874404Y-75159580D01*
X126874404Y-75159580D02*
X126826785Y-75207200D01*
X126826785Y-75207200D02*
X126731547Y-75254819D01*
X126731547Y-75254819D02*
X126445833Y-75254819D01*
X126445833Y-75254819D02*
X126350595Y-75207200D01*
X126350595Y-75207200D02*
X126302976Y-75159580D01*
X127493452Y-74683390D02*
X127398214Y-74635771D01*
X127398214Y-74635771D02*
X127350595Y-74588152D01*
X127350595Y-74588152D02*
X127302976Y-74492914D01*
X127302976Y-74492914D02*
X127302976Y-74445295D01*
X127302976Y-74445295D02*
X127350595Y-74350057D01*
X127350595Y-74350057D02*
X127398214Y-74302438D01*
X127398214Y-74302438D02*
X127493452Y-74254819D01*
X127493452Y-74254819D02*
X127683928Y-74254819D01*
X127683928Y-74254819D02*
X127779166Y-74302438D01*
X127779166Y-74302438D02*
X127826785Y-74350057D01*
X127826785Y-74350057D02*
X127874404Y-74445295D01*
X127874404Y-74445295D02*
X127874404Y-74492914D01*
X127874404Y-74492914D02*
X127826785Y-74588152D01*
X127826785Y-74588152D02*
X127779166Y-74635771D01*
X127779166Y-74635771D02*
X127683928Y-74683390D01*
X127683928Y-74683390D02*
X127493452Y-74683390D01*
X127493452Y-74683390D02*
X127398214Y-74731009D01*
X127398214Y-74731009D02*
X127350595Y-74778628D01*
X127350595Y-74778628D02*
X127302976Y-74873866D01*
X127302976Y-74873866D02*
X127302976Y-75064342D01*
X127302976Y-75064342D02*
X127350595Y-75159580D01*
X127350595Y-75159580D02*
X127398214Y-75207200D01*
X127398214Y-75207200D02*
X127493452Y-75254819D01*
X127493452Y-75254819D02*
X127683928Y-75254819D01*
X127683928Y-75254819D02*
X127779166Y-75207200D01*
X127779166Y-75207200D02*
X127826785Y-75159580D01*
X127826785Y-75159580D02*
X127874404Y-75064342D01*
X127874404Y-75064342D02*
X127874404Y-74873866D01*
X127874404Y-74873866D02*
X127826785Y-74778628D01*
X127826785Y-74778628D02*
X127779166Y-74731009D01*
X127779166Y-74731009D02*
X127683928Y-74683390D01*
X160538095Y-143239819D02*
X160538095Y-144049342D01*
X160538095Y-144049342D02*
X160585714Y-144144580D01*
X160585714Y-144144580D02*
X160633333Y-144192200D01*
X160633333Y-144192200D02*
X160728571Y-144239819D01*
X160728571Y-144239819D02*
X160919047Y-144239819D01*
X160919047Y-144239819D02*
X161014285Y-144192200D01*
X161014285Y-144192200D02*
X161061904Y-144144580D01*
X161061904Y-144144580D02*
X161109523Y-144049342D01*
X161109523Y-144049342D02*
X161109523Y-143239819D01*
X162014285Y-143239819D02*
X161823809Y-143239819D01*
X161823809Y-143239819D02*
X161728571Y-143287438D01*
X161728571Y-143287438D02*
X161680952Y-143335057D01*
X161680952Y-143335057D02*
X161585714Y-143477914D01*
X161585714Y-143477914D02*
X161538095Y-143668390D01*
X161538095Y-143668390D02*
X161538095Y-144049342D01*
X161538095Y-144049342D02*
X161585714Y-144144580D01*
X161585714Y-144144580D02*
X161633333Y-144192200D01*
X161633333Y-144192200D02*
X161728571Y-144239819D01*
X161728571Y-144239819D02*
X161919047Y-144239819D01*
X161919047Y-144239819D02*
X162014285Y-144192200D01*
X162014285Y-144192200D02*
X162061904Y-144144580D01*
X162061904Y-144144580D02*
X162109523Y-144049342D01*
X162109523Y-144049342D02*
X162109523Y-143811247D01*
X162109523Y-143811247D02*
X162061904Y-143716009D01*
X162061904Y-143716009D02*
X162014285Y-143668390D01*
X162014285Y-143668390D02*
X161919047Y-143620771D01*
X161919047Y-143620771D02*
X161728571Y-143620771D01*
X161728571Y-143620771D02*
X161633333Y-143668390D01*
X161633333Y-143668390D02*
X161585714Y-143716009D01*
X161585714Y-143716009D02*
X161538095Y-143811247D01*
X115238095Y-159504819D02*
X115238095Y-160314342D01*
X115238095Y-160314342D02*
X115285714Y-160409580D01*
X115285714Y-160409580D02*
X115333333Y-160457200D01*
X115333333Y-160457200D02*
X115428571Y-160504819D01*
X115428571Y-160504819D02*
X115619047Y-160504819D01*
X115619047Y-160504819D02*
X115714285Y-160457200D01*
X115714285Y-160457200D02*
X115761904Y-160409580D01*
X115761904Y-160409580D02*
X115809523Y-160314342D01*
X115809523Y-160314342D02*
X115809523Y-159504819D01*
X116428571Y-159933390D02*
X116333333Y-159885771D01*
X116333333Y-159885771D02*
X116285714Y-159838152D01*
X116285714Y-159838152D02*
X116238095Y-159742914D01*
X116238095Y-159742914D02*
X116238095Y-159695295D01*
X116238095Y-159695295D02*
X116285714Y-159600057D01*
X116285714Y-159600057D02*
X116333333Y-159552438D01*
X116333333Y-159552438D02*
X116428571Y-159504819D01*
X116428571Y-159504819D02*
X116619047Y-159504819D01*
X116619047Y-159504819D02*
X116714285Y-159552438D01*
X116714285Y-159552438D02*
X116761904Y-159600057D01*
X116761904Y-159600057D02*
X116809523Y-159695295D01*
X116809523Y-159695295D02*
X116809523Y-159742914D01*
X116809523Y-159742914D02*
X116761904Y-159838152D01*
X116761904Y-159838152D02*
X116714285Y-159885771D01*
X116714285Y-159885771D02*
X116619047Y-159933390D01*
X116619047Y-159933390D02*
X116428571Y-159933390D01*
X116428571Y-159933390D02*
X116333333Y-159981009D01*
X116333333Y-159981009D02*
X116285714Y-160028628D01*
X116285714Y-160028628D02*
X116238095Y-160123866D01*
X116238095Y-160123866D02*
X116238095Y-160314342D01*
X116238095Y-160314342D02*
X116285714Y-160409580D01*
X116285714Y-160409580D02*
X116333333Y-160457200D01*
X116333333Y-160457200D02*
X116428571Y-160504819D01*
X116428571Y-160504819D02*
X116619047Y-160504819D01*
X116619047Y-160504819D02*
X116714285Y-160457200D01*
X116714285Y-160457200D02*
X116761904Y-160409580D01*
X116761904Y-160409580D02*
X116809523Y-160314342D01*
X116809523Y-160314342D02*
X116809523Y-160123866D01*
X116809523Y-160123866D02*
X116761904Y-160028628D01*
X116761904Y-160028628D02*
X116714285Y-159981009D01*
X116714285Y-159981009D02*
X116619047Y-159933390D01*
X148388333Y-156354819D02*
X148055000Y-155878628D01*
X147816905Y-156354819D02*
X147816905Y-155354819D01*
X147816905Y-155354819D02*
X148197857Y-155354819D01*
X148197857Y-155354819D02*
X148293095Y-155402438D01*
X148293095Y-155402438D02*
X148340714Y-155450057D01*
X148340714Y-155450057D02*
X148388333Y-155545295D01*
X148388333Y-155545295D02*
X148388333Y-155688152D01*
X148388333Y-155688152D02*
X148340714Y-155783390D01*
X148340714Y-155783390D02*
X148293095Y-155831009D01*
X148293095Y-155831009D02*
X148197857Y-155878628D01*
X148197857Y-155878628D02*
X147816905Y-155878628D01*
X149245476Y-155688152D02*
X149245476Y-156354819D01*
X149007381Y-155307200D02*
X148769286Y-156021485D01*
X148769286Y-156021485D02*
X149388333Y-156021485D01*
X127185714Y-109454819D02*
X127185714Y-108454819D01*
X127185714Y-108454819D02*
X127423809Y-108454819D01*
X127423809Y-108454819D02*
X127566666Y-108502438D01*
X127566666Y-108502438D02*
X127661904Y-108597676D01*
X127661904Y-108597676D02*
X127709523Y-108692914D01*
X127709523Y-108692914D02*
X127757142Y-108883390D01*
X127757142Y-108883390D02*
X127757142Y-109026247D01*
X127757142Y-109026247D02*
X127709523Y-109216723D01*
X127709523Y-109216723D02*
X127661904Y-109311961D01*
X127661904Y-109311961D02*
X127566666Y-109407200D01*
X127566666Y-109407200D02*
X127423809Y-109454819D01*
X127423809Y-109454819D02*
X127185714Y-109454819D01*
X128661904Y-108454819D02*
X128185714Y-108454819D01*
X128185714Y-108454819D02*
X128138095Y-108931009D01*
X128138095Y-108931009D02*
X128185714Y-108883390D01*
X128185714Y-108883390D02*
X128280952Y-108835771D01*
X128280952Y-108835771D02*
X128519047Y-108835771D01*
X128519047Y-108835771D02*
X128614285Y-108883390D01*
X128614285Y-108883390D02*
X128661904Y-108931009D01*
X128661904Y-108931009D02*
X128709523Y-109026247D01*
X128709523Y-109026247D02*
X128709523Y-109264342D01*
X128709523Y-109264342D02*
X128661904Y-109359580D01*
X128661904Y-109359580D02*
X128614285Y-109407200D01*
X128614285Y-109407200D02*
X128519047Y-109454819D01*
X128519047Y-109454819D02*
X128280952Y-109454819D01*
X128280952Y-109454819D02*
X128185714Y-109407200D01*
X128185714Y-109407200D02*
X128138095Y-109359580D01*
X129566666Y-108788152D02*
X129566666Y-109454819D01*
X129328571Y-108407200D02*
X129090476Y-109121485D01*
X129090476Y-109121485D02*
X129709523Y-109121485D01*
X176049693Y-27343517D02*
X175342587Y-26636410D01*
X175342587Y-26636410D02*
X175510945Y-26468051D01*
X175510945Y-26468051D02*
X175645632Y-26400708D01*
X175645632Y-26400708D02*
X175780319Y-26400708D01*
X175780319Y-26400708D02*
X175881335Y-26434380D01*
X175881335Y-26434380D02*
X176049693Y-26535395D01*
X176049693Y-26535395D02*
X176150709Y-26636410D01*
X176150709Y-26636410D02*
X176251724Y-26804769D01*
X176251724Y-26804769D02*
X176285396Y-26905784D01*
X176285396Y-26905784D02*
X176285396Y-27040471D01*
X176285396Y-27040471D02*
X176218052Y-27175158D01*
X176218052Y-27175158D02*
X176049693Y-27343517D01*
X175982350Y-25996647D02*
X176453754Y-25525242D01*
X176453754Y-25525242D02*
X176857815Y-26535395D01*
X112759580Y-160542857D02*
X112807200Y-160590476D01*
X112807200Y-160590476D02*
X112854819Y-160733333D01*
X112854819Y-160733333D02*
X112854819Y-160828571D01*
X112854819Y-160828571D02*
X112807200Y-160971428D01*
X112807200Y-160971428D02*
X112711961Y-161066666D01*
X112711961Y-161066666D02*
X112616723Y-161114285D01*
X112616723Y-161114285D02*
X112426247Y-161161904D01*
X112426247Y-161161904D02*
X112283390Y-161161904D01*
X112283390Y-161161904D02*
X112092914Y-161114285D01*
X112092914Y-161114285D02*
X111997676Y-161066666D01*
X111997676Y-161066666D02*
X111902438Y-160971428D01*
X111902438Y-160971428D02*
X111854819Y-160828571D01*
X111854819Y-160828571D02*
X111854819Y-160733333D01*
X111854819Y-160733333D02*
X111902438Y-160590476D01*
X111902438Y-160590476D02*
X111950057Y-160542857D01*
X112854819Y-159590476D02*
X112854819Y-160161904D01*
X112854819Y-159876190D02*
X111854819Y-159876190D01*
X111854819Y-159876190D02*
X111997676Y-159971428D01*
X111997676Y-159971428D02*
X112092914Y-160066666D01*
X112092914Y-160066666D02*
X112140533Y-160161904D01*
X112283390Y-159019047D02*
X112235771Y-159114285D01*
X112235771Y-159114285D02*
X112188152Y-159161904D01*
X112188152Y-159161904D02*
X112092914Y-159209523D01*
X112092914Y-159209523D02*
X112045295Y-159209523D01*
X112045295Y-159209523D02*
X111950057Y-159161904D01*
X111950057Y-159161904D02*
X111902438Y-159114285D01*
X111902438Y-159114285D02*
X111854819Y-159019047D01*
X111854819Y-159019047D02*
X111854819Y-158828571D01*
X111854819Y-158828571D02*
X111902438Y-158733333D01*
X111902438Y-158733333D02*
X111950057Y-158685714D01*
X111950057Y-158685714D02*
X112045295Y-158638095D01*
X112045295Y-158638095D02*
X112092914Y-158638095D01*
X112092914Y-158638095D02*
X112188152Y-158685714D01*
X112188152Y-158685714D02*
X112235771Y-158733333D01*
X112235771Y-158733333D02*
X112283390Y-158828571D01*
X112283390Y-158828571D02*
X112283390Y-159019047D01*
X112283390Y-159019047D02*
X112331009Y-159114285D01*
X112331009Y-159114285D02*
X112378628Y-159161904D01*
X112378628Y-159161904D02*
X112473866Y-159209523D01*
X112473866Y-159209523D02*
X112664342Y-159209523D01*
X112664342Y-159209523D02*
X112759580Y-159161904D01*
X112759580Y-159161904D02*
X112807200Y-159114285D01*
X112807200Y-159114285D02*
X112854819Y-159019047D01*
X112854819Y-159019047D02*
X112854819Y-158828571D01*
X112854819Y-158828571D02*
X112807200Y-158733333D01*
X112807200Y-158733333D02*
X112759580Y-158685714D01*
X112759580Y-158685714D02*
X112664342Y-158638095D01*
X112664342Y-158638095D02*
X112473866Y-158638095D01*
X112473866Y-158638095D02*
X112378628Y-158685714D01*
X112378628Y-158685714D02*
X112331009Y-158733333D01*
X112331009Y-158733333D02*
X112283390Y-158828571D01*
X153154819Y-160042857D02*
X152678628Y-160376190D01*
X153154819Y-160614285D02*
X152154819Y-160614285D01*
X152154819Y-160614285D02*
X152154819Y-160233333D01*
X152154819Y-160233333D02*
X152202438Y-160138095D01*
X152202438Y-160138095D02*
X152250057Y-160090476D01*
X152250057Y-160090476D02*
X152345295Y-160042857D01*
X152345295Y-160042857D02*
X152488152Y-160042857D01*
X152488152Y-160042857D02*
X152583390Y-160090476D01*
X152583390Y-160090476D02*
X152631009Y-160138095D01*
X152631009Y-160138095D02*
X152678628Y-160233333D01*
X152678628Y-160233333D02*
X152678628Y-160614285D01*
X153154819Y-159090476D02*
X153154819Y-159661904D01*
X153154819Y-159376190D02*
X152154819Y-159376190D01*
X152154819Y-159376190D02*
X152297676Y-159471428D01*
X152297676Y-159471428D02*
X152392914Y-159566666D01*
X152392914Y-159566666D02*
X152440533Y-159661904D01*
X153154819Y-158614285D02*
X153154819Y-158423809D01*
X153154819Y-158423809D02*
X153107200Y-158328571D01*
X153107200Y-158328571D02*
X153059580Y-158280952D01*
X153059580Y-158280952D02*
X152916723Y-158185714D01*
X152916723Y-158185714D02*
X152726247Y-158138095D01*
X152726247Y-158138095D02*
X152345295Y-158138095D01*
X152345295Y-158138095D02*
X152250057Y-158185714D01*
X152250057Y-158185714D02*
X152202438Y-158233333D01*
X152202438Y-158233333D02*
X152154819Y-158328571D01*
X152154819Y-158328571D02*
X152154819Y-158519047D01*
X152154819Y-158519047D02*
X152202438Y-158614285D01*
X152202438Y-158614285D02*
X152250057Y-158661904D01*
X152250057Y-158661904D02*
X152345295Y-158709523D01*
X152345295Y-158709523D02*
X152583390Y-158709523D01*
X152583390Y-158709523D02*
X152678628Y-158661904D01*
X152678628Y-158661904D02*
X152726247Y-158614285D01*
X152726247Y-158614285D02*
X152773866Y-158519047D01*
X152773866Y-158519047D02*
X152773866Y-158328571D01*
X152773866Y-158328571D02*
X152726247Y-158233333D01*
X152726247Y-158233333D02*
X152678628Y-158185714D01*
X152678628Y-158185714D02*
X152583390Y-158138095D01*
X169661905Y-31654819D02*
X169661905Y-30654819D01*
X169661905Y-30654819D02*
X169900000Y-30654819D01*
X169900000Y-30654819D02*
X170042857Y-30702438D01*
X170042857Y-30702438D02*
X170138095Y-30797676D01*
X170138095Y-30797676D02*
X170185714Y-30892914D01*
X170185714Y-30892914D02*
X170233333Y-31083390D01*
X170233333Y-31083390D02*
X170233333Y-31226247D01*
X170233333Y-31226247D02*
X170185714Y-31416723D01*
X170185714Y-31416723D02*
X170138095Y-31511961D01*
X170138095Y-31511961D02*
X170042857Y-31607200D01*
X170042857Y-31607200D02*
X169900000Y-31654819D01*
X169900000Y-31654819D02*
X169661905Y-31654819D01*
X170804762Y-31083390D02*
X170709524Y-31035771D01*
X170709524Y-31035771D02*
X170661905Y-30988152D01*
X170661905Y-30988152D02*
X170614286Y-30892914D01*
X170614286Y-30892914D02*
X170614286Y-30845295D01*
X170614286Y-30845295D02*
X170661905Y-30750057D01*
X170661905Y-30750057D02*
X170709524Y-30702438D01*
X170709524Y-30702438D02*
X170804762Y-30654819D01*
X170804762Y-30654819D02*
X170995238Y-30654819D01*
X170995238Y-30654819D02*
X171090476Y-30702438D01*
X171090476Y-30702438D02*
X171138095Y-30750057D01*
X171138095Y-30750057D02*
X171185714Y-30845295D01*
X171185714Y-30845295D02*
X171185714Y-30892914D01*
X171185714Y-30892914D02*
X171138095Y-30988152D01*
X171138095Y-30988152D02*
X171090476Y-31035771D01*
X171090476Y-31035771D02*
X170995238Y-31083390D01*
X170995238Y-31083390D02*
X170804762Y-31083390D01*
X170804762Y-31083390D02*
X170709524Y-31131009D01*
X170709524Y-31131009D02*
X170661905Y-31178628D01*
X170661905Y-31178628D02*
X170614286Y-31273866D01*
X170614286Y-31273866D02*
X170614286Y-31464342D01*
X170614286Y-31464342D02*
X170661905Y-31559580D01*
X170661905Y-31559580D02*
X170709524Y-31607200D01*
X170709524Y-31607200D02*
X170804762Y-31654819D01*
X170804762Y-31654819D02*
X170995238Y-31654819D01*
X170995238Y-31654819D02*
X171090476Y-31607200D01*
X171090476Y-31607200D02*
X171138095Y-31559580D01*
X171138095Y-31559580D02*
X171185714Y-31464342D01*
X171185714Y-31464342D02*
X171185714Y-31273866D01*
X171185714Y-31273866D02*
X171138095Y-31178628D01*
X171138095Y-31178628D02*
X171090476Y-31131009D01*
X171090476Y-31131009D02*
X170995238Y-31083390D01*
X156882142Y-132854819D02*
X156548809Y-132378628D01*
X156310714Y-132854819D02*
X156310714Y-131854819D01*
X156310714Y-131854819D02*
X156691666Y-131854819D01*
X156691666Y-131854819D02*
X156786904Y-131902438D01*
X156786904Y-131902438D02*
X156834523Y-131950057D01*
X156834523Y-131950057D02*
X156882142Y-132045295D01*
X156882142Y-132045295D02*
X156882142Y-132188152D01*
X156882142Y-132188152D02*
X156834523Y-132283390D01*
X156834523Y-132283390D02*
X156786904Y-132331009D01*
X156786904Y-132331009D02*
X156691666Y-132378628D01*
X156691666Y-132378628D02*
X156310714Y-132378628D01*
X157834523Y-132854819D02*
X157263095Y-132854819D01*
X157548809Y-132854819D02*
X157548809Y-131854819D01*
X157548809Y-131854819D02*
X157453571Y-131997676D01*
X157453571Y-131997676D02*
X157358333Y-132092914D01*
X157358333Y-132092914D02*
X157263095Y-132140533D01*
X158691666Y-132188152D02*
X158691666Y-132854819D01*
X158453571Y-131807200D02*
X158215476Y-132521485D01*
X158215476Y-132521485D02*
X158834523Y-132521485D01*
X139928649Y-27910075D02*
X140428649Y-27044050D01*
X140428649Y-27044050D02*
X140634845Y-27163098D01*
X140634845Y-27163098D02*
X140734754Y-27275766D01*
X140734754Y-27275766D02*
X140769613Y-27405863D01*
X140769613Y-27405863D02*
X140763233Y-27512151D01*
X140763233Y-27512151D02*
X140709235Y-27700918D01*
X140709235Y-27700918D02*
X140637806Y-27824636D01*
X140637806Y-27824636D02*
X140501329Y-27965784D01*
X140501329Y-27965784D02*
X140412470Y-28024453D01*
X140412470Y-28024453D02*
X140282373Y-28059312D01*
X140282373Y-28059312D02*
X140134845Y-28029123D01*
X140134845Y-28029123D02*
X139928649Y-27910075D01*
X141205816Y-27602719D02*
X141270865Y-27585289D01*
X141270865Y-27585289D02*
X141377153Y-27591669D01*
X141377153Y-27591669D02*
X141583349Y-27710717D01*
X141583349Y-27710717D02*
X141642018Y-27799575D01*
X141642018Y-27799575D02*
X141659448Y-27864624D01*
X141659448Y-27864624D02*
X141653068Y-27970912D01*
X141653068Y-27970912D02*
X141605449Y-28053391D01*
X141605449Y-28053391D02*
X141492781Y-28153299D01*
X141492781Y-28153299D02*
X140712195Y-28362456D01*
X140712195Y-28362456D02*
X141248306Y-28671980D01*
X142323947Y-28523201D02*
X141990614Y-29100552D01*
X142308227Y-28074239D02*
X141744888Y-28573781D01*
X141744888Y-28573781D02*
X142280999Y-28883305D01*
X103073214Y-47304819D02*
X103073214Y-46304819D01*
X103073214Y-46304819D02*
X103311309Y-46304819D01*
X103311309Y-46304819D02*
X103454166Y-46352438D01*
X103454166Y-46352438D02*
X103549404Y-46447676D01*
X103549404Y-46447676D02*
X103597023Y-46542914D01*
X103597023Y-46542914D02*
X103644642Y-46733390D01*
X103644642Y-46733390D02*
X103644642Y-46876247D01*
X103644642Y-46876247D02*
X103597023Y-47066723D01*
X103597023Y-47066723D02*
X103549404Y-47161961D01*
X103549404Y-47161961D02*
X103454166Y-47257200D01*
X103454166Y-47257200D02*
X103311309Y-47304819D01*
X103311309Y-47304819D02*
X103073214Y-47304819D01*
X103977976Y-46304819D02*
X104644642Y-46304819D01*
X104644642Y-46304819D02*
X104216071Y-47304819D01*
X104930357Y-46304819D02*
X105549404Y-46304819D01*
X105549404Y-46304819D02*
X105216071Y-46685771D01*
X105216071Y-46685771D02*
X105358928Y-46685771D01*
X105358928Y-46685771D02*
X105454166Y-46733390D01*
X105454166Y-46733390D02*
X105501785Y-46781009D01*
X105501785Y-46781009D02*
X105549404Y-46876247D01*
X105549404Y-46876247D02*
X105549404Y-47114342D01*
X105549404Y-47114342D02*
X105501785Y-47209580D01*
X105501785Y-47209580D02*
X105454166Y-47257200D01*
X105454166Y-47257200D02*
X105358928Y-47304819D01*
X105358928Y-47304819D02*
X105073214Y-47304819D01*
X105073214Y-47304819D02*
X104977976Y-47257200D01*
X104977976Y-47257200D02*
X104930357Y-47209580D01*
X176254819Y-153066666D02*
X175778628Y-153399999D01*
X176254819Y-153638094D02*
X175254819Y-153638094D01*
X175254819Y-153638094D02*
X175254819Y-153257142D01*
X175254819Y-153257142D02*
X175302438Y-153161904D01*
X175302438Y-153161904D02*
X175350057Y-153114285D01*
X175350057Y-153114285D02*
X175445295Y-153066666D01*
X175445295Y-153066666D02*
X175588152Y-153066666D01*
X175588152Y-153066666D02*
X175683390Y-153114285D01*
X175683390Y-153114285D02*
X175731009Y-153161904D01*
X175731009Y-153161904D02*
X175778628Y-153257142D01*
X175778628Y-153257142D02*
X175778628Y-153638094D01*
X175254819Y-152733332D02*
X175254819Y-152114285D01*
X175254819Y-152114285D02*
X175635771Y-152447618D01*
X175635771Y-152447618D02*
X175635771Y-152304761D01*
X175635771Y-152304761D02*
X175683390Y-152209523D01*
X175683390Y-152209523D02*
X175731009Y-152161904D01*
X175731009Y-152161904D02*
X175826247Y-152114285D01*
X175826247Y-152114285D02*
X176064342Y-152114285D01*
X176064342Y-152114285D02*
X176159580Y-152161904D01*
X176159580Y-152161904D02*
X176207200Y-152209523D01*
X176207200Y-152209523D02*
X176254819Y-152304761D01*
X176254819Y-152304761D02*
X176254819Y-152590475D01*
X176254819Y-152590475D02*
X176207200Y-152685713D01*
X176207200Y-152685713D02*
X176159580Y-152733332D01*
X147135714Y-158354819D02*
X147135714Y-157354819D01*
X147135714Y-157354819D02*
X147373809Y-157354819D01*
X147373809Y-157354819D02*
X147516666Y-157402438D01*
X147516666Y-157402438D02*
X147611904Y-157497676D01*
X147611904Y-157497676D02*
X147659523Y-157592914D01*
X147659523Y-157592914D02*
X147707142Y-157783390D01*
X147707142Y-157783390D02*
X147707142Y-157926247D01*
X147707142Y-157926247D02*
X147659523Y-158116723D01*
X147659523Y-158116723D02*
X147611904Y-158211961D01*
X147611904Y-158211961D02*
X147516666Y-158307200D01*
X147516666Y-158307200D02*
X147373809Y-158354819D01*
X147373809Y-158354819D02*
X147135714Y-158354819D01*
X148278571Y-157783390D02*
X148183333Y-157735771D01*
X148183333Y-157735771D02*
X148135714Y-157688152D01*
X148135714Y-157688152D02*
X148088095Y-157592914D01*
X148088095Y-157592914D02*
X148088095Y-157545295D01*
X148088095Y-157545295D02*
X148135714Y-157450057D01*
X148135714Y-157450057D02*
X148183333Y-157402438D01*
X148183333Y-157402438D02*
X148278571Y-157354819D01*
X148278571Y-157354819D02*
X148469047Y-157354819D01*
X148469047Y-157354819D02*
X148564285Y-157402438D01*
X148564285Y-157402438D02*
X148611904Y-157450057D01*
X148611904Y-157450057D02*
X148659523Y-157545295D01*
X148659523Y-157545295D02*
X148659523Y-157592914D01*
X148659523Y-157592914D02*
X148611904Y-157688152D01*
X148611904Y-157688152D02*
X148564285Y-157735771D01*
X148564285Y-157735771D02*
X148469047Y-157783390D01*
X148469047Y-157783390D02*
X148278571Y-157783390D01*
X148278571Y-157783390D02*
X148183333Y-157831009D01*
X148183333Y-157831009D02*
X148135714Y-157878628D01*
X148135714Y-157878628D02*
X148088095Y-157973866D01*
X148088095Y-157973866D02*
X148088095Y-158164342D01*
X148088095Y-158164342D02*
X148135714Y-158259580D01*
X148135714Y-158259580D02*
X148183333Y-158307200D01*
X148183333Y-158307200D02*
X148278571Y-158354819D01*
X148278571Y-158354819D02*
X148469047Y-158354819D01*
X148469047Y-158354819D02*
X148564285Y-158307200D01*
X148564285Y-158307200D02*
X148611904Y-158259580D01*
X148611904Y-158259580D02*
X148659523Y-158164342D01*
X148659523Y-158164342D02*
X148659523Y-157973866D01*
X148659523Y-157973866D02*
X148611904Y-157878628D01*
X148611904Y-157878628D02*
X148564285Y-157831009D01*
X148564285Y-157831009D02*
X148469047Y-157783390D01*
X149040476Y-157450057D02*
X149088095Y-157402438D01*
X149088095Y-157402438D02*
X149183333Y-157354819D01*
X149183333Y-157354819D02*
X149421428Y-157354819D01*
X149421428Y-157354819D02*
X149516666Y-157402438D01*
X149516666Y-157402438D02*
X149564285Y-157450057D01*
X149564285Y-157450057D02*
X149611904Y-157545295D01*
X149611904Y-157545295D02*
X149611904Y-157640533D01*
X149611904Y-157640533D02*
X149564285Y-157783390D01*
X149564285Y-157783390D02*
X148992857Y-158354819D01*
X148992857Y-158354819D02*
X149611904Y-158354819D01*
X168557142Y-116459580D02*
X168509523Y-116507200D01*
X168509523Y-116507200D02*
X168366666Y-116554819D01*
X168366666Y-116554819D02*
X168271428Y-116554819D01*
X168271428Y-116554819D02*
X168128571Y-116507200D01*
X168128571Y-116507200D02*
X168033333Y-116411961D01*
X168033333Y-116411961D02*
X167985714Y-116316723D01*
X167985714Y-116316723D02*
X167938095Y-116126247D01*
X167938095Y-116126247D02*
X167938095Y-115983390D01*
X167938095Y-115983390D02*
X167985714Y-115792914D01*
X167985714Y-115792914D02*
X168033333Y-115697676D01*
X168033333Y-115697676D02*
X168128571Y-115602438D01*
X168128571Y-115602438D02*
X168271428Y-115554819D01*
X168271428Y-115554819D02*
X168366666Y-115554819D01*
X168366666Y-115554819D02*
X168509523Y-115602438D01*
X168509523Y-115602438D02*
X168557142Y-115650057D01*
X169509523Y-116554819D02*
X168938095Y-116554819D01*
X169223809Y-116554819D02*
X169223809Y-115554819D01*
X169223809Y-115554819D02*
X169128571Y-115697676D01*
X169128571Y-115697676D02*
X169033333Y-115792914D01*
X169033333Y-115792914D02*
X168938095Y-115840533D01*
X170461904Y-116554819D02*
X169890476Y-116554819D01*
X170176190Y-116554819D02*
X170176190Y-115554819D01*
X170176190Y-115554819D02*
X170080952Y-115697676D01*
X170080952Y-115697676D02*
X169985714Y-115792914D01*
X169985714Y-115792914D02*
X169890476Y-115840533D01*
X120654819Y-110214285D02*
X119654819Y-110214285D01*
X119654819Y-110214285D02*
X119654819Y-109976190D01*
X119654819Y-109976190D02*
X119702438Y-109833333D01*
X119702438Y-109833333D02*
X119797676Y-109738095D01*
X119797676Y-109738095D02*
X119892914Y-109690476D01*
X119892914Y-109690476D02*
X120083390Y-109642857D01*
X120083390Y-109642857D02*
X120226247Y-109642857D01*
X120226247Y-109642857D02*
X120416723Y-109690476D01*
X120416723Y-109690476D02*
X120511961Y-109738095D01*
X120511961Y-109738095D02*
X120607200Y-109833333D01*
X120607200Y-109833333D02*
X120654819Y-109976190D01*
X120654819Y-109976190D02*
X120654819Y-110214285D01*
X119654819Y-108738095D02*
X119654819Y-109214285D01*
X119654819Y-109214285D02*
X120131009Y-109261904D01*
X120131009Y-109261904D02*
X120083390Y-109214285D01*
X120083390Y-109214285D02*
X120035771Y-109119047D01*
X120035771Y-109119047D02*
X120035771Y-108880952D01*
X120035771Y-108880952D02*
X120083390Y-108785714D01*
X120083390Y-108785714D02*
X120131009Y-108738095D01*
X120131009Y-108738095D02*
X120226247Y-108690476D01*
X120226247Y-108690476D02*
X120464342Y-108690476D01*
X120464342Y-108690476D02*
X120559580Y-108738095D01*
X120559580Y-108738095D02*
X120607200Y-108785714D01*
X120607200Y-108785714D02*
X120654819Y-108880952D01*
X120654819Y-108880952D02*
X120654819Y-109119047D01*
X120654819Y-109119047D02*
X120607200Y-109214285D01*
X120607200Y-109214285D02*
X120559580Y-109261904D01*
X119750057Y-108309523D02*
X119702438Y-108261904D01*
X119702438Y-108261904D02*
X119654819Y-108166666D01*
X119654819Y-108166666D02*
X119654819Y-107928571D01*
X119654819Y-107928571D02*
X119702438Y-107833333D01*
X119702438Y-107833333D02*
X119750057Y-107785714D01*
X119750057Y-107785714D02*
X119845295Y-107738095D01*
X119845295Y-107738095D02*
X119940533Y-107738095D01*
X119940533Y-107738095D02*
X120083390Y-107785714D01*
X120083390Y-107785714D02*
X120654819Y-108357142D01*
X120654819Y-108357142D02*
X120654819Y-107738095D01*
X106535714Y-120454819D02*
X106535714Y-119454819D01*
X106535714Y-119454819D02*
X106773809Y-119454819D01*
X106773809Y-119454819D02*
X106916666Y-119502438D01*
X106916666Y-119502438D02*
X107011904Y-119597676D01*
X107011904Y-119597676D02*
X107059523Y-119692914D01*
X107059523Y-119692914D02*
X107107142Y-119883390D01*
X107107142Y-119883390D02*
X107107142Y-120026247D01*
X107107142Y-120026247D02*
X107059523Y-120216723D01*
X107059523Y-120216723D02*
X107011904Y-120311961D01*
X107011904Y-120311961D02*
X106916666Y-120407200D01*
X106916666Y-120407200D02*
X106773809Y-120454819D01*
X106773809Y-120454819D02*
X106535714Y-120454819D01*
X108059523Y-120454819D02*
X107488095Y-120454819D01*
X107773809Y-120454819D02*
X107773809Y-119454819D01*
X107773809Y-119454819D02*
X107678571Y-119597676D01*
X107678571Y-119597676D02*
X107583333Y-119692914D01*
X107583333Y-119692914D02*
X107488095Y-119740533D01*
X108916666Y-119454819D02*
X108726190Y-119454819D01*
X108726190Y-119454819D02*
X108630952Y-119502438D01*
X108630952Y-119502438D02*
X108583333Y-119550057D01*
X108583333Y-119550057D02*
X108488095Y-119692914D01*
X108488095Y-119692914D02*
X108440476Y-119883390D01*
X108440476Y-119883390D02*
X108440476Y-120264342D01*
X108440476Y-120264342D02*
X108488095Y-120359580D01*
X108488095Y-120359580D02*
X108535714Y-120407200D01*
X108535714Y-120407200D02*
X108630952Y-120454819D01*
X108630952Y-120454819D02*
X108821428Y-120454819D01*
X108821428Y-120454819D02*
X108916666Y-120407200D01*
X108916666Y-120407200D02*
X108964285Y-120359580D01*
X108964285Y-120359580D02*
X109011904Y-120264342D01*
X109011904Y-120264342D02*
X109011904Y-120026247D01*
X109011904Y-120026247D02*
X108964285Y-119931009D01*
X108964285Y-119931009D02*
X108916666Y-119883390D01*
X108916666Y-119883390D02*
X108821428Y-119835771D01*
X108821428Y-119835771D02*
X108630952Y-119835771D01*
X108630952Y-119835771D02*
X108535714Y-119883390D01*
X108535714Y-119883390D02*
X108488095Y-119931009D01*
X108488095Y-119931009D02*
X108440476Y-120026247D01*
X168557142Y-124259580D02*
X168509523Y-124307200D01*
X168509523Y-124307200D02*
X168366666Y-124354819D01*
X168366666Y-124354819D02*
X168271428Y-124354819D01*
X168271428Y-124354819D02*
X168128571Y-124307200D01*
X168128571Y-124307200D02*
X168033333Y-124211961D01*
X168033333Y-124211961D02*
X167985714Y-124116723D01*
X167985714Y-124116723D02*
X167938095Y-123926247D01*
X167938095Y-123926247D02*
X167938095Y-123783390D01*
X167938095Y-123783390D02*
X167985714Y-123592914D01*
X167985714Y-123592914D02*
X168033333Y-123497676D01*
X168033333Y-123497676D02*
X168128571Y-123402438D01*
X168128571Y-123402438D02*
X168271428Y-123354819D01*
X168271428Y-123354819D02*
X168366666Y-123354819D01*
X168366666Y-123354819D02*
X168509523Y-123402438D01*
X168509523Y-123402438D02*
X168557142Y-123450057D01*
X169509523Y-124354819D02*
X168938095Y-124354819D01*
X169223809Y-124354819D02*
X169223809Y-123354819D01*
X169223809Y-123354819D02*
X169128571Y-123497676D01*
X169128571Y-123497676D02*
X169033333Y-123592914D01*
X169033333Y-123592914D02*
X168938095Y-123640533D01*
X169890476Y-123450057D02*
X169938095Y-123402438D01*
X169938095Y-123402438D02*
X170033333Y-123354819D01*
X170033333Y-123354819D02*
X170271428Y-123354819D01*
X170271428Y-123354819D02*
X170366666Y-123402438D01*
X170366666Y-123402438D02*
X170414285Y-123450057D01*
X170414285Y-123450057D02*
X170461904Y-123545295D01*
X170461904Y-123545295D02*
X170461904Y-123640533D01*
X170461904Y-123640533D02*
X170414285Y-123783390D01*
X170414285Y-123783390D02*
X169842857Y-124354819D01*
X169842857Y-124354819D02*
X170461904Y-124354819D01*
X120159580Y-160542857D02*
X120207200Y-160590476D01*
X120207200Y-160590476D02*
X120254819Y-160733333D01*
X120254819Y-160733333D02*
X120254819Y-160828571D01*
X120254819Y-160828571D02*
X120207200Y-160971428D01*
X120207200Y-160971428D02*
X120111961Y-161066666D01*
X120111961Y-161066666D02*
X120016723Y-161114285D01*
X120016723Y-161114285D02*
X119826247Y-161161904D01*
X119826247Y-161161904D02*
X119683390Y-161161904D01*
X119683390Y-161161904D02*
X119492914Y-161114285D01*
X119492914Y-161114285D02*
X119397676Y-161066666D01*
X119397676Y-161066666D02*
X119302438Y-160971428D01*
X119302438Y-160971428D02*
X119254819Y-160828571D01*
X119254819Y-160828571D02*
X119254819Y-160733333D01*
X119254819Y-160733333D02*
X119302438Y-160590476D01*
X119302438Y-160590476D02*
X119350057Y-160542857D01*
X120254819Y-159590476D02*
X120254819Y-160161904D01*
X120254819Y-159876190D02*
X119254819Y-159876190D01*
X119254819Y-159876190D02*
X119397676Y-159971428D01*
X119397676Y-159971428D02*
X119492914Y-160066666D01*
X119492914Y-160066666D02*
X119540533Y-160161904D01*
X119254819Y-159257142D02*
X119254819Y-158590476D01*
X119254819Y-158590476D02*
X120254819Y-159019047D01*
X156804819Y-160792857D02*
X156328628Y-161126190D01*
X156804819Y-161364285D02*
X155804819Y-161364285D01*
X155804819Y-161364285D02*
X155804819Y-160983333D01*
X155804819Y-160983333D02*
X155852438Y-160888095D01*
X155852438Y-160888095D02*
X155900057Y-160840476D01*
X155900057Y-160840476D02*
X155995295Y-160792857D01*
X155995295Y-160792857D02*
X156138152Y-160792857D01*
X156138152Y-160792857D02*
X156233390Y-160840476D01*
X156233390Y-160840476D02*
X156281009Y-160888095D01*
X156281009Y-160888095D02*
X156328628Y-160983333D01*
X156328628Y-160983333D02*
X156328628Y-161364285D01*
X155900057Y-160411904D02*
X155852438Y-160364285D01*
X155852438Y-160364285D02*
X155804819Y-160269047D01*
X155804819Y-160269047D02*
X155804819Y-160030952D01*
X155804819Y-160030952D02*
X155852438Y-159935714D01*
X155852438Y-159935714D02*
X155900057Y-159888095D01*
X155900057Y-159888095D02*
X155995295Y-159840476D01*
X155995295Y-159840476D02*
X156090533Y-159840476D01*
X156090533Y-159840476D02*
X156233390Y-159888095D01*
X156233390Y-159888095D02*
X156804819Y-160459523D01*
X156804819Y-160459523D02*
X156804819Y-159840476D01*
X155804819Y-159507142D02*
X155804819Y-158888095D01*
X155804819Y-158888095D02*
X156185771Y-159221428D01*
X156185771Y-159221428D02*
X156185771Y-159078571D01*
X156185771Y-159078571D02*
X156233390Y-158983333D01*
X156233390Y-158983333D02*
X156281009Y-158935714D01*
X156281009Y-158935714D02*
X156376247Y-158888095D01*
X156376247Y-158888095D02*
X156614342Y-158888095D01*
X156614342Y-158888095D02*
X156709580Y-158935714D01*
X156709580Y-158935714D02*
X156757200Y-158983333D01*
X156757200Y-158983333D02*
X156804819Y-159078571D01*
X156804819Y-159078571D02*
X156804819Y-159364285D01*
X156804819Y-159364285D02*
X156757200Y-159459523D01*
X156757200Y-159459523D02*
X156709580Y-159507142D01*
X122385714Y-90104819D02*
X122385714Y-89104819D01*
X122385714Y-89104819D02*
X122623809Y-89104819D01*
X122623809Y-89104819D02*
X122766666Y-89152438D01*
X122766666Y-89152438D02*
X122861904Y-89247676D01*
X122861904Y-89247676D02*
X122909523Y-89342914D01*
X122909523Y-89342914D02*
X122957142Y-89533390D01*
X122957142Y-89533390D02*
X122957142Y-89676247D01*
X122957142Y-89676247D02*
X122909523Y-89866723D01*
X122909523Y-89866723D02*
X122861904Y-89961961D01*
X122861904Y-89961961D02*
X122766666Y-90057200D01*
X122766666Y-90057200D02*
X122623809Y-90104819D01*
X122623809Y-90104819D02*
X122385714Y-90104819D01*
X123290476Y-89104819D02*
X123909523Y-89104819D01*
X123909523Y-89104819D02*
X123576190Y-89485771D01*
X123576190Y-89485771D02*
X123719047Y-89485771D01*
X123719047Y-89485771D02*
X123814285Y-89533390D01*
X123814285Y-89533390D02*
X123861904Y-89581009D01*
X123861904Y-89581009D02*
X123909523Y-89676247D01*
X123909523Y-89676247D02*
X123909523Y-89914342D01*
X123909523Y-89914342D02*
X123861904Y-90009580D01*
X123861904Y-90009580D02*
X123814285Y-90057200D01*
X123814285Y-90057200D02*
X123719047Y-90104819D01*
X123719047Y-90104819D02*
X123433333Y-90104819D01*
X123433333Y-90104819D02*
X123338095Y-90057200D01*
X123338095Y-90057200D02*
X123290476Y-90009580D01*
X124814285Y-89104819D02*
X124338095Y-89104819D01*
X124338095Y-89104819D02*
X124290476Y-89581009D01*
X124290476Y-89581009D02*
X124338095Y-89533390D01*
X124338095Y-89533390D02*
X124433333Y-89485771D01*
X124433333Y-89485771D02*
X124671428Y-89485771D01*
X124671428Y-89485771D02*
X124766666Y-89533390D01*
X124766666Y-89533390D02*
X124814285Y-89581009D01*
X124814285Y-89581009D02*
X124861904Y-89676247D01*
X124861904Y-89676247D02*
X124861904Y-89914342D01*
X124861904Y-89914342D02*
X124814285Y-90009580D01*
X124814285Y-90009580D02*
X124766666Y-90057200D01*
X124766666Y-90057200D02*
X124671428Y-90104819D01*
X124671428Y-90104819D02*
X124433333Y-90104819D01*
X124433333Y-90104819D02*
X124338095Y-90057200D01*
X124338095Y-90057200D02*
X124290476Y-90009580D01*
X144461905Y-25854819D02*
X144461905Y-24854819D01*
X144461905Y-24854819D02*
X144700000Y-24854819D01*
X144700000Y-24854819D02*
X144842857Y-24902438D01*
X144842857Y-24902438D02*
X144938095Y-24997676D01*
X144938095Y-24997676D02*
X144985714Y-25092914D01*
X144985714Y-25092914D02*
X145033333Y-25283390D01*
X145033333Y-25283390D02*
X145033333Y-25426247D01*
X145033333Y-25426247D02*
X144985714Y-25616723D01*
X144985714Y-25616723D02*
X144938095Y-25711961D01*
X144938095Y-25711961D02*
X144842857Y-25807200D01*
X144842857Y-25807200D02*
X144700000Y-25854819D01*
X144700000Y-25854819D02*
X144461905Y-25854819D01*
X145985714Y-25854819D02*
X145414286Y-25854819D01*
X145700000Y-25854819D02*
X145700000Y-24854819D01*
X145700000Y-24854819D02*
X145604762Y-24997676D01*
X145604762Y-24997676D02*
X145509524Y-25092914D01*
X145509524Y-25092914D02*
X145414286Y-25140533D01*
X173654819Y-153091666D02*
X173178628Y-153424999D01*
X173654819Y-153663094D02*
X172654819Y-153663094D01*
X172654819Y-153663094D02*
X172654819Y-153282142D01*
X172654819Y-153282142D02*
X172702438Y-153186904D01*
X172702438Y-153186904D02*
X172750057Y-153139285D01*
X172750057Y-153139285D02*
X172845295Y-153091666D01*
X172845295Y-153091666D02*
X172988152Y-153091666D01*
X172988152Y-153091666D02*
X173083390Y-153139285D01*
X173083390Y-153139285D02*
X173131009Y-153186904D01*
X173131009Y-153186904D02*
X173178628Y-153282142D01*
X173178628Y-153282142D02*
X173178628Y-153663094D01*
X172750057Y-152710713D02*
X172702438Y-152663094D01*
X172702438Y-152663094D02*
X172654819Y-152567856D01*
X172654819Y-152567856D02*
X172654819Y-152329761D01*
X172654819Y-152329761D02*
X172702438Y-152234523D01*
X172702438Y-152234523D02*
X172750057Y-152186904D01*
X172750057Y-152186904D02*
X172845295Y-152139285D01*
X172845295Y-152139285D02*
X172940533Y-152139285D01*
X172940533Y-152139285D02*
X173083390Y-152186904D01*
X173083390Y-152186904D02*
X173654819Y-152758332D01*
X173654819Y-152758332D02*
X173654819Y-152139285D01*
X156983333Y-40234580D02*
X156935714Y-40282200D01*
X156935714Y-40282200D02*
X156792857Y-40329819D01*
X156792857Y-40329819D02*
X156697619Y-40329819D01*
X156697619Y-40329819D02*
X156554762Y-40282200D01*
X156554762Y-40282200D02*
X156459524Y-40186961D01*
X156459524Y-40186961D02*
X156411905Y-40091723D01*
X156411905Y-40091723D02*
X156364286Y-39901247D01*
X156364286Y-39901247D02*
X156364286Y-39758390D01*
X156364286Y-39758390D02*
X156411905Y-39567914D01*
X156411905Y-39567914D02*
X156459524Y-39472676D01*
X156459524Y-39472676D02*
X156554762Y-39377438D01*
X156554762Y-39377438D02*
X156697619Y-39329819D01*
X156697619Y-39329819D02*
X156792857Y-39329819D01*
X156792857Y-39329819D02*
X156935714Y-39377438D01*
X156935714Y-39377438D02*
X156983333Y-39425057D01*
X157364286Y-39425057D02*
X157411905Y-39377438D01*
X157411905Y-39377438D02*
X157507143Y-39329819D01*
X157507143Y-39329819D02*
X157745238Y-39329819D01*
X157745238Y-39329819D02*
X157840476Y-39377438D01*
X157840476Y-39377438D02*
X157888095Y-39425057D01*
X157888095Y-39425057D02*
X157935714Y-39520295D01*
X157935714Y-39520295D02*
X157935714Y-39615533D01*
X157935714Y-39615533D02*
X157888095Y-39758390D01*
X157888095Y-39758390D02*
X157316667Y-40329819D01*
X157316667Y-40329819D02*
X157935714Y-40329819D01*
X126737142Y-160854819D02*
X126403809Y-160378628D01*
X126165714Y-160854819D02*
X126165714Y-159854819D01*
X126165714Y-159854819D02*
X126546666Y-159854819D01*
X126546666Y-159854819D02*
X126641904Y-159902438D01*
X126641904Y-159902438D02*
X126689523Y-159950057D01*
X126689523Y-159950057D02*
X126737142Y-160045295D01*
X126737142Y-160045295D02*
X126737142Y-160188152D01*
X126737142Y-160188152D02*
X126689523Y-160283390D01*
X126689523Y-160283390D02*
X126641904Y-160331009D01*
X126641904Y-160331009D02*
X126546666Y-160378628D01*
X126546666Y-160378628D02*
X126165714Y-160378628D01*
X127118095Y-159950057D02*
X127165714Y-159902438D01*
X127165714Y-159902438D02*
X127260952Y-159854819D01*
X127260952Y-159854819D02*
X127499047Y-159854819D01*
X127499047Y-159854819D02*
X127594285Y-159902438D01*
X127594285Y-159902438D02*
X127641904Y-159950057D01*
X127641904Y-159950057D02*
X127689523Y-160045295D01*
X127689523Y-160045295D02*
X127689523Y-160140533D01*
X127689523Y-160140533D02*
X127641904Y-160283390D01*
X127641904Y-160283390D02*
X127070476Y-160854819D01*
X127070476Y-160854819D02*
X127689523Y-160854819D01*
X128594285Y-159854819D02*
X128118095Y-159854819D01*
X128118095Y-159854819D02*
X128070476Y-160331009D01*
X128070476Y-160331009D02*
X128118095Y-160283390D01*
X128118095Y-160283390D02*
X128213333Y-160235771D01*
X128213333Y-160235771D02*
X128451428Y-160235771D01*
X128451428Y-160235771D02*
X128546666Y-160283390D01*
X128546666Y-160283390D02*
X128594285Y-160331009D01*
X128594285Y-160331009D02*
X128641904Y-160426247D01*
X128641904Y-160426247D02*
X128641904Y-160664342D01*
X128641904Y-160664342D02*
X128594285Y-160759580D01*
X128594285Y-160759580D02*
X128546666Y-160807200D01*
X128546666Y-160807200D02*
X128451428Y-160854819D01*
X128451428Y-160854819D02*
X128213333Y-160854819D01*
X128213333Y-160854819D02*
X128118095Y-160807200D01*
X128118095Y-160807200D02*
X128070476Y-160759580D01*
X125385714Y-66454819D02*
X125385714Y-65454819D01*
X125385714Y-65454819D02*
X125623809Y-65454819D01*
X125623809Y-65454819D02*
X125766666Y-65502438D01*
X125766666Y-65502438D02*
X125861904Y-65597676D01*
X125861904Y-65597676D02*
X125909523Y-65692914D01*
X125909523Y-65692914D02*
X125957142Y-65883390D01*
X125957142Y-65883390D02*
X125957142Y-66026247D01*
X125957142Y-66026247D02*
X125909523Y-66216723D01*
X125909523Y-66216723D02*
X125861904Y-66311961D01*
X125861904Y-66311961D02*
X125766666Y-66407200D01*
X125766666Y-66407200D02*
X125623809Y-66454819D01*
X125623809Y-66454819D02*
X125385714Y-66454819D01*
X126814285Y-65788152D02*
X126814285Y-66454819D01*
X126576190Y-65407200D02*
X126338095Y-66121485D01*
X126338095Y-66121485D02*
X126957142Y-66121485D01*
X127528571Y-65454819D02*
X127623809Y-65454819D01*
X127623809Y-65454819D02*
X127719047Y-65502438D01*
X127719047Y-65502438D02*
X127766666Y-65550057D01*
X127766666Y-65550057D02*
X127814285Y-65645295D01*
X127814285Y-65645295D02*
X127861904Y-65835771D01*
X127861904Y-65835771D02*
X127861904Y-66073866D01*
X127861904Y-66073866D02*
X127814285Y-66264342D01*
X127814285Y-66264342D02*
X127766666Y-66359580D01*
X127766666Y-66359580D02*
X127719047Y-66407200D01*
X127719047Y-66407200D02*
X127623809Y-66454819D01*
X127623809Y-66454819D02*
X127528571Y-66454819D01*
X127528571Y-66454819D02*
X127433333Y-66407200D01*
X127433333Y-66407200D02*
X127385714Y-66359580D01*
X127385714Y-66359580D02*
X127338095Y-66264342D01*
X127338095Y-66264342D02*
X127290476Y-66073866D01*
X127290476Y-66073866D02*
X127290476Y-65835771D01*
X127290476Y-65835771D02*
X127338095Y-65645295D01*
X127338095Y-65645295D02*
X127385714Y-65550057D01*
X127385714Y-65550057D02*
X127433333Y-65502438D01*
X127433333Y-65502438D02*
X127528571Y-65454819D01*
X125054819Y-47442857D02*
X124578628Y-47776190D01*
X125054819Y-48014285D02*
X124054819Y-48014285D01*
X124054819Y-48014285D02*
X124054819Y-47633333D01*
X124054819Y-47633333D02*
X124102438Y-47538095D01*
X124102438Y-47538095D02*
X124150057Y-47490476D01*
X124150057Y-47490476D02*
X124245295Y-47442857D01*
X124245295Y-47442857D02*
X124388152Y-47442857D01*
X124388152Y-47442857D02*
X124483390Y-47490476D01*
X124483390Y-47490476D02*
X124531009Y-47538095D01*
X124531009Y-47538095D02*
X124578628Y-47633333D01*
X124578628Y-47633333D02*
X124578628Y-48014285D01*
X125054819Y-46490476D02*
X125054819Y-47061904D01*
X125054819Y-46776190D02*
X124054819Y-46776190D01*
X124054819Y-46776190D02*
X124197676Y-46871428D01*
X124197676Y-46871428D02*
X124292914Y-46966666D01*
X124292914Y-46966666D02*
X124340533Y-47061904D01*
X124483390Y-45919047D02*
X124435771Y-46014285D01*
X124435771Y-46014285D02*
X124388152Y-46061904D01*
X124388152Y-46061904D02*
X124292914Y-46109523D01*
X124292914Y-46109523D02*
X124245295Y-46109523D01*
X124245295Y-46109523D02*
X124150057Y-46061904D01*
X124150057Y-46061904D02*
X124102438Y-46014285D01*
X124102438Y-46014285D02*
X124054819Y-45919047D01*
X124054819Y-45919047D02*
X124054819Y-45728571D01*
X124054819Y-45728571D02*
X124102438Y-45633333D01*
X124102438Y-45633333D02*
X124150057Y-45585714D01*
X124150057Y-45585714D02*
X124245295Y-45538095D01*
X124245295Y-45538095D02*
X124292914Y-45538095D01*
X124292914Y-45538095D02*
X124388152Y-45585714D01*
X124388152Y-45585714D02*
X124435771Y-45633333D01*
X124435771Y-45633333D02*
X124483390Y-45728571D01*
X124483390Y-45728571D02*
X124483390Y-45919047D01*
X124483390Y-45919047D02*
X124531009Y-46014285D01*
X124531009Y-46014285D02*
X124578628Y-46061904D01*
X124578628Y-46061904D02*
X124673866Y-46109523D01*
X124673866Y-46109523D02*
X124864342Y-46109523D01*
X124864342Y-46109523D02*
X124959580Y-46061904D01*
X124959580Y-46061904D02*
X125007200Y-46014285D01*
X125007200Y-46014285D02*
X125054819Y-45919047D01*
X125054819Y-45919047D02*
X125054819Y-45728571D01*
X125054819Y-45728571D02*
X125007200Y-45633333D01*
X125007200Y-45633333D02*
X124959580Y-45585714D01*
X124959580Y-45585714D02*
X124864342Y-45538095D01*
X124864342Y-45538095D02*
X124673866Y-45538095D01*
X124673866Y-45538095D02*
X124578628Y-45585714D01*
X124578628Y-45585714D02*
X124531009Y-45633333D01*
X124531009Y-45633333D02*
X124483390Y-45728571D01*
D11*
%TO.C,D23*%
X139939680Y-32536529D02*
X141918548Y-33679029D01*
X141918548Y-33679029D02*
X142653548Y-32405971D01*
X142653548Y-32405971D02*
X140674680Y-31263471D01*
%TO.C,C16*%
X121590000Y-160350000D02*
X121590000Y-164560000D01*
X121590000Y-164560000D02*
X124610000Y-164560000D01*
X124610000Y-164560000D02*
X124610000Y-160350000D01*
D12*
%TO.C,SW2*%
X153050000Y-140050000D02*
X153050000Y-140280000D01*
X153050000Y-140050000D02*
X157050000Y-140050000D01*
X153050000Y-142950000D02*
X153050000Y-142720000D01*
X157050000Y-140050000D02*
X157050000Y-140280000D01*
X157050000Y-142720000D02*
X157050000Y-142950000D01*
X157050000Y-142950000D02*
X153050000Y-142950000D01*
D11*
%TO.C,D15*%
X108162500Y-124985000D02*
X110447500Y-124985000D01*
X110447500Y-123515000D02*
X108162500Y-123515000D01*
X110447500Y-124985000D02*
X110447500Y-123515000D01*
%TO.C,R6*%
X161662258Y-163477500D02*
X161187742Y-163477500D01*
X161662258Y-164522500D02*
X161187742Y-164522500D01*
%TO.C,R5*%
X159277500Y-159537258D02*
X159277500Y-159062742D01*
X160322500Y-159537258D02*
X160322500Y-159062742D01*
%TO.C,R20*%
X150277500Y-162812258D02*
X150277500Y-162337742D01*
X151322500Y-162812258D02*
X151322500Y-162337742D01*
%TO.C,D10*%
X107450000Y-149735000D02*
X109735000Y-149735000D01*
X109735000Y-148265000D02*
X107450000Y-148265000D01*
X109735000Y-149735000D02*
X109735000Y-148265000D01*
%TO.C,D39*%
X128715000Y-69265000D02*
X128715000Y-70735000D01*
X128715000Y-70735000D02*
X131000000Y-70735000D01*
X131000000Y-69265000D02*
X128715000Y-69265000D01*
%TO.C,D75*%
X103500000Y-39935000D02*
X105785000Y-39935000D01*
X105785000Y-38465000D02*
X103500000Y-38465000D01*
X105785000Y-39935000D02*
X105785000Y-38465000D01*
%TO.C,D12*%
X104000000Y-139485000D02*
X106285000Y-139485000D01*
X106285000Y-138015000D02*
X104000000Y-138015000D01*
X106285000Y-139485000D02*
X106285000Y-138015000D01*
%TO.C,D53*%
X122715000Y-112865000D02*
X122715000Y-114335000D01*
X122715000Y-114335000D02*
X125000000Y-114335000D01*
X125000000Y-112865000D02*
X122715000Y-112865000D01*
%TO.C,D51*%
X114665000Y-109315000D02*
X114665000Y-111600000D01*
X116135000Y-109315000D02*
X114665000Y-109315000D01*
X116135000Y-111600000D02*
X116135000Y-109315000D01*
%TO.C,D34*%
X125515000Y-95465000D02*
X125515000Y-96935000D01*
X125515000Y-96935000D02*
X127800000Y-96935000D01*
X127800000Y-95465000D02*
X125515000Y-95465000D01*
%TO.C,R10*%
X113462742Y-82877500D02*
X113937258Y-82877500D01*
X113462742Y-83922500D02*
X113937258Y-83922500D01*
%TO.C,U1*%
X164510000Y-159070000D02*
X165235000Y-159070000D01*
X164510000Y-159795000D02*
X164510000Y-159070000D01*
X164510000Y-163565000D02*
X164510000Y-164290000D01*
X164510000Y-164290000D02*
X165235000Y-164290000D01*
X169005000Y-159070000D02*
X169490000Y-159070000D01*
X169730000Y-159795000D02*
X169730000Y-159370000D01*
X169730000Y-163565000D02*
X169730000Y-164290000D01*
X169730000Y-164290000D02*
X169005000Y-164290000D01*
X170060000Y-159310000D02*
X169730000Y-159070000D01*
X170060000Y-158830000D01*
X170060000Y-159310000D01*
G36*
X170060000Y-159310000D02*
G01*
X169730000Y-159070000D01*
X170060000Y-158830000D01*
X170060000Y-159310000D01*
G37*
D12*
%TO.C,SW3*%
X153125000Y-144350000D02*
X153125000Y-144580000D01*
X153125000Y-144350000D02*
X157125000Y-144350000D01*
X153125000Y-147250000D02*
X153125000Y-147020000D01*
X157125000Y-144350000D02*
X157125000Y-144580000D01*
X157125000Y-147020000D02*
X157125000Y-147250000D01*
X157125000Y-147250000D02*
X153125000Y-147250000D01*
D11*
%TO.C,R22*%
X153927500Y-163487258D02*
X153927500Y-163012742D01*
X154972500Y-163487258D02*
X154972500Y-163012742D01*
%TO.C,C3*%
X158390000Y-35090000D02*
X158390000Y-39300000D01*
X161410000Y-35090000D02*
X158390000Y-35090000D01*
X161410000Y-39300000D02*
X161410000Y-35090000D01*
%TO.C,D83*%
X138600000Y-154100000D02*
X138600000Y-152140000D01*
X139800000Y-152140000D02*
X138600000Y-152140000D01*
X139800000Y-154100000D02*
X139800000Y-152140000D01*
%TO.C,D5*%
X164364591Y-22204038D02*
X165980330Y-23819777D01*
X165980330Y-23819777D02*
X167019777Y-22780330D01*
X167019777Y-22780330D02*
X165404038Y-21164591D01*
%TO.C,D74*%
X103487500Y-42935000D02*
X105772500Y-42935000D01*
X105772500Y-41465000D02*
X103487500Y-41465000D01*
X105772500Y-42935000D02*
X105772500Y-41465000D01*
%TO.C,D36*%
X127915000Y-84265000D02*
X127915000Y-85735000D01*
X127915000Y-85735000D02*
X130200000Y-85735000D01*
X130200000Y-84265000D02*
X127915000Y-84265000D01*
%TO.C,C6*%
X161165000Y-159511252D02*
X161165000Y-158988748D01*
X162635000Y-159511252D02*
X162635000Y-158988748D01*
%TO.C,R21*%
X140112258Y-19077500D02*
X139637742Y-19077500D01*
X140112258Y-20122500D02*
X139637742Y-20122500D01*
%TO.C,D81*%
X139025000Y-18035000D02*
X141310000Y-18035000D01*
X141310000Y-16565000D02*
X139025000Y-16565000D01*
X141310000Y-18035000D02*
X141310000Y-16565000D01*
%TO.C,D50*%
X111515000Y-115065000D02*
X111515000Y-116535000D01*
X111515000Y-116535000D02*
X113800000Y-116535000D01*
X113800000Y-115065000D02*
X111515000Y-115065000D01*
%TO.C,D13*%
X104800000Y-134535000D02*
X107085000Y-134535000D01*
X107085000Y-133065000D02*
X104800000Y-133065000D01*
X107085000Y-134535000D02*
X107085000Y-133065000D01*
%TO.C,R13*%
X160977500Y-135187258D02*
X160977500Y-134712742D01*
X162022500Y-135187258D02*
X162022500Y-134712742D01*
%TO.C,D19*%
X133187500Y-51435000D02*
X135472500Y-51435000D01*
X135472500Y-49965000D02*
X133187500Y-49965000D01*
X135472500Y-51435000D02*
X135472500Y-49965000D01*
%TO.C,R24*%
X145217742Y-160027500D02*
X145692258Y-160027500D01*
X145217742Y-161072500D02*
X145692258Y-161072500D01*
D12*
%TO.C,U4*%
X109845000Y-72950000D02*
X105445000Y-72950000D01*
X109845000Y-82650000D02*
X105445000Y-82650000D01*
D13*
X112185000Y-82435000D02*
G75*
G02*
X111985000Y-82435000I-100000J0D01*
G01*
X111985000Y-82435000D02*
G75*
G02*
X112185000Y-82435000I100000J0D01*
G01*
D11*
%TO.C,D21*%
X136139680Y-40286529D02*
X138118548Y-41429029D01*
X138118548Y-41429029D02*
X138853548Y-40155971D01*
X138853548Y-40155971D02*
X136874680Y-39013471D01*
%TO.C,D4*%
X160719721Y-25092684D02*
X161862221Y-27071552D01*
X161862221Y-27071552D02*
X163135279Y-26336552D01*
X163135279Y-26336552D02*
X161992779Y-24357684D01*
%TO.C,C13*%
X174865000Y-118261252D02*
X174865000Y-117738748D01*
X176335000Y-118261252D02*
X176335000Y-117738748D01*
%TO.C,R17*%
X172877500Y-114662742D02*
X172877500Y-115137258D01*
X173922500Y-114662742D02*
X173922500Y-115137258D01*
%TO.C,D17*%
X128762500Y-62585000D02*
X131047500Y-62585000D01*
X131047500Y-61115000D02*
X128762500Y-61115000D01*
X131047500Y-62585000D02*
X131047500Y-61115000D01*
%TO.C,D6*%
X167930223Y-23980330D02*
X168969670Y-25019777D01*
X168969670Y-25019777D02*
X170585409Y-23404038D01*
X169545962Y-22364591D02*
X167930223Y-23980330D01*
D12*
%TO.C,U7*%
X122325000Y-34650000D02*
X117925000Y-34650000D01*
X122325000Y-44350000D02*
X117925000Y-44350000D01*
D13*
X124665000Y-44135000D02*
G75*
G02*
X124465000Y-44135000I-100000J0D01*
G01*
X124465000Y-44135000D02*
G75*
G02*
X124665000Y-44135000I100000J0D01*
G01*
D11*
%TO.C,R1*%
X161187742Y-161577500D02*
X161662258Y-161577500D01*
X161187742Y-162622500D02*
X161662258Y-162622500D01*
%TO.C,R15*%
X172877500Y-117962742D02*
X172877500Y-118437258D01*
X173922500Y-117962742D02*
X173922500Y-118437258D01*
%TO.C,D55*%
X124115000Y-104665000D02*
X124115000Y-106135000D01*
X124115000Y-106135000D02*
X126400000Y-106135000D01*
X126400000Y-104665000D02*
X124115000Y-104665000D01*
%TO.C,C5*%
X140500000Y-139510000D02*
X144710000Y-139510000D01*
X144710000Y-136490000D02*
X140500000Y-136490000D01*
X144710000Y-139510000D02*
X144710000Y-136490000D01*
%TO.C,D84*%
X136150000Y-154050000D02*
X136150000Y-152090000D01*
X137350000Y-152090000D02*
X136150000Y-152090000D01*
X137350000Y-154050000D02*
X137350000Y-152090000D01*
%TO.C,D11*%
X104200000Y-144985000D02*
X106485000Y-144985000D01*
X106485000Y-143515000D02*
X104200000Y-143515000D01*
X106485000Y-144985000D02*
X106485000Y-143515000D01*
%TO.C,C10*%
X172250000Y-78760000D02*
X176460000Y-78760000D01*
X176460000Y-75740000D02*
X172250000Y-75740000D01*
X176460000Y-78760000D02*
X176460000Y-75740000D01*
%TO.C,D37*%
X128115000Y-78865000D02*
X128115000Y-80335000D01*
X128115000Y-80335000D02*
X130400000Y-80335000D01*
X130400000Y-78865000D02*
X128115000Y-78865000D01*
%TO.C,C4*%
X142603080Y-134490000D02*
X142321920Y-134490000D01*
X142603080Y-135510000D02*
X142321920Y-135510000D01*
%TO.C,C1*%
X164540000Y-152890000D02*
X164540000Y-155910000D01*
X164540000Y-155910000D02*
X168750000Y-155910000D01*
X168750000Y-152890000D02*
X164540000Y-152890000D01*
%TO.C,D9*%
X110400000Y-154235000D02*
X112685000Y-154235000D01*
X112685000Y-152765000D02*
X110400000Y-152765000D01*
X112685000Y-154235000D02*
X112685000Y-152765000D01*
%TO.C,D3*%
X156121250Y-24868004D02*
X156121250Y-27153004D01*
X156121250Y-27153004D02*
X157591250Y-27153004D01*
X157591250Y-27153004D02*
X157591250Y-24868004D01*
%TO.C,D2*%
X151457221Y-25692684D02*
X152599721Y-27671552D01*
X152599721Y-27671552D02*
X153872779Y-26936552D01*
X153872779Y-26936552D02*
X152730279Y-24957684D01*
%TO.C,D14*%
X107200000Y-130485000D02*
X109485000Y-130485000D01*
X109485000Y-129015000D02*
X107200000Y-129015000D01*
X109485000Y-130485000D02*
X109485000Y-129015000D01*
%TO.C,D18*%
X130650000Y-58285000D02*
X132935000Y-58285000D01*
X132935000Y-56815000D02*
X130650000Y-56815000D01*
X132935000Y-58285000D02*
X132935000Y-56815000D01*
%TO.C,D33*%
X125115000Y-101065000D02*
X125115000Y-102535000D01*
X125115000Y-102535000D02*
X127400000Y-102535000D01*
X127400000Y-101065000D02*
X125115000Y-101065000D01*
%TO.C,C19*%
X107540000Y-160500000D02*
X107540000Y-164710000D01*
X107540000Y-164710000D02*
X110560000Y-164710000D01*
X110560000Y-164710000D02*
X110560000Y-160500000D01*
%TO.C,D20*%
X134839680Y-44486529D02*
X136818548Y-45629029D01*
X136818548Y-45629029D02*
X137553548Y-44355971D01*
X137553548Y-44355971D02*
X135574680Y-43213471D01*
%TO.C,D49*%
X103965000Y-67377500D02*
X103965000Y-69662500D01*
X105435000Y-67377500D02*
X103965000Y-67377500D01*
X105435000Y-69662500D02*
X105435000Y-67377500D01*
%TO.C,D22*%
X137707685Y-35842779D02*
X139686553Y-36985279D01*
X139686553Y-36985279D02*
X140421553Y-35712221D01*
X140421553Y-35712221D02*
X138442685Y-34569721D01*
%TO.C,R16*%
X160462742Y-130077500D02*
X160937258Y-130077500D01*
X160462742Y-131122500D02*
X160937258Y-131122500D01*
%TO.C,D72*%
X127320000Y-155800000D02*
X127320000Y-157800000D01*
X127320000Y-155800000D02*
X131330000Y-155800000D01*
X127320000Y-157800000D02*
X131330000Y-157800000D01*
%TO.C,J1*%
X133280000Y-159200000D02*
X133280000Y-161200000D01*
X133280000Y-163100000D02*
X133280000Y-165000000D01*
X133280000Y-165000000D02*
X142680000Y-165000000D01*
X142680000Y-159200000D02*
X142680000Y-161200000D01*
X142680000Y-163100000D02*
X142680000Y-165000000D01*
%TO.C,D38*%
X128315000Y-74065000D02*
X128315000Y-75535000D01*
X128315000Y-75535000D02*
X130600000Y-75535000D01*
X130600000Y-74065000D02*
X128315000Y-74065000D01*
%TO.C,U6*%
X162890000Y-125615000D02*
X162890000Y-143835000D01*
X163190000Y-125615000D02*
X162890000Y-125615000D01*
X163190000Y-143835000D02*
X162890000Y-143835000D01*
X183110000Y-125615000D02*
X177300000Y-125615000D01*
X183110000Y-125615000D02*
X183110000Y-143835000D01*
X183110000Y-143835000D02*
X176610000Y-143835000D01*
X177100000Y-125625000D02*
X176600000Y-125625000D01*
X176600000Y-125125000D01*
X177100000Y-125625000D01*
G36*
X177100000Y-125625000D02*
G01*
X176600000Y-125625000D01*
X176600000Y-125125000D01*
X177100000Y-125625000D01*
G37*
%TO.C,U8*%
X116000000Y-161290000D02*
X115200000Y-161290000D01*
X116000000Y-161290000D02*
X116800000Y-161290000D01*
X116000000Y-164410000D02*
X115200000Y-164410000D01*
X116000000Y-164410000D02*
X116800000Y-164410000D01*
X117540000Y-164690000D02*
X117060000Y-164690000D01*
X117300000Y-164360000D01*
X117540000Y-164690000D01*
G36*
X117540000Y-164690000D02*
G01*
X117060000Y-164690000D01*
X117300000Y-164360000D01*
X117540000Y-164690000D01*
G37*
%TO.C,R4*%
X145117742Y-155377500D02*
X145592258Y-155377500D01*
X145117742Y-156422500D02*
X145592258Y-156422500D01*
%TO.C,D54*%
X123115000Y-108265000D02*
X123115000Y-109735000D01*
X123115000Y-109735000D02*
X125400000Y-109735000D01*
X125400000Y-108265000D02*
X123115000Y-108265000D01*
%TO.C,D7*%
X172680223Y-29030330D02*
X173719670Y-30069777D01*
X173719670Y-30069777D02*
X175335409Y-28454038D01*
X174295962Y-27414591D02*
X172680223Y-29030330D01*
%TO.C,C18*%
X111990000Y-162959420D02*
X111990000Y-163240580D01*
X113010000Y-162959420D02*
X113010000Y-163240580D01*
%TO.C,R19*%
X152177500Y-162812258D02*
X152177500Y-162337742D01*
X153222500Y-162812258D02*
X153222500Y-162337742D01*
%TO.C,D8*%
X169707744Y-34047191D02*
X171323483Y-35662930D01*
X171323483Y-35662930D02*
X172362930Y-34623483D01*
X172362930Y-34623483D02*
X170747191Y-33007744D01*
%TO.C,R14*%
X160962258Y-131877500D02*
X160487742Y-131877500D01*
X160962258Y-132922500D02*
X160487742Y-132922500D01*
%TO.C,D24*%
X142789680Y-29836529D02*
X144768548Y-30979029D01*
X144768548Y-30979029D02*
X145503548Y-29705971D01*
X145503548Y-29705971D02*
X143524680Y-28563471D01*
%TO.C,D73*%
X103487500Y-45985000D02*
X105772500Y-45985000D01*
X105772500Y-44515000D02*
X103487500Y-44515000D01*
X105772500Y-45985000D02*
X105772500Y-44515000D01*
%TO.C,R3*%
X175277500Y-156137258D02*
X175277500Y-155662742D01*
X176322500Y-156137258D02*
X176322500Y-155662742D01*
%TO.C,D82*%
X144550000Y-157300000D02*
X146510000Y-157300000D01*
X144550000Y-158500000D02*
X146510000Y-158500000D01*
X146510000Y-158500000D02*
X146510000Y-157300000D01*
%TO.C,C11*%
X167450000Y-120310000D02*
X171660000Y-120310000D01*
X171660000Y-117290000D02*
X167450000Y-117290000D01*
X171660000Y-120310000D02*
X171660000Y-117290000D01*
%TO.C,D52*%
X119465000Y-110915000D02*
X119465000Y-113200000D01*
X120935000Y-110915000D02*
X119465000Y-110915000D01*
X120935000Y-113200000D02*
X120935000Y-110915000D01*
%TO.C,D16*%
X110000000Y-120735000D02*
X112285000Y-120735000D01*
X112285000Y-119265000D02*
X110000000Y-119265000D01*
X112285000Y-120735000D02*
X112285000Y-119265000D01*
%TO.C,C12*%
X169340580Y-121690000D02*
X169059420Y-121690000D01*
X169340580Y-122710000D02*
X169059420Y-122710000D01*
%TO.C,C17*%
X119290000Y-162934420D02*
X119290000Y-163215580D01*
X120310000Y-162934420D02*
X120310000Y-163215580D01*
%TO.C,R23*%
X155827500Y-163487258D02*
X155827500Y-163012742D01*
X156872500Y-163487258D02*
X156872500Y-163012742D01*
%TO.C,D35*%
X126115000Y-88865000D02*
X126115000Y-90335000D01*
X126115000Y-90335000D02*
X128400000Y-90335000D01*
X128400000Y-88865000D02*
X126115000Y-88865000D01*
%TO.C,D1*%
X145914591Y-27354038D02*
X147530330Y-28969777D01*
X147530330Y-28969777D02*
X148569777Y-27930330D01*
X148569777Y-27930330D02*
X146954038Y-26314591D01*
%TO.C,R2*%
X172677500Y-156137258D02*
X172677500Y-155662742D01*
X173722500Y-156137258D02*
X173722500Y-155662742D01*
%TO.C,C2*%
X156640000Y-37459420D02*
X156640000Y-37740580D01*
X157660000Y-37459420D02*
X157660000Y-37740580D01*
%TO.C,R25*%
X130817258Y-159777500D02*
X130342742Y-159777500D01*
X130817258Y-160822500D02*
X130342742Y-160822500D01*
%TO.C,D40*%
X128915000Y-65265000D02*
X128915000Y-66735000D01*
X128915000Y-66735000D02*
X131200000Y-66735000D01*
X131200000Y-65265000D02*
X128915000Y-65265000D01*
%TO.C,R18*%
X122477500Y-46562742D02*
X122477500Y-47037258D01*
X123522500Y-46562742D02*
X123522500Y-47037258D01*
%TD*%
M02*
