%TF.GenerationSoftware,KiCad,Pcbnew,9.0.0*%
%TF.CreationDate,2025-04-18T09:14:45-04:00*%
%TF.ProjectId,where_is_my_ion,77686572-655f-4697-935f-6d795f696f6e,rev?*%
%TF.SameCoordinates,Original*%
%TF.FileFunction,Copper,L1,Top*%
%TF.FilePolarity,Positive*%
%FSLAX46Y46*%
G04 Gerber Fmt 4.6, Leading zero omitted, Abs format (unit mm)*
G04 Created by KiCad (PCBNEW 9.0.0) date 2025-04-18 09:14:45*
%MOMM*%
%LPD*%
G01*
G04 APERTURE LIST*
G04 Aperture macros list*
%AMRoundRect*
0 Rectangle with rounded corners*
0 $1 Rounding radius*
0 $2 $3 $4 $5 $6 $7 $8 $9 X,Y pos of 4 corners*
0 Add a 4 corners polygon primitive as box body*
4,1,4,$2,$3,$4,$5,$6,$7,$8,$9,$2,$3,0*
0 Add four circle primitives for the rounded corners*
1,1,$1+$1,$2,$3*
1,1,$1+$1,$4,$5*
1,1,$1+$1,$6,$7*
1,1,$1+$1,$8,$9*
0 Add four rect primitives between the rounded corners*
20,1,$1+$1,$2,$3,$4,$5,0*
20,1,$1+$1,$4,$5,$6,$7,0*
20,1,$1+$1,$6,$7,$8,$9,0*
20,1,$1+$1,$8,$9,$2,$3,0*%
G04 Aperture macros list end*
%TA.AperFunction,SMDPad,CuDef*%
%ADD10RoundRect,0.218750X0.317568X0.112544X-0.061318X0.331294X-0.317568X-0.112544X0.061318X-0.331294X0*%
%TD*%
%TA.AperFunction,SMDPad,CuDef*%
%ADD11RoundRect,0.250000X0.925000X-0.412500X0.925000X0.412500X-0.925000X0.412500X-0.925000X-0.412500X0*%
%TD*%
%TA.AperFunction,SMDPad,CuDef*%
%ADD12R,1.350000X1.800000*%
%TD*%
%TA.AperFunction,SMDPad,CuDef*%
%ADD13RoundRect,0.218750X0.218750X0.256250X-0.218750X0.256250X-0.218750X-0.256250X0.218750X-0.256250X0*%
%TD*%
%TA.AperFunction,SMDPad,CuDef*%
%ADD14RoundRect,0.200000X0.200000X0.275000X-0.200000X0.275000X-0.200000X-0.275000X0.200000X-0.275000X0*%
%TD*%
%TA.AperFunction,SMDPad,CuDef*%
%ADD15RoundRect,0.200000X0.275000X-0.200000X0.275000X0.200000X-0.275000X0.200000X-0.275000X-0.200000X0*%
%TD*%
%TA.AperFunction,SMDPad,CuDef*%
%ADD16RoundRect,0.218750X-0.218750X-0.256250X0.218750X-0.256250X0.218750X0.256250X-0.218750X0.256250X0*%
%TD*%
%TA.AperFunction,SMDPad,CuDef*%
%ADD17RoundRect,0.218750X-0.256250X0.218750X-0.256250X-0.218750X0.256250X-0.218750X0.256250X0.218750X0*%
%TD*%
%TA.AperFunction,SMDPad,CuDef*%
%ADD18RoundRect,0.200000X-0.200000X-0.275000X0.200000X-0.275000X0.200000X0.275000X-0.200000X0.275000X0*%
%TD*%
%TA.AperFunction,SMDPad,CuDef*%
%ADD19RoundRect,0.062500X-0.062500X0.337500X-0.062500X-0.337500X0.062500X-0.337500X0.062500X0.337500X0*%
%TD*%
%TA.AperFunction,SMDPad,CuDef*%
%ADD20RoundRect,0.062500X-0.337500X0.062500X-0.337500X-0.062500X0.337500X-0.062500X0.337500X0.062500X0*%
%TD*%
%TA.AperFunction,HeatsinkPad*%
%ADD21R,3.350000X3.350000*%
%TD*%
%TA.AperFunction,SMDPad,CuDef*%
%ADD22RoundRect,0.250000X-0.925000X0.412500X-0.925000X-0.412500X0.925000X-0.412500X0.925000X0.412500X0*%
%TD*%
%TA.AperFunction,SMDPad,CuDef*%
%ADD23RoundRect,0.150000X0.200000X-0.150000X0.200000X0.150000X-0.200000X0.150000X-0.200000X-0.150000X0*%
%TD*%
%TA.AperFunction,SMDPad,CuDef*%
%ADD24RoundRect,0.218750X0.335876X0.026517X0.026517X0.335876X-0.335876X-0.026517X-0.026517X-0.335876X0*%
%TD*%
%TA.AperFunction,SMDPad,CuDef*%
%ADD25RoundRect,0.250000X0.475000X-0.250000X0.475000X0.250000X-0.475000X0.250000X-0.475000X-0.250000X0*%
%TD*%
%TA.AperFunction,SMDPad,CuDef*%
%ADD26RoundRect,0.051250X0.733750X0.153750X-0.733750X0.153750X-0.733750X-0.153750X0.733750X-0.153750X0*%
%TD*%
%TA.AperFunction,SMDPad,CuDef*%
%ADD27RoundRect,0.218750X0.331294X-0.061318X0.112544X0.317568X-0.331294X0.061318X-0.112544X-0.317568X0*%
%TD*%
%TA.AperFunction,SMDPad,CuDef*%
%ADD28RoundRect,0.200000X-0.275000X0.200000X-0.275000X-0.200000X0.275000X-0.200000X0.275000X0.200000X0*%
%TD*%
%TA.AperFunction,SMDPad,CuDef*%
%ADD29RoundRect,0.218750X0.026517X-0.335876X0.335876X-0.026517X-0.026517X0.335876X-0.335876X0.026517X0*%
%TD*%
%TA.AperFunction,SMDPad,CuDef*%
%ADD30RoundRect,0.250000X0.412500X0.925000X-0.412500X0.925000X-0.412500X-0.925000X0.412500X-0.925000X0*%
%TD*%
%TA.AperFunction,SMDPad,CuDef*%
%ADD31RoundRect,0.225000X0.225000X0.250000X-0.225000X0.250000X-0.225000X-0.250000X0.225000X-0.250000X0*%
%TD*%
%TA.AperFunction,SMDPad,CuDef*%
%ADD32RoundRect,0.250000X-0.412500X-0.925000X0.412500X-0.925000X0.412500X0.925000X-0.412500X0.925000X0*%
%TD*%
%TA.AperFunction,SMDPad,CuDef*%
%ADD33RoundRect,0.218750X0.256250X-0.218750X0.256250X0.218750X-0.256250X0.218750X-0.256250X-0.218750X0*%
%TD*%
%TA.AperFunction,SMDPad,CuDef*%
%ADD34RoundRect,0.225000X-0.225000X-0.375000X0.225000X-0.375000X0.225000X0.375000X-0.225000X0.375000X0*%
%TD*%
%TA.AperFunction,SMDPad,CuDef*%
%ADD35R,0.600000X1.450000*%
%TD*%
%TA.AperFunction,SMDPad,CuDef*%
%ADD36R,0.300000X1.450000*%
%TD*%
%TA.AperFunction,HeatsinkPad*%
%ADD37O,1.000000X2.100000*%
%TD*%
%TA.AperFunction,HeatsinkPad*%
%ADD38O,1.000000X1.600000*%
%TD*%
%TA.AperFunction,SMDPad,CuDef*%
%ADD39R,0.900000X1.500000*%
%TD*%
%TA.AperFunction,HeatsinkPad*%
%ADD40C,0.600000*%
%TD*%
%TA.AperFunction,HeatsinkPad*%
%ADD41R,2.900000X2.900000*%
%TD*%
%TA.AperFunction,SMDPad,CuDef*%
%ADD42RoundRect,0.150000X0.512500X0.150000X-0.512500X0.150000X-0.512500X-0.150000X0.512500X-0.150000X0*%
%TD*%
%TA.AperFunction,SMDPad,CuDef*%
%ADD43RoundRect,0.225000X-0.250000X0.225000X-0.250000X-0.225000X0.250000X-0.225000X0.250000X0.225000X0*%
%TD*%
%TA.AperFunction,SMDPad,CuDef*%
%ADD44RoundRect,0.150000X-0.150000X-0.200000X0.150000X-0.200000X0.150000X0.200000X-0.150000X0.200000X0*%
%TD*%
%TA.AperFunction,ViaPad*%
%ADD45C,0.600000*%
%TD*%
%TA.AperFunction,Conductor*%
%ADD46C,0.500000*%
%TD*%
%TA.AperFunction,Conductor*%
%ADD47C,0.300000*%
%TD*%
G04 APERTURE END LIST*
D10*
%TO.P,D23,1,K*%
%TO.N,/INTER_rnt_uw_2*%
X141681995Y-32693750D03*
%TO.P,D23,2,A*%
%TO.N,+3V3*%
X140318005Y-31906250D03*
%TD*%
D11*
%TO.P,C16,1*%
%TO.N,+5V*%
X123100000Y-163637500D03*
%TO.P,C16,2*%
%TO.N,GND*%
X123100000Y-160562500D03*
%TD*%
D12*
%TO.P,SW2,1,1*%
%TO.N,/IO0_SW*%
X157125000Y-141500000D03*
%TO.P,SW2,2,2*%
%TO.N,GND*%
X152975000Y-141500000D03*
%TD*%
D13*
%TO.P,D15,1,K*%
%TO.N,/INTER_mill_block_2*%
X109750000Y-124250000D03*
%TO.P,D15,2,A*%
%TO.N,+3V3*%
X108175000Y-124250000D03*
%TD*%
D14*
%TO.P,R6,1*%
%TO.N,Net-(U1-~{SUSPEND})*%
X162250000Y-164000000D03*
%TO.P,R6,2*%
%TO.N,GND*%
X160600000Y-164000000D03*
%TD*%
D15*
%TO.P,R5,1*%
%TO.N,Net-(U1-VBUS)*%
X159800000Y-160125000D03*
%TO.P,R5,2*%
%TO.N,GND*%
X159800000Y-158475000D03*
%TD*%
%TO.P,R20,1*%
%TO.N,/USB_D-*%
X150800000Y-163400000D03*
%TO.P,R20,2*%
%TO.N,/IO18*%
X150800000Y-161750000D03*
%TD*%
D13*
%TO.P,D10,1,K*%
%TO.N,/INTER_block_fairway_3*%
X109037500Y-149000000D03*
%TO.P,D10,2,A*%
%TO.N,+3V3*%
X107462500Y-149000000D03*
%TD*%
D16*
%TO.P,D39,1,K*%
%TO.N,/STN_GRH*%
X129412500Y-70000000D03*
%TO.P,D39,2,A*%
%TO.N,+3V3*%
X130987500Y-70000000D03*
%TD*%
D13*
%TO.P,D75,1,K*%
%TO.N,/LED_WIFI*%
X105087500Y-39200000D03*
%TO.P,D75,2,A*%
%TO.N,+3V3*%
X103512500Y-39200000D03*
%TD*%
%TO.P,D12,1,K*%
%TO.N,/INTER_block_fairway_1*%
X105587500Y-138750000D03*
%TO.P,D12,2,A*%
%TO.N,+3V3*%
X104012500Y-138750000D03*
%TD*%
D16*
%TO.P,D53,1,K*%
%TO.N,/STN_BORDEN*%
X123412500Y-113600000D03*
%TO.P,D53,2,A*%
%TO.N,+3V3*%
X124987500Y-113600000D03*
%TD*%
D17*
%TO.P,D51,1,K*%
%TO.N,/INTER_borden_mill_2*%
X115400000Y-110012500D03*
%TO.P,D51,2,A*%
%TO.N,+3V3*%
X115400000Y-111587500D03*
%TD*%
D16*
%TO.P,D34,1,K*%
%TO.N,/STN_QUEEN*%
X126212500Y-96200000D03*
%TO.P,D34,2,A*%
%TO.N,+3V3*%
X127787500Y-96200000D03*
%TD*%
D18*
%TO.P,R10,1*%
%TO.N,Net-(U4-REXT)*%
X112875000Y-83400000D03*
%TO.P,R10,2*%
%TO.N,GND*%
X114525000Y-83400000D03*
%TD*%
D19*
%TO.P,U1,1,~{DCD}*%
%TO.N,unconnected-(U1-~{DCD}-Pad1)*%
X168620000Y-159230000D03*
%TO.P,U1,2,~{RI}/CLK*%
%TO.N,unconnected-(U1-~{RI}{slash}CLK-Pad2)*%
X168120000Y-159230000D03*
%TO.P,U1,3,GND*%
%TO.N,GND*%
X167620000Y-159230000D03*
%TO.P,U1,4,D+*%
%TO.N,/USB_DP*%
X167120000Y-159230000D03*
%TO.P,U1,5,D-*%
%TO.N,/USB_DN*%
X166620000Y-159230000D03*
%TO.P,U1,6,VDD*%
%TO.N,+3V3*%
X166120000Y-159230000D03*
%TO.P,U1,7,VREGIN*%
X165620000Y-159230000D03*
D20*
%TO.P,U1,8,VBUS*%
%TO.N,Net-(U1-VBUS)*%
X164670000Y-160180000D03*
%TO.P,U1,9,~{RST}*%
%TO.N,Net-(U1-~{RST})*%
X164670000Y-160680000D03*
%TO.P,U1,10,NC*%
%TO.N,unconnected-(U1-NC-Pad10)*%
X164670000Y-161180000D03*
%TO.P,U1,11,~{SUSPEND}*%
%TO.N,Net-(U1-~{SUSPEND})*%
X164670000Y-161680000D03*
%TO.P,U1,12,SUSPEND*%
%TO.N,unconnected-(U1-SUSPEND-Pad12)*%
X164670000Y-162180000D03*
%TO.P,U1,13,CHREN*%
%TO.N,unconnected-(U1-CHREN-Pad13)*%
X164670000Y-162680000D03*
%TO.P,U1,14,CHR1*%
%TO.N,unconnected-(U1-CHR1-Pad14)*%
X164670000Y-163180000D03*
D19*
%TO.P,U1,15,CHR0*%
%TO.N,unconnected-(U1-CHR0-Pad15)*%
X165620000Y-164130000D03*
%TO.P,U1,16,~{WAKEUP}/GPIO.3*%
%TO.N,unconnected-(U1-~{WAKEUP}{slash}GPIO.3-Pad16)*%
X166120000Y-164130000D03*
%TO.P,U1,17,RS485/GPIO.2*%
%TO.N,unconnected-(U1-RS485{slash}GPIO.2-Pad17)*%
X166620000Y-164130000D03*
%TO.P,U1,18,~{RXT}/GPIO.1*%
%TO.N,unconnected-(U1-~{RXT}{slash}GPIO.1-Pad18)*%
X167120000Y-164130000D03*
%TO.P,U1,19,~{TXT}/GPIO.0*%
%TO.N,unconnected-(U1-~{TXT}{slash}GPIO.0-Pad19)*%
X167620000Y-164130000D03*
%TO.P,U1,20,GPIO.6*%
%TO.N,unconnected-(U1-GPIO.6-Pad20)*%
X168120000Y-164130000D03*
%TO.P,U1,21,GPIO.5*%
%TO.N,unconnected-(U1-GPIO.5-Pad21)*%
X168620000Y-164130000D03*
D20*
%TO.P,U1,22,GPIO.4*%
%TO.N,unconnected-(U1-GPIO.4-Pad22)*%
X169570000Y-163180000D03*
%TO.P,U1,23,~{CTS}*%
%TO.N,unconnected-(U1-~{CTS}-Pad23)*%
X169570000Y-162680000D03*
%TO.P,U1,24,~{RTS}*%
%TO.N,/~{RTS}*%
X169570000Y-162180000D03*
%TO.P,U1,25,RXD*%
%TO.N,Net-(U1-RXD)*%
X169570000Y-161680000D03*
%TO.P,U1,26,TXD*%
%TO.N,Net-(U1-TXD)*%
X169570000Y-161180000D03*
%TO.P,U1,27,~{DSR}*%
%TO.N,unconnected-(U1-~{DSR}-Pad27)*%
X169570000Y-160680000D03*
%TO.P,U1,28,~{DTR}*%
%TO.N,/~{DTR}*%
X169570000Y-160180000D03*
D21*
%TO.P,U1,29,GND*%
%TO.N,GND*%
X167120000Y-161680000D03*
%TD*%
D12*
%TO.P,SW3,1,1*%
%TO.N,/IO1_SW*%
X157200000Y-145800000D03*
%TO.P,SW3,2,2*%
%TO.N,GND*%
X153050000Y-145800000D03*
%TD*%
D15*
%TO.P,R22,1*%
%TO.N,/USB_D+*%
X154450000Y-164075000D03*
%TO.P,R22,2*%
%TO.N,/IO19*%
X154450000Y-162425000D03*
%TD*%
D22*
%TO.P,C3,1*%
%TO.N,+3V3*%
X159900000Y-36012500D03*
%TO.P,C3,2*%
%TO.N,GND*%
X159900000Y-39087500D03*
%TD*%
D23*
%TO.P,D83,1,A1*%
%TO.N,GND*%
X139200000Y-152700000D03*
%TO.P,D83,2,A2*%
%TO.N,/USB_D-*%
X139200000Y-154100000D03*
%TD*%
D24*
%TO.P,D5,1,K*%
%TO.N,/STN_NORTHFIELD*%
X166006847Y-22806847D03*
%TO.P,D5,2,A*%
%TO.N,+3V3*%
X164893153Y-21693153D03*
%TD*%
D13*
%TO.P,D74,1,K*%
%TO.N,/LED_MAP_MODE*%
X105075000Y-42200000D03*
%TO.P,D74,2,A*%
%TO.N,+3V3*%
X103500000Y-42200000D03*
%TD*%
D16*
%TO.P,D36,1,K*%
%TO.N,/STN_CENTRAL*%
X128612500Y-85000000D03*
%TO.P,D36,2,A*%
%TO.N,+3V3*%
X130187500Y-85000000D03*
%TD*%
D25*
%TO.P,C6,1*%
%TO.N,Net-(U1-VBUS)*%
X161900000Y-160200000D03*
%TO.P,C6,2*%
%TO.N,GND*%
X161900000Y-158300000D03*
%TD*%
D14*
%TO.P,R21,1*%
%TO.N,+3V3*%
X140700000Y-19600000D03*
%TO.P,R21,2*%
%TO.N,Net-(D81-A)*%
X139050000Y-19600000D03*
%TD*%
D13*
%TO.P,D81,1,K*%
%TO.N,GND*%
X140612500Y-17300000D03*
%TO.P,D81,2,A*%
%TO.N,Net-(D81-A)*%
X139037500Y-17300000D03*
%TD*%
D16*
%TO.P,D50,1,K*%
%TO.N,/STN_MILL*%
X112212500Y-115800000D03*
%TO.P,D50,2,A*%
%TO.N,+3V3*%
X113787500Y-115800000D03*
%TD*%
D13*
%TO.P,D13,1,K*%
%TO.N,/STN_BLOCK_LINE*%
X106387500Y-133800000D03*
%TO.P,D13,2,A*%
%TO.N,+3V3*%
X104812500Y-133800000D03*
%TD*%
D15*
%TO.P,R13,1*%
%TO.N,/IO5_SDA*%
X161500000Y-135775000D03*
%TO.P,R13,2*%
%TO.N,+3V3*%
X161500000Y-134125000D03*
%TD*%
D13*
%TO.P,D19,1,K*%
%TO.N,/INTER_lwp_willis*%
X134775000Y-50700000D03*
%TO.P,D19,2,A*%
%TO.N,+3V3*%
X133200000Y-50700000D03*
%TD*%
D18*
%TO.P,R24,1*%
%TO.N,Net-(J1-CC2)*%
X144630000Y-160550000D03*
%TO.P,R24,2*%
%TO.N,GND*%
X146280000Y-160550000D03*
%TD*%
D26*
%TO.P,U4,1,REXT*%
%TO.N,Net-(U4-REXT)*%
X110515000Y-82025000D03*
%TO.P,U4,2,A0*%
%TO.N,+3V3*%
X110515000Y-81375000D03*
%TO.P,U4,3,A1*%
%TO.N,GND*%
X110515000Y-80725000D03*
%TO.P,U4,4,A2*%
X110515000Y-80075000D03*
%TO.P,U4,5,A3*%
X110515000Y-79425000D03*
%TO.P,U4,6,~{OUT0}*%
%TO.N,/INTER_allen_grh_1*%
X110515000Y-78775000D03*
%TO.P,U4,7,~{OUT1}*%
%TO.N,/STN_GRH*%
X110515000Y-78125000D03*
%TO.P,U4,8,~{OUT2}*%
%TO.N,/INTER_grh_cntrl_1*%
X110515000Y-77475000D03*
%TO.P,U4,9,~{OUT3}*%
%TO.N,/INTER_grh_cntrl_2*%
X110515000Y-76825000D03*
%TO.P,U4,10,GND_1*%
%TO.N,GND*%
X110515000Y-76175000D03*
%TO.P,U4,11,~{OUT4}*%
%TO.N,/STN_CENTRAL*%
X110515000Y-75525000D03*
%TO.P,U4,12,~{OUT5}*%
%TO.N,/STN_VICTORIA*%
X110515000Y-74875000D03*
%TO.P,U4,13,~{OUT6}*%
%TO.N,/STN_QUEEN*%
X110515000Y-74225000D03*
%TO.P,U4,14,~{OUT7}*%
%TO.N,/STN_KCHNR_MRKT*%
X110515000Y-73575000D03*
%TO.P,U4,15,~{OUT8}*%
%TO.N,/INTER_kmrkt_borden_1*%
X104775000Y-73575000D03*
%TO.P,U4,16,~{OUT9}*%
%TO.N,/INTER_kmrkt_borden_2*%
X104775000Y-74225000D03*
%TO.P,U4,17,~{OUT10}*%
%TO.N,/STN_BORDEN*%
X104775000Y-74875000D03*
%TO.P,U4,18,~{OUT11}*%
%TO.N,/INTER_borden_mill_1*%
X104775000Y-75525000D03*
%TO.P,U4,19,GND_2*%
%TO.N,GND*%
X104775000Y-76175000D03*
%TO.P,U4,20,~{OUT12}*%
%TO.N,/INTER_borden_mill_2*%
X104775000Y-76825000D03*
%TO.P,U4,21,~{OUT13}*%
%TO.N,/STN_MILL*%
X104775000Y-77475000D03*
%TO.P,U4,22,~{OUT14}*%
%TO.N,/LED_IS_FETCHING*%
X104775000Y-78125000D03*
%TO.P,U4,23,~{OUT15}*%
%TO.N,unconnected-(U4-~{OUT15}-Pad23)*%
X104775000Y-78775000D03*
%TO.P,U4,24,GND_3*%
%TO.N,GND*%
X104775000Y-79425000D03*
%TO.P,U4,25,~{RESET}*%
%TO.N,/IO4_~{RESET}*%
X104775000Y-80075000D03*
%TO.P,U4,26,SCL*%
%TO.N,/IO6_SCL*%
X104775000Y-80725000D03*
%TO.P,U4,27,SDA*%
%TO.N,/IO5_SDA*%
X104775000Y-81375000D03*
%TO.P,U4,28,VCC*%
%TO.N,+3V3*%
X104775000Y-82025000D03*
%TD*%
D10*
%TO.P,D21,1,K*%
%TO.N,/INTER_uw_lwp_1*%
X137881995Y-40443750D03*
%TO.P,D21,2,A*%
%TO.N,+3V3*%
X136518005Y-39656250D03*
%TD*%
D27*
%TO.P,D4,1,K*%
%TO.N,/INTER_nrthf_rnt_1*%
X162150000Y-26100000D03*
%TO.P,D4,2,A*%
%TO.N,+3V3*%
X161362500Y-24736008D03*
%TD*%
D25*
%TO.P,C13,1*%
%TO.N,/CHIP_PU*%
X175600000Y-118950000D03*
%TO.P,C13,2*%
%TO.N,GND*%
X175600000Y-117050000D03*
%TD*%
D28*
%TO.P,R17,1*%
%TO.N,/IO4_~{RESET}*%
X173400000Y-114075000D03*
%TO.P,R17,2*%
%TO.N,+3V3*%
X173400000Y-115725000D03*
%TD*%
D13*
%TO.P,D17,1,K*%
%TO.N,/STN_ALLEN*%
X130350000Y-61850000D03*
%TO.P,D17,2,A*%
%TO.N,+3V3*%
X128775000Y-61850000D03*
%TD*%
D29*
%TO.P,D6,1,K*%
%TO.N,/INTER_cstg_nrthf_2*%
X168943153Y-24006847D03*
%TO.P,D6,2,A*%
%TO.N,+3V3*%
X170056847Y-22893153D03*
%TD*%
D26*
%TO.P,U7,1,REXT*%
%TO.N,Net-(U7-REXT)*%
X122995000Y-43725000D03*
%TO.P,U7,2,A0*%
%TO.N,GND*%
X122995000Y-43075000D03*
%TO.P,U7,3,A1*%
X122995000Y-42425000D03*
%TO.P,U7,4,A2*%
%TO.N,+3V3*%
X122995000Y-41775000D03*
%TO.P,U7,5,A3*%
%TO.N,GND*%
X122995000Y-41125000D03*
%TO.P,U7,6,~{OUT0}*%
%TO.N,/STN_REV_LAURIER_UW_PARK*%
X122995000Y-40475000D03*
%TO.P,U7,7,~{OUT1}*%
%TO.N,/INTER_lwp_uw*%
X122995000Y-39825000D03*
%TO.P,U7,8,~{OUT2}*%
%TO.N,/STN_REV_UW*%
X122995000Y-39175000D03*
%TO.P,U7,9,~{OUT3}*%
%TO.N,/INTER_uw_rnt_1*%
X122995000Y-38525000D03*
%TO.P,U7,10,GND_1*%
%TO.N,GND*%
X122995000Y-37875000D03*
%TO.P,U7,11,~{OUT4}*%
%TO.N,/INTER_uw_rnt_2*%
X122995000Y-37225000D03*
%TO.P,U7,12,~{OUT5}*%
%TO.N,/STN_REV_RSRCH_TECH*%
X122995000Y-36575000D03*
%TO.P,U7,13,~{OUT6}*%
%TO.N,/INTER_rnt_nrthf_1*%
X122995000Y-35925000D03*
%TO.P,U7,14,~{OUT7}*%
%TO.N,/INTER_rnt_nrthf_2*%
X122995000Y-35275000D03*
%TO.P,U7,15,~{OUT8}*%
%TO.N,/INTER_rnt_nrthf_3*%
X117255000Y-35275000D03*
%TO.P,U7,16,~{OUT9}*%
%TO.N,/STN_REV_NORTHFIELD*%
X117255000Y-35925000D03*
%TO.P,U7,17,~{OUT10}*%
%TO.N,/INTER_nrthf_cnstga_1*%
X117255000Y-36575000D03*
%TO.P,U7,18,~{OUT11}*%
%TO.N,/INTER_nrthf_cnstga_2*%
X117255000Y-37225000D03*
%TO.P,U7,19,GND_2*%
%TO.N,GND*%
X117255000Y-37875000D03*
%TO.P,U7,20,~{OUT12}*%
%TO.N,/STN_REV_CONESTOGA*%
X117255000Y-38525000D03*
%TO.P,U7,21,~{OUT13}*%
%TO.N,/LED_WIFI*%
X117255000Y-39175000D03*
%TO.P,U7,22,~{OUT14}*%
%TO.N,/LED_MAP_MODE*%
X117255000Y-39825000D03*
%TO.P,U7,23,~{OUT15}*%
%TO.N,/LED_API_FAILURE*%
X117255000Y-40475000D03*
%TO.P,U7,24,GND_3*%
%TO.N,GND*%
X117255000Y-41125000D03*
%TO.P,U7,25,~{RESET}*%
%TO.N,/IO4_~{RESET}*%
X117255000Y-41775000D03*
%TO.P,U7,26,SCL*%
%TO.N,/IO6_SCL*%
X117255000Y-42425000D03*
%TO.P,U7,27,SDA*%
%TO.N,/IO5_SDA*%
X117255000Y-43075000D03*
%TO.P,U7,28,VCC*%
%TO.N,+3V3*%
X117255000Y-43725000D03*
%TD*%
D18*
%TO.P,R1,1*%
%TO.N,+3V3*%
X160600000Y-162100000D03*
%TO.P,R1,2*%
%TO.N,Net-(U1-~{RST})*%
X162250000Y-162100000D03*
%TD*%
D28*
%TO.P,R15,1*%
%TO.N,+3V3*%
X173400000Y-117375000D03*
%TO.P,R15,2*%
%TO.N,/CHIP_PU*%
X173400000Y-119025000D03*
%TD*%
D16*
%TO.P,D55,1,K*%
%TO.N,/INTER_kmrkt_borden_1*%
X124812500Y-105400000D03*
%TO.P,D55,2,A*%
%TO.N,+3V3*%
X126387500Y-105400000D03*
%TD*%
D30*
%TO.P,C5,1*%
%TO.N,+3V3*%
X143787500Y-138000000D03*
%TO.P,C5,2*%
%TO.N,GND*%
X140712500Y-138000000D03*
%TD*%
D23*
%TO.P,D84,1,A1*%
%TO.N,GND*%
X136750000Y-152650000D03*
%TO.P,D84,2,A2*%
%TO.N,/USB_D+*%
X136750000Y-154050000D03*
%TD*%
D13*
%TO.P,D11,1,K*%
%TO.N,/INTER_block_fairway_2*%
X105787500Y-144250000D03*
%TO.P,D11,2,A*%
%TO.N,+3V3*%
X104212500Y-144250000D03*
%TD*%
D30*
%TO.P,C10,1*%
%TO.N,+3V3*%
X175537500Y-77250000D03*
%TO.P,C10,2*%
%TO.N,GND*%
X172462500Y-77250000D03*
%TD*%
D16*
%TO.P,D37,1,K*%
%TO.N,/INTER_grh_cntrl_2*%
X128812500Y-79600000D03*
%TO.P,D37,2,A*%
%TO.N,+3V3*%
X130387500Y-79600000D03*
%TD*%
D31*
%TO.P,C4,1*%
%TO.N,+3V3*%
X143237500Y-135000000D03*
%TO.P,C4,2*%
%TO.N,GND*%
X141687500Y-135000000D03*
%TD*%
D32*
%TO.P,C1,1*%
%TO.N,+3V3*%
X165462500Y-154400000D03*
%TO.P,C1,2*%
%TO.N,GND*%
X168537500Y-154400000D03*
%TD*%
D13*
%TO.P,D9,1,K*%
%TO.N,/STN_FAIRWAY*%
X111987500Y-153500000D03*
%TO.P,D9,2,A*%
%TO.N,+3V3*%
X110412500Y-153500000D03*
%TD*%
D33*
%TO.P,D3,1,K*%
%TO.N,/INTER_nrthf_rnt_2*%
X156856250Y-26455505D03*
%TO.P,D3,2,A*%
%TO.N,+3V3*%
X156856250Y-24880503D03*
%TD*%
D27*
%TO.P,D2,1,K*%
%TO.N,/INTER_nrthf_rnt_3*%
X152887500Y-26700000D03*
%TO.P,D2,2,A*%
%TO.N,+3V3*%
X152100000Y-25336008D03*
%TD*%
D13*
%TO.P,D14,1,K*%
%TO.N,/INTER_mill_block_3*%
X108787500Y-129750000D03*
%TO.P,D14,2,A*%
%TO.N,+3V3*%
X107212500Y-129750000D03*
%TD*%
%TO.P,D18,1,K*%
%TO.N,/STN_WILLIS_WAY*%
X132237500Y-57550000D03*
%TO.P,D18,2,A*%
%TO.N,+3V3*%
X130662500Y-57550000D03*
%TD*%
D16*
%TO.P,D33,1,K*%
%TO.N,/STN_KCHNR_MRKT*%
X125812500Y-101800000D03*
%TO.P,D33,2,A*%
%TO.N,+3V3*%
X127387500Y-101800000D03*
%TD*%
D11*
%TO.P,C19,1*%
%TO.N,+3V3*%
X109050000Y-163787500D03*
%TO.P,C19,2*%
%TO.N,GND*%
X109050000Y-160712500D03*
%TD*%
D10*
%TO.P,D20,1,K*%
%TO.N,/STN_LAURIER_UW_PARK*%
X136581995Y-44643750D03*
%TO.P,D20,2,A*%
%TO.N,+3V3*%
X135218005Y-43856250D03*
%TD*%
D17*
%TO.P,D49,1,K*%
%TO.N,/LED_IS_FETCHING*%
X104700000Y-68075000D03*
%TO.P,D49,2,A*%
%TO.N,+3V3*%
X104700000Y-69650000D03*
%TD*%
D10*
%TO.P,D22,1,K*%
%TO.N,/STN_UWATERLOO*%
X139450000Y-36000000D03*
%TO.P,D22,2,A*%
%TO.N,+3V3*%
X138086010Y-35212500D03*
%TD*%
D18*
%TO.P,R16,1*%
%TO.N,/IO6_SCL*%
X159875000Y-130600000D03*
%TO.P,R16,2*%
%TO.N,+3V3*%
X161525000Y-130600000D03*
%TD*%
D34*
%TO.P,D72,1,K*%
%TO.N,+5V*%
X128030000Y-156800000D03*
%TO.P,D72,2,A*%
%TO.N,/VBUS*%
X131330000Y-156800000D03*
%TD*%
D35*
%TO.P,J1,A1,GND*%
%TO.N,GND*%
X134730000Y-157055000D03*
%TO.P,J1,A4,VBUS*%
%TO.N,/VBUS*%
X135530000Y-157055000D03*
D36*
%TO.P,J1,A5,CC1*%
%TO.N,Net-(J1-CC1)*%
X136730000Y-157055000D03*
%TO.P,J1,A6,D+*%
%TO.N,/USB_D+*%
X137730000Y-157055000D03*
%TO.P,J1,A7,D-*%
%TO.N,/USB_D-*%
X138230000Y-157055000D03*
%TO.P,J1,A8,SBU1*%
%TO.N,unconnected-(J1-SBU1-PadA8)*%
X139230000Y-157055000D03*
D35*
%TO.P,J1,A9,VBUS*%
%TO.N,/VBUS*%
X140430000Y-157055000D03*
%TO.P,J1,A12,GND*%
%TO.N,GND*%
X141230000Y-157055000D03*
%TO.P,J1,B1,GND*%
X141230000Y-157055000D03*
%TO.P,J1,B4,VBUS*%
%TO.N,/VBUS*%
X140430000Y-157055000D03*
D36*
%TO.P,J1,B5,CC2*%
%TO.N,Net-(J1-CC2)*%
X139730000Y-157055000D03*
%TO.P,J1,B6,D+*%
%TO.N,unconnected-(J1-D+-PadB6)*%
X138730000Y-157055000D03*
%TO.P,J1,B7,D-*%
%TO.N,unconnected-(J1-D--PadB7)*%
X137230000Y-157055000D03*
%TO.P,J1,B8,SBU2*%
%TO.N,unconnected-(J1-SBU2-PadB8)*%
X136230000Y-157055000D03*
D35*
%TO.P,J1,B9,VBUS*%
%TO.N,/VBUS*%
X135530000Y-157055000D03*
%TO.P,J1,B12,GND*%
%TO.N,GND*%
X134730000Y-157055000D03*
D37*
%TO.P,J1,S1,SHIELD*%
X133660000Y-157970000D03*
D38*
X133660000Y-162150000D03*
D37*
X142300000Y-157970000D03*
D38*
X142300000Y-162150000D03*
%TD*%
D16*
%TO.P,D38,1,K*%
%TO.N,/INTER_grh_cntrl_1*%
X129012500Y-74800000D03*
%TO.P,D38,2,A*%
%TO.N,+3V3*%
X130587500Y-74800000D03*
%TD*%
D39*
%TO.P,U6,1,3V3*%
%TO.N,+3V3*%
X175900000Y-125975000D03*
%TO.P,U6,2,EN*%
%TO.N,/CHIP_PU*%
X174400000Y-125975000D03*
%TO.P,U6,3,IO4*%
%TO.N,/IO4_~{RESET}*%
X172900000Y-125975000D03*
%TO.P,U6,4,IO5*%
%TO.N,/IO5_SDA*%
X171400000Y-125975000D03*
%TO.P,U6,5,IO6*%
%TO.N,/IO6_SCL*%
X169900000Y-125975000D03*
%TO.P,U6,6,IO7*%
%TO.N,/IO7*%
X168400000Y-125975000D03*
%TO.P,U6,7,IO8*%
%TO.N,/IO8*%
X166900000Y-125975000D03*
%TO.P,U6,8,IO9*%
%TO.N,/IO9*%
X165400000Y-125975000D03*
%TO.P,U6,9,GND*%
%TO.N,GND*%
X163900000Y-125975000D03*
%TO.P,U6,10,IO10*%
%TO.N,/IO10*%
X163900000Y-143475000D03*
%TO.P,U6,11,IO20/RXD*%
%TO.N,/U0RXD*%
X165400000Y-143475000D03*
%TO.P,U6,12,IO21/TXD*%
%TO.N,/U0TXD*%
X166900000Y-143475000D03*
%TO.P,U6,13,IO18*%
%TO.N,/IO18*%
X168400000Y-143475000D03*
%TO.P,U6,14,IO19*%
%TO.N,/IO19*%
X169900000Y-143475000D03*
%TO.P,U6,15,IO3*%
%TO.N,/IO3*%
X171400000Y-143475000D03*
%TO.P,U6,16,IO2*%
%TO.N,/IO2*%
X172900000Y-143475000D03*
%TO.P,U6,17,IO1*%
%TO.N,/IO1_SW*%
X174400000Y-143475000D03*
%TO.P,U6,18,IO0*%
%TO.N,/IO0_SW*%
X175900000Y-143475000D03*
D40*
%TO.P,U6,19,GND*%
%TO.N,GND*%
X170250000Y-134585000D03*
X169150000Y-134585000D03*
X170800000Y-135135000D03*
X169700000Y-135135000D03*
X168600000Y-135135000D03*
X170250000Y-135685000D03*
D41*
X169700000Y-135685000D03*
D40*
X169150000Y-135685000D03*
X170800000Y-136235000D03*
X169700000Y-136235000D03*
X168600000Y-136235000D03*
X170250000Y-136785000D03*
X169150000Y-136785000D03*
%TD*%
D42*
%TO.P,U8,1,VIN*%
%TO.N,+5V*%
X117137500Y-163800000D03*
%TO.P,U8,2,GND*%
%TO.N,GND*%
X117137500Y-162850000D03*
%TO.P,U8,3,EN*%
%TO.N,+5V*%
X117137500Y-161900000D03*
%TO.P,U8,4,NC*%
%TO.N,unconnected-(U8-NC-Pad4)*%
X114862500Y-161900000D03*
%TO.P,U8,5,VOUT*%
%TO.N,+3V3*%
X114862500Y-163800000D03*
%TD*%
D18*
%TO.P,R4,1*%
%TO.N,/VBUS*%
X144530000Y-155900000D03*
%TO.P,R4,2*%
%TO.N,Net-(U1-VBUS)*%
X146180000Y-155900000D03*
%TD*%
D16*
%TO.P,D54,1,K*%
%TO.N,/INTER_kmrkt_borden_2*%
X123812500Y-109000000D03*
%TO.P,D54,2,A*%
%TO.N,+3V3*%
X125387500Y-109000000D03*
%TD*%
D29*
%TO.P,D7,1,K*%
%TO.N,/INTER_cstg_nrthf_1*%
X173693153Y-29056847D03*
%TO.P,D7,2,A*%
%TO.N,+3V3*%
X174806847Y-27943153D03*
%TD*%
D43*
%TO.P,C18,1*%
%TO.N,GND*%
X112500000Y-162325000D03*
%TO.P,C18,2*%
%TO.N,+3V3*%
X112500000Y-163875000D03*
%TD*%
D15*
%TO.P,R19,1*%
%TO.N,/USB_D-*%
X152700000Y-163400000D03*
%TO.P,R19,2*%
%TO.N,/USB_DN*%
X152700000Y-161750000D03*
%TD*%
D24*
%TO.P,D8,1,K*%
%TO.N,/STN_CONESTOGA*%
X171350000Y-34650000D03*
%TO.P,D8,2,A*%
%TO.N,+3V3*%
X170236306Y-33536306D03*
%TD*%
D14*
%TO.P,R14,1*%
%TO.N,+3V3*%
X161550000Y-132400000D03*
%TO.P,R14,2*%
%TO.N,/IO8*%
X159900000Y-132400000D03*
%TD*%
D10*
%TO.P,D24,1,K*%
%TO.N,/INTER_rnt_uw_1*%
X144531995Y-29993750D03*
%TO.P,D24,2,A*%
%TO.N,+3V3*%
X143168005Y-29206250D03*
%TD*%
D13*
%TO.P,D73,1,K*%
%TO.N,/LED_API_FAILURE*%
X105075000Y-45250000D03*
%TO.P,D73,2,A*%
%TO.N,+3V3*%
X103500000Y-45250000D03*
%TD*%
D15*
%TO.P,R3,1*%
%TO.N,Net-(U1-RXD)*%
X175800000Y-156725000D03*
%TO.P,R3,2*%
%TO.N,/U0RXD*%
X175800000Y-155075000D03*
%TD*%
D44*
%TO.P,D82,1,A1*%
%TO.N,GND*%
X145950000Y-157900000D03*
%TO.P,D82,2,A2*%
%TO.N,/VBUS*%
X144550000Y-157900000D03*
%TD*%
D30*
%TO.P,C11,1*%
%TO.N,+3V3*%
X170737500Y-118800000D03*
%TO.P,C11,2*%
%TO.N,GND*%
X167662500Y-118800000D03*
%TD*%
D17*
%TO.P,D52,1,K*%
%TO.N,/INTER_borden_mill_1*%
X120200000Y-111612500D03*
%TO.P,D52,2,A*%
%TO.N,+3V3*%
X120200000Y-113187500D03*
%TD*%
D13*
%TO.P,D16,1,K*%
%TO.N,/INTER_mill_block_1*%
X111587500Y-120000000D03*
%TO.P,D16,2,A*%
%TO.N,+3V3*%
X110012500Y-120000000D03*
%TD*%
D31*
%TO.P,C12,1*%
%TO.N,+3V3*%
X169975000Y-122200000D03*
%TO.P,C12,2*%
%TO.N,GND*%
X168425000Y-122200000D03*
%TD*%
D43*
%TO.P,C17,1*%
%TO.N,GND*%
X119800000Y-162300000D03*
%TO.P,C17,2*%
%TO.N,+5V*%
X119800000Y-163850000D03*
%TD*%
D15*
%TO.P,R23,1*%
%TO.N,/USB_D+*%
X156350000Y-164075000D03*
%TO.P,R23,2*%
%TO.N,/USB_DP*%
X156350000Y-162425000D03*
%TD*%
D16*
%TO.P,D35,1,K*%
%TO.N,/STN_VICTORIA*%
X126812500Y-89600000D03*
%TO.P,D35,2,A*%
%TO.N,+3V3*%
X128387500Y-89600000D03*
%TD*%
D24*
%TO.P,D1,1,K*%
%TO.N,/STN_RSCH_TECH*%
X147556847Y-27956847D03*
%TO.P,D1,2,A*%
%TO.N,+3V3*%
X146443153Y-26843153D03*
%TD*%
D15*
%TO.P,R2,1*%
%TO.N,Net-(U1-TXD)*%
X173200000Y-156725000D03*
%TO.P,R2,2*%
%TO.N,/U0TXD*%
X173200000Y-155075000D03*
%TD*%
D43*
%TO.P,C2,1*%
%TO.N,+3V3*%
X157150000Y-36825000D03*
%TO.P,C2,2*%
%TO.N,GND*%
X157150000Y-38375000D03*
%TD*%
D14*
%TO.P,R25,1*%
%TO.N,Net-(J1-CC1)*%
X131405000Y-160300000D03*
%TO.P,R25,2*%
%TO.N,GND*%
X129755000Y-160300000D03*
%TD*%
D16*
%TO.P,D40,1,K*%
%TO.N,/INTER_allen_grh_1*%
X129612500Y-66000000D03*
%TO.P,D40,2,A*%
%TO.N,+3V3*%
X131187500Y-66000000D03*
%TD*%
D28*
%TO.P,R18,1*%
%TO.N,Net-(U7-REXT)*%
X123000000Y-45975000D03*
%TO.P,R18,2*%
%TO.N,GND*%
X123000000Y-47625000D03*
%TD*%
D45*
%TO.N,+3V3*%
X142000000Y-19600000D03*
X112200000Y-81400000D03*
X174925000Y-74950000D03*
X113550000Y-163875000D03*
X111200000Y-163737500D03*
X171350000Y-122200000D03*
X103350000Y-82000000D03*
X155744669Y-36305331D03*
X174750000Y-81200000D03*
X165462500Y-156650000D03*
X118875000Y-43500000D03*
X121595331Y-41909669D03*
X170700000Y-121050000D03*
X143500000Y-133500000D03*
%TO.N,GND*%
X112300000Y-80000000D03*
X155800000Y-42000000D03*
X162000000Y-38699000D03*
X168550000Y-81150000D03*
X167250000Y-122200000D03*
X123050000Y-158800000D03*
X169950000Y-78350000D03*
X118500000Y-162850000D03*
X173500000Y-84250000D03*
X118875000Y-41500000D03*
X168600000Y-156600000D03*
X142000000Y-17300000D03*
X103350000Y-79500000D03*
X167650000Y-121000000D03*
X162050000Y-36500000D03*
X141500000Y-133500000D03*
X160300000Y-30800000D03*
X162050000Y-37400000D03*
X162050000Y-38100000D03*
X159000000Y-42000000D03*
X112500000Y-160600000D03*
X155850000Y-38600000D03*
X121450000Y-47600000D03*
X138050000Y-130450000D03*
X173375000Y-74950000D03*
%TO.N,Net-(U1-VBUS)*%
X150500000Y-157900000D03*
X157650000Y-160100000D03*
%TO.N,/IO9*%
X138000000Y-124900000D03*
%TO.N,/CHIP_PU*%
X173200000Y-124200000D03*
X105800000Y-128750000D03*
X148500000Y-123800000D03*
X106250000Y-123000000D03*
X173200000Y-121400000D03*
X144600000Y-123800000D03*
%TO.N,/STN_RSCH_TECH*%
X155000000Y-34500000D03*
%TO.N,/STN_ALLEN*%
X152050000Y-39500000D03*
%TO.N,/INTER_nrthf_rnt_3*%
X157250000Y-34500000D03*
%TO.N,/STN_MILL*%
X103000000Y-90600000D03*
X103400000Y-77500000D03*
%TO.N,/STN_WILLIS_WAY*%
X151200000Y-40200000D03*
%TO.N,/STN_QUEEN*%
X117600000Y-77400000D03*
X119600000Y-79400000D03*
%TO.N,/INTER_nrthf_rnt_2*%
X158700000Y-34500000D03*
%TO.N,/INTER_lwp_willis*%
X150350000Y-41200000D03*
%TO.N,/STN_VICTORIA*%
X117461947Y-78738053D03*
X120600000Y-81800000D03*
%TO.N,/INTER_nrthf_rnt_1*%
X162000000Y-42050000D03*
%TO.N,/STN_LAURIER_UW_PARK*%
X148100000Y-41900000D03*
%TO.N,/STN_CENTRAL*%
X123200000Y-85000000D03*
X117600000Y-85000000D03*
%TO.N,/STN_NORTHFIELD*%
X163300000Y-41450000D03*
%TO.N,/INTER_uw_lwp_1*%
X147000000Y-42700000D03*
%TO.N,/INTER_grh_cntrl_2*%
X112400000Y-76825000D03*
X121600000Y-82600000D03*
%TO.N,/INTER_cstg_nrthf_2*%
X165000000Y-40750000D03*
%TO.N,/STN_UWATERLOO*%
X142100000Y-39300000D03*
%TO.N,/INTER_grh_cntrl_1*%
X115200000Y-77400000D03*
X119800000Y-76600000D03*
%TO.N,/INTER_cstg_nrthf_1*%
X166250000Y-40000000D03*
%TO.N,/INTER_rnt_uw_2*%
X149700000Y-44800000D03*
%TO.N,/STN_GRH*%
X121000000Y-72400000D03*
X113400000Y-78125000D03*
%TO.N,/STN_CONESTOGA*%
X167500000Y-39000000D03*
%TO.N,/INTER_rnt_uw_1*%
X154600000Y-46100000D03*
%TO.N,/INTER_allen_grh_1*%
X117600000Y-73800000D03*
X114400000Y-78800000D03*
%TO.N,/STN_FAIRWAY*%
X119750000Y-153500000D03*
%TO.N,/INTER_rnt_nrthf_2*%
X123000000Y-33750000D03*
%TO.N,/INTER_block_fairway_3*%
X126000000Y-149000000D03*
%TO.N,/INTER_block_mill_2*%
X147750000Y-126000000D03*
X142900000Y-126000000D03*
%TO.N,/INTER_rnt_nrthf_1*%
X124700000Y-34450000D03*
%TO.N,/INTER_block_fairway_2*%
X131800000Y-144900000D03*
%TO.N,/INTER_block_mill_1*%
X166350000Y-129950000D03*
X146500000Y-127500000D03*
X163600000Y-130000000D03*
X139350000Y-128100000D03*
%TO.N,/STN_REV_RSRCH_TECH*%
X124450000Y-36550000D03*
%TO.N,/STN_REV_CONESTOGA*%
X115150000Y-38500000D03*
%TO.N,/INTER_block_fairway_1*%
X135200000Y-143000000D03*
%TO.N,/INTER_uw_rnt_2*%
X125250000Y-37150000D03*
%TO.N,/INTER_nrthf_cnstga_2*%
X115100000Y-37650000D03*
%TO.N,/STN_BLOCK_LINE*%
X137500000Y-141900000D03*
%TO.N,/INTER_uw_rnt_1*%
X124900000Y-38350000D03*
%TO.N,/INTER_nrthf_cnstga_1*%
X114500000Y-36250000D03*
%TO.N,/INTER_mill_block_3*%
X138800000Y-140400000D03*
%TO.N,/STN_REV_UW*%
X125100000Y-39250000D03*
%TO.N,/STN_REV_NORTHFIELD*%
X115250000Y-35500000D03*
%TO.N,/INTER_mill_block_2*%
X134066000Y-136634000D03*
%TO.N,/INTER_fairway_block_1*%
X142100000Y-140700000D03*
X166950000Y-150350000D03*
X169300000Y-150350000D03*
X137250000Y-134500000D03*
%TO.N,/INTER_lwp_uw*%
X125900000Y-40000000D03*
%TO.N,/INTER_rnt_nrthf_3*%
X117250000Y-33750000D03*
%TO.N,/INTER_mill_block_1*%
X134000000Y-134200000D03*
%TO.N,/STN_REV_FAIRWAY*%
X136300000Y-134600000D03*
X141200000Y-142000000D03*
%TO.N,/STN_REV_LAURIER_UW_PARK*%
X124800000Y-40900000D03*
%TO.N,/~{RTS}*%
X171300000Y-162700000D03*
X107675000Y-132350000D03*
%TO.N,/~{DTR}*%
X169600000Y-157900000D03*
X111100000Y-143000000D03*
X107800000Y-139700000D03*
%TO.N,/U0TXD*%
X166900000Y-146550000D03*
X166900000Y-149200000D03*
%TO.N,/IO5_SDA*%
X153100000Y-35700000D03*
X144300000Y-130700000D03*
X170650000Y-124300000D03*
X170600000Y-81300000D03*
X164900000Y-47000000D03*
X116100000Y-46300000D03*
X170600000Y-114750000D03*
%TO.N,/IO6_SCL*%
X103304130Y-80699000D03*
X114600000Y-46600000D03*
X152500000Y-36450000D03*
X164200000Y-48600000D03*
X144300000Y-129800000D03*
X168800000Y-124300000D03*
X169300000Y-80500000D03*
X168800000Y-114750000D03*
%TO.N,/IO4_~{RESET}*%
X172100000Y-121400000D03*
X171850000Y-108750000D03*
X172100000Y-122950000D03*
X167850000Y-79850000D03*
X172100000Y-115100000D03*
X152700000Y-37650000D03*
X142000000Y-129700000D03*
X172049000Y-127349000D03*
X112700000Y-46600000D03*
X167850000Y-104750000D03*
X162975000Y-49725000D03*
X162900000Y-128100000D03*
%TO.N,/USB_DN*%
X166250000Y-157450000D03*
X153650000Y-157450000D03*
%TO.N,/IO18*%
X168400000Y-146550000D03*
X157450000Y-152400000D03*
%TO.N,/IO19*%
X164650000Y-147500000D03*
X169900000Y-145900000D03*
%TO.N,/IO8*%
X160150000Y-134050000D03*
X166900000Y-128000000D03*
%TO.N,/IO1_SW*%
X163300000Y-145100000D03*
X170900000Y-145100000D03*
%TD*%
D46*
%TO.N,+3V3*%
X169975000Y-122200000D02*
X170700000Y-121475000D01*
X170700000Y-121475000D02*
X170700000Y-121050000D01*
D47*
X104750000Y-82000000D02*
X104775000Y-82025000D01*
X122995000Y-41775000D02*
X121730000Y-41775000D01*
D46*
X165462500Y-159072500D02*
X165620000Y-159230000D01*
X111200000Y-163737500D02*
X112362500Y-163737500D01*
D47*
X121730000Y-41775000D02*
X121595331Y-41909669D01*
D46*
X172500000Y-122200000D02*
X171350000Y-122200000D01*
X143237500Y-135000000D02*
X143237500Y-137450000D01*
X156264338Y-36825000D02*
X155744669Y-36305331D01*
X165462500Y-154400000D02*
X165462500Y-156650000D01*
D47*
X166120000Y-159230000D02*
X165620000Y-159230000D01*
D46*
X109100000Y-163737500D02*
X111200000Y-163737500D01*
X175900000Y-125600000D02*
X172500000Y-122200000D01*
X173400000Y-117375000D02*
X173400000Y-115725000D01*
X174925000Y-76637500D02*
X175537500Y-77250000D01*
X113550000Y-163875000D02*
X114787500Y-163875000D01*
D47*
X117255000Y-43725000D02*
X118650000Y-43725000D01*
D46*
X174925000Y-74950000D02*
X174925000Y-76637500D01*
X161525000Y-132425000D02*
X161550000Y-132400000D01*
X161525000Y-130600000D02*
X161525000Y-132375000D01*
X143237500Y-137450000D02*
X143787500Y-138000000D01*
X114787500Y-163875000D02*
X114862500Y-163800000D01*
X143500000Y-134737500D02*
X143237500Y-135000000D01*
X175900000Y-125975000D02*
X175900000Y-125600000D01*
D47*
X140700000Y-19600000D02*
X142000000Y-19600000D01*
D46*
X171350000Y-122200000D02*
X169975000Y-122200000D01*
X159900000Y-36012500D02*
X159087500Y-36825000D01*
X161525000Y-132375000D02*
X161550000Y-132400000D01*
X159087500Y-36825000D02*
X157150000Y-36825000D01*
D47*
X118650000Y-43725000D02*
X118875000Y-43500000D01*
X103350000Y-82000000D02*
X104750000Y-82000000D01*
D46*
X109050000Y-163787500D02*
X109100000Y-163737500D01*
X112500000Y-163875000D02*
X113550000Y-163875000D01*
X170700000Y-121050000D02*
X170700000Y-118837500D01*
X143500000Y-133500000D02*
X143500000Y-134737500D01*
X170700000Y-118837500D02*
X170737500Y-118800000D01*
D47*
X112175000Y-81375000D02*
X112200000Y-81400000D01*
D46*
X165462500Y-156650000D02*
X165462500Y-159072500D01*
X157150000Y-36825000D02*
X156264338Y-36825000D01*
X161525000Y-134200000D02*
X161525000Y-132425000D01*
D47*
X110515000Y-81375000D02*
X112175000Y-81375000D01*
D46*
X112362500Y-163737500D02*
X112500000Y-163875000D01*
%TO.N,GND*%
X122995000Y-41125000D02*
X120500000Y-41125000D01*
D47*
X117255000Y-37875000D02*
X119380000Y-37875000D01*
X162050000Y-38100000D02*
X162050000Y-37400000D01*
X103350000Y-79500000D02*
X104700000Y-79500000D01*
D46*
X141687500Y-137025000D02*
X140712500Y-138000000D01*
D47*
X121475000Y-47625000D02*
X121450000Y-47600000D01*
X167620000Y-158280000D02*
X168600000Y-157300000D01*
X120125000Y-38620000D02*
X120125000Y-39800000D01*
D46*
X118100000Y-160550000D02*
X118500000Y-160950000D01*
X163900000Y-125373000D02*
X163900000Y-125975000D01*
D47*
X162000000Y-38150000D02*
X162050000Y-38100000D01*
D46*
X173375000Y-74950000D02*
X173375000Y-76337500D01*
X121700000Y-43075000D02*
X120125000Y-41500000D01*
X123100000Y-160562500D02*
X123100000Y-158850000D01*
D47*
X117255000Y-41125000D02*
X118500000Y-41125000D01*
D46*
X156075000Y-38375000D02*
X155850000Y-38600000D01*
X118500000Y-160950000D02*
X118500000Y-162850000D01*
D47*
X168600000Y-156600000D02*
X168600000Y-154462500D01*
D46*
X167650000Y-121425000D02*
X167650000Y-121000000D01*
X109612500Y-160550000D02*
X112450000Y-160550000D01*
X141500000Y-134812500D02*
X141687500Y-135000000D01*
D47*
X104700000Y-79500000D02*
X104775000Y-79425000D01*
D46*
X167650000Y-118812500D02*
X167662500Y-118800000D01*
X159187500Y-38375000D02*
X157150000Y-38375000D01*
X168425000Y-122200000D02*
X167250000Y-122200000D01*
X120500000Y-41125000D02*
X120125000Y-41500000D01*
X119250000Y-162850000D02*
X119800000Y-162300000D01*
D47*
X168600000Y-157300000D02*
X168600000Y-156600000D01*
X104750000Y-79400000D02*
X104775000Y-79425000D01*
X140612500Y-17300000D02*
X142000000Y-17300000D01*
D46*
X167650000Y-121000000D02*
X167650000Y-118812500D01*
X109450000Y-160712500D02*
X109612500Y-160550000D01*
X157150000Y-38375000D02*
X156075000Y-38375000D01*
X120125000Y-39800000D02*
X120125000Y-41500000D01*
X159900000Y-39087500D02*
X159187500Y-38375000D01*
D47*
X120880000Y-37875000D02*
X122995000Y-37875000D01*
X159800000Y-158475000D02*
X161725000Y-158475000D01*
D46*
X122995000Y-43075000D02*
X121700000Y-43075000D01*
D47*
X162000000Y-38699000D02*
X162000000Y-38150000D01*
D46*
X118500000Y-162850000D02*
X119250000Y-162850000D01*
X120125000Y-41500000D02*
X118875000Y-41500000D01*
D47*
X162050000Y-36500000D02*
X162050000Y-37400000D01*
D46*
X120880000Y-37875000D02*
X120125000Y-38630000D01*
X141500000Y-133500000D02*
X141500000Y-134812500D01*
X112500000Y-162325000D02*
X112500000Y-160600000D01*
X110515000Y-80075000D02*
X110515000Y-80719000D01*
D47*
X122995000Y-43075000D02*
X122995000Y-42425000D01*
D46*
X109050000Y-160712500D02*
X109450000Y-160712500D01*
X120125000Y-38630000D02*
X120125000Y-39800000D01*
X112225000Y-80075000D02*
X112300000Y-80000000D01*
D47*
X161725000Y-158475000D02*
X161900000Y-158300000D01*
D46*
X110515000Y-80075000D02*
X112225000Y-80075000D01*
X112450000Y-160550000D02*
X118100000Y-160550000D01*
X110515000Y-80075000D02*
X110515000Y-79431000D01*
X117137500Y-162850000D02*
X118500000Y-162850000D01*
X119380000Y-37875000D02*
X120125000Y-38620000D01*
D47*
X118500000Y-41125000D02*
X118875000Y-41500000D01*
X168600000Y-154462500D02*
X168537500Y-154400000D01*
D46*
X168425000Y-122200000D02*
X167650000Y-121425000D01*
D47*
X123000000Y-47625000D02*
X121475000Y-47625000D01*
D46*
X167073000Y-122200000D02*
X163900000Y-125373000D01*
X112500000Y-160600000D02*
X112450000Y-160550000D01*
X123100000Y-158850000D02*
X123050000Y-158800000D01*
X167250000Y-122200000D02*
X167073000Y-122200000D01*
X141687500Y-135000000D02*
X141687500Y-137025000D01*
X173375000Y-76337500D02*
X172462500Y-77250000D01*
D47*
X167620000Y-159230000D02*
X167620000Y-158280000D01*
%TO.N,Net-(U1-VBUS)*%
X159800000Y-160125000D02*
X161825000Y-160125000D01*
X161900000Y-160200000D02*
X161921000Y-160179000D01*
X161825000Y-160125000D02*
X161900000Y-160200000D01*
X148500000Y-155900000D02*
X150500000Y-157900000D01*
X157650000Y-160100000D02*
X159775000Y-160100000D01*
X146180000Y-155900000D02*
X148500000Y-155900000D01*
X161921000Y-160179000D02*
X164670000Y-160179000D01*
X159775000Y-160100000D02*
X159800000Y-160125000D01*
%TO.N,/IO9*%
X165400000Y-125975000D02*
X165400000Y-125675000D01*
X165000000Y-127400000D02*
X161700000Y-127400000D01*
X165400000Y-125975000D02*
X165425000Y-125975000D01*
X159200000Y-124900000D02*
X138000000Y-124900000D01*
X165400000Y-125975000D02*
X165400000Y-127000000D01*
X165425000Y-125975000D02*
X165600000Y-125800000D01*
X161700000Y-127400000D02*
X159200000Y-124900000D01*
X165400000Y-127000000D02*
X165000000Y-127400000D01*
%TO.N,/CHIP_PU*%
X174400000Y-125975000D02*
X174400000Y-125400000D01*
X173200000Y-121400000D02*
X173200000Y-119225000D01*
X105800000Y-128750000D02*
X105800000Y-123450000D01*
X173400000Y-119025000D02*
X175525000Y-119025000D01*
D46*
X175500000Y-119050000D02*
X175600000Y-118950000D01*
D47*
X148500000Y-123800000D02*
X144600000Y-123800000D01*
X173200000Y-119225000D02*
X173400000Y-119025000D01*
X175525000Y-119025000D02*
X175600000Y-118950000D01*
X174400000Y-125400000D02*
X173200000Y-124200000D01*
X105800000Y-123450000D02*
X106250000Y-123000000D01*
D46*
%TO.N,+5V*%
X122887500Y-163850000D02*
X123100000Y-163637500D01*
X115900000Y-163129100D02*
X115900000Y-162475001D01*
X117137500Y-163800000D02*
X119750000Y-163800000D01*
X119800000Y-163850000D02*
X122887500Y-163850000D01*
X116475001Y-161900000D02*
X117137500Y-161900000D01*
X115900000Y-162475001D02*
X116475001Y-161900000D01*
X123100000Y-163637500D02*
X124862500Y-163637500D01*
X124862500Y-163637500D02*
X128030000Y-160470000D01*
X128030000Y-160470000D02*
X128030000Y-156800000D01*
X119750000Y-163800000D02*
X119800000Y-163850000D01*
X116570900Y-163800000D02*
X115900000Y-163129100D01*
X117137500Y-163800000D02*
X116570900Y-163800000D01*
%TO.N,/VBUS*%
X144530000Y-155900000D02*
X144030000Y-155400000D01*
X144550000Y-155920000D02*
X144530000Y-155900000D01*
X144030000Y-155400000D02*
X140950000Y-155400000D01*
X140950000Y-155400000D02*
X140430000Y-155920000D01*
X144550000Y-157900000D02*
X144550000Y-155920000D01*
X131330000Y-156800000D02*
X133030000Y-155100000D01*
X135530000Y-155980000D02*
X135530000Y-157055000D01*
X134650000Y-155100000D02*
X135530000Y-155980000D01*
X140430000Y-155920000D02*
X140430000Y-157055000D01*
X133030000Y-155100000D02*
X134650000Y-155100000D01*
D47*
%TO.N,Net-(D81-A)*%
X139037500Y-19587500D02*
X139050000Y-19600000D01*
X139037500Y-17300000D02*
X139037500Y-19587500D01*
%TO.N,/USB_D-*%
X138230000Y-157055000D02*
X138230000Y-156120000D01*
X139200000Y-155150000D02*
X139200000Y-154100000D01*
X150800000Y-163400000D02*
X139900000Y-163400000D01*
X139900000Y-163400000D02*
X138230000Y-161730000D01*
X150800000Y-163400000D02*
X152700000Y-163400000D01*
X138230000Y-156120000D02*
X139200000Y-155150000D01*
X138230000Y-161730000D02*
X138230000Y-157055000D01*
D46*
%TO.N,/STN_RSCH_TECH*%
X148456847Y-27956847D02*
X147556847Y-27956847D01*
X155000000Y-34500000D02*
X148456847Y-27956847D01*
%TO.N,/STN_ALLEN*%
X152050000Y-48900000D02*
X139750000Y-61850000D01*
X139750000Y-61850000D02*
X130350000Y-61850000D01*
X152050000Y-39500000D02*
X152050000Y-48900000D01*
%TO.N,/STN_KCHNR_MRKT*%
X125812500Y-101800000D02*
X118600000Y-94587500D01*
D47*
X115575000Y-73575000D02*
X110515000Y-73575000D01*
D46*
X118600000Y-76600000D02*
X115575000Y-73575000D01*
X118600000Y-94587500D02*
X118600000Y-76600000D01*
%TO.N,/INTER_nrthf_rnt_3*%
X152887500Y-30137500D02*
X152887500Y-26700000D01*
X157250000Y-34500000D02*
X152887500Y-30137500D01*
D47*
%TO.N,/STN_MILL*%
X104750000Y-77500000D02*
X104775000Y-77475000D01*
D46*
X112212500Y-109012500D02*
X112212500Y-115800000D01*
X103000000Y-99800000D02*
X112212500Y-109012500D01*
D47*
X103400000Y-77500000D02*
X104750000Y-77500000D01*
D46*
X103000000Y-90600000D02*
X103000000Y-99800000D01*
%TO.N,/STN_WILLIS_WAY*%
X151200000Y-40200000D02*
X151200000Y-48300000D01*
X151200000Y-48300000D02*
X141950000Y-57550000D01*
X141850000Y-57550000D02*
X132237500Y-57550000D01*
X141950000Y-57550000D02*
X141850000Y-57550000D01*
%TO.N,/STN_QUEEN*%
X119600000Y-89587500D02*
X119600000Y-79400000D01*
D47*
X114375000Y-74225000D02*
X114400000Y-74200000D01*
X110515000Y-74225000D02*
X114375000Y-74225000D01*
D46*
X114400000Y-74200000D02*
X117600000Y-77400000D01*
X126212500Y-96200000D02*
X119600000Y-89587500D01*
%TO.N,/INTER_nrthf_rnt_2*%
X158700000Y-34500000D02*
X158700000Y-28299255D01*
X158700000Y-28299255D02*
X156856250Y-26455505D01*
D47*
%TO.N,/INTER_borden_mill_2*%
X105582788Y-76825000D02*
X106000000Y-77242212D01*
X106000000Y-82800000D02*
X104200000Y-84600000D01*
D46*
X104200000Y-84800000D02*
X104200000Y-98812500D01*
D47*
X104775000Y-76825000D02*
X105582788Y-76825000D01*
X106000000Y-77242212D02*
X106000000Y-82800000D01*
D46*
X104200000Y-98812500D02*
X115400000Y-110012500D01*
D47*
X104200000Y-84600000D02*
X104200000Y-84800000D01*
D46*
%TO.N,/INTER_lwp_willis*%
X147650000Y-50700000D02*
X147400000Y-50700000D01*
X147400000Y-50700000D02*
X134775000Y-50700000D01*
X150350000Y-48000000D02*
X147650000Y-50700000D01*
X150350000Y-41200000D02*
X150350000Y-48000000D01*
%TO.N,/STN_VICTORIA*%
X120600000Y-84200000D02*
X126000000Y-89600000D01*
D47*
X110515000Y-74875000D02*
X113598894Y-74875000D01*
D46*
X120600000Y-84200000D02*
X120600000Y-81800000D01*
D47*
X113598894Y-74875000D02*
X117461947Y-78738053D01*
D46*
X126000000Y-89600000D02*
X126812500Y-89600000D01*
D47*
%TO.N,/INTER_borden_mill_1*%
X105725000Y-75525000D02*
X106600000Y-76400000D01*
X104775000Y-75525000D02*
X105725000Y-75525000D01*
D46*
X105400000Y-97800000D02*
X119212500Y-111612500D01*
D47*
X106600000Y-76400000D02*
X106600000Y-83400000D01*
D46*
X105400000Y-84600000D02*
X105400000Y-97800000D01*
D47*
X106600000Y-83400000D02*
X105400000Y-84600000D01*
D46*
X119212500Y-111612500D02*
X120200000Y-111612500D01*
%TO.N,/INTER_nrthf_rnt_1*%
X163100000Y-27050000D02*
X162150000Y-26100000D01*
X162000000Y-41500000D02*
X163100000Y-40400000D01*
X162000000Y-42050000D02*
X162000000Y-41500000D01*
X163100000Y-40400000D02*
X163100000Y-27050000D01*
%TO.N,/STN_LAURIER_UW_PARK*%
X146356250Y-44643750D02*
X136581995Y-44643750D01*
X148100000Y-42900000D02*
X148100000Y-41900000D01*
X146356250Y-44643750D02*
X148100000Y-42900000D01*
%TO.N,/STN_CENTRAL*%
X110600000Y-85000000D02*
X117600000Y-85000000D01*
D47*
X109000000Y-83400000D02*
X110600000Y-85000000D01*
X109000000Y-76121300D02*
X109000000Y-83400000D01*
D46*
X123200000Y-85000000D02*
X128612500Y-85000000D01*
D47*
X109596300Y-75525000D02*
X109000000Y-76121300D01*
X110515000Y-75525000D02*
X109596300Y-75525000D01*
D46*
%TO.N,/STN_BORDEN*%
X106600000Y-96584268D02*
X123412500Y-113396768D01*
X106600000Y-84402000D02*
X106600000Y-87000000D01*
D47*
X106600000Y-84402000D02*
X107200000Y-83802000D01*
X107200000Y-83802000D02*
X107200000Y-75891480D01*
D46*
X106600000Y-87000000D02*
X106600000Y-96584268D01*
X123412500Y-113396768D02*
X123412500Y-113600000D01*
D47*
X107200000Y-75891480D02*
X106183520Y-74875000D01*
X106183520Y-74875000D02*
X104775000Y-74875000D01*
D46*
%TO.N,/STN_NORTHFIELD*%
X166006847Y-29043153D02*
X164250000Y-30800000D01*
X164250000Y-30800000D02*
X164250000Y-40500000D01*
X166006847Y-22806847D02*
X166006847Y-29043153D01*
X164250000Y-40500000D02*
X163300000Y-41450000D01*
%TO.N,/INTER_uw_lwp_1*%
X147000000Y-42700000D02*
X144743750Y-40443750D01*
X144743750Y-40443750D02*
X137881995Y-40443750D01*
%TO.N,/INTER_grh_cntrl_2*%
X121600000Y-82600000D02*
X124600000Y-79600000D01*
D47*
X110515000Y-76825000D02*
X112400000Y-76825000D01*
D46*
X124600000Y-79600000D02*
X128812500Y-79600000D01*
%TO.N,/INTER_cstg_nrthf_2*%
X165500000Y-40250000D02*
X165000000Y-40750000D01*
X167250000Y-25700000D02*
X167250000Y-29750000D01*
X168943153Y-24006847D02*
X167250000Y-25700000D01*
X165500000Y-31500000D02*
X165500000Y-40250000D01*
X167250000Y-29750000D02*
X165500000Y-31500000D01*
%TO.N,/INTER_kmrkt_borden_2*%
X107800000Y-95800000D02*
X121000000Y-109000000D01*
X121000000Y-109000000D02*
X123812500Y-109000000D01*
X107800000Y-84600000D02*
X107800000Y-95800000D01*
D47*
X104775000Y-74225000D02*
X106625000Y-74225000D01*
X107800000Y-75400000D02*
X107800000Y-84600000D01*
X106625000Y-74225000D02*
X107800000Y-75400000D01*
%TO.N,/USB_D+*%
X136750000Y-155200000D02*
X136750000Y-154050000D01*
X137730000Y-157055000D02*
X137730000Y-156180000D01*
X137730000Y-161980000D02*
X140299000Y-164549000D01*
X137730000Y-156180000D02*
X136750000Y-155200000D01*
X156350000Y-164075000D02*
X154450000Y-164075000D01*
X137730000Y-157055000D02*
X137730000Y-161980000D01*
X140299000Y-164549000D02*
X153976000Y-164549000D01*
X153976000Y-164549000D02*
X154450000Y-164075000D01*
D46*
%TO.N,/STN_UWATERLOO*%
X139450000Y-36650000D02*
X139450000Y-36000000D01*
X142100000Y-39300000D02*
X139450000Y-36650000D01*
D47*
%TO.N,/INTER_grh_cntrl_1*%
X115200000Y-77400000D02*
X115125000Y-77475000D01*
X115125000Y-77475000D02*
X110515000Y-77475000D01*
D46*
X127212500Y-76600000D02*
X119800000Y-76600000D01*
X129012500Y-74800000D02*
X127212500Y-76600000D01*
%TO.N,/INTER_cstg_nrthf_1*%
X173693153Y-29056847D02*
X169593153Y-29056847D01*
X169593153Y-29056847D02*
X166550000Y-32100000D01*
X166550000Y-32100000D02*
X166550000Y-39700000D01*
X166550000Y-39700000D02*
X166250000Y-40000000D01*
D47*
%TO.N,/INTER_kmrkt_borden_1*%
X108400000Y-75037220D02*
X106937780Y-73575000D01*
D46*
X108800000Y-94600000D02*
X119600000Y-105400000D01*
D47*
X108400000Y-83800000D02*
X108400000Y-75037220D01*
X106937780Y-73575000D02*
X104775000Y-73575000D01*
X108800000Y-84200000D02*
X108400000Y-83800000D01*
D46*
X108800000Y-84600000D02*
X108800000Y-94600000D01*
D47*
X108800000Y-84600000D02*
X108800000Y-84200000D01*
D46*
X119600000Y-105400000D02*
X124812500Y-105400000D01*
%TO.N,/INTER_rnt_uw_2*%
X148851000Y-39862755D02*
X141681995Y-32693750D01*
X149700000Y-44800000D02*
X148851000Y-43951000D01*
X148851000Y-43951000D02*
X148851000Y-39862755D01*
%TO.N,/STN_GRH*%
X121000000Y-72400000D02*
X123400000Y-70000000D01*
D47*
X110515000Y-78125000D02*
X113400000Y-78125000D01*
D46*
X123400000Y-70000000D02*
X129412500Y-70000000D01*
%TO.N,/STN_CONESTOGA*%
X171350000Y-34650000D02*
X171350000Y-35150000D01*
X171350000Y-35150000D02*
X167500000Y-39000000D01*
%TO.N,/INTER_rnt_uw_1*%
X152900000Y-39250000D02*
X152900000Y-44400000D01*
X144531995Y-29993750D02*
X144531995Y-30881995D01*
X144531995Y-30881995D02*
X152900000Y-39250000D01*
X152900000Y-44400000D02*
X154600000Y-46100000D01*
D47*
%TO.N,/INTER_allen_grh_1*%
X114375000Y-78775000D02*
X114400000Y-78800000D01*
X110515000Y-78775000D02*
X114375000Y-78775000D01*
D46*
X129612500Y-66000000D02*
X125400000Y-66000000D01*
X125400000Y-66000000D02*
X117600000Y-73800000D01*
%TO.N,/STN_FAIRWAY*%
X119750000Y-153500000D02*
X111987500Y-153500000D01*
D47*
%TO.N,/INTER_rnt_nrthf_2*%
X122995000Y-35275000D02*
X122995000Y-33755000D01*
X122995000Y-33755000D02*
X123000000Y-33750000D01*
D46*
%TO.N,/LED_API_FAILURE*%
X109400000Y-45250000D02*
X105075000Y-45250000D01*
D47*
X117161000Y-40569000D02*
X114081000Y-40569000D01*
X117255000Y-40475000D02*
X117161000Y-40569000D01*
D46*
X114081000Y-40569000D02*
X109400000Y-45250000D01*
D47*
%TO.N,/LED_MAP_MODE*%
X117255000Y-39825000D02*
X112825000Y-39825000D01*
D46*
X112825000Y-39825000D02*
X110450000Y-42200000D01*
X110450000Y-42200000D02*
X105075000Y-42200000D01*
%TO.N,/INTER_block_fairway_3*%
X126000000Y-149000000D02*
X109037500Y-149000000D01*
%TO.N,/INTER_block_mill_2*%
X147750000Y-126000000D02*
X142900000Y-126000000D01*
D47*
%TO.N,/INTER_rnt_nrthf_1*%
X124700000Y-35400000D02*
X124700000Y-34450000D01*
X122995000Y-35925000D02*
X124175000Y-35925000D01*
X124175000Y-35925000D02*
X124700000Y-35400000D01*
D46*
%TO.N,/LED_WIFI*%
X114700000Y-39200000D02*
X105087500Y-39200000D01*
D47*
X117255000Y-39175000D02*
X114775000Y-39175000D01*
D46*
X114750000Y-39150000D02*
X114700000Y-39200000D01*
D47*
X114775000Y-39175000D02*
X114750000Y-39150000D01*
D46*
%TO.N,/INTER_block_fairway_2*%
X131800000Y-144900000D02*
X131200000Y-145500000D01*
X105787500Y-144250000D02*
X107037500Y-145500000D01*
X107037500Y-145500000D02*
X131200000Y-145500000D01*
%TO.N,/INTER_block_mill_1*%
X163600000Y-130000000D02*
X166300000Y-130000000D01*
X139350000Y-128100000D02*
X139950000Y-127500000D01*
X139950000Y-127500000D02*
X146500000Y-127500000D01*
X166300000Y-130000000D02*
X166350000Y-129950000D01*
D47*
%TO.N,/STN_REV_RSRCH_TECH*%
X122995000Y-36575000D02*
X124425000Y-36575000D01*
X124425000Y-36575000D02*
X124450000Y-36550000D01*
%TO.N,/STN_REV_CONESTOGA*%
X115175000Y-38525000D02*
X115150000Y-38500000D01*
X117255000Y-38525000D02*
X115175000Y-38525000D01*
D46*
%TO.N,/INTER_block_fairway_1*%
X117100000Y-143600000D02*
X134600000Y-143600000D01*
X112250000Y-138750000D02*
X117100000Y-143600000D01*
X105587500Y-138750000D02*
X112250000Y-138750000D01*
X134600000Y-143600000D02*
X135200000Y-143000000D01*
D47*
%TO.N,/INTER_uw_rnt_2*%
X122995000Y-37225000D02*
X125175000Y-37225000D01*
X125175000Y-37225000D02*
X125250000Y-37150000D01*
%TO.N,/INTER_nrthf_cnstga_2*%
X115525000Y-37225000D02*
X115100000Y-37650000D01*
X117255000Y-37225000D02*
X115525000Y-37225000D01*
D46*
%TO.N,/STN_BLOCK_LINE*%
X113550000Y-133800000D02*
X106387500Y-133800000D01*
X121650000Y-141900000D02*
X137500000Y-141900000D01*
X121650000Y-141900000D02*
X113550000Y-133800000D01*
D47*
%TO.N,/INTER_uw_rnt_1*%
X122995000Y-38525000D02*
X124725000Y-38525000D01*
X124725000Y-38525000D02*
X124900000Y-38350000D01*
%TO.N,/INTER_nrthf_cnstga_1*%
X117255000Y-36575000D02*
X114825000Y-36575000D01*
X114825000Y-36575000D02*
X114500000Y-36250000D01*
D46*
%TO.N,/INTER_mill_block_3*%
X122400000Y-138200000D02*
X113950000Y-129750000D01*
X137400000Y-140400000D02*
X124600000Y-140400000D01*
X113950000Y-129750000D02*
X108787500Y-129750000D01*
X124600000Y-140400000D02*
X122400000Y-138200000D01*
D47*
X138800000Y-140400000D02*
X137400000Y-140400000D01*
%TO.N,/STN_REV_UW*%
X122995000Y-39175000D02*
X125025000Y-39175000D01*
X125025000Y-39175000D02*
X125100000Y-39250000D01*
%TO.N,/STN_REV_NORTHFIELD*%
X115675000Y-35925000D02*
X115250000Y-35500000D01*
X117255000Y-35925000D02*
X115675000Y-35925000D01*
D46*
%TO.N,/INTER_mill_block_2*%
X125534000Y-136634000D02*
X113150000Y-124250000D01*
X134066000Y-136634000D02*
X125534000Y-136634000D01*
X113150000Y-124250000D02*
X109750000Y-124250000D01*
D47*
%TO.N,/INTER_fairway_block_1*%
X141050000Y-140700000D02*
X142100000Y-140700000D01*
X137250000Y-136900000D02*
X141050000Y-140700000D01*
X166950000Y-150350000D02*
X169300000Y-150350000D01*
X137250000Y-134500000D02*
X137250000Y-136900000D01*
%TO.N,/INTER_lwp_uw*%
X123977788Y-40000000D02*
X125900000Y-40000000D01*
X122995000Y-39825000D02*
X123802788Y-39825000D01*
X123802788Y-39825000D02*
X123977788Y-40000000D01*
%TO.N,/INTER_rnt_nrthf_3*%
X117255000Y-33755000D02*
X117250000Y-33750000D01*
X117255000Y-35275000D02*
X117255000Y-33755000D01*
D46*
%TO.N,/INTER_mill_block_1*%
X134000000Y-134200000D02*
X119800000Y-120000000D01*
X119800000Y-120000000D02*
X111587500Y-120000000D01*
D47*
%TO.N,/STN_REV_FAIRWAY*%
X136300000Y-134600000D02*
X136300000Y-137081374D01*
X140484313Y-141284313D02*
X141200000Y-142000000D01*
X140484313Y-141265687D02*
X140484313Y-141284313D01*
X136300000Y-137081374D02*
X140484313Y-141265687D01*
%TO.N,/STN_REV_LAURIER_UW_PARK*%
X123021000Y-40501000D02*
X124401000Y-40501000D01*
X122995000Y-40475000D02*
X123021000Y-40501000D01*
X124401000Y-40501000D02*
X124800000Y-40900000D01*
%TO.N,Net-(J1-CC1)*%
X136730000Y-157055000D02*
X136730000Y-158720000D01*
X135150000Y-160300000D02*
X131405000Y-160300000D01*
X136730000Y-158720000D02*
X135150000Y-160300000D01*
%TO.N,Net-(J1-CC2)*%
X141250000Y-160550000D02*
X144630000Y-160550000D01*
X139730000Y-159030000D02*
X141250000Y-160550000D01*
X139730000Y-157055000D02*
X139730000Y-159030000D01*
%TO.N,/~{RTS}*%
X171300000Y-162700000D02*
X170780000Y-162180000D01*
X170780000Y-162180000D02*
X169570000Y-162180000D01*
%TO.N,/~{DTR}*%
X169600000Y-157900000D02*
X169600000Y-160150000D01*
X111100000Y-143000000D02*
X107800000Y-139700000D01*
X169600000Y-160150000D02*
X169570000Y-160180000D01*
%TO.N,Net-(U1-~{RST})*%
X164145000Y-160680000D02*
X164670000Y-160680000D01*
X162725000Y-162100000D02*
X164145000Y-160680000D01*
X162250000Y-162100000D02*
X162725000Y-162100000D01*
%TO.N,Net-(U1-TXD)*%
X170056510Y-161180000D02*
X173200000Y-158036510D01*
X169570000Y-161180000D02*
X170056510Y-161180000D01*
X173200000Y-158036510D02*
X173200000Y-156725000D01*
%TO.N,/U0TXD*%
X166900000Y-146550000D02*
X166900000Y-143475000D01*
X173200000Y-152800000D02*
X169600000Y-149200000D01*
X169600000Y-149200000D02*
X166900000Y-149200000D01*
X173200000Y-155075000D02*
X173200000Y-152800000D01*
%TO.N,/U0RXD*%
X175800000Y-151900000D02*
X171900000Y-148000000D01*
X167000000Y-148000000D02*
X165400000Y-146400000D01*
X171900000Y-148000000D02*
X167000000Y-148000000D01*
X165400000Y-146400000D02*
X165400000Y-143475000D01*
X175800000Y-155075000D02*
X175800000Y-151900000D01*
%TO.N,Net-(U1-RXD)*%
X170845000Y-161680000D02*
X175800000Y-156725000D01*
X169570000Y-161680000D02*
X170845000Y-161680000D01*
%TO.N,Net-(U1-~{SUSPEND})*%
X164670000Y-161704000D02*
X164670000Y-161680000D01*
X163200000Y-162663490D02*
X164183490Y-161680000D01*
X164183490Y-161680000D02*
X164670000Y-161680000D01*
X162250000Y-164000000D02*
X163200000Y-164000000D01*
X163200000Y-164000000D02*
X163200000Y-162663490D01*
%TO.N,/IO5_SDA*%
X171400000Y-125050000D02*
X170650000Y-124300000D01*
X115300000Y-44000000D02*
X115300000Y-45500000D01*
X155200000Y-38700000D02*
X155200000Y-38900000D01*
X104775000Y-81375000D02*
X104749000Y-81349000D01*
X115300000Y-45500000D02*
X116100000Y-46300000D01*
X171400000Y-125975000D02*
X171400000Y-125050000D01*
X161500000Y-135775000D02*
X162650000Y-135775000D01*
X162650000Y-135775000D02*
X171400000Y-127025000D01*
X171400000Y-127025000D02*
X171400000Y-125975000D01*
X154200000Y-35700000D02*
X155200000Y-36700000D01*
X160075000Y-135775000D02*
X161500000Y-135775000D01*
X157695654Y-39775000D02*
X156075000Y-39775000D01*
X104749000Y-81349000D02*
X103080346Y-81349000D01*
X144300000Y-130700000D02*
X155000000Y-130700000D01*
X117255000Y-43075000D02*
X116225000Y-43075000D01*
X103080346Y-81349000D02*
X102700000Y-81729346D01*
X155000000Y-130700000D02*
X160075000Y-135775000D01*
X155200000Y-38900000D02*
X156075000Y-39775000D01*
X170600000Y-114750000D02*
X170600000Y-81300000D01*
X170600000Y-81300000D02*
X170600000Y-52679346D01*
X153100000Y-35700000D02*
X154200000Y-35700000D01*
X166410327Y-48489673D02*
X157695654Y-39775000D01*
X155200000Y-36700000D02*
X155200000Y-38700000D01*
X116225000Y-43075000D02*
X115300000Y-44000000D01*
X170600000Y-52679346D02*
X166410327Y-48489673D01*
X102700000Y-81729346D02*
X102700000Y-84950000D01*
%TO.N,/IO6_SCL*%
X159075000Y-129800000D02*
X159875000Y-130600000D01*
X159875000Y-130600000D02*
X161375000Y-129100000D01*
X154100000Y-36450000D02*
X154699000Y-37049000D01*
X152500000Y-36450000D02*
X154100000Y-36450000D01*
X161375000Y-129100000D02*
X167300000Y-129100000D01*
X154699000Y-39107521D02*
X154699000Y-39107520D01*
X162945740Y-47354260D02*
X154992480Y-39401000D01*
X144300000Y-129800000D02*
X159075000Y-129800000D01*
X117255000Y-42425000D02*
X115675000Y-42425000D01*
X154699000Y-37049000D02*
X154699000Y-39107521D01*
X114000000Y-44100000D02*
X114000000Y-46000000D01*
X169900000Y-125400000D02*
X168800000Y-124300000D01*
X167300000Y-129100000D02*
X169900000Y-126500000D01*
X169300000Y-114250000D02*
X169300000Y-81300000D01*
X115675000Y-42425000D02*
X114000000Y-44100000D01*
X169900000Y-126500000D02*
X169900000Y-125975000D01*
X169300000Y-81300000D02*
X169300000Y-53708520D01*
X169300000Y-53708520D02*
X162945740Y-47354260D01*
X114000000Y-46000000D02*
X114600000Y-46600000D01*
X104775000Y-80725000D02*
X103330130Y-80725000D01*
X103330130Y-80725000D02*
X103304130Y-80699000D01*
X169900000Y-125975000D02*
X169900000Y-125400000D01*
X168800000Y-114750000D02*
X169300000Y-114250000D01*
X154992480Y-39401000D02*
X154699000Y-39107521D01*
X169900000Y-125675000D02*
X169900000Y-125975000D01*
%TO.N,/IO4_~{RESET}*%
X152700000Y-37817042D02*
X155149000Y-40266042D01*
X173400000Y-110300000D02*
X171850000Y-108750000D01*
X155149000Y-40266042D02*
X155149000Y-43099000D01*
X143100000Y-128500000D02*
X141975000Y-129625000D01*
X112700000Y-46600000D02*
X112700000Y-43700000D01*
X152700000Y-37650000D02*
X152700000Y-37817042D01*
X162500000Y-128500000D02*
X143100000Y-128500000D01*
X173400000Y-114075000D02*
X173400000Y-110300000D01*
X172900000Y-125400000D02*
X172900000Y-125975000D01*
X114625000Y-41775000D02*
X117255000Y-41775000D01*
X172900000Y-125975000D02*
X172900000Y-126800000D01*
X167850000Y-104750000D02*
X167850000Y-79850000D01*
X172100000Y-124600000D02*
X172900000Y-125400000D01*
X167900000Y-54650000D02*
X167900000Y-71700000D01*
X162975000Y-49725000D02*
X167900000Y-54650000D01*
X162900000Y-128100000D02*
X162500000Y-128500000D01*
X172100000Y-122950000D02*
X172100000Y-124600000D01*
X173125000Y-114075000D02*
X173400000Y-114075000D01*
X112700000Y-43700000D02*
X114625000Y-41775000D01*
X167900000Y-71700000D02*
X167850000Y-71750000D01*
X172049000Y-127349000D02*
X172351000Y-127349000D01*
X157400000Y-44150000D02*
X162975000Y-49725000D01*
X172100000Y-115100000D02*
X172100000Y-121400000D01*
X156200000Y-44150000D02*
X157400000Y-44150000D01*
X172351000Y-127349000D02*
X172900000Y-126800000D01*
X167850000Y-71750000D02*
X167850000Y-79850000D01*
X172100000Y-115100000D02*
X173125000Y-114075000D01*
X155149000Y-43099000D02*
X156200000Y-44150000D01*
%TO.N,/USB_DN*%
X166619000Y-157819000D02*
X166619000Y-159020479D01*
X166250000Y-157450000D02*
X166619000Y-157819000D01*
X152700000Y-161750000D02*
X152700000Y-158400000D01*
X152700000Y-158400000D02*
X153650000Y-157450000D01*
%TO.N,/IO18*%
X168400000Y-146550000D02*
X168400000Y-143475000D01*
X150800000Y-158950000D02*
X157350000Y-152400000D01*
X150800000Y-161750000D02*
X150800000Y-158950000D01*
X157350000Y-152400000D02*
X157450000Y-152400000D01*
%TO.N,/IO19*%
X154450000Y-162425000D02*
X154450000Y-157700000D01*
X154450000Y-157700000D02*
X164650000Y-147500000D01*
X169900000Y-143475000D02*
X169900000Y-145900000D01*
%TO.N,/USB_DP*%
X156350000Y-158000000D02*
X163100000Y-151250000D01*
X165520000Y-151250000D02*
X167120000Y-152850000D01*
X156350000Y-162425000D02*
X156350000Y-158000000D01*
X167120000Y-152850000D02*
X167120000Y-159230000D01*
X163100000Y-151250000D02*
X165520000Y-151250000D01*
%TO.N,/IO8*%
X159900000Y-133800000D02*
X160150000Y-134050000D01*
X159900000Y-132400000D02*
X159900000Y-133800000D01*
X166800000Y-125875000D02*
X166900000Y-125975000D01*
X166900000Y-128000000D02*
X166900000Y-125975000D01*
%TO.N,Net-(U4-REXT)*%
X112875000Y-83400000D02*
X111890000Y-83400000D01*
X111890000Y-83400000D02*
X110515000Y-82025000D01*
%TO.N,Net-(U7-REXT)*%
X122995000Y-45395000D02*
X123000000Y-45400000D01*
X122995000Y-43725000D02*
X122995000Y-45395000D01*
X123000000Y-45400000D02*
X123000000Y-45975000D01*
%TO.N,/IO0_SW*%
X158125000Y-140500000D02*
X173975000Y-140500000D01*
X175900000Y-142425000D02*
X175900000Y-143475000D01*
X173975000Y-140500000D02*
X175900000Y-142425000D01*
X157125000Y-141500000D02*
X158125000Y-140500000D01*
%TO.N,/IO1_SW*%
X157200000Y-145800000D02*
X162600000Y-145800000D01*
X162600000Y-145800000D02*
X163300000Y-145100000D01*
X170900000Y-145100000D02*
X173075000Y-145100000D01*
X173075000Y-145100000D02*
X174400000Y-143775000D01*
X174400000Y-143775000D02*
X174400000Y-143475000D01*
%TD*%
M02*
