%TF.GenerationSoftware,KiCad,Pcbnew,9.0.0*%
%TF.CreationDate,2025-04-18T09:14:46-04:00*%
%TF.ProjectId,where_is_my_ion,77686572-655f-4697-935f-6d795f696f6e,rev?*%
%TF.SameCoordinates,Original*%
%TF.FileFunction,Legend,Bot*%
%TF.FilePolarity,Positive*%
%FSLAX46Y46*%
G04 Gerber Fmt 4.6, Leading zero omitted, Abs format (unit mm)*
G04 Created by KiCad (PCBNEW 9.0.0) date 2025-04-18 09:14:46*
%MOMM*%
%LPD*%
G01*
G04 APERTURE LIST*
%ADD10C,0.150000*%
%ADD11C,0.120000*%
%ADD12C,0.127000*%
%ADD13C,0.200000*%
G04 APERTURE END LIST*
D10*
X171714285Y-127884819D02*
X171714285Y-126884819D01*
X171714285Y-126884819D02*
X171476190Y-126884819D01*
X171476190Y-126884819D02*
X171333333Y-126932438D01*
X171333333Y-126932438D02*
X171238095Y-127027676D01*
X171238095Y-127027676D02*
X171190476Y-127122914D01*
X171190476Y-127122914D02*
X171142857Y-127313390D01*
X171142857Y-127313390D02*
X171142857Y-127456247D01*
X171142857Y-127456247D02*
X171190476Y-127646723D01*
X171190476Y-127646723D02*
X171238095Y-127741961D01*
X171238095Y-127741961D02*
X171333333Y-127837200D01*
X171333333Y-127837200D02*
X171476190Y-127884819D01*
X171476190Y-127884819D02*
X171714285Y-127884819D01*
X170761904Y-126980057D02*
X170714285Y-126932438D01*
X170714285Y-126932438D02*
X170619047Y-126884819D01*
X170619047Y-126884819D02*
X170380952Y-126884819D01*
X170380952Y-126884819D02*
X170285714Y-126932438D01*
X170285714Y-126932438D02*
X170238095Y-126980057D01*
X170238095Y-126980057D02*
X170190476Y-127075295D01*
X170190476Y-127075295D02*
X170190476Y-127170533D01*
X170190476Y-127170533D02*
X170238095Y-127313390D01*
X170238095Y-127313390D02*
X170809523Y-127884819D01*
X170809523Y-127884819D02*
X170190476Y-127884819D01*
X169333333Y-126884819D02*
X169523809Y-126884819D01*
X169523809Y-126884819D02*
X169619047Y-126932438D01*
X169619047Y-126932438D02*
X169666666Y-126980057D01*
X169666666Y-126980057D02*
X169761904Y-127122914D01*
X169761904Y-127122914D02*
X169809523Y-127313390D01*
X169809523Y-127313390D02*
X169809523Y-127694342D01*
X169809523Y-127694342D02*
X169761904Y-127789580D01*
X169761904Y-127789580D02*
X169714285Y-127837200D01*
X169714285Y-127837200D02*
X169619047Y-127884819D01*
X169619047Y-127884819D02*
X169428571Y-127884819D01*
X169428571Y-127884819D02*
X169333333Y-127837200D01*
X169333333Y-127837200D02*
X169285714Y-127789580D01*
X169285714Y-127789580D02*
X169238095Y-127694342D01*
X169238095Y-127694342D02*
X169238095Y-127456247D01*
X169238095Y-127456247D02*
X169285714Y-127361009D01*
X169285714Y-127361009D02*
X169333333Y-127313390D01*
X169333333Y-127313390D02*
X169428571Y-127265771D01*
X169428571Y-127265771D02*
X169619047Y-127265771D01*
X169619047Y-127265771D02*
X169714285Y-127313390D01*
X169714285Y-127313390D02*
X169761904Y-127361009D01*
X169761904Y-127361009D02*
X169809523Y-127456247D01*
X174676785Y-146134819D02*
X174676785Y-145134819D01*
X174676785Y-145134819D02*
X174438690Y-145134819D01*
X174438690Y-145134819D02*
X174295833Y-145182438D01*
X174295833Y-145182438D02*
X174200595Y-145277676D01*
X174200595Y-145277676D02*
X174152976Y-145372914D01*
X174152976Y-145372914D02*
X174105357Y-145563390D01*
X174105357Y-145563390D02*
X174105357Y-145706247D01*
X174105357Y-145706247D02*
X174152976Y-145896723D01*
X174152976Y-145896723D02*
X174200595Y-145991961D01*
X174200595Y-145991961D02*
X174295833Y-146087200D01*
X174295833Y-146087200D02*
X174438690Y-146134819D01*
X174438690Y-146134819D02*
X174676785Y-146134819D01*
X173772023Y-145134819D02*
X173152976Y-145134819D01*
X173152976Y-145134819D02*
X173486309Y-145515771D01*
X173486309Y-145515771D02*
X173343452Y-145515771D01*
X173343452Y-145515771D02*
X173248214Y-145563390D01*
X173248214Y-145563390D02*
X173200595Y-145611009D01*
X173200595Y-145611009D02*
X173152976Y-145706247D01*
X173152976Y-145706247D02*
X173152976Y-145944342D01*
X173152976Y-145944342D02*
X173200595Y-146039580D01*
X173200595Y-146039580D02*
X173248214Y-146087200D01*
X173248214Y-146087200D02*
X173343452Y-146134819D01*
X173343452Y-146134819D02*
X173629166Y-146134819D01*
X173629166Y-146134819D02*
X173724404Y-146087200D01*
X173724404Y-146087200D02*
X173772023Y-146039580D01*
X172533928Y-145134819D02*
X172438690Y-145134819D01*
X172438690Y-145134819D02*
X172343452Y-145182438D01*
X172343452Y-145182438D02*
X172295833Y-145230057D01*
X172295833Y-145230057D02*
X172248214Y-145325295D01*
X172248214Y-145325295D02*
X172200595Y-145515771D01*
X172200595Y-145515771D02*
X172200595Y-145753866D01*
X172200595Y-145753866D02*
X172248214Y-145944342D01*
X172248214Y-145944342D02*
X172295833Y-146039580D01*
X172295833Y-146039580D02*
X172343452Y-146087200D01*
X172343452Y-146087200D02*
X172438690Y-146134819D01*
X172438690Y-146134819D02*
X172533928Y-146134819D01*
X172533928Y-146134819D02*
X172629166Y-146087200D01*
X172629166Y-146087200D02*
X172676785Y-146039580D01*
X172676785Y-146039580D02*
X172724404Y-145944342D01*
X172724404Y-145944342D02*
X172772023Y-145753866D01*
X172772023Y-145753866D02*
X172772023Y-145515771D01*
X172772023Y-145515771D02*
X172724404Y-145325295D01*
X172724404Y-145325295D02*
X172676785Y-145230057D01*
X172676785Y-145230057D02*
X172629166Y-145182438D01*
X172629166Y-145182438D02*
X172533928Y-145134819D01*
X152001785Y-112204819D02*
X152001785Y-111204819D01*
X152001785Y-111204819D02*
X151763690Y-111204819D01*
X151763690Y-111204819D02*
X151620833Y-111252438D01*
X151620833Y-111252438D02*
X151525595Y-111347676D01*
X151525595Y-111347676D02*
X151477976Y-111442914D01*
X151477976Y-111442914D02*
X151430357Y-111633390D01*
X151430357Y-111633390D02*
X151430357Y-111776247D01*
X151430357Y-111776247D02*
X151477976Y-111966723D01*
X151477976Y-111966723D02*
X151525595Y-112061961D01*
X151525595Y-112061961D02*
X151620833Y-112157200D01*
X151620833Y-112157200D02*
X151763690Y-112204819D01*
X151763690Y-112204819D02*
X152001785Y-112204819D01*
X150573214Y-111538152D02*
X150573214Y-112204819D01*
X150811309Y-111157200D02*
X151049404Y-111871485D01*
X151049404Y-111871485D02*
X150430357Y-111871485D01*
X149573214Y-111204819D02*
X150049404Y-111204819D01*
X150049404Y-111204819D02*
X150097023Y-111681009D01*
X150097023Y-111681009D02*
X150049404Y-111633390D01*
X150049404Y-111633390D02*
X149954166Y-111585771D01*
X149954166Y-111585771D02*
X149716071Y-111585771D01*
X149716071Y-111585771D02*
X149620833Y-111633390D01*
X149620833Y-111633390D02*
X149573214Y-111681009D01*
X149573214Y-111681009D02*
X149525595Y-111776247D01*
X149525595Y-111776247D02*
X149525595Y-112014342D01*
X149525595Y-112014342D02*
X149573214Y-112109580D01*
X149573214Y-112109580D02*
X149620833Y-112157200D01*
X149620833Y-112157200D02*
X149716071Y-112204819D01*
X149716071Y-112204819D02*
X149954166Y-112204819D01*
X149954166Y-112204819D02*
X150049404Y-112157200D01*
X150049404Y-112157200D02*
X150097023Y-112109580D01*
X113433332Y-121507200D02*
X113290475Y-121554819D01*
X113290475Y-121554819D02*
X113052380Y-121554819D01*
X113052380Y-121554819D02*
X112957142Y-121507200D01*
X112957142Y-121507200D02*
X112909523Y-121459580D01*
X112909523Y-121459580D02*
X112861904Y-121364342D01*
X112861904Y-121364342D02*
X112861904Y-121269104D01*
X112861904Y-121269104D02*
X112909523Y-121173866D01*
X112909523Y-121173866D02*
X112957142Y-121126247D01*
X112957142Y-121126247D02*
X113052380Y-121078628D01*
X113052380Y-121078628D02*
X113242856Y-121031009D01*
X113242856Y-121031009D02*
X113338094Y-120983390D01*
X113338094Y-120983390D02*
X113385713Y-120935771D01*
X113385713Y-120935771D02*
X113433332Y-120840533D01*
X113433332Y-120840533D02*
X113433332Y-120745295D01*
X113433332Y-120745295D02*
X113385713Y-120650057D01*
X113385713Y-120650057D02*
X113338094Y-120602438D01*
X113338094Y-120602438D02*
X113242856Y-120554819D01*
X113242856Y-120554819D02*
X113004761Y-120554819D01*
X113004761Y-120554819D02*
X112861904Y-120602438D01*
X112528570Y-120554819D02*
X112290475Y-121554819D01*
X112290475Y-121554819D02*
X112099999Y-120840533D01*
X112099999Y-120840533D02*
X111909523Y-121554819D01*
X111909523Y-121554819D02*
X111671428Y-120554819D01*
X110766666Y-121554819D02*
X111338094Y-121554819D01*
X111052380Y-121554819D02*
X111052380Y-120554819D01*
X111052380Y-120554819D02*
X111147618Y-120697676D01*
X111147618Y-120697676D02*
X111242856Y-120792914D01*
X111242856Y-120792914D02*
X111338094Y-120840533D01*
X165411904Y-82454819D02*
X165411904Y-83264342D01*
X165411904Y-83264342D02*
X165364285Y-83359580D01*
X165364285Y-83359580D02*
X165316666Y-83407200D01*
X165316666Y-83407200D02*
X165221428Y-83454819D01*
X165221428Y-83454819D02*
X165030952Y-83454819D01*
X165030952Y-83454819D02*
X164935714Y-83407200D01*
X164935714Y-83407200D02*
X164888095Y-83359580D01*
X164888095Y-83359580D02*
X164840476Y-83264342D01*
X164840476Y-83264342D02*
X164840476Y-82454819D01*
X163888095Y-82454819D02*
X164364285Y-82454819D01*
X164364285Y-82454819D02*
X164411904Y-82931009D01*
X164411904Y-82931009D02*
X164364285Y-82883390D01*
X164364285Y-82883390D02*
X164269047Y-82835771D01*
X164269047Y-82835771D02*
X164030952Y-82835771D01*
X164030952Y-82835771D02*
X163935714Y-82883390D01*
X163935714Y-82883390D02*
X163888095Y-82931009D01*
X163888095Y-82931009D02*
X163840476Y-83026247D01*
X163840476Y-83026247D02*
X163840476Y-83264342D01*
X163840476Y-83264342D02*
X163888095Y-83359580D01*
X163888095Y-83359580D02*
X163935714Y-83407200D01*
X163935714Y-83407200D02*
X164030952Y-83454819D01*
X164030952Y-83454819D02*
X164269047Y-83454819D01*
X164269047Y-83454819D02*
X164364285Y-83407200D01*
X164364285Y-83407200D02*
X164411904Y-83359580D01*
X107213258Y-23029011D02*
X108079283Y-22529011D01*
X108079283Y-22529011D02*
X107960235Y-22322815D01*
X107960235Y-22322815D02*
X107847567Y-22222906D01*
X107847567Y-22222906D02*
X107717470Y-22188047D01*
X107717470Y-22188047D02*
X107611182Y-22194427D01*
X107611182Y-22194427D02*
X107422415Y-22248425D01*
X107422415Y-22248425D02*
X107298697Y-22319854D01*
X107298697Y-22319854D02*
X107157549Y-22456331D01*
X107157549Y-22456331D02*
X107098880Y-22545190D01*
X107098880Y-22545190D02*
X107064021Y-22675287D01*
X107064021Y-22675287D02*
X107094210Y-22822815D01*
X107094210Y-22822815D02*
X107213258Y-23029011D01*
X107626902Y-21745465D02*
X107293569Y-21168114D01*
X107293569Y-21168114D02*
X106641829Y-22039268D01*
X106660510Y-20928768D02*
X106749368Y-20987437D01*
X106749368Y-20987437D02*
X106814417Y-21004866D01*
X106814417Y-21004866D02*
X106920705Y-20998487D01*
X106920705Y-20998487D02*
X106961945Y-20974677D01*
X106961945Y-20974677D02*
X107020614Y-20885819D01*
X107020614Y-20885819D02*
X107038044Y-20820770D01*
X107038044Y-20820770D02*
X107031664Y-20714482D01*
X107031664Y-20714482D02*
X106936426Y-20549525D01*
X106936426Y-20549525D02*
X106847567Y-20490856D01*
X106847567Y-20490856D02*
X106782519Y-20473426D01*
X106782519Y-20473426D02*
X106676230Y-20479806D01*
X106676230Y-20479806D02*
X106634991Y-20503615D01*
X106634991Y-20503615D02*
X106576322Y-20592473D01*
X106576322Y-20592473D02*
X106558892Y-20657522D01*
X106558892Y-20657522D02*
X106565272Y-20763810D01*
X106565272Y-20763810D02*
X106660510Y-20928768D01*
X106660510Y-20928768D02*
X106666890Y-21035056D01*
X106666890Y-21035056D02*
X106649460Y-21100105D01*
X106649460Y-21100105D02*
X106590791Y-21188963D01*
X106590791Y-21188963D02*
X106425834Y-21284201D01*
X106425834Y-21284201D02*
X106319546Y-21290581D01*
X106319546Y-21290581D02*
X106254497Y-21273151D01*
X106254497Y-21273151D02*
X106165638Y-21214482D01*
X106165638Y-21214482D02*
X106070400Y-21049525D01*
X106070400Y-21049525D02*
X106064021Y-20943237D01*
X106064021Y-20943237D02*
X106081450Y-20878188D01*
X106081450Y-20878188D02*
X106140119Y-20789329D01*
X106140119Y-20789329D02*
X106305077Y-20694091D01*
X106305077Y-20694091D02*
X106411365Y-20687712D01*
X106411365Y-20687712D02*
X106476414Y-20705141D01*
X106476414Y-20705141D02*
X106565272Y-20763810D01*
X147051785Y-85854819D02*
X147051785Y-84854819D01*
X147051785Y-84854819D02*
X146813690Y-84854819D01*
X146813690Y-84854819D02*
X146670833Y-84902438D01*
X146670833Y-84902438D02*
X146575595Y-84997676D01*
X146575595Y-84997676D02*
X146527976Y-85092914D01*
X146527976Y-85092914D02*
X146480357Y-85283390D01*
X146480357Y-85283390D02*
X146480357Y-85426247D01*
X146480357Y-85426247D02*
X146527976Y-85616723D01*
X146527976Y-85616723D02*
X146575595Y-85711961D01*
X146575595Y-85711961D02*
X146670833Y-85807200D01*
X146670833Y-85807200D02*
X146813690Y-85854819D01*
X146813690Y-85854819D02*
X147051785Y-85854819D01*
X145623214Y-84854819D02*
X145813690Y-84854819D01*
X145813690Y-84854819D02*
X145908928Y-84902438D01*
X145908928Y-84902438D02*
X145956547Y-84950057D01*
X145956547Y-84950057D02*
X146051785Y-85092914D01*
X146051785Y-85092914D02*
X146099404Y-85283390D01*
X146099404Y-85283390D02*
X146099404Y-85664342D01*
X146099404Y-85664342D02*
X146051785Y-85759580D01*
X146051785Y-85759580D02*
X146004166Y-85807200D01*
X146004166Y-85807200D02*
X145908928Y-85854819D01*
X145908928Y-85854819D02*
X145718452Y-85854819D01*
X145718452Y-85854819D02*
X145623214Y-85807200D01*
X145623214Y-85807200D02*
X145575595Y-85759580D01*
X145575595Y-85759580D02*
X145527976Y-85664342D01*
X145527976Y-85664342D02*
X145527976Y-85426247D01*
X145527976Y-85426247D02*
X145575595Y-85331009D01*
X145575595Y-85331009D02*
X145623214Y-85283390D01*
X145623214Y-85283390D02*
X145718452Y-85235771D01*
X145718452Y-85235771D02*
X145908928Y-85235771D01*
X145908928Y-85235771D02*
X146004166Y-85283390D01*
X146004166Y-85283390D02*
X146051785Y-85331009D01*
X146051785Y-85331009D02*
X146099404Y-85426247D01*
X145194642Y-84854819D02*
X144575595Y-84854819D01*
X144575595Y-84854819D02*
X144908928Y-85235771D01*
X144908928Y-85235771D02*
X144766071Y-85235771D01*
X144766071Y-85235771D02*
X144670833Y-85283390D01*
X144670833Y-85283390D02*
X144623214Y-85331009D01*
X144623214Y-85331009D02*
X144575595Y-85426247D01*
X144575595Y-85426247D02*
X144575595Y-85664342D01*
X144575595Y-85664342D02*
X144623214Y-85759580D01*
X144623214Y-85759580D02*
X144670833Y-85807200D01*
X144670833Y-85807200D02*
X144766071Y-85854819D01*
X144766071Y-85854819D02*
X145051785Y-85854819D01*
X145051785Y-85854819D02*
X145147023Y-85807200D01*
X145147023Y-85807200D02*
X145194642Y-85759580D01*
X71461904Y-60652819D02*
X70890476Y-60652819D01*
X71176190Y-61652819D02*
X71176190Y-60652819D01*
X70557142Y-61652819D02*
X70557142Y-60652819D01*
X70557142Y-60652819D02*
X70176190Y-60652819D01*
X70176190Y-60652819D02*
X70080952Y-60700438D01*
X70080952Y-60700438D02*
X70033333Y-60748057D01*
X70033333Y-60748057D02*
X69985714Y-60843295D01*
X69985714Y-60843295D02*
X69985714Y-60986152D01*
X69985714Y-60986152D02*
X70033333Y-61081390D01*
X70033333Y-61081390D02*
X70080952Y-61129009D01*
X70080952Y-61129009D02*
X70176190Y-61176628D01*
X70176190Y-61176628D02*
X70557142Y-61176628D01*
X69604761Y-60748057D02*
X69557142Y-60700438D01*
X69557142Y-60700438D02*
X69461904Y-60652819D01*
X69461904Y-60652819D02*
X69223809Y-60652819D01*
X69223809Y-60652819D02*
X69128571Y-60700438D01*
X69128571Y-60700438D02*
X69080952Y-60748057D01*
X69080952Y-60748057D02*
X69033333Y-60843295D01*
X69033333Y-60843295D02*
X69033333Y-60938533D01*
X69033333Y-60938533D02*
X69080952Y-61081390D01*
X69080952Y-61081390D02*
X69652380Y-61652819D01*
X69652380Y-61652819D02*
X69033333Y-61652819D01*
X146564285Y-75454819D02*
X146564285Y-74454819D01*
X146564285Y-74454819D02*
X146326190Y-74454819D01*
X146326190Y-74454819D02*
X146183333Y-74502438D01*
X146183333Y-74502438D02*
X146088095Y-74597676D01*
X146088095Y-74597676D02*
X146040476Y-74692914D01*
X146040476Y-74692914D02*
X145992857Y-74883390D01*
X145992857Y-74883390D02*
X145992857Y-75026247D01*
X145992857Y-75026247D02*
X146040476Y-75216723D01*
X146040476Y-75216723D02*
X146088095Y-75311961D01*
X146088095Y-75311961D02*
X146183333Y-75407200D01*
X146183333Y-75407200D02*
X146326190Y-75454819D01*
X146326190Y-75454819D02*
X146564285Y-75454819D01*
X145135714Y-74454819D02*
X145326190Y-74454819D01*
X145326190Y-74454819D02*
X145421428Y-74502438D01*
X145421428Y-74502438D02*
X145469047Y-74550057D01*
X145469047Y-74550057D02*
X145564285Y-74692914D01*
X145564285Y-74692914D02*
X145611904Y-74883390D01*
X145611904Y-74883390D02*
X145611904Y-75264342D01*
X145611904Y-75264342D02*
X145564285Y-75359580D01*
X145564285Y-75359580D02*
X145516666Y-75407200D01*
X145516666Y-75407200D02*
X145421428Y-75454819D01*
X145421428Y-75454819D02*
X145230952Y-75454819D01*
X145230952Y-75454819D02*
X145135714Y-75407200D01*
X145135714Y-75407200D02*
X145088095Y-75359580D01*
X145088095Y-75359580D02*
X145040476Y-75264342D01*
X145040476Y-75264342D02*
X145040476Y-75026247D01*
X145040476Y-75026247D02*
X145088095Y-74931009D01*
X145088095Y-74931009D02*
X145135714Y-74883390D01*
X145135714Y-74883390D02*
X145230952Y-74835771D01*
X145230952Y-74835771D02*
X145421428Y-74835771D01*
X145421428Y-74835771D02*
X145516666Y-74883390D01*
X145516666Y-74883390D02*
X145564285Y-74931009D01*
X145564285Y-74931009D02*
X145611904Y-75026247D01*
X144088095Y-75454819D02*
X144659523Y-75454819D01*
X144373809Y-75454819D02*
X144373809Y-74454819D01*
X144373809Y-74454819D02*
X144469047Y-74597676D01*
X144469047Y-74597676D02*
X144564285Y-74692914D01*
X144564285Y-74692914D02*
X144659523Y-74740533D01*
X148814285Y-90404819D02*
X148814285Y-89404819D01*
X148814285Y-89404819D02*
X148576190Y-89404819D01*
X148576190Y-89404819D02*
X148433333Y-89452438D01*
X148433333Y-89452438D02*
X148338095Y-89547676D01*
X148338095Y-89547676D02*
X148290476Y-89642914D01*
X148290476Y-89642914D02*
X148242857Y-89833390D01*
X148242857Y-89833390D02*
X148242857Y-89976247D01*
X148242857Y-89976247D02*
X148290476Y-90166723D01*
X148290476Y-90166723D02*
X148338095Y-90261961D01*
X148338095Y-90261961D02*
X148433333Y-90357200D01*
X148433333Y-90357200D02*
X148576190Y-90404819D01*
X148576190Y-90404819D02*
X148814285Y-90404819D01*
X147385714Y-89738152D02*
X147385714Y-90404819D01*
X147623809Y-89357200D02*
X147861904Y-90071485D01*
X147861904Y-90071485D02*
X147242857Y-90071485D01*
X146338095Y-90404819D02*
X146909523Y-90404819D01*
X146623809Y-90404819D02*
X146623809Y-89404819D01*
X146623809Y-89404819D02*
X146719047Y-89547676D01*
X146719047Y-89547676D02*
X146814285Y-89642914D01*
X146814285Y-89642914D02*
X146909523Y-89690533D01*
X104450057Y-131604761D02*
X104402438Y-131509523D01*
X104402438Y-131509523D02*
X104307200Y-131414285D01*
X104307200Y-131414285D02*
X104164342Y-131271428D01*
X104164342Y-131271428D02*
X104116723Y-131176190D01*
X104116723Y-131176190D02*
X104116723Y-131080952D01*
X104354819Y-131128571D02*
X104307200Y-131033333D01*
X104307200Y-131033333D02*
X104211961Y-130938095D01*
X104211961Y-130938095D02*
X104021485Y-130890476D01*
X104021485Y-130890476D02*
X103688152Y-130890476D01*
X103688152Y-130890476D02*
X103497676Y-130938095D01*
X103497676Y-130938095D02*
X103402438Y-131033333D01*
X103402438Y-131033333D02*
X103354819Y-131128571D01*
X103354819Y-131128571D02*
X103354819Y-131319047D01*
X103354819Y-131319047D02*
X103402438Y-131414285D01*
X103402438Y-131414285D02*
X103497676Y-131509523D01*
X103497676Y-131509523D02*
X103688152Y-131557142D01*
X103688152Y-131557142D02*
X104021485Y-131557142D01*
X104021485Y-131557142D02*
X104211961Y-131509523D01*
X104211961Y-131509523D02*
X104307200Y-131414285D01*
X104307200Y-131414285D02*
X104354819Y-131319047D01*
X104354819Y-131319047D02*
X104354819Y-131128571D01*
X104354819Y-132509523D02*
X104354819Y-131938095D01*
X104354819Y-132223809D02*
X103354819Y-132223809D01*
X103354819Y-132223809D02*
X103497676Y-132128571D01*
X103497676Y-132128571D02*
X103592914Y-132033333D01*
X103592914Y-132033333D02*
X103640533Y-131938095D01*
X122454819Y-21535714D02*
X121454819Y-21535714D01*
X121454819Y-21535714D02*
X121454819Y-21773809D01*
X121454819Y-21773809D02*
X121502438Y-21916666D01*
X121502438Y-21916666D02*
X121597676Y-22011904D01*
X121597676Y-22011904D02*
X121692914Y-22059523D01*
X121692914Y-22059523D02*
X121883390Y-22107142D01*
X121883390Y-22107142D02*
X122026247Y-22107142D01*
X122026247Y-22107142D02*
X122216723Y-22059523D01*
X122216723Y-22059523D02*
X122311961Y-22011904D01*
X122311961Y-22011904D02*
X122407200Y-21916666D01*
X122407200Y-21916666D02*
X122454819Y-21773809D01*
X122454819Y-21773809D02*
X122454819Y-21535714D01*
X121454819Y-22964285D02*
X121454819Y-22773809D01*
X121454819Y-22773809D02*
X121502438Y-22678571D01*
X121502438Y-22678571D02*
X121550057Y-22630952D01*
X121550057Y-22630952D02*
X121692914Y-22535714D01*
X121692914Y-22535714D02*
X121883390Y-22488095D01*
X121883390Y-22488095D02*
X122264342Y-22488095D01*
X122264342Y-22488095D02*
X122359580Y-22535714D01*
X122359580Y-22535714D02*
X122407200Y-22583333D01*
X122407200Y-22583333D02*
X122454819Y-22678571D01*
X122454819Y-22678571D02*
X122454819Y-22869047D01*
X122454819Y-22869047D02*
X122407200Y-22964285D01*
X122407200Y-22964285D02*
X122359580Y-23011904D01*
X122359580Y-23011904D02*
X122264342Y-23059523D01*
X122264342Y-23059523D02*
X122026247Y-23059523D01*
X122026247Y-23059523D02*
X121931009Y-23011904D01*
X121931009Y-23011904D02*
X121883390Y-22964285D01*
X121883390Y-22964285D02*
X121835771Y-22869047D01*
X121835771Y-22869047D02*
X121835771Y-22678571D01*
X121835771Y-22678571D02*
X121883390Y-22583333D01*
X121883390Y-22583333D02*
X121931009Y-22535714D01*
X121931009Y-22535714D02*
X122026247Y-22488095D01*
X121788152Y-23916666D02*
X122454819Y-23916666D01*
X121407200Y-23678571D02*
X122121485Y-23440476D01*
X122121485Y-23440476D02*
X122121485Y-24059523D01*
X112279011Y-32536741D02*
X111779011Y-31670716D01*
X111779011Y-31670716D02*
X111572815Y-31789764D01*
X111572815Y-31789764D02*
X111472906Y-31902432D01*
X111472906Y-31902432D02*
X111438047Y-32032529D01*
X111438047Y-32032529D02*
X111444427Y-32138817D01*
X111444427Y-32138817D02*
X111498425Y-32327584D01*
X111498425Y-32327584D02*
X111569854Y-32451302D01*
X111569854Y-32451302D02*
X111706331Y-32592450D01*
X111706331Y-32592450D02*
X111795190Y-32651119D01*
X111795190Y-32651119D02*
X111925287Y-32685978D01*
X111925287Y-32685978D02*
X112072815Y-32655789D01*
X112072815Y-32655789D02*
X112279011Y-32536741D01*
X110995465Y-32123097D02*
X110418114Y-32456430D01*
X110418114Y-32456430D02*
X111289268Y-33108170D01*
X109717046Y-32861192D02*
X109882003Y-32765954D01*
X109882003Y-32765954D02*
X109988291Y-32759574D01*
X109988291Y-32759574D02*
X110053340Y-32777004D01*
X110053340Y-32777004D02*
X110207247Y-32853103D01*
X110207247Y-32853103D02*
X110343725Y-32994251D01*
X110343725Y-32994251D02*
X110534201Y-33324165D01*
X110534201Y-33324165D02*
X110540581Y-33430453D01*
X110540581Y-33430453D02*
X110523151Y-33495502D01*
X110523151Y-33495502D02*
X110464482Y-33584361D01*
X110464482Y-33584361D02*
X110299525Y-33679599D01*
X110299525Y-33679599D02*
X110193237Y-33685978D01*
X110193237Y-33685978D02*
X110128188Y-33668549D01*
X110128188Y-33668549D02*
X110039329Y-33609880D01*
X110039329Y-33609880D02*
X109920282Y-33403683D01*
X109920282Y-33403683D02*
X109913902Y-33297395D01*
X109913902Y-33297395D02*
X109931332Y-33232346D01*
X109931332Y-33232346D02*
X109990001Y-33143488D01*
X109990001Y-33143488D02*
X110154958Y-33048250D01*
X110154958Y-33048250D02*
X110261246Y-33041870D01*
X110261246Y-33041870D02*
X110326295Y-33059300D01*
X110326295Y-33059300D02*
X110415153Y-33117969D01*
X160666666Y-31029819D02*
X160999999Y-30553628D01*
X161238094Y-31029819D02*
X161238094Y-30029819D01*
X161238094Y-30029819D02*
X160857142Y-30029819D01*
X160857142Y-30029819D02*
X160761904Y-30077438D01*
X160761904Y-30077438D02*
X160714285Y-30125057D01*
X160714285Y-30125057D02*
X160666666Y-30220295D01*
X160666666Y-30220295D02*
X160666666Y-30363152D01*
X160666666Y-30363152D02*
X160714285Y-30458390D01*
X160714285Y-30458390D02*
X160761904Y-30506009D01*
X160761904Y-30506009D02*
X160857142Y-30553628D01*
X160857142Y-30553628D02*
X161238094Y-30553628D01*
X160333332Y-30029819D02*
X159666666Y-30029819D01*
X159666666Y-30029819D02*
X160095237Y-31029819D01*
X174251785Y-135634819D02*
X174251785Y-134634819D01*
X174251785Y-134634819D02*
X174013690Y-134634819D01*
X174013690Y-134634819D02*
X173870833Y-134682438D01*
X173870833Y-134682438D02*
X173775595Y-134777676D01*
X173775595Y-134777676D02*
X173727976Y-134872914D01*
X173727976Y-134872914D02*
X173680357Y-135063390D01*
X173680357Y-135063390D02*
X173680357Y-135206247D01*
X173680357Y-135206247D02*
X173727976Y-135396723D01*
X173727976Y-135396723D02*
X173775595Y-135491961D01*
X173775595Y-135491961D02*
X173870833Y-135587200D01*
X173870833Y-135587200D02*
X174013690Y-135634819D01*
X174013690Y-135634819D02*
X174251785Y-135634819D01*
X173299404Y-134730057D02*
X173251785Y-134682438D01*
X173251785Y-134682438D02*
X173156547Y-134634819D01*
X173156547Y-134634819D02*
X172918452Y-134634819D01*
X172918452Y-134634819D02*
X172823214Y-134682438D01*
X172823214Y-134682438D02*
X172775595Y-134730057D01*
X172775595Y-134730057D02*
X172727976Y-134825295D01*
X172727976Y-134825295D02*
X172727976Y-134920533D01*
X172727976Y-134920533D02*
X172775595Y-135063390D01*
X172775595Y-135063390D02*
X173347023Y-135634819D01*
X173347023Y-135634819D02*
X172727976Y-135634819D01*
X172156547Y-135063390D02*
X172251785Y-135015771D01*
X172251785Y-135015771D02*
X172299404Y-134968152D01*
X172299404Y-134968152D02*
X172347023Y-134872914D01*
X172347023Y-134872914D02*
X172347023Y-134825295D01*
X172347023Y-134825295D02*
X172299404Y-134730057D01*
X172299404Y-134730057D02*
X172251785Y-134682438D01*
X172251785Y-134682438D02*
X172156547Y-134634819D01*
X172156547Y-134634819D02*
X171966071Y-134634819D01*
X171966071Y-134634819D02*
X171870833Y-134682438D01*
X171870833Y-134682438D02*
X171823214Y-134730057D01*
X171823214Y-134730057D02*
X171775595Y-134825295D01*
X171775595Y-134825295D02*
X171775595Y-134872914D01*
X171775595Y-134872914D02*
X171823214Y-134968152D01*
X171823214Y-134968152D02*
X171870833Y-135015771D01*
X171870833Y-135015771D02*
X171966071Y-135063390D01*
X171966071Y-135063390D02*
X172156547Y-135063390D01*
X172156547Y-135063390D02*
X172251785Y-135111009D01*
X172251785Y-135111009D02*
X172299404Y-135158628D01*
X172299404Y-135158628D02*
X172347023Y-135253866D01*
X172347023Y-135253866D02*
X172347023Y-135444342D01*
X172347023Y-135444342D02*
X172299404Y-135539580D01*
X172299404Y-135539580D02*
X172251785Y-135587200D01*
X172251785Y-135587200D02*
X172156547Y-135634819D01*
X172156547Y-135634819D02*
X171966071Y-135634819D01*
X171966071Y-135634819D02*
X171870833Y-135587200D01*
X171870833Y-135587200D02*
X171823214Y-135539580D01*
X171823214Y-135539580D02*
X171775595Y-135444342D01*
X171775595Y-135444342D02*
X171775595Y-135253866D01*
X171775595Y-135253866D02*
X171823214Y-135158628D01*
X171823214Y-135158628D02*
X171870833Y-135111009D01*
X171870833Y-135111009D02*
X171966071Y-135063390D01*
X167926785Y-120634819D02*
X167926785Y-119634819D01*
X167926785Y-119634819D02*
X167688690Y-119634819D01*
X167688690Y-119634819D02*
X167545833Y-119682438D01*
X167545833Y-119682438D02*
X167450595Y-119777676D01*
X167450595Y-119777676D02*
X167402976Y-119872914D01*
X167402976Y-119872914D02*
X167355357Y-120063390D01*
X167355357Y-120063390D02*
X167355357Y-120206247D01*
X167355357Y-120206247D02*
X167402976Y-120396723D01*
X167402976Y-120396723D02*
X167450595Y-120491961D01*
X167450595Y-120491961D02*
X167545833Y-120587200D01*
X167545833Y-120587200D02*
X167688690Y-120634819D01*
X167688690Y-120634819D02*
X167926785Y-120634819D01*
X166974404Y-119730057D02*
X166926785Y-119682438D01*
X166926785Y-119682438D02*
X166831547Y-119634819D01*
X166831547Y-119634819D02*
X166593452Y-119634819D01*
X166593452Y-119634819D02*
X166498214Y-119682438D01*
X166498214Y-119682438D02*
X166450595Y-119730057D01*
X166450595Y-119730057D02*
X166402976Y-119825295D01*
X166402976Y-119825295D02*
X166402976Y-119920533D01*
X166402976Y-119920533D02*
X166450595Y-120063390D01*
X166450595Y-120063390D02*
X167022023Y-120634819D01*
X167022023Y-120634819D02*
X166402976Y-120634819D01*
X165498214Y-119634819D02*
X165974404Y-119634819D01*
X165974404Y-119634819D02*
X166022023Y-120111009D01*
X166022023Y-120111009D02*
X165974404Y-120063390D01*
X165974404Y-120063390D02*
X165879166Y-120015771D01*
X165879166Y-120015771D02*
X165641071Y-120015771D01*
X165641071Y-120015771D02*
X165545833Y-120063390D01*
X165545833Y-120063390D02*
X165498214Y-120111009D01*
X165498214Y-120111009D02*
X165450595Y-120206247D01*
X165450595Y-120206247D02*
X165450595Y-120444342D01*
X165450595Y-120444342D02*
X165498214Y-120539580D01*
X165498214Y-120539580D02*
X165545833Y-120587200D01*
X165545833Y-120587200D02*
X165641071Y-120634819D01*
X165641071Y-120634819D02*
X165879166Y-120634819D01*
X165879166Y-120634819D02*
X165974404Y-120587200D01*
X165974404Y-120587200D02*
X166022023Y-120539580D01*
X71161904Y-65452819D02*
X70590476Y-65452819D01*
X70876190Y-66452819D02*
X70876190Y-65452819D01*
X70257142Y-66452819D02*
X70257142Y-65452819D01*
X70257142Y-65452819D02*
X69876190Y-65452819D01*
X69876190Y-65452819D02*
X69780952Y-65500438D01*
X69780952Y-65500438D02*
X69733333Y-65548057D01*
X69733333Y-65548057D02*
X69685714Y-65643295D01*
X69685714Y-65643295D02*
X69685714Y-65786152D01*
X69685714Y-65786152D02*
X69733333Y-65881390D01*
X69733333Y-65881390D02*
X69780952Y-65929009D01*
X69780952Y-65929009D02*
X69876190Y-65976628D01*
X69876190Y-65976628D02*
X70257142Y-65976628D01*
X68733333Y-66452819D02*
X69304761Y-66452819D01*
X69019047Y-66452819D02*
X69019047Y-65452819D01*
X69019047Y-65452819D02*
X69114285Y-65595676D01*
X69114285Y-65595676D02*
X69209523Y-65690914D01*
X69209523Y-65690914D02*
X69304761Y-65738533D01*
X149214285Y-96854819D02*
X149214285Y-95854819D01*
X149214285Y-95854819D02*
X148976190Y-95854819D01*
X148976190Y-95854819D02*
X148833333Y-95902438D01*
X148833333Y-95902438D02*
X148738095Y-95997676D01*
X148738095Y-95997676D02*
X148690476Y-96092914D01*
X148690476Y-96092914D02*
X148642857Y-96283390D01*
X148642857Y-96283390D02*
X148642857Y-96426247D01*
X148642857Y-96426247D02*
X148690476Y-96616723D01*
X148690476Y-96616723D02*
X148738095Y-96711961D01*
X148738095Y-96711961D02*
X148833333Y-96807200D01*
X148833333Y-96807200D02*
X148976190Y-96854819D01*
X148976190Y-96854819D02*
X149214285Y-96854819D01*
X147785714Y-96188152D02*
X147785714Y-96854819D01*
X148023809Y-95807200D02*
X148261904Y-96521485D01*
X148261904Y-96521485D02*
X147642857Y-96521485D01*
X147309523Y-95950057D02*
X147261904Y-95902438D01*
X147261904Y-95902438D02*
X147166666Y-95854819D01*
X147166666Y-95854819D02*
X146928571Y-95854819D01*
X146928571Y-95854819D02*
X146833333Y-95902438D01*
X146833333Y-95902438D02*
X146785714Y-95950057D01*
X146785714Y-95950057D02*
X146738095Y-96045295D01*
X146738095Y-96045295D02*
X146738095Y-96140533D01*
X146738095Y-96140533D02*
X146785714Y-96283390D01*
X146785714Y-96283390D02*
X147357142Y-96854819D01*
X147357142Y-96854819D02*
X146738095Y-96854819D01*
X119251026Y-21925807D02*
X118385001Y-21425807D01*
X118385001Y-21425807D02*
X118265953Y-21632003D01*
X118265953Y-21632003D02*
X118235764Y-21779531D01*
X118235764Y-21779531D02*
X118270624Y-21909628D01*
X118270624Y-21909628D02*
X118329293Y-21998487D01*
X118329293Y-21998487D02*
X118470440Y-22134964D01*
X118470440Y-22134964D02*
X118594158Y-22206393D01*
X118594158Y-22206393D02*
X118782925Y-22260391D01*
X118782925Y-22260391D02*
X118889213Y-22266771D01*
X118889213Y-22266771D02*
X119019311Y-22231912D01*
X119019311Y-22231912D02*
X119131979Y-22132003D01*
X119131979Y-22132003D02*
X119251026Y-21925807D01*
X118184726Y-22629836D02*
X118191106Y-22523548D01*
X118191106Y-22523548D02*
X118173676Y-22458499D01*
X118173676Y-22458499D02*
X118115007Y-22369640D01*
X118115007Y-22369640D02*
X118073768Y-22345831D01*
X118073768Y-22345831D02*
X117967479Y-22339451D01*
X117967479Y-22339451D02*
X117902431Y-22356881D01*
X117902431Y-22356881D02*
X117813572Y-22415550D01*
X117813572Y-22415550D02*
X117718334Y-22580507D01*
X117718334Y-22580507D02*
X117711954Y-22686795D01*
X117711954Y-22686795D02*
X117729384Y-22751844D01*
X117729384Y-22751844D02*
X117788053Y-22840703D01*
X117788053Y-22840703D02*
X117829293Y-22864512D01*
X117829293Y-22864512D02*
X117935581Y-22870892D01*
X117935581Y-22870892D02*
X118000630Y-22853462D01*
X118000630Y-22853462D02*
X118089488Y-22794793D01*
X118089488Y-22794793D02*
X118184726Y-22629836D01*
X118184726Y-22629836D02*
X118273584Y-22571167D01*
X118273584Y-22571167D02*
X118338633Y-22553737D01*
X118338633Y-22553737D02*
X118444921Y-22560117D01*
X118444921Y-22560117D02*
X118609879Y-22655355D01*
X118609879Y-22655355D02*
X118668548Y-22744213D01*
X118668548Y-22744213D02*
X118685977Y-22809262D01*
X118685977Y-22809262D02*
X118679598Y-22915550D01*
X118679598Y-22915550D02*
X118584360Y-23080507D01*
X118584360Y-23080507D02*
X118495501Y-23139176D01*
X118495501Y-23139176D02*
X118430452Y-23156606D01*
X118430452Y-23156606D02*
X118324164Y-23150226D01*
X118324164Y-23150226D02*
X118159207Y-23054988D01*
X118159207Y-23054988D02*
X118100538Y-22966130D01*
X118100538Y-22966130D02*
X118083108Y-22901081D01*
X118083108Y-22901081D02*
X118089488Y-22794793D01*
X117313572Y-23281575D02*
X117265953Y-23364054D01*
X117265953Y-23364054D02*
X117259573Y-23470342D01*
X117259573Y-23470342D02*
X117277003Y-23535391D01*
X117277003Y-23535391D02*
X117335672Y-23624249D01*
X117335672Y-23624249D02*
X117476820Y-23760727D01*
X117476820Y-23760727D02*
X117683017Y-23879774D01*
X117683017Y-23879774D02*
X117871783Y-23933773D01*
X117871783Y-23933773D02*
X117978071Y-23940153D01*
X117978071Y-23940153D02*
X118043120Y-23922723D01*
X118043120Y-23922723D02*
X118131979Y-23864054D01*
X118131979Y-23864054D02*
X118179598Y-23781575D01*
X118179598Y-23781575D02*
X118185977Y-23675287D01*
X118185977Y-23675287D02*
X118168548Y-23610239D01*
X118168548Y-23610239D02*
X118109879Y-23521380D01*
X118109879Y-23521380D02*
X117968731Y-23384903D01*
X117968731Y-23384903D02*
X117762534Y-23265855D01*
X117762534Y-23265855D02*
X117573768Y-23211856D01*
X117573768Y-23211856D02*
X117467479Y-23205477D01*
X117467479Y-23205477D02*
X117402431Y-23222906D01*
X117402431Y-23222906D02*
X117313572Y-23281575D01*
X175242857Y-87304819D02*
X175576190Y-86828628D01*
X175814285Y-87304819D02*
X175814285Y-86304819D01*
X175814285Y-86304819D02*
X175433333Y-86304819D01*
X175433333Y-86304819D02*
X175338095Y-86352438D01*
X175338095Y-86352438D02*
X175290476Y-86400057D01*
X175290476Y-86400057D02*
X175242857Y-86495295D01*
X175242857Y-86495295D02*
X175242857Y-86638152D01*
X175242857Y-86638152D02*
X175290476Y-86733390D01*
X175290476Y-86733390D02*
X175338095Y-86781009D01*
X175338095Y-86781009D02*
X175433333Y-86828628D01*
X175433333Y-86828628D02*
X175814285Y-86828628D01*
X174290476Y-87304819D02*
X174861904Y-87304819D01*
X174576190Y-87304819D02*
X174576190Y-86304819D01*
X174576190Y-86304819D02*
X174671428Y-86447676D01*
X174671428Y-86447676D02*
X174766666Y-86542914D01*
X174766666Y-86542914D02*
X174861904Y-86590533D01*
X173909523Y-86400057D02*
X173861904Y-86352438D01*
X173861904Y-86352438D02*
X173766666Y-86304819D01*
X173766666Y-86304819D02*
X173528571Y-86304819D01*
X173528571Y-86304819D02*
X173433333Y-86352438D01*
X173433333Y-86352438D02*
X173385714Y-86400057D01*
X173385714Y-86400057D02*
X173338095Y-86495295D01*
X173338095Y-86495295D02*
X173338095Y-86590533D01*
X173338095Y-86590533D02*
X173385714Y-86733390D01*
X173385714Y-86733390D02*
X173957142Y-87304819D01*
X173957142Y-87304819D02*
X173338095Y-87304819D01*
X108066666Y-77359580D02*
X108114285Y-77407200D01*
X108114285Y-77407200D02*
X108257142Y-77454819D01*
X108257142Y-77454819D02*
X108352380Y-77454819D01*
X108352380Y-77454819D02*
X108495237Y-77407200D01*
X108495237Y-77407200D02*
X108590475Y-77311961D01*
X108590475Y-77311961D02*
X108638094Y-77216723D01*
X108638094Y-77216723D02*
X108685713Y-77026247D01*
X108685713Y-77026247D02*
X108685713Y-76883390D01*
X108685713Y-76883390D02*
X108638094Y-76692914D01*
X108638094Y-76692914D02*
X108590475Y-76597676D01*
X108590475Y-76597676D02*
X108495237Y-76502438D01*
X108495237Y-76502438D02*
X108352380Y-76454819D01*
X108352380Y-76454819D02*
X108257142Y-76454819D01*
X108257142Y-76454819D02*
X108114285Y-76502438D01*
X108114285Y-76502438D02*
X108066666Y-76550057D01*
X107495237Y-76883390D02*
X107590475Y-76835771D01*
X107590475Y-76835771D02*
X107638094Y-76788152D01*
X107638094Y-76788152D02*
X107685713Y-76692914D01*
X107685713Y-76692914D02*
X107685713Y-76645295D01*
X107685713Y-76645295D02*
X107638094Y-76550057D01*
X107638094Y-76550057D02*
X107590475Y-76502438D01*
X107590475Y-76502438D02*
X107495237Y-76454819D01*
X107495237Y-76454819D02*
X107304761Y-76454819D01*
X107304761Y-76454819D02*
X107209523Y-76502438D01*
X107209523Y-76502438D02*
X107161904Y-76550057D01*
X107161904Y-76550057D02*
X107114285Y-76645295D01*
X107114285Y-76645295D02*
X107114285Y-76692914D01*
X107114285Y-76692914D02*
X107161904Y-76788152D01*
X107161904Y-76788152D02*
X107209523Y-76835771D01*
X107209523Y-76835771D02*
X107304761Y-76883390D01*
X107304761Y-76883390D02*
X107495237Y-76883390D01*
X107495237Y-76883390D02*
X107590475Y-76931009D01*
X107590475Y-76931009D02*
X107638094Y-76978628D01*
X107638094Y-76978628D02*
X107685713Y-77073866D01*
X107685713Y-77073866D02*
X107685713Y-77264342D01*
X107685713Y-77264342D02*
X107638094Y-77359580D01*
X107638094Y-77359580D02*
X107590475Y-77407200D01*
X107590475Y-77407200D02*
X107495237Y-77454819D01*
X107495237Y-77454819D02*
X107304761Y-77454819D01*
X107304761Y-77454819D02*
X107209523Y-77407200D01*
X107209523Y-77407200D02*
X107161904Y-77359580D01*
X107161904Y-77359580D02*
X107114285Y-77264342D01*
X107114285Y-77264342D02*
X107114285Y-77073866D01*
X107114285Y-77073866D02*
X107161904Y-76978628D01*
X107161904Y-76978628D02*
X107209523Y-76931009D01*
X107209523Y-76931009D02*
X107304761Y-76883390D01*
X118147857Y-45759580D02*
X118195476Y-45807200D01*
X118195476Y-45807200D02*
X118338333Y-45854819D01*
X118338333Y-45854819D02*
X118433571Y-45854819D01*
X118433571Y-45854819D02*
X118576428Y-45807200D01*
X118576428Y-45807200D02*
X118671666Y-45711961D01*
X118671666Y-45711961D02*
X118719285Y-45616723D01*
X118719285Y-45616723D02*
X118766904Y-45426247D01*
X118766904Y-45426247D02*
X118766904Y-45283390D01*
X118766904Y-45283390D02*
X118719285Y-45092914D01*
X118719285Y-45092914D02*
X118671666Y-44997676D01*
X118671666Y-44997676D02*
X118576428Y-44902438D01*
X118576428Y-44902438D02*
X118433571Y-44854819D01*
X118433571Y-44854819D02*
X118338333Y-44854819D01*
X118338333Y-44854819D02*
X118195476Y-44902438D01*
X118195476Y-44902438D02*
X118147857Y-44950057D01*
X117195476Y-45854819D02*
X117766904Y-45854819D01*
X117481190Y-45854819D02*
X117481190Y-44854819D01*
X117481190Y-44854819D02*
X117576428Y-44997676D01*
X117576428Y-44997676D02*
X117671666Y-45092914D01*
X117671666Y-45092914D02*
X117766904Y-45140533D01*
X116290714Y-44854819D02*
X116766904Y-44854819D01*
X116766904Y-44854819D02*
X116814523Y-45331009D01*
X116814523Y-45331009D02*
X116766904Y-45283390D01*
X116766904Y-45283390D02*
X116671666Y-45235771D01*
X116671666Y-45235771D02*
X116433571Y-45235771D01*
X116433571Y-45235771D02*
X116338333Y-45283390D01*
X116338333Y-45283390D02*
X116290714Y-45331009D01*
X116290714Y-45331009D02*
X116243095Y-45426247D01*
X116243095Y-45426247D02*
X116243095Y-45664342D01*
X116243095Y-45664342D02*
X116290714Y-45759580D01*
X116290714Y-45759580D02*
X116338333Y-45807200D01*
X116338333Y-45807200D02*
X116433571Y-45854819D01*
X116433571Y-45854819D02*
X116671666Y-45854819D01*
X116671666Y-45854819D02*
X116766904Y-45807200D01*
X116766904Y-45807200D02*
X116814523Y-45759580D01*
X144901785Y-58404819D02*
X144901785Y-57404819D01*
X144901785Y-57404819D02*
X144663690Y-57404819D01*
X144663690Y-57404819D02*
X144520833Y-57452438D01*
X144520833Y-57452438D02*
X144425595Y-57547676D01*
X144425595Y-57547676D02*
X144377976Y-57642914D01*
X144377976Y-57642914D02*
X144330357Y-57833390D01*
X144330357Y-57833390D02*
X144330357Y-57976247D01*
X144330357Y-57976247D02*
X144377976Y-58166723D01*
X144377976Y-58166723D02*
X144425595Y-58261961D01*
X144425595Y-58261961D02*
X144520833Y-58357200D01*
X144520833Y-58357200D02*
X144663690Y-58404819D01*
X144663690Y-58404819D02*
X144901785Y-58404819D01*
X143425595Y-57404819D02*
X143901785Y-57404819D01*
X143901785Y-57404819D02*
X143949404Y-57881009D01*
X143949404Y-57881009D02*
X143901785Y-57833390D01*
X143901785Y-57833390D02*
X143806547Y-57785771D01*
X143806547Y-57785771D02*
X143568452Y-57785771D01*
X143568452Y-57785771D02*
X143473214Y-57833390D01*
X143473214Y-57833390D02*
X143425595Y-57881009D01*
X143425595Y-57881009D02*
X143377976Y-57976247D01*
X143377976Y-57976247D02*
X143377976Y-58214342D01*
X143377976Y-58214342D02*
X143425595Y-58309580D01*
X143425595Y-58309580D02*
X143473214Y-58357200D01*
X143473214Y-58357200D02*
X143568452Y-58404819D01*
X143568452Y-58404819D02*
X143806547Y-58404819D01*
X143806547Y-58404819D02*
X143901785Y-58357200D01*
X143901785Y-58357200D02*
X143949404Y-58309580D01*
X143044642Y-57404819D02*
X142377976Y-57404819D01*
X142377976Y-57404819D02*
X142806547Y-58404819D01*
X104866666Y-83109580D02*
X104914285Y-83157200D01*
X104914285Y-83157200D02*
X105057142Y-83204819D01*
X105057142Y-83204819D02*
X105152380Y-83204819D01*
X105152380Y-83204819D02*
X105295237Y-83157200D01*
X105295237Y-83157200D02*
X105390475Y-83061961D01*
X105390475Y-83061961D02*
X105438094Y-82966723D01*
X105438094Y-82966723D02*
X105485713Y-82776247D01*
X105485713Y-82776247D02*
X105485713Y-82633390D01*
X105485713Y-82633390D02*
X105438094Y-82442914D01*
X105438094Y-82442914D02*
X105390475Y-82347676D01*
X105390475Y-82347676D02*
X105295237Y-82252438D01*
X105295237Y-82252438D02*
X105152380Y-82204819D01*
X105152380Y-82204819D02*
X105057142Y-82204819D01*
X105057142Y-82204819D02*
X104914285Y-82252438D01*
X104914285Y-82252438D02*
X104866666Y-82300057D01*
X104533332Y-82204819D02*
X103866666Y-82204819D01*
X103866666Y-82204819D02*
X104295237Y-83204819D01*
X142464285Y-51704819D02*
X142464285Y-50704819D01*
X142464285Y-50704819D02*
X142226190Y-50704819D01*
X142226190Y-50704819D02*
X142083333Y-50752438D01*
X142083333Y-50752438D02*
X141988095Y-50847676D01*
X141988095Y-50847676D02*
X141940476Y-50942914D01*
X141940476Y-50942914D02*
X141892857Y-51133390D01*
X141892857Y-51133390D02*
X141892857Y-51276247D01*
X141892857Y-51276247D02*
X141940476Y-51466723D01*
X141940476Y-51466723D02*
X141988095Y-51561961D01*
X141988095Y-51561961D02*
X142083333Y-51657200D01*
X142083333Y-51657200D02*
X142226190Y-51704819D01*
X142226190Y-51704819D02*
X142464285Y-51704819D01*
X140988095Y-50704819D02*
X141464285Y-50704819D01*
X141464285Y-50704819D02*
X141511904Y-51181009D01*
X141511904Y-51181009D02*
X141464285Y-51133390D01*
X141464285Y-51133390D02*
X141369047Y-51085771D01*
X141369047Y-51085771D02*
X141130952Y-51085771D01*
X141130952Y-51085771D02*
X141035714Y-51133390D01*
X141035714Y-51133390D02*
X140988095Y-51181009D01*
X140988095Y-51181009D02*
X140940476Y-51276247D01*
X140940476Y-51276247D02*
X140940476Y-51514342D01*
X140940476Y-51514342D02*
X140988095Y-51609580D01*
X140988095Y-51609580D02*
X141035714Y-51657200D01*
X141035714Y-51657200D02*
X141130952Y-51704819D01*
X141130952Y-51704819D02*
X141369047Y-51704819D01*
X141369047Y-51704819D02*
X141464285Y-51657200D01*
X141464285Y-51657200D02*
X141511904Y-51609580D01*
X140083333Y-50704819D02*
X140273809Y-50704819D01*
X140273809Y-50704819D02*
X140369047Y-50752438D01*
X140369047Y-50752438D02*
X140416666Y-50800057D01*
X140416666Y-50800057D02*
X140511904Y-50942914D01*
X140511904Y-50942914D02*
X140559523Y-51133390D01*
X140559523Y-51133390D02*
X140559523Y-51514342D01*
X140559523Y-51514342D02*
X140511904Y-51609580D01*
X140511904Y-51609580D02*
X140464285Y-51657200D01*
X140464285Y-51657200D02*
X140369047Y-51704819D01*
X140369047Y-51704819D02*
X140178571Y-51704819D01*
X140178571Y-51704819D02*
X140083333Y-51657200D01*
X140083333Y-51657200D02*
X140035714Y-51609580D01*
X140035714Y-51609580D02*
X139988095Y-51514342D01*
X139988095Y-51514342D02*
X139988095Y-51276247D01*
X139988095Y-51276247D02*
X140035714Y-51181009D01*
X140035714Y-51181009D02*
X140083333Y-51133390D01*
X140083333Y-51133390D02*
X140178571Y-51085771D01*
X140178571Y-51085771D02*
X140369047Y-51085771D01*
X140369047Y-51085771D02*
X140464285Y-51133390D01*
X140464285Y-51133390D02*
X140511904Y-51181009D01*
X140511904Y-51181009D02*
X140559523Y-51276247D01*
X141527624Y-30555491D02*
X141027624Y-29689466D01*
X141027624Y-29689466D02*
X140821428Y-29808514D01*
X140821428Y-29808514D02*
X140721519Y-29921182D01*
X140721519Y-29921182D02*
X140686660Y-30051279D01*
X140686660Y-30051279D02*
X140693040Y-30157567D01*
X140693040Y-30157567D02*
X140747038Y-30346334D01*
X140747038Y-30346334D02*
X140818467Y-30470052D01*
X140818467Y-30470052D02*
X140954944Y-30611200D01*
X140954944Y-30611200D02*
X141043803Y-30669869D01*
X141043803Y-30669869D02*
X141173900Y-30704728D01*
X141173900Y-30704728D02*
X141321428Y-30674539D01*
X141321428Y-30674539D02*
X141527624Y-30555491D01*
X139790445Y-30403752D02*
X139955402Y-30308514D01*
X139955402Y-30308514D02*
X140061691Y-30302134D01*
X140061691Y-30302134D02*
X140126739Y-30319564D01*
X140126739Y-30319564D02*
X140280647Y-30395663D01*
X140280647Y-30395663D02*
X140417124Y-30536810D01*
X140417124Y-30536810D02*
X140607600Y-30866725D01*
X140607600Y-30866725D02*
X140613980Y-30973013D01*
X140613980Y-30973013D02*
X140596550Y-31038062D01*
X140596550Y-31038062D02*
X140537881Y-31126920D01*
X140537881Y-31126920D02*
X140372924Y-31222158D01*
X140372924Y-31222158D02*
X140266636Y-31228538D01*
X140266636Y-31228538D02*
X140201587Y-31211108D01*
X140201587Y-31211108D02*
X140112728Y-31152439D01*
X140112728Y-31152439D02*
X139993681Y-30946242D01*
X139993681Y-30946242D02*
X139987301Y-30839954D01*
X139987301Y-30839954D02*
X140004731Y-30774906D01*
X140004731Y-30774906D02*
X140063400Y-30686047D01*
X140063400Y-30686047D02*
X140228357Y-30590809D01*
X140228357Y-30590809D02*
X140334645Y-30584429D01*
X140334645Y-30584429D02*
X140399694Y-30601859D01*
X140399694Y-30601859D02*
X140488553Y-30660528D01*
X139427381Y-31108239D02*
X139486050Y-31019381D01*
X139486050Y-31019381D02*
X139503479Y-30954332D01*
X139503479Y-30954332D02*
X139497100Y-30848044D01*
X139497100Y-30848044D02*
X139473290Y-30806804D01*
X139473290Y-30806804D02*
X139384432Y-30748135D01*
X139384432Y-30748135D02*
X139319383Y-30730705D01*
X139319383Y-30730705D02*
X139213095Y-30737085D01*
X139213095Y-30737085D02*
X139048138Y-30832323D01*
X139048138Y-30832323D02*
X138989469Y-30921182D01*
X138989469Y-30921182D02*
X138972039Y-30986230D01*
X138972039Y-30986230D02*
X138978419Y-31092519D01*
X138978419Y-31092519D02*
X139002228Y-31133758D01*
X139002228Y-31133758D02*
X139091086Y-31192427D01*
X139091086Y-31192427D02*
X139156135Y-31209857D01*
X139156135Y-31209857D02*
X139262423Y-31203477D01*
X139262423Y-31203477D02*
X139427381Y-31108239D01*
X139427381Y-31108239D02*
X139533669Y-31101859D01*
X139533669Y-31101859D02*
X139598718Y-31119289D01*
X139598718Y-31119289D02*
X139687576Y-31177958D01*
X139687576Y-31177958D02*
X139782814Y-31342915D01*
X139782814Y-31342915D02*
X139789194Y-31449203D01*
X139789194Y-31449203D02*
X139771764Y-31514252D01*
X139771764Y-31514252D02*
X139713095Y-31603111D01*
X139713095Y-31603111D02*
X139548138Y-31698349D01*
X139548138Y-31698349D02*
X139441850Y-31704728D01*
X139441850Y-31704728D02*
X139376801Y-31687299D01*
X139376801Y-31687299D02*
X139287942Y-31628630D01*
X139287942Y-31628630D02*
X139192704Y-31463672D01*
X139192704Y-31463672D02*
X139186325Y-31357384D01*
X139186325Y-31357384D02*
X139203754Y-31292335D01*
X139203754Y-31292335D02*
X139262423Y-31203477D01*
X104450057Y-136504761D02*
X104402438Y-136409523D01*
X104402438Y-136409523D02*
X104307200Y-136314285D01*
X104307200Y-136314285D02*
X104164342Y-136171428D01*
X104164342Y-136171428D02*
X104116723Y-136076190D01*
X104116723Y-136076190D02*
X104116723Y-135980952D01*
X104354819Y-136028571D02*
X104307200Y-135933333D01*
X104307200Y-135933333D02*
X104211961Y-135838095D01*
X104211961Y-135838095D02*
X104021485Y-135790476D01*
X104021485Y-135790476D02*
X103688152Y-135790476D01*
X103688152Y-135790476D02*
X103497676Y-135838095D01*
X103497676Y-135838095D02*
X103402438Y-135933333D01*
X103402438Y-135933333D02*
X103354819Y-136028571D01*
X103354819Y-136028571D02*
X103354819Y-136219047D01*
X103354819Y-136219047D02*
X103402438Y-136314285D01*
X103402438Y-136314285D02*
X103497676Y-136409523D01*
X103497676Y-136409523D02*
X103688152Y-136457142D01*
X103688152Y-136457142D02*
X104021485Y-136457142D01*
X104021485Y-136457142D02*
X104211961Y-136409523D01*
X104211961Y-136409523D02*
X104307200Y-136314285D01*
X104307200Y-136314285D02*
X104354819Y-136219047D01*
X104354819Y-136219047D02*
X104354819Y-136028571D01*
X103450057Y-136838095D02*
X103402438Y-136885714D01*
X103402438Y-136885714D02*
X103354819Y-136980952D01*
X103354819Y-136980952D02*
X103354819Y-137219047D01*
X103354819Y-137219047D02*
X103402438Y-137314285D01*
X103402438Y-137314285D02*
X103450057Y-137361904D01*
X103450057Y-137361904D02*
X103545295Y-137409523D01*
X103545295Y-137409523D02*
X103640533Y-137409523D01*
X103640533Y-137409523D02*
X103783390Y-137361904D01*
X103783390Y-137361904D02*
X104354819Y-136790476D01*
X104354819Y-136790476D02*
X104354819Y-137409523D01*
X121122857Y-39859580D02*
X121170476Y-39907200D01*
X121170476Y-39907200D02*
X121313333Y-39954819D01*
X121313333Y-39954819D02*
X121408571Y-39954819D01*
X121408571Y-39954819D02*
X121551428Y-39907200D01*
X121551428Y-39907200D02*
X121646666Y-39811961D01*
X121646666Y-39811961D02*
X121694285Y-39716723D01*
X121694285Y-39716723D02*
X121741904Y-39526247D01*
X121741904Y-39526247D02*
X121741904Y-39383390D01*
X121741904Y-39383390D02*
X121694285Y-39192914D01*
X121694285Y-39192914D02*
X121646666Y-39097676D01*
X121646666Y-39097676D02*
X121551428Y-39002438D01*
X121551428Y-39002438D02*
X121408571Y-38954819D01*
X121408571Y-38954819D02*
X121313333Y-38954819D01*
X121313333Y-38954819D02*
X121170476Y-39002438D01*
X121170476Y-39002438D02*
X121122857Y-39050057D01*
X120170476Y-39954819D02*
X120741904Y-39954819D01*
X120456190Y-39954819D02*
X120456190Y-38954819D01*
X120456190Y-38954819D02*
X120551428Y-39097676D01*
X120551428Y-39097676D02*
X120646666Y-39192914D01*
X120646666Y-39192914D02*
X120741904Y-39240533D01*
X119313333Y-39288152D02*
X119313333Y-39954819D01*
X119551428Y-38907200D02*
X119789523Y-39621485D01*
X119789523Y-39621485D02*
X119170476Y-39621485D01*
X158211904Y-45904819D02*
X158211904Y-46714342D01*
X158211904Y-46714342D02*
X158164285Y-46809580D01*
X158164285Y-46809580D02*
X158116666Y-46857200D01*
X158116666Y-46857200D02*
X158021428Y-46904819D01*
X158021428Y-46904819D02*
X157830952Y-46904819D01*
X157830952Y-46904819D02*
X157735714Y-46857200D01*
X157735714Y-46857200D02*
X157688095Y-46809580D01*
X157688095Y-46809580D02*
X157640476Y-46714342D01*
X157640476Y-46714342D02*
X157640476Y-45904819D01*
X157211904Y-46000057D02*
X157164285Y-45952438D01*
X157164285Y-45952438D02*
X157069047Y-45904819D01*
X157069047Y-45904819D02*
X156830952Y-45904819D01*
X156830952Y-45904819D02*
X156735714Y-45952438D01*
X156735714Y-45952438D02*
X156688095Y-46000057D01*
X156688095Y-46000057D02*
X156640476Y-46095295D01*
X156640476Y-46095295D02*
X156640476Y-46190533D01*
X156640476Y-46190533D02*
X156688095Y-46333390D01*
X156688095Y-46333390D02*
X157259523Y-46904819D01*
X157259523Y-46904819D02*
X156640476Y-46904819D01*
X174751785Y-140634819D02*
X174751785Y-139634819D01*
X174751785Y-139634819D02*
X174513690Y-139634819D01*
X174513690Y-139634819D02*
X174370833Y-139682438D01*
X174370833Y-139682438D02*
X174275595Y-139777676D01*
X174275595Y-139777676D02*
X174227976Y-139872914D01*
X174227976Y-139872914D02*
X174180357Y-140063390D01*
X174180357Y-140063390D02*
X174180357Y-140206247D01*
X174180357Y-140206247D02*
X174227976Y-140396723D01*
X174227976Y-140396723D02*
X174275595Y-140491961D01*
X174275595Y-140491961D02*
X174370833Y-140587200D01*
X174370833Y-140587200D02*
X174513690Y-140634819D01*
X174513690Y-140634819D02*
X174751785Y-140634819D01*
X173799404Y-139730057D02*
X173751785Y-139682438D01*
X173751785Y-139682438D02*
X173656547Y-139634819D01*
X173656547Y-139634819D02*
X173418452Y-139634819D01*
X173418452Y-139634819D02*
X173323214Y-139682438D01*
X173323214Y-139682438D02*
X173275595Y-139730057D01*
X173275595Y-139730057D02*
X173227976Y-139825295D01*
X173227976Y-139825295D02*
X173227976Y-139920533D01*
X173227976Y-139920533D02*
X173275595Y-140063390D01*
X173275595Y-140063390D02*
X173847023Y-140634819D01*
X173847023Y-140634819D02*
X173227976Y-140634819D01*
X172751785Y-140634819D02*
X172561309Y-140634819D01*
X172561309Y-140634819D02*
X172466071Y-140587200D01*
X172466071Y-140587200D02*
X172418452Y-140539580D01*
X172418452Y-140539580D02*
X172323214Y-140396723D01*
X172323214Y-140396723D02*
X172275595Y-140206247D01*
X172275595Y-140206247D02*
X172275595Y-139825295D01*
X172275595Y-139825295D02*
X172323214Y-139730057D01*
X172323214Y-139730057D02*
X172370833Y-139682438D01*
X172370833Y-139682438D02*
X172466071Y-139634819D01*
X172466071Y-139634819D02*
X172656547Y-139634819D01*
X172656547Y-139634819D02*
X172751785Y-139682438D01*
X172751785Y-139682438D02*
X172799404Y-139730057D01*
X172799404Y-139730057D02*
X172847023Y-139825295D01*
X172847023Y-139825295D02*
X172847023Y-140063390D01*
X172847023Y-140063390D02*
X172799404Y-140158628D01*
X172799404Y-140158628D02*
X172751785Y-140206247D01*
X172751785Y-140206247D02*
X172656547Y-140253866D01*
X172656547Y-140253866D02*
X172466071Y-140253866D01*
X172466071Y-140253866D02*
X172370833Y-140206247D01*
X172370833Y-140206247D02*
X172323214Y-140158628D01*
X172323214Y-140158628D02*
X172275595Y-140063390D01*
X145714285Y-40954819D02*
X145714285Y-39954819D01*
X145714285Y-39954819D02*
X145476190Y-39954819D01*
X145476190Y-39954819D02*
X145333333Y-40002438D01*
X145333333Y-40002438D02*
X145238095Y-40097676D01*
X145238095Y-40097676D02*
X145190476Y-40192914D01*
X145190476Y-40192914D02*
X145142857Y-40383390D01*
X145142857Y-40383390D02*
X145142857Y-40526247D01*
X145142857Y-40526247D02*
X145190476Y-40716723D01*
X145190476Y-40716723D02*
X145238095Y-40811961D01*
X145238095Y-40811961D02*
X145333333Y-40907200D01*
X145333333Y-40907200D02*
X145476190Y-40954819D01*
X145476190Y-40954819D02*
X145714285Y-40954819D01*
X144809523Y-39954819D02*
X144142857Y-39954819D01*
X144142857Y-39954819D02*
X144571428Y-40954819D01*
X143571428Y-39954819D02*
X143476190Y-39954819D01*
X143476190Y-39954819D02*
X143380952Y-40002438D01*
X143380952Y-40002438D02*
X143333333Y-40050057D01*
X143333333Y-40050057D02*
X143285714Y-40145295D01*
X143285714Y-40145295D02*
X143238095Y-40335771D01*
X143238095Y-40335771D02*
X143238095Y-40573866D01*
X143238095Y-40573866D02*
X143285714Y-40764342D01*
X143285714Y-40764342D02*
X143333333Y-40859580D01*
X143333333Y-40859580D02*
X143380952Y-40907200D01*
X143380952Y-40907200D02*
X143476190Y-40954819D01*
X143476190Y-40954819D02*
X143571428Y-40954819D01*
X143571428Y-40954819D02*
X143666666Y-40907200D01*
X143666666Y-40907200D02*
X143714285Y-40859580D01*
X143714285Y-40859580D02*
X143761904Y-40764342D01*
X143761904Y-40764342D02*
X143809523Y-40573866D01*
X143809523Y-40573866D02*
X143809523Y-40335771D01*
X143809523Y-40335771D02*
X143761904Y-40145295D01*
X143761904Y-40145295D02*
X143714285Y-40050057D01*
X143714285Y-40050057D02*
X143666666Y-40002438D01*
X143666666Y-40002438D02*
X143571428Y-39954819D01*
X149714285Y-102454819D02*
X149714285Y-101454819D01*
X149714285Y-101454819D02*
X149476190Y-101454819D01*
X149476190Y-101454819D02*
X149333333Y-101502438D01*
X149333333Y-101502438D02*
X149238095Y-101597676D01*
X149238095Y-101597676D02*
X149190476Y-101692914D01*
X149190476Y-101692914D02*
X149142857Y-101883390D01*
X149142857Y-101883390D02*
X149142857Y-102026247D01*
X149142857Y-102026247D02*
X149190476Y-102216723D01*
X149190476Y-102216723D02*
X149238095Y-102311961D01*
X149238095Y-102311961D02*
X149333333Y-102407200D01*
X149333333Y-102407200D02*
X149476190Y-102454819D01*
X149476190Y-102454819D02*
X149714285Y-102454819D01*
X148285714Y-101788152D02*
X148285714Y-102454819D01*
X148523809Y-101407200D02*
X148761904Y-102121485D01*
X148761904Y-102121485D02*
X148142857Y-102121485D01*
X147857142Y-101454819D02*
X147238095Y-101454819D01*
X147238095Y-101454819D02*
X147571428Y-101835771D01*
X147571428Y-101835771D02*
X147428571Y-101835771D01*
X147428571Y-101835771D02*
X147333333Y-101883390D01*
X147333333Y-101883390D02*
X147285714Y-101931009D01*
X147285714Y-101931009D02*
X147238095Y-102026247D01*
X147238095Y-102026247D02*
X147238095Y-102264342D01*
X147238095Y-102264342D02*
X147285714Y-102359580D01*
X147285714Y-102359580D02*
X147333333Y-102407200D01*
X147333333Y-102407200D02*
X147428571Y-102454819D01*
X147428571Y-102454819D02*
X147714285Y-102454819D01*
X147714285Y-102454819D02*
X147809523Y-102407200D01*
X147809523Y-102407200D02*
X147857142Y-102359580D01*
X171416666Y-74209580D02*
X171464285Y-74257200D01*
X171464285Y-74257200D02*
X171607142Y-74304819D01*
X171607142Y-74304819D02*
X171702380Y-74304819D01*
X171702380Y-74304819D02*
X171845237Y-74257200D01*
X171845237Y-74257200D02*
X171940475Y-74161961D01*
X171940475Y-74161961D02*
X171988094Y-74066723D01*
X171988094Y-74066723D02*
X172035713Y-73876247D01*
X172035713Y-73876247D02*
X172035713Y-73733390D01*
X172035713Y-73733390D02*
X171988094Y-73542914D01*
X171988094Y-73542914D02*
X171940475Y-73447676D01*
X171940475Y-73447676D02*
X171845237Y-73352438D01*
X171845237Y-73352438D02*
X171702380Y-73304819D01*
X171702380Y-73304819D02*
X171607142Y-73304819D01*
X171607142Y-73304819D02*
X171464285Y-73352438D01*
X171464285Y-73352438D02*
X171416666Y-73400057D01*
X170940475Y-74304819D02*
X170749999Y-74304819D01*
X170749999Y-74304819D02*
X170654761Y-74257200D01*
X170654761Y-74257200D02*
X170607142Y-74209580D01*
X170607142Y-74209580D02*
X170511904Y-74066723D01*
X170511904Y-74066723D02*
X170464285Y-73876247D01*
X170464285Y-73876247D02*
X170464285Y-73495295D01*
X170464285Y-73495295D02*
X170511904Y-73400057D01*
X170511904Y-73400057D02*
X170559523Y-73352438D01*
X170559523Y-73352438D02*
X170654761Y-73304819D01*
X170654761Y-73304819D02*
X170845237Y-73304819D01*
X170845237Y-73304819D02*
X170940475Y-73352438D01*
X170940475Y-73352438D02*
X170988094Y-73400057D01*
X170988094Y-73400057D02*
X171035713Y-73495295D01*
X171035713Y-73495295D02*
X171035713Y-73733390D01*
X171035713Y-73733390D02*
X170988094Y-73828628D01*
X170988094Y-73828628D02*
X170940475Y-73876247D01*
X170940475Y-73876247D02*
X170845237Y-73923866D01*
X170845237Y-73923866D02*
X170654761Y-73923866D01*
X170654761Y-73923866D02*
X170559523Y-73876247D01*
X170559523Y-73876247D02*
X170511904Y-73828628D01*
X170511904Y-73828628D02*
X170464285Y-73733390D01*
X71461904Y-51152819D02*
X70890476Y-51152819D01*
X71176190Y-52152819D02*
X71176190Y-51152819D01*
X70557142Y-52152819D02*
X70557142Y-51152819D01*
X70557142Y-51152819D02*
X70176190Y-51152819D01*
X70176190Y-51152819D02*
X70080952Y-51200438D01*
X70080952Y-51200438D02*
X70033333Y-51248057D01*
X70033333Y-51248057D02*
X69985714Y-51343295D01*
X69985714Y-51343295D02*
X69985714Y-51486152D01*
X69985714Y-51486152D02*
X70033333Y-51581390D01*
X70033333Y-51581390D02*
X70080952Y-51629009D01*
X70080952Y-51629009D02*
X70176190Y-51676628D01*
X70176190Y-51676628D02*
X70557142Y-51676628D01*
X69128571Y-51486152D02*
X69128571Y-52152819D01*
X69366666Y-51105200D02*
X69604761Y-51819485D01*
X69604761Y-51819485D02*
X68985714Y-51819485D01*
X169251785Y-156384819D02*
X169251785Y-155384819D01*
X169251785Y-155384819D02*
X169013690Y-155384819D01*
X169013690Y-155384819D02*
X168870833Y-155432438D01*
X168870833Y-155432438D02*
X168775595Y-155527676D01*
X168775595Y-155527676D02*
X168727976Y-155622914D01*
X168727976Y-155622914D02*
X168680357Y-155813390D01*
X168680357Y-155813390D02*
X168680357Y-155956247D01*
X168680357Y-155956247D02*
X168727976Y-156146723D01*
X168727976Y-156146723D02*
X168775595Y-156241961D01*
X168775595Y-156241961D02*
X168870833Y-156337200D01*
X168870833Y-156337200D02*
X169013690Y-156384819D01*
X169013690Y-156384819D02*
X169251785Y-156384819D01*
X168347023Y-155384819D02*
X167727976Y-155384819D01*
X167727976Y-155384819D02*
X168061309Y-155765771D01*
X168061309Y-155765771D02*
X167918452Y-155765771D01*
X167918452Y-155765771D02*
X167823214Y-155813390D01*
X167823214Y-155813390D02*
X167775595Y-155861009D01*
X167775595Y-155861009D02*
X167727976Y-155956247D01*
X167727976Y-155956247D02*
X167727976Y-156194342D01*
X167727976Y-156194342D02*
X167775595Y-156289580D01*
X167775595Y-156289580D02*
X167823214Y-156337200D01*
X167823214Y-156337200D02*
X167918452Y-156384819D01*
X167918452Y-156384819D02*
X168204166Y-156384819D01*
X168204166Y-156384819D02*
X168299404Y-156337200D01*
X168299404Y-156337200D02*
X168347023Y-156289580D01*
X167347023Y-155480057D02*
X167299404Y-155432438D01*
X167299404Y-155432438D02*
X167204166Y-155384819D01*
X167204166Y-155384819D02*
X166966071Y-155384819D01*
X166966071Y-155384819D02*
X166870833Y-155432438D01*
X166870833Y-155432438D02*
X166823214Y-155480057D01*
X166823214Y-155480057D02*
X166775595Y-155575295D01*
X166775595Y-155575295D02*
X166775595Y-155670533D01*
X166775595Y-155670533D02*
X166823214Y-155813390D01*
X166823214Y-155813390D02*
X167394642Y-156384819D01*
X167394642Y-156384819D02*
X166775595Y-156384819D01*
X172001785Y-131884819D02*
X172001785Y-130884819D01*
X172001785Y-130884819D02*
X171763690Y-130884819D01*
X171763690Y-130884819D02*
X171620833Y-130932438D01*
X171620833Y-130932438D02*
X171525595Y-131027676D01*
X171525595Y-131027676D02*
X171477976Y-131122914D01*
X171477976Y-131122914D02*
X171430357Y-131313390D01*
X171430357Y-131313390D02*
X171430357Y-131456247D01*
X171430357Y-131456247D02*
X171477976Y-131646723D01*
X171477976Y-131646723D02*
X171525595Y-131741961D01*
X171525595Y-131741961D02*
X171620833Y-131837200D01*
X171620833Y-131837200D02*
X171763690Y-131884819D01*
X171763690Y-131884819D02*
X172001785Y-131884819D01*
X171049404Y-130980057D02*
X171001785Y-130932438D01*
X171001785Y-130932438D02*
X170906547Y-130884819D01*
X170906547Y-130884819D02*
X170668452Y-130884819D01*
X170668452Y-130884819D02*
X170573214Y-130932438D01*
X170573214Y-130932438D02*
X170525595Y-130980057D01*
X170525595Y-130980057D02*
X170477976Y-131075295D01*
X170477976Y-131075295D02*
X170477976Y-131170533D01*
X170477976Y-131170533D02*
X170525595Y-131313390D01*
X170525595Y-131313390D02*
X171097023Y-131884819D01*
X171097023Y-131884819D02*
X170477976Y-131884819D01*
X170144642Y-130884819D02*
X169477976Y-130884819D01*
X169477976Y-130884819D02*
X169906547Y-131884819D01*
X146051785Y-62654819D02*
X146051785Y-61654819D01*
X146051785Y-61654819D02*
X145813690Y-61654819D01*
X145813690Y-61654819D02*
X145670833Y-61702438D01*
X145670833Y-61702438D02*
X145575595Y-61797676D01*
X145575595Y-61797676D02*
X145527976Y-61892914D01*
X145527976Y-61892914D02*
X145480357Y-62083390D01*
X145480357Y-62083390D02*
X145480357Y-62226247D01*
X145480357Y-62226247D02*
X145527976Y-62416723D01*
X145527976Y-62416723D02*
X145575595Y-62511961D01*
X145575595Y-62511961D02*
X145670833Y-62607200D01*
X145670833Y-62607200D02*
X145813690Y-62654819D01*
X145813690Y-62654819D02*
X146051785Y-62654819D01*
X144575595Y-61654819D02*
X145051785Y-61654819D01*
X145051785Y-61654819D02*
X145099404Y-62131009D01*
X145099404Y-62131009D02*
X145051785Y-62083390D01*
X145051785Y-62083390D02*
X144956547Y-62035771D01*
X144956547Y-62035771D02*
X144718452Y-62035771D01*
X144718452Y-62035771D02*
X144623214Y-62083390D01*
X144623214Y-62083390D02*
X144575595Y-62131009D01*
X144575595Y-62131009D02*
X144527976Y-62226247D01*
X144527976Y-62226247D02*
X144527976Y-62464342D01*
X144527976Y-62464342D02*
X144575595Y-62559580D01*
X144575595Y-62559580D02*
X144623214Y-62607200D01*
X144623214Y-62607200D02*
X144718452Y-62654819D01*
X144718452Y-62654819D02*
X144956547Y-62654819D01*
X144956547Y-62654819D02*
X145051785Y-62607200D01*
X145051785Y-62607200D02*
X145099404Y-62559580D01*
X143956547Y-62083390D02*
X144051785Y-62035771D01*
X144051785Y-62035771D02*
X144099404Y-61988152D01*
X144099404Y-61988152D02*
X144147023Y-61892914D01*
X144147023Y-61892914D02*
X144147023Y-61845295D01*
X144147023Y-61845295D02*
X144099404Y-61750057D01*
X144099404Y-61750057D02*
X144051785Y-61702438D01*
X144051785Y-61702438D02*
X143956547Y-61654819D01*
X143956547Y-61654819D02*
X143766071Y-61654819D01*
X143766071Y-61654819D02*
X143670833Y-61702438D01*
X143670833Y-61702438D02*
X143623214Y-61750057D01*
X143623214Y-61750057D02*
X143575595Y-61845295D01*
X143575595Y-61845295D02*
X143575595Y-61892914D01*
X143575595Y-61892914D02*
X143623214Y-61988152D01*
X143623214Y-61988152D02*
X143670833Y-62035771D01*
X143670833Y-62035771D02*
X143766071Y-62083390D01*
X143766071Y-62083390D02*
X143956547Y-62083390D01*
X143956547Y-62083390D02*
X144051785Y-62131009D01*
X144051785Y-62131009D02*
X144099404Y-62178628D01*
X144099404Y-62178628D02*
X144147023Y-62273866D01*
X144147023Y-62273866D02*
X144147023Y-62464342D01*
X144147023Y-62464342D02*
X144099404Y-62559580D01*
X144099404Y-62559580D02*
X144051785Y-62607200D01*
X144051785Y-62607200D02*
X143956547Y-62654819D01*
X143956547Y-62654819D02*
X143766071Y-62654819D01*
X143766071Y-62654819D02*
X143670833Y-62607200D01*
X143670833Y-62607200D02*
X143623214Y-62559580D01*
X143623214Y-62559580D02*
X143575595Y-62464342D01*
X143575595Y-62464342D02*
X143575595Y-62273866D01*
X143575595Y-62273866D02*
X143623214Y-62178628D01*
X143623214Y-62178628D02*
X143670833Y-62131009D01*
X143670833Y-62131009D02*
X143766071Y-62083390D01*
X103463258Y-26779011D02*
X104329283Y-26279011D01*
X104329283Y-26279011D02*
X104210235Y-26072815D01*
X104210235Y-26072815D02*
X104097567Y-25972906D01*
X104097567Y-25972906D02*
X103967470Y-25938047D01*
X103967470Y-25938047D02*
X103861182Y-25944427D01*
X103861182Y-25944427D02*
X103672415Y-25998425D01*
X103672415Y-25998425D02*
X103548697Y-26069854D01*
X103548697Y-26069854D02*
X103407549Y-26206331D01*
X103407549Y-26206331D02*
X103348880Y-26295190D01*
X103348880Y-26295190D02*
X103314021Y-26425287D01*
X103314021Y-26425287D02*
X103344210Y-26572815D01*
X103344210Y-26572815D02*
X103463258Y-26779011D01*
X103876902Y-25495465D02*
X103543569Y-24918114D01*
X103543569Y-24918114D02*
X102891829Y-25789268D01*
X103400711Y-24670678D02*
X103067378Y-24093328D01*
X103067378Y-24093328D02*
X102415638Y-24964482D01*
X150964285Y-107454819D02*
X150964285Y-106454819D01*
X150964285Y-106454819D02*
X150726190Y-106454819D01*
X150726190Y-106454819D02*
X150583333Y-106502438D01*
X150583333Y-106502438D02*
X150488095Y-106597676D01*
X150488095Y-106597676D02*
X150440476Y-106692914D01*
X150440476Y-106692914D02*
X150392857Y-106883390D01*
X150392857Y-106883390D02*
X150392857Y-107026247D01*
X150392857Y-107026247D02*
X150440476Y-107216723D01*
X150440476Y-107216723D02*
X150488095Y-107311961D01*
X150488095Y-107311961D02*
X150583333Y-107407200D01*
X150583333Y-107407200D02*
X150726190Y-107454819D01*
X150726190Y-107454819D02*
X150964285Y-107454819D01*
X149535714Y-106788152D02*
X149535714Y-107454819D01*
X149773809Y-106407200D02*
X150011904Y-107121485D01*
X150011904Y-107121485D02*
X149392857Y-107121485D01*
X148583333Y-106788152D02*
X148583333Y-107454819D01*
X148821428Y-106407200D02*
X149059523Y-107121485D01*
X149059523Y-107121485D02*
X148440476Y-107121485D01*
X71461904Y-56052819D02*
X70890476Y-56052819D01*
X71176190Y-57052819D02*
X71176190Y-56052819D01*
X70557142Y-57052819D02*
X70557142Y-56052819D01*
X70557142Y-56052819D02*
X70176190Y-56052819D01*
X70176190Y-56052819D02*
X70080952Y-56100438D01*
X70080952Y-56100438D02*
X70033333Y-56148057D01*
X70033333Y-56148057D02*
X69985714Y-56243295D01*
X69985714Y-56243295D02*
X69985714Y-56386152D01*
X69985714Y-56386152D02*
X70033333Y-56481390D01*
X70033333Y-56481390D02*
X70080952Y-56529009D01*
X70080952Y-56529009D02*
X70176190Y-56576628D01*
X70176190Y-56576628D02*
X70557142Y-56576628D01*
X69652380Y-56052819D02*
X69033333Y-56052819D01*
X69033333Y-56052819D02*
X69366666Y-56433771D01*
X69366666Y-56433771D02*
X69223809Y-56433771D01*
X69223809Y-56433771D02*
X69128571Y-56481390D01*
X69128571Y-56481390D02*
X69080952Y-56529009D01*
X69080952Y-56529009D02*
X69033333Y-56624247D01*
X69033333Y-56624247D02*
X69033333Y-56862342D01*
X69033333Y-56862342D02*
X69080952Y-56957580D01*
X69080952Y-56957580D02*
X69128571Y-57005200D01*
X69128571Y-57005200D02*
X69223809Y-57052819D01*
X69223809Y-57052819D02*
X69509523Y-57052819D01*
X69509523Y-57052819D02*
X69604761Y-57005200D01*
X69604761Y-57005200D02*
X69652380Y-56957580D01*
X160964285Y-112654819D02*
X160964285Y-111654819D01*
X160964285Y-111654819D02*
X160726190Y-111654819D01*
X160726190Y-111654819D02*
X160583333Y-111702438D01*
X160583333Y-111702438D02*
X160488095Y-111797676D01*
X160488095Y-111797676D02*
X160440476Y-111892914D01*
X160440476Y-111892914D02*
X160392857Y-112083390D01*
X160392857Y-112083390D02*
X160392857Y-112226247D01*
X160392857Y-112226247D02*
X160440476Y-112416723D01*
X160440476Y-112416723D02*
X160488095Y-112511961D01*
X160488095Y-112511961D02*
X160583333Y-112607200D01*
X160583333Y-112607200D02*
X160726190Y-112654819D01*
X160726190Y-112654819D02*
X160964285Y-112654819D01*
X159535714Y-111988152D02*
X159535714Y-112654819D01*
X159773809Y-111607200D02*
X160011904Y-112321485D01*
X160011904Y-112321485D02*
X159392857Y-112321485D01*
X158583333Y-111654819D02*
X158773809Y-111654819D01*
X158773809Y-111654819D02*
X158869047Y-111702438D01*
X158869047Y-111702438D02*
X158916666Y-111750057D01*
X158916666Y-111750057D02*
X159011904Y-111892914D01*
X159011904Y-111892914D02*
X159059523Y-112083390D01*
X159059523Y-112083390D02*
X159059523Y-112464342D01*
X159059523Y-112464342D02*
X159011904Y-112559580D01*
X159011904Y-112559580D02*
X158964285Y-112607200D01*
X158964285Y-112607200D02*
X158869047Y-112654819D01*
X158869047Y-112654819D02*
X158678571Y-112654819D01*
X158678571Y-112654819D02*
X158583333Y-112607200D01*
X158583333Y-112607200D02*
X158535714Y-112559580D01*
X158535714Y-112559580D02*
X158488095Y-112464342D01*
X158488095Y-112464342D02*
X158488095Y-112226247D01*
X158488095Y-112226247D02*
X158535714Y-112131009D01*
X158535714Y-112131009D02*
X158583333Y-112083390D01*
X158583333Y-112083390D02*
X158678571Y-112035771D01*
X158678571Y-112035771D02*
X158869047Y-112035771D01*
X158869047Y-112035771D02*
X158964285Y-112083390D01*
X158964285Y-112083390D02*
X159011904Y-112131009D01*
X159011904Y-112131009D02*
X159059523Y-112226247D01*
X124142857Y-163754819D02*
X124476190Y-163278628D01*
X124714285Y-163754819D02*
X124714285Y-162754819D01*
X124714285Y-162754819D02*
X124333333Y-162754819D01*
X124333333Y-162754819D02*
X124238095Y-162802438D01*
X124238095Y-162802438D02*
X124190476Y-162850057D01*
X124190476Y-162850057D02*
X124142857Y-162945295D01*
X124142857Y-162945295D02*
X124142857Y-163088152D01*
X124142857Y-163088152D02*
X124190476Y-163183390D01*
X124190476Y-163183390D02*
X124238095Y-163231009D01*
X124238095Y-163231009D02*
X124333333Y-163278628D01*
X124333333Y-163278628D02*
X124714285Y-163278628D01*
X123190476Y-163754819D02*
X123761904Y-163754819D01*
X123476190Y-163754819D02*
X123476190Y-162754819D01*
X123476190Y-162754819D02*
X123571428Y-162897676D01*
X123571428Y-162897676D02*
X123666666Y-162992914D01*
X123666666Y-162992914D02*
X123761904Y-163040533D01*
X122238095Y-163754819D02*
X122809523Y-163754819D01*
X122523809Y-163754819D02*
X122523809Y-162754819D01*
X122523809Y-162754819D02*
X122619047Y-162897676D01*
X122619047Y-162897676D02*
X122714285Y-162992914D01*
X122714285Y-162992914D02*
X122809523Y-163040533D01*
X146926785Y-45204819D02*
X146926785Y-44204819D01*
X146926785Y-44204819D02*
X146688690Y-44204819D01*
X146688690Y-44204819D02*
X146545833Y-44252438D01*
X146545833Y-44252438D02*
X146450595Y-44347676D01*
X146450595Y-44347676D02*
X146402976Y-44442914D01*
X146402976Y-44442914D02*
X146355357Y-44633390D01*
X146355357Y-44633390D02*
X146355357Y-44776247D01*
X146355357Y-44776247D02*
X146402976Y-44966723D01*
X146402976Y-44966723D02*
X146450595Y-45061961D01*
X146450595Y-45061961D02*
X146545833Y-45157200D01*
X146545833Y-45157200D02*
X146688690Y-45204819D01*
X146688690Y-45204819D02*
X146926785Y-45204819D01*
X146022023Y-44204819D02*
X145355357Y-44204819D01*
X145355357Y-44204819D02*
X145783928Y-45204819D01*
X144450595Y-45204819D02*
X145022023Y-45204819D01*
X144736309Y-45204819D02*
X144736309Y-44204819D01*
X144736309Y-44204819D02*
X144831547Y-44347676D01*
X144831547Y-44347676D02*
X144926785Y-44442914D01*
X144926785Y-44442914D02*
X145022023Y-44490533D01*
X148454819Y-138583333D02*
X147978628Y-138250000D01*
X148454819Y-138011905D02*
X147454819Y-138011905D01*
X147454819Y-138011905D02*
X147454819Y-138392857D01*
X147454819Y-138392857D02*
X147502438Y-138488095D01*
X147502438Y-138488095D02*
X147550057Y-138535714D01*
X147550057Y-138535714D02*
X147645295Y-138583333D01*
X147645295Y-138583333D02*
X147788152Y-138583333D01*
X147788152Y-138583333D02*
X147883390Y-138535714D01*
X147883390Y-138535714D02*
X147931009Y-138488095D01*
X147931009Y-138488095D02*
X147978628Y-138392857D01*
X147978628Y-138392857D02*
X147978628Y-138011905D01*
X147883390Y-139154762D02*
X147835771Y-139059524D01*
X147835771Y-139059524D02*
X147788152Y-139011905D01*
X147788152Y-139011905D02*
X147692914Y-138964286D01*
X147692914Y-138964286D02*
X147645295Y-138964286D01*
X147645295Y-138964286D02*
X147550057Y-139011905D01*
X147550057Y-139011905D02*
X147502438Y-139059524D01*
X147502438Y-139059524D02*
X147454819Y-139154762D01*
X147454819Y-139154762D02*
X147454819Y-139345238D01*
X147454819Y-139345238D02*
X147502438Y-139440476D01*
X147502438Y-139440476D02*
X147550057Y-139488095D01*
X147550057Y-139488095D02*
X147645295Y-139535714D01*
X147645295Y-139535714D02*
X147692914Y-139535714D01*
X147692914Y-139535714D02*
X147788152Y-139488095D01*
X147788152Y-139488095D02*
X147835771Y-139440476D01*
X147835771Y-139440476D02*
X147883390Y-139345238D01*
X147883390Y-139345238D02*
X147883390Y-139154762D01*
X147883390Y-139154762D02*
X147931009Y-139059524D01*
X147931009Y-139059524D02*
X147978628Y-139011905D01*
X147978628Y-139011905D02*
X148073866Y-138964286D01*
X148073866Y-138964286D02*
X148264342Y-138964286D01*
X148264342Y-138964286D02*
X148359580Y-139011905D01*
X148359580Y-139011905D02*
X148407200Y-139059524D01*
X148407200Y-139059524D02*
X148454819Y-139154762D01*
X148454819Y-139154762D02*
X148454819Y-139345238D01*
X148454819Y-139345238D02*
X148407200Y-139440476D01*
X148407200Y-139440476D02*
X148359580Y-139488095D01*
X148359580Y-139488095D02*
X148264342Y-139535714D01*
X148264342Y-139535714D02*
X148073866Y-139535714D01*
X148073866Y-139535714D02*
X147978628Y-139488095D01*
X147978628Y-139488095D02*
X147931009Y-139440476D01*
X147931009Y-139440476D02*
X147883390Y-139345238D01*
X146151785Y-66954819D02*
X146151785Y-65954819D01*
X146151785Y-65954819D02*
X145913690Y-65954819D01*
X145913690Y-65954819D02*
X145770833Y-66002438D01*
X145770833Y-66002438D02*
X145675595Y-66097676D01*
X145675595Y-66097676D02*
X145627976Y-66192914D01*
X145627976Y-66192914D02*
X145580357Y-66383390D01*
X145580357Y-66383390D02*
X145580357Y-66526247D01*
X145580357Y-66526247D02*
X145627976Y-66716723D01*
X145627976Y-66716723D02*
X145675595Y-66811961D01*
X145675595Y-66811961D02*
X145770833Y-66907200D01*
X145770833Y-66907200D02*
X145913690Y-66954819D01*
X145913690Y-66954819D02*
X146151785Y-66954819D01*
X144675595Y-65954819D02*
X145151785Y-65954819D01*
X145151785Y-65954819D02*
X145199404Y-66431009D01*
X145199404Y-66431009D02*
X145151785Y-66383390D01*
X145151785Y-66383390D02*
X145056547Y-66335771D01*
X145056547Y-66335771D02*
X144818452Y-66335771D01*
X144818452Y-66335771D02*
X144723214Y-66383390D01*
X144723214Y-66383390D02*
X144675595Y-66431009D01*
X144675595Y-66431009D02*
X144627976Y-66526247D01*
X144627976Y-66526247D02*
X144627976Y-66764342D01*
X144627976Y-66764342D02*
X144675595Y-66859580D01*
X144675595Y-66859580D02*
X144723214Y-66907200D01*
X144723214Y-66907200D02*
X144818452Y-66954819D01*
X144818452Y-66954819D02*
X145056547Y-66954819D01*
X145056547Y-66954819D02*
X145151785Y-66907200D01*
X145151785Y-66907200D02*
X145199404Y-66859580D01*
X144151785Y-66954819D02*
X143961309Y-66954819D01*
X143961309Y-66954819D02*
X143866071Y-66907200D01*
X143866071Y-66907200D02*
X143818452Y-66859580D01*
X143818452Y-66859580D02*
X143723214Y-66716723D01*
X143723214Y-66716723D02*
X143675595Y-66526247D01*
X143675595Y-66526247D02*
X143675595Y-66145295D01*
X143675595Y-66145295D02*
X143723214Y-66050057D01*
X143723214Y-66050057D02*
X143770833Y-66002438D01*
X143770833Y-66002438D02*
X143866071Y-65954819D01*
X143866071Y-65954819D02*
X144056547Y-65954819D01*
X144056547Y-65954819D02*
X144151785Y-66002438D01*
X144151785Y-66002438D02*
X144199404Y-66050057D01*
X144199404Y-66050057D02*
X144247023Y-66145295D01*
X144247023Y-66145295D02*
X144247023Y-66383390D01*
X144247023Y-66383390D02*
X144199404Y-66478628D01*
X144199404Y-66478628D02*
X144151785Y-66526247D01*
X144151785Y-66526247D02*
X144056547Y-66573866D01*
X144056547Y-66573866D02*
X143866071Y-66573866D01*
X143866071Y-66573866D02*
X143770833Y-66526247D01*
X143770833Y-66526247D02*
X143723214Y-66478628D01*
X143723214Y-66478628D02*
X143675595Y-66383390D01*
X146451785Y-70904819D02*
X146451785Y-69904819D01*
X146451785Y-69904819D02*
X146213690Y-69904819D01*
X146213690Y-69904819D02*
X146070833Y-69952438D01*
X146070833Y-69952438D02*
X145975595Y-70047676D01*
X145975595Y-70047676D02*
X145927976Y-70142914D01*
X145927976Y-70142914D02*
X145880357Y-70333390D01*
X145880357Y-70333390D02*
X145880357Y-70476247D01*
X145880357Y-70476247D02*
X145927976Y-70666723D01*
X145927976Y-70666723D02*
X145975595Y-70761961D01*
X145975595Y-70761961D02*
X146070833Y-70857200D01*
X146070833Y-70857200D02*
X146213690Y-70904819D01*
X146213690Y-70904819D02*
X146451785Y-70904819D01*
X145023214Y-69904819D02*
X145213690Y-69904819D01*
X145213690Y-69904819D02*
X145308928Y-69952438D01*
X145308928Y-69952438D02*
X145356547Y-70000057D01*
X145356547Y-70000057D02*
X145451785Y-70142914D01*
X145451785Y-70142914D02*
X145499404Y-70333390D01*
X145499404Y-70333390D02*
X145499404Y-70714342D01*
X145499404Y-70714342D02*
X145451785Y-70809580D01*
X145451785Y-70809580D02*
X145404166Y-70857200D01*
X145404166Y-70857200D02*
X145308928Y-70904819D01*
X145308928Y-70904819D02*
X145118452Y-70904819D01*
X145118452Y-70904819D02*
X145023214Y-70857200D01*
X145023214Y-70857200D02*
X144975595Y-70809580D01*
X144975595Y-70809580D02*
X144927976Y-70714342D01*
X144927976Y-70714342D02*
X144927976Y-70476247D01*
X144927976Y-70476247D02*
X144975595Y-70381009D01*
X144975595Y-70381009D02*
X145023214Y-70333390D01*
X145023214Y-70333390D02*
X145118452Y-70285771D01*
X145118452Y-70285771D02*
X145308928Y-70285771D01*
X145308928Y-70285771D02*
X145404166Y-70333390D01*
X145404166Y-70333390D02*
X145451785Y-70381009D01*
X145451785Y-70381009D02*
X145499404Y-70476247D01*
X144308928Y-69904819D02*
X144213690Y-69904819D01*
X144213690Y-69904819D02*
X144118452Y-69952438D01*
X144118452Y-69952438D02*
X144070833Y-70000057D01*
X144070833Y-70000057D02*
X144023214Y-70095295D01*
X144023214Y-70095295D02*
X143975595Y-70285771D01*
X143975595Y-70285771D02*
X143975595Y-70523866D01*
X143975595Y-70523866D02*
X144023214Y-70714342D01*
X144023214Y-70714342D02*
X144070833Y-70809580D01*
X144070833Y-70809580D02*
X144118452Y-70857200D01*
X144118452Y-70857200D02*
X144213690Y-70904819D01*
X144213690Y-70904819D02*
X144308928Y-70904819D01*
X144308928Y-70904819D02*
X144404166Y-70857200D01*
X144404166Y-70857200D02*
X144451785Y-70809580D01*
X144451785Y-70809580D02*
X144499404Y-70714342D01*
X144499404Y-70714342D02*
X144547023Y-70523866D01*
X144547023Y-70523866D02*
X144547023Y-70285771D01*
X144547023Y-70285771D02*
X144499404Y-70095295D01*
X144499404Y-70095295D02*
X144451785Y-70000057D01*
X144451785Y-70000057D02*
X144404166Y-69952438D01*
X144404166Y-69952438D02*
X144308928Y-69904819D01*
X116001026Y-18925807D02*
X115135001Y-18425807D01*
X115135001Y-18425807D02*
X115015953Y-18632003D01*
X115015953Y-18632003D02*
X114985764Y-18779531D01*
X114985764Y-18779531D02*
X115020624Y-18909628D01*
X115020624Y-18909628D02*
X115079293Y-18998487D01*
X115079293Y-18998487D02*
X115220440Y-19134964D01*
X115220440Y-19134964D02*
X115344158Y-19206393D01*
X115344158Y-19206393D02*
X115532925Y-19260391D01*
X115532925Y-19260391D02*
X115639213Y-19266771D01*
X115639213Y-19266771D02*
X115769311Y-19231912D01*
X115769311Y-19231912D02*
X115881979Y-19132003D01*
X115881979Y-19132003D02*
X116001026Y-18925807D01*
X114682620Y-19209354D02*
X114349287Y-19786704D01*
X114349287Y-19786704D02*
X115429598Y-19915550D01*
X115001026Y-20657858D02*
X114905788Y-20822815D01*
X114905788Y-20822815D02*
X114816930Y-20881484D01*
X114816930Y-20881484D02*
X114751881Y-20898914D01*
X114751881Y-20898914D02*
X114580544Y-20909964D01*
X114580544Y-20909964D02*
X114391777Y-20855965D01*
X114391777Y-20855965D02*
X114061863Y-20665489D01*
X114061863Y-20665489D02*
X114003194Y-20576630D01*
X114003194Y-20576630D02*
X113985764Y-20511582D01*
X113985764Y-20511582D02*
X113992144Y-20405293D01*
X113992144Y-20405293D02*
X114087382Y-20240336D01*
X114087382Y-20240336D02*
X114176240Y-20181667D01*
X114176240Y-20181667D02*
X114241289Y-20164237D01*
X114241289Y-20164237D02*
X114347577Y-20170617D01*
X114347577Y-20170617D02*
X114553774Y-20289665D01*
X114553774Y-20289665D02*
X114612443Y-20378523D01*
X114612443Y-20378523D02*
X114629872Y-20443572D01*
X114629872Y-20443572D02*
X114623493Y-20549860D01*
X114623493Y-20549860D02*
X114528255Y-20714817D01*
X114528255Y-20714817D02*
X114439396Y-20773486D01*
X114439396Y-20773486D02*
X114374347Y-20790916D01*
X114374347Y-20790916D02*
X114268059Y-20784536D01*
X146864285Y-80654819D02*
X146864285Y-79654819D01*
X146864285Y-79654819D02*
X146626190Y-79654819D01*
X146626190Y-79654819D02*
X146483333Y-79702438D01*
X146483333Y-79702438D02*
X146388095Y-79797676D01*
X146388095Y-79797676D02*
X146340476Y-79892914D01*
X146340476Y-79892914D02*
X146292857Y-80083390D01*
X146292857Y-80083390D02*
X146292857Y-80226247D01*
X146292857Y-80226247D02*
X146340476Y-80416723D01*
X146340476Y-80416723D02*
X146388095Y-80511961D01*
X146388095Y-80511961D02*
X146483333Y-80607200D01*
X146483333Y-80607200D02*
X146626190Y-80654819D01*
X146626190Y-80654819D02*
X146864285Y-80654819D01*
X145435714Y-79654819D02*
X145626190Y-79654819D01*
X145626190Y-79654819D02*
X145721428Y-79702438D01*
X145721428Y-79702438D02*
X145769047Y-79750057D01*
X145769047Y-79750057D02*
X145864285Y-79892914D01*
X145864285Y-79892914D02*
X145911904Y-80083390D01*
X145911904Y-80083390D02*
X145911904Y-80464342D01*
X145911904Y-80464342D02*
X145864285Y-80559580D01*
X145864285Y-80559580D02*
X145816666Y-80607200D01*
X145816666Y-80607200D02*
X145721428Y-80654819D01*
X145721428Y-80654819D02*
X145530952Y-80654819D01*
X145530952Y-80654819D02*
X145435714Y-80607200D01*
X145435714Y-80607200D02*
X145388095Y-80559580D01*
X145388095Y-80559580D02*
X145340476Y-80464342D01*
X145340476Y-80464342D02*
X145340476Y-80226247D01*
X145340476Y-80226247D02*
X145388095Y-80131009D01*
X145388095Y-80131009D02*
X145435714Y-80083390D01*
X145435714Y-80083390D02*
X145530952Y-80035771D01*
X145530952Y-80035771D02*
X145721428Y-80035771D01*
X145721428Y-80035771D02*
X145816666Y-80083390D01*
X145816666Y-80083390D02*
X145864285Y-80131009D01*
X145864285Y-80131009D02*
X145911904Y-80226247D01*
X144959523Y-79750057D02*
X144911904Y-79702438D01*
X144911904Y-79702438D02*
X144816666Y-79654819D01*
X144816666Y-79654819D02*
X144578571Y-79654819D01*
X144578571Y-79654819D02*
X144483333Y-79702438D01*
X144483333Y-79702438D02*
X144435714Y-79750057D01*
X144435714Y-79750057D02*
X144388095Y-79845295D01*
X144388095Y-79845295D02*
X144388095Y-79940533D01*
X144388095Y-79940533D02*
X144435714Y-80083390D01*
X144435714Y-80083390D02*
X145007142Y-80654819D01*
X145007142Y-80654819D02*
X144388095Y-80654819D01*
X71661904Y-46652819D02*
X71090476Y-46652819D01*
X71376190Y-47652819D02*
X71376190Y-46652819D01*
X70757142Y-47652819D02*
X70757142Y-46652819D01*
X70757142Y-46652819D02*
X70376190Y-46652819D01*
X70376190Y-46652819D02*
X70280952Y-46700438D01*
X70280952Y-46700438D02*
X70233333Y-46748057D01*
X70233333Y-46748057D02*
X70185714Y-46843295D01*
X70185714Y-46843295D02*
X70185714Y-46986152D01*
X70185714Y-46986152D02*
X70233333Y-47081390D01*
X70233333Y-47081390D02*
X70280952Y-47129009D01*
X70280952Y-47129009D02*
X70376190Y-47176628D01*
X70376190Y-47176628D02*
X70757142Y-47176628D01*
X69280952Y-46652819D02*
X69757142Y-46652819D01*
X69757142Y-46652819D02*
X69804761Y-47129009D01*
X69804761Y-47129009D02*
X69757142Y-47081390D01*
X69757142Y-47081390D02*
X69661904Y-47033771D01*
X69661904Y-47033771D02*
X69423809Y-47033771D01*
X69423809Y-47033771D02*
X69328571Y-47081390D01*
X69328571Y-47081390D02*
X69280952Y-47129009D01*
X69280952Y-47129009D02*
X69233333Y-47224247D01*
X69233333Y-47224247D02*
X69233333Y-47462342D01*
X69233333Y-47462342D02*
X69280952Y-47557580D01*
X69280952Y-47557580D02*
X69328571Y-47605200D01*
X69328571Y-47605200D02*
X69423809Y-47652819D01*
X69423809Y-47652819D02*
X69661904Y-47652819D01*
X69661904Y-47652819D02*
X69757142Y-47605200D01*
X69757142Y-47605200D02*
X69804761Y-47557580D01*
X172426785Y-151134819D02*
X172426785Y-150134819D01*
X172426785Y-150134819D02*
X172188690Y-150134819D01*
X172188690Y-150134819D02*
X172045833Y-150182438D01*
X172045833Y-150182438D02*
X171950595Y-150277676D01*
X171950595Y-150277676D02*
X171902976Y-150372914D01*
X171902976Y-150372914D02*
X171855357Y-150563390D01*
X171855357Y-150563390D02*
X171855357Y-150706247D01*
X171855357Y-150706247D02*
X171902976Y-150896723D01*
X171902976Y-150896723D02*
X171950595Y-150991961D01*
X171950595Y-150991961D02*
X172045833Y-151087200D01*
X172045833Y-151087200D02*
X172188690Y-151134819D01*
X172188690Y-151134819D02*
X172426785Y-151134819D01*
X171522023Y-150134819D02*
X170902976Y-150134819D01*
X170902976Y-150134819D02*
X171236309Y-150515771D01*
X171236309Y-150515771D02*
X171093452Y-150515771D01*
X171093452Y-150515771D02*
X170998214Y-150563390D01*
X170998214Y-150563390D02*
X170950595Y-150611009D01*
X170950595Y-150611009D02*
X170902976Y-150706247D01*
X170902976Y-150706247D02*
X170902976Y-150944342D01*
X170902976Y-150944342D02*
X170950595Y-151039580D01*
X170950595Y-151039580D02*
X170998214Y-151087200D01*
X170998214Y-151087200D02*
X171093452Y-151134819D01*
X171093452Y-151134819D02*
X171379166Y-151134819D01*
X171379166Y-151134819D02*
X171474404Y-151087200D01*
X171474404Y-151087200D02*
X171522023Y-151039580D01*
X169950595Y-151134819D02*
X170522023Y-151134819D01*
X170236309Y-151134819D02*
X170236309Y-150134819D01*
X170236309Y-150134819D02*
X170331547Y-150277676D01*
X170331547Y-150277676D02*
X170426785Y-150372914D01*
X170426785Y-150372914D02*
X170522023Y-150420533D01*
X145066819Y-134783095D02*
X145876342Y-134783095D01*
X145876342Y-134783095D02*
X145971580Y-134830714D01*
X145971580Y-134830714D02*
X146019200Y-134878333D01*
X146019200Y-134878333D02*
X146066819Y-134973571D01*
X146066819Y-134973571D02*
X146066819Y-135164047D01*
X146066819Y-135164047D02*
X146019200Y-135259285D01*
X146019200Y-135259285D02*
X145971580Y-135306904D01*
X145971580Y-135306904D02*
X145876342Y-135354523D01*
X145876342Y-135354523D02*
X145066819Y-135354523D01*
X145066819Y-135735476D02*
X145066819Y-136354523D01*
X145066819Y-136354523D02*
X145447771Y-136021190D01*
X145447771Y-136021190D02*
X145447771Y-136164047D01*
X145447771Y-136164047D02*
X145495390Y-136259285D01*
X145495390Y-136259285D02*
X145543009Y-136306904D01*
X145543009Y-136306904D02*
X145638247Y-136354523D01*
X145638247Y-136354523D02*
X145876342Y-136354523D01*
X145876342Y-136354523D02*
X145971580Y-136306904D01*
X145971580Y-136306904D02*
X146019200Y-136259285D01*
X146019200Y-136259285D02*
X146066819Y-136164047D01*
X146066819Y-136164047D02*
X146066819Y-135878333D01*
X146066819Y-135878333D02*
X146019200Y-135783095D01*
X146019200Y-135783095D02*
X145971580Y-135735476D01*
X107483332Y-121507200D02*
X107340475Y-121554819D01*
X107340475Y-121554819D02*
X107102380Y-121554819D01*
X107102380Y-121554819D02*
X107007142Y-121507200D01*
X107007142Y-121507200D02*
X106959523Y-121459580D01*
X106959523Y-121459580D02*
X106911904Y-121364342D01*
X106911904Y-121364342D02*
X106911904Y-121269104D01*
X106911904Y-121269104D02*
X106959523Y-121173866D01*
X106959523Y-121173866D02*
X107007142Y-121126247D01*
X107007142Y-121126247D02*
X107102380Y-121078628D01*
X107102380Y-121078628D02*
X107292856Y-121031009D01*
X107292856Y-121031009D02*
X107388094Y-120983390D01*
X107388094Y-120983390D02*
X107435713Y-120935771D01*
X107435713Y-120935771D02*
X107483332Y-120840533D01*
X107483332Y-120840533D02*
X107483332Y-120745295D01*
X107483332Y-120745295D02*
X107435713Y-120650057D01*
X107435713Y-120650057D02*
X107388094Y-120602438D01*
X107388094Y-120602438D02*
X107292856Y-120554819D01*
X107292856Y-120554819D02*
X107054761Y-120554819D01*
X107054761Y-120554819D02*
X106911904Y-120602438D01*
X106578570Y-120554819D02*
X106340475Y-121554819D01*
X106340475Y-121554819D02*
X106149999Y-120840533D01*
X106149999Y-120840533D02*
X105959523Y-121554819D01*
X105959523Y-121554819D02*
X105721428Y-120554819D01*
X104911904Y-120888152D02*
X104911904Y-121554819D01*
X105149999Y-120507200D02*
X105388094Y-121221485D01*
X105388094Y-121221485D02*
X104769047Y-121221485D01*
X124066666Y-161354819D02*
X124399999Y-160878628D01*
X124638094Y-161354819D02*
X124638094Y-160354819D01*
X124638094Y-160354819D02*
X124257142Y-160354819D01*
X124257142Y-160354819D02*
X124161904Y-160402438D01*
X124161904Y-160402438D02*
X124114285Y-160450057D01*
X124114285Y-160450057D02*
X124066666Y-160545295D01*
X124066666Y-160545295D02*
X124066666Y-160688152D01*
X124066666Y-160688152D02*
X124114285Y-160783390D01*
X124114285Y-160783390D02*
X124161904Y-160831009D01*
X124161904Y-160831009D02*
X124257142Y-160878628D01*
X124257142Y-160878628D02*
X124638094Y-160878628D01*
X123590475Y-161354819D02*
X123399999Y-161354819D01*
X123399999Y-161354819D02*
X123304761Y-161307200D01*
X123304761Y-161307200D02*
X123257142Y-161259580D01*
X123257142Y-161259580D02*
X123161904Y-161116723D01*
X123161904Y-161116723D02*
X123114285Y-160926247D01*
X123114285Y-160926247D02*
X123114285Y-160545295D01*
X123114285Y-160545295D02*
X123161904Y-160450057D01*
X123161904Y-160450057D02*
X123209523Y-160402438D01*
X123209523Y-160402438D02*
X123304761Y-160354819D01*
X123304761Y-160354819D02*
X123495237Y-160354819D01*
X123495237Y-160354819D02*
X123590475Y-160402438D01*
X123590475Y-160402438D02*
X123638094Y-160450057D01*
X123638094Y-160450057D02*
X123685713Y-160545295D01*
X123685713Y-160545295D02*
X123685713Y-160783390D01*
X123685713Y-160783390D02*
X123638094Y-160878628D01*
X123638094Y-160878628D02*
X123590475Y-160926247D01*
X123590475Y-160926247D02*
X123495237Y-160973866D01*
X123495237Y-160973866D02*
X123304761Y-160973866D01*
X123304761Y-160973866D02*
X123209523Y-160926247D01*
X123209523Y-160926247D02*
X123161904Y-160878628D01*
X123161904Y-160878628D02*
X123114285Y-160783390D01*
X134251027Y-24144718D02*
X133385002Y-23644718D01*
X133385002Y-23644718D02*
X133265954Y-23850914D01*
X133265954Y-23850914D02*
X133235765Y-23998442D01*
X133235765Y-23998442D02*
X133270625Y-24128539D01*
X133270625Y-24128539D02*
X133329294Y-24217398D01*
X133329294Y-24217398D02*
X133470441Y-24353875D01*
X133470441Y-24353875D02*
X133594159Y-24425304D01*
X133594159Y-24425304D02*
X133782926Y-24479302D01*
X133782926Y-24479302D02*
X133889214Y-24485682D01*
X133889214Y-24485682D02*
X134019312Y-24450823D01*
X134019312Y-24450823D02*
X134131980Y-24350914D01*
X134131980Y-24350914D02*
X134251027Y-24144718D01*
X132670716Y-24881897D02*
X132765954Y-24716940D01*
X132765954Y-24716940D02*
X132854813Y-24658271D01*
X132854813Y-24658271D02*
X132919861Y-24640841D01*
X132919861Y-24640841D02*
X133091198Y-24629791D01*
X133091198Y-24629791D02*
X133279965Y-24683790D01*
X133279965Y-24683790D02*
X133609880Y-24874266D01*
X133609880Y-24874266D02*
X133668549Y-24963124D01*
X133668549Y-24963124D02*
X133685978Y-25028173D01*
X133685978Y-25028173D02*
X133679599Y-25134461D01*
X133679599Y-25134461D02*
X133584361Y-25299418D01*
X133584361Y-25299418D02*
X133495502Y-25358087D01*
X133495502Y-25358087D02*
X133430453Y-25375517D01*
X133430453Y-25375517D02*
X133324165Y-25369137D01*
X133324165Y-25369137D02*
X133117969Y-25250090D01*
X133117969Y-25250090D02*
X133059300Y-25161231D01*
X133059300Y-25161231D02*
X133041870Y-25096183D01*
X133041870Y-25096183D02*
X133048250Y-24989894D01*
X133048250Y-24989894D02*
X133143488Y-24824937D01*
X133143488Y-24824937D02*
X133232346Y-24766268D01*
X133232346Y-24766268D02*
X133297395Y-24748838D01*
X133297395Y-24748838D02*
X133403683Y-24755218D01*
X132194526Y-25706683D02*
X132289764Y-25541726D01*
X132289764Y-25541726D02*
X132378622Y-25483057D01*
X132378622Y-25483057D02*
X132443671Y-25465627D01*
X132443671Y-25465627D02*
X132615008Y-25454577D01*
X132615008Y-25454577D02*
X132803775Y-25508576D01*
X132803775Y-25508576D02*
X133133689Y-25699052D01*
X133133689Y-25699052D02*
X133192358Y-25787910D01*
X133192358Y-25787910D02*
X133209788Y-25852959D01*
X133209788Y-25852959D02*
X133203408Y-25959247D01*
X133203408Y-25959247D02*
X133108170Y-26124204D01*
X133108170Y-26124204D02*
X133019312Y-26182873D01*
X133019312Y-26182873D02*
X132954263Y-26200303D01*
X132954263Y-26200303D02*
X132847975Y-26193924D01*
X132847975Y-26193924D02*
X132641778Y-26074876D01*
X132641778Y-26074876D02*
X132583109Y-25986018D01*
X132583109Y-25986018D02*
X132565679Y-25920969D01*
X132565679Y-25920969D02*
X132572059Y-25814681D01*
X132572059Y-25814681D02*
X132667297Y-25649723D01*
X132667297Y-25649723D02*
X132756156Y-25591054D01*
X132756156Y-25591054D02*
X132821204Y-25573624D01*
X132821204Y-25573624D02*
X132927493Y-25580004D01*
X137126027Y-26361224D02*
X136260002Y-25861224D01*
X136260002Y-25861224D02*
X136140954Y-26067420D01*
X136140954Y-26067420D02*
X136110765Y-26214948D01*
X136110765Y-26214948D02*
X136145625Y-26345045D01*
X136145625Y-26345045D02*
X136204294Y-26433904D01*
X136204294Y-26433904D02*
X136345441Y-26570381D01*
X136345441Y-26570381D02*
X136469159Y-26641810D01*
X136469159Y-26641810D02*
X136657926Y-26695808D01*
X136657926Y-26695808D02*
X136764214Y-26702188D01*
X136764214Y-26702188D02*
X136894312Y-26667329D01*
X136894312Y-26667329D02*
X137006980Y-26567420D01*
X137006980Y-26567420D02*
X137126027Y-26361224D01*
X135545716Y-27098403D02*
X135640954Y-26933446D01*
X135640954Y-26933446D02*
X135729813Y-26874777D01*
X135729813Y-26874777D02*
X135794861Y-26857347D01*
X135794861Y-26857347D02*
X135966198Y-26846297D01*
X135966198Y-26846297D02*
X136154965Y-26900296D01*
X136154965Y-26900296D02*
X136484880Y-27090772D01*
X136484880Y-27090772D02*
X136543549Y-27179630D01*
X136543549Y-27179630D02*
X136560978Y-27244679D01*
X136560978Y-27244679D02*
X136554599Y-27350967D01*
X136554599Y-27350967D02*
X136459361Y-27515924D01*
X136459361Y-27515924D02*
X136370502Y-27574593D01*
X136370502Y-27574593D02*
X136305453Y-27592023D01*
X136305453Y-27592023D02*
X136199165Y-27585643D01*
X136199165Y-27585643D02*
X135992969Y-27466596D01*
X135992969Y-27466596D02*
X135934300Y-27377737D01*
X135934300Y-27377737D02*
X135916870Y-27312689D01*
X135916870Y-27312689D02*
X135923250Y-27206400D01*
X135923250Y-27206400D02*
X136018488Y-27041443D01*
X136018488Y-27041443D02*
X136107346Y-26982774D01*
X136107346Y-26982774D02*
X136172395Y-26965344D01*
X136172395Y-26965344D02*
X136278683Y-26971724D01*
X135331430Y-27469557D02*
X134998097Y-28046907D01*
X134998097Y-28046907D02*
X136078408Y-28175753D01*
X158704819Y-114123214D02*
X157704819Y-114123214D01*
X157704819Y-114123214D02*
X157704819Y-114361309D01*
X157704819Y-114361309D02*
X157752438Y-114504166D01*
X157752438Y-114504166D02*
X157847676Y-114599404D01*
X157847676Y-114599404D02*
X157942914Y-114647023D01*
X157942914Y-114647023D02*
X158133390Y-114694642D01*
X158133390Y-114694642D02*
X158276247Y-114694642D01*
X158276247Y-114694642D02*
X158466723Y-114647023D01*
X158466723Y-114647023D02*
X158561961Y-114599404D01*
X158561961Y-114599404D02*
X158657200Y-114504166D01*
X158657200Y-114504166D02*
X158704819Y-114361309D01*
X158704819Y-114361309D02*
X158704819Y-114123214D01*
X158038152Y-115551785D02*
X158704819Y-115551785D01*
X157657200Y-115313690D02*
X158371485Y-115075595D01*
X158371485Y-115075595D02*
X158371485Y-115694642D01*
X157704819Y-115980357D02*
X157704819Y-116647023D01*
X157704819Y-116647023D02*
X158704819Y-116218452D01*
X166751785Y-114274819D02*
X166751785Y-113274819D01*
X166751785Y-113274819D02*
X166513690Y-113274819D01*
X166513690Y-113274819D02*
X166370833Y-113322438D01*
X166370833Y-113322438D02*
X166275595Y-113417676D01*
X166275595Y-113417676D02*
X166227976Y-113512914D01*
X166227976Y-113512914D02*
X166180357Y-113703390D01*
X166180357Y-113703390D02*
X166180357Y-113846247D01*
X166180357Y-113846247D02*
X166227976Y-114036723D01*
X166227976Y-114036723D02*
X166275595Y-114131961D01*
X166275595Y-114131961D02*
X166370833Y-114227200D01*
X166370833Y-114227200D02*
X166513690Y-114274819D01*
X166513690Y-114274819D02*
X166751785Y-114274819D01*
X165323214Y-113608152D02*
X165323214Y-114274819D01*
X165561309Y-113227200D02*
X165799404Y-113941485D01*
X165799404Y-113941485D02*
X165180357Y-113941485D01*
X164656547Y-113703390D02*
X164751785Y-113655771D01*
X164751785Y-113655771D02*
X164799404Y-113608152D01*
X164799404Y-113608152D02*
X164847023Y-113512914D01*
X164847023Y-113512914D02*
X164847023Y-113465295D01*
X164847023Y-113465295D02*
X164799404Y-113370057D01*
X164799404Y-113370057D02*
X164751785Y-113322438D01*
X164751785Y-113322438D02*
X164656547Y-113274819D01*
X164656547Y-113274819D02*
X164466071Y-113274819D01*
X164466071Y-113274819D02*
X164370833Y-113322438D01*
X164370833Y-113322438D02*
X164323214Y-113370057D01*
X164323214Y-113370057D02*
X164275595Y-113465295D01*
X164275595Y-113465295D02*
X164275595Y-113512914D01*
X164275595Y-113512914D02*
X164323214Y-113608152D01*
X164323214Y-113608152D02*
X164370833Y-113655771D01*
X164370833Y-113655771D02*
X164466071Y-113703390D01*
X164466071Y-113703390D02*
X164656547Y-113703390D01*
X164656547Y-113703390D02*
X164751785Y-113751009D01*
X164751785Y-113751009D02*
X164799404Y-113798628D01*
X164799404Y-113798628D02*
X164847023Y-113893866D01*
X164847023Y-113893866D02*
X164847023Y-114084342D01*
X164847023Y-114084342D02*
X164799404Y-114179580D01*
X164799404Y-114179580D02*
X164751785Y-114227200D01*
X164751785Y-114227200D02*
X164656547Y-114274819D01*
X164656547Y-114274819D02*
X164466071Y-114274819D01*
X164466071Y-114274819D02*
X164370833Y-114227200D01*
X164370833Y-114227200D02*
X164323214Y-114179580D01*
X164323214Y-114179580D02*
X164275595Y-114084342D01*
X164275595Y-114084342D02*
X164275595Y-113893866D01*
X164275595Y-113893866D02*
X164323214Y-113798628D01*
X164323214Y-113798628D02*
X164370833Y-113751009D01*
X164370833Y-113751009D02*
X164466071Y-113703390D01*
X144464285Y-36454819D02*
X144464285Y-35454819D01*
X144464285Y-35454819D02*
X144226190Y-35454819D01*
X144226190Y-35454819D02*
X144083333Y-35502438D01*
X144083333Y-35502438D02*
X143988095Y-35597676D01*
X143988095Y-35597676D02*
X143940476Y-35692914D01*
X143940476Y-35692914D02*
X143892857Y-35883390D01*
X143892857Y-35883390D02*
X143892857Y-36026247D01*
X143892857Y-36026247D02*
X143940476Y-36216723D01*
X143940476Y-36216723D02*
X143988095Y-36311961D01*
X143988095Y-36311961D02*
X144083333Y-36407200D01*
X144083333Y-36407200D02*
X144226190Y-36454819D01*
X144226190Y-36454819D02*
X144464285Y-36454819D01*
X143035714Y-35454819D02*
X143226190Y-35454819D01*
X143226190Y-35454819D02*
X143321428Y-35502438D01*
X143321428Y-35502438D02*
X143369047Y-35550057D01*
X143369047Y-35550057D02*
X143464285Y-35692914D01*
X143464285Y-35692914D02*
X143511904Y-35883390D01*
X143511904Y-35883390D02*
X143511904Y-36264342D01*
X143511904Y-36264342D02*
X143464285Y-36359580D01*
X143464285Y-36359580D02*
X143416666Y-36407200D01*
X143416666Y-36407200D02*
X143321428Y-36454819D01*
X143321428Y-36454819D02*
X143130952Y-36454819D01*
X143130952Y-36454819D02*
X143035714Y-36407200D01*
X143035714Y-36407200D02*
X142988095Y-36359580D01*
X142988095Y-36359580D02*
X142940476Y-36264342D01*
X142940476Y-36264342D02*
X142940476Y-36026247D01*
X142940476Y-36026247D02*
X142988095Y-35931009D01*
X142988095Y-35931009D02*
X143035714Y-35883390D01*
X143035714Y-35883390D02*
X143130952Y-35835771D01*
X143130952Y-35835771D02*
X143321428Y-35835771D01*
X143321428Y-35835771D02*
X143416666Y-35883390D01*
X143416666Y-35883390D02*
X143464285Y-35931009D01*
X143464285Y-35931009D02*
X143511904Y-36026247D01*
X142464285Y-36454819D02*
X142273809Y-36454819D01*
X142273809Y-36454819D02*
X142178571Y-36407200D01*
X142178571Y-36407200D02*
X142130952Y-36359580D01*
X142130952Y-36359580D02*
X142035714Y-36216723D01*
X142035714Y-36216723D02*
X141988095Y-36026247D01*
X141988095Y-36026247D02*
X141988095Y-35645295D01*
X141988095Y-35645295D02*
X142035714Y-35550057D01*
X142035714Y-35550057D02*
X142083333Y-35502438D01*
X142083333Y-35502438D02*
X142178571Y-35454819D01*
X142178571Y-35454819D02*
X142369047Y-35454819D01*
X142369047Y-35454819D02*
X142464285Y-35502438D01*
X142464285Y-35502438D02*
X142511904Y-35550057D01*
X142511904Y-35550057D02*
X142559523Y-35645295D01*
X142559523Y-35645295D02*
X142559523Y-35883390D01*
X142559523Y-35883390D02*
X142511904Y-35978628D01*
X142511904Y-35978628D02*
X142464285Y-36026247D01*
X142464285Y-36026247D02*
X142369047Y-36073866D01*
X142369047Y-36073866D02*
X142178571Y-36073866D01*
X142178571Y-36073866D02*
X142083333Y-36026247D01*
X142083333Y-36026247D02*
X142035714Y-35978628D01*
X142035714Y-35978628D02*
X141988095Y-35883390D01*
X129409521Y-22486224D02*
X128543496Y-21986224D01*
X128543496Y-21986224D02*
X128424448Y-22192420D01*
X128424448Y-22192420D02*
X128394259Y-22339948D01*
X128394259Y-22339948D02*
X128429119Y-22470045D01*
X128429119Y-22470045D02*
X128487788Y-22558904D01*
X128487788Y-22558904D02*
X128628935Y-22695381D01*
X128628935Y-22695381D02*
X128752653Y-22766810D01*
X128752653Y-22766810D02*
X128941420Y-22820808D01*
X128941420Y-22820808D02*
X129047708Y-22827188D01*
X129047708Y-22827188D02*
X129177806Y-22792329D01*
X129177806Y-22792329D02*
X129290474Y-22692420D01*
X129290474Y-22692420D02*
X129409521Y-22486224D01*
X127829210Y-23223403D02*
X127924448Y-23058446D01*
X127924448Y-23058446D02*
X128013307Y-22999777D01*
X128013307Y-22999777D02*
X128078355Y-22982347D01*
X128078355Y-22982347D02*
X128249692Y-22971297D01*
X128249692Y-22971297D02*
X128438459Y-23025296D01*
X128438459Y-23025296D02*
X128768374Y-23215772D01*
X128768374Y-23215772D02*
X128827043Y-23304630D01*
X128827043Y-23304630D02*
X128844472Y-23369679D01*
X128844472Y-23369679D02*
X128838093Y-23475967D01*
X128838093Y-23475967D02*
X128742855Y-23640924D01*
X128742855Y-23640924D02*
X128653996Y-23699593D01*
X128653996Y-23699593D02*
X128588947Y-23717023D01*
X128588947Y-23717023D02*
X128482659Y-23710643D01*
X128482659Y-23710643D02*
X128276463Y-23591596D01*
X128276463Y-23591596D02*
X128217794Y-23502737D01*
X128217794Y-23502737D02*
X128200364Y-23437689D01*
X128200364Y-23437689D02*
X128206744Y-23331400D01*
X128206744Y-23331400D02*
X128301982Y-23166443D01*
X128301982Y-23166443D02*
X128390840Y-23107774D01*
X128390840Y-23107774D02*
X128455889Y-23090344D01*
X128455889Y-23090344D02*
X128562177Y-23096724D01*
X127329210Y-24089428D02*
X127567305Y-23677035D01*
X127567305Y-23677035D02*
X128003508Y-23873891D01*
X128003508Y-23873891D02*
X127938459Y-23891321D01*
X127938459Y-23891321D02*
X127849601Y-23949990D01*
X127849601Y-23949990D02*
X127730553Y-24156187D01*
X127730553Y-24156187D02*
X127724173Y-24262475D01*
X127724173Y-24262475D02*
X127741603Y-24327524D01*
X127741603Y-24327524D02*
X127800272Y-24416382D01*
X127800272Y-24416382D02*
X128006469Y-24535430D01*
X128006469Y-24535430D02*
X128112757Y-24541809D01*
X128112757Y-24541809D02*
X128177806Y-24524379D01*
X128177806Y-24524379D02*
X128266664Y-24465710D01*
X128266664Y-24465710D02*
X128385712Y-24259514D01*
X128385712Y-24259514D02*
X128392091Y-24153226D01*
X128392091Y-24153226D02*
X128374662Y-24088177D01*
D11*
%TO.C,D26*%
X169015000Y-125265000D02*
X171300000Y-125265000D01*
X169015000Y-126735000D02*
X169015000Y-125265000D01*
X171300000Y-126735000D02*
X169015000Y-126735000D01*
%TO.C,D30*%
X171977500Y-143515000D02*
X174262500Y-143515000D01*
X171977500Y-144985000D02*
X171977500Y-143515000D01*
X174262500Y-144985000D02*
X171977500Y-144985000D01*
%TO.C,D45*%
X153200000Y-111015000D02*
X155485000Y-111015000D01*
X155485000Y-111015000D02*
X155485000Y-112485000D01*
X155485000Y-112485000D02*
X153200000Y-112485000D01*
D12*
%TO.C,SW1*%
X110550000Y-115000000D02*
X110550000Y-119000000D01*
X110550000Y-119000000D02*
X110780000Y-119000000D01*
X110780000Y-115000000D02*
X110550000Y-115000000D01*
X113450000Y-115000000D02*
X113220000Y-115000000D01*
X113450000Y-119000000D02*
X113220000Y-119000000D01*
X113450000Y-119000000D02*
X113450000Y-115000000D01*
%TO.C,U5*%
X166350000Y-82045000D02*
X166350000Y-77645000D01*
X176050000Y-82045000D02*
X176050000Y-77645000D01*
D13*
X175935000Y-84285000D02*
G75*
G02*
X175735000Y-84285000I-100000J0D01*
G01*
X175735000Y-84285000D02*
G75*
G02*
X175935000Y-84285000I100000J0D01*
G01*
D11*
%TO.C,D78*%
X108605971Y-26191048D02*
X107463471Y-24212180D01*
X108736529Y-23477180D02*
X109879029Y-25456048D01*
X109879029Y-25456048D02*
X108605971Y-26191048D01*
%TO.C,D63*%
X148500000Y-84415000D02*
X150785000Y-84415000D01*
X150785000Y-84415000D02*
X150785000Y-85885000D01*
X150785000Y-85885000D02*
X148500000Y-85885000D01*
%TO.C,TP2*%
X71400000Y-59200000D02*
G75*
G02*
X69000000Y-59200000I-1200000J0D01*
G01*
X69000000Y-59200000D02*
G75*
G02*
X71400000Y-59200000I1200000J0D01*
G01*
%TO.C,D61*%
X147800000Y-74265000D02*
X150085000Y-74265000D01*
X150085000Y-74265000D02*
X150085000Y-75735000D01*
X150085000Y-75735000D02*
X147800000Y-75735000D01*
%TO.C,D41*%
X150050000Y-89215000D02*
X152335000Y-89215000D01*
X152335000Y-89215000D02*
X152335000Y-90685000D01*
X152335000Y-90685000D02*
X150050000Y-90685000D01*
%TO.C,Q1*%
X106737500Y-129840000D02*
X106087500Y-129840000D01*
X106737500Y-129840000D02*
X107387500Y-129840000D01*
X106737500Y-132960000D02*
X106087500Y-132960000D01*
X106737500Y-132960000D02*
X107387500Y-132960000D01*
X107900000Y-129890000D02*
X107660000Y-129560000D01*
X108140000Y-129560000D01*
X107900000Y-129890000D01*
G36*
X107900000Y-129890000D02*
G01*
X107660000Y-129560000D01*
X108140000Y-129560000D01*
X107900000Y-129890000D01*
G37*
%TO.C,D64*%
X121265000Y-27485000D02*
X121265000Y-25200000D01*
X122735000Y-25200000D02*
X122735000Y-27485000D01*
X122735000Y-27485000D02*
X121265000Y-27485000D01*
%TO.C,D76*%
X106439680Y-34263471D02*
X108418548Y-33120971D01*
X108418548Y-33120971D02*
X109153548Y-34394029D01*
X109153548Y-34394029D02*
X107174680Y-35536529D01*
%TO.C,R7*%
X159727500Y-33487258D02*
X159727500Y-33012742D01*
X160772500Y-33487258D02*
X160772500Y-33012742D01*
%TO.C,D28*%
X171552500Y-133015000D02*
X173837500Y-133015000D01*
X171552500Y-134485000D02*
X171552500Y-133015000D01*
X173837500Y-134485000D02*
X171552500Y-134485000D01*
%TO.C,D25*%
X165227500Y-118015000D02*
X167512500Y-118015000D01*
X165227500Y-119485000D02*
X165227500Y-118015000D01*
X167512500Y-119485000D02*
X165227500Y-119485000D01*
%TO.C,TP1*%
X71100000Y-64000000D02*
G75*
G02*
X68700000Y-64000000I-1200000J0D01*
G01*
X68700000Y-64000000D02*
G75*
G02*
X71100000Y-64000000I1200000J0D01*
G01*
%TO.C,D42*%
X150700000Y-95665000D02*
X152985000Y-95665000D01*
X152985000Y-95665000D02*
X152985000Y-97135000D01*
X152985000Y-97135000D02*
X150700000Y-97135000D01*
%TO.C,D80*%
X115120971Y-26668548D02*
X116263471Y-24689680D01*
X116394029Y-27403548D02*
X115120971Y-26668548D01*
X117536529Y-25424680D02*
X116394029Y-27403548D01*
%TO.C,R12*%
X174837258Y-84727500D02*
X174362742Y-84727500D01*
X174837258Y-85772500D02*
X174362742Y-85772500D01*
%TO.C,C8*%
X106190000Y-82760000D02*
X106190000Y-78550000D01*
X109210000Y-78550000D02*
X109210000Y-82760000D01*
X109210000Y-82760000D02*
X106190000Y-82760000D01*
%TO.C,C15*%
X115995000Y-44360000D02*
X115995000Y-40150000D01*
X119015000Y-40150000D02*
X119015000Y-44360000D01*
X119015000Y-44360000D02*
X115995000Y-44360000D01*
%TO.C,D57*%
X146350000Y-57215000D02*
X148635000Y-57215000D01*
X148635000Y-57215000D02*
X148635000Y-58685000D01*
X148635000Y-58685000D02*
X146350000Y-58685000D01*
%TO.C,C7*%
X104190000Y-80665580D02*
X104190000Y-80384420D01*
X105210000Y-80665580D02*
X105210000Y-80384420D01*
%TO.C,D56*%
X143700000Y-50515000D02*
X145985000Y-50515000D01*
X145985000Y-50515000D02*
X145985000Y-51985000D01*
X145985000Y-51985000D02*
X143700000Y-51985000D01*
%TO.C,D68*%
X135596452Y-32605971D02*
X137575320Y-31463471D01*
X136331452Y-33879029D02*
X135596452Y-32605971D01*
X138310320Y-32736529D02*
X136331452Y-33879029D01*
%TO.C,Q2*%
X106737500Y-134940000D02*
X106087500Y-134940000D01*
X106737500Y-134940000D02*
X107387500Y-134940000D01*
X106737500Y-138060000D02*
X106087500Y-138060000D01*
X106737500Y-138060000D02*
X107387500Y-138060000D01*
X105815000Y-138340000D02*
X105335000Y-138340000D01*
X105575000Y-138010000D01*
X105815000Y-138340000D01*
G36*
X105815000Y-138340000D02*
G01*
X105335000Y-138340000D01*
X105575000Y-138010000D01*
X105815000Y-138340000D01*
G37*
%TO.C,C14*%
X119865000Y-42390580D02*
X119865000Y-42109420D01*
X120885000Y-42390580D02*
X120885000Y-42109420D01*
D12*
%TO.C,U2*%
X159645000Y-35550000D02*
X155245000Y-35550000D01*
X159645000Y-45250000D02*
X155245000Y-45250000D01*
D13*
X161985000Y-35765000D02*
G75*
G02*
X161785000Y-35765000I-100000J0D01*
G01*
X161785000Y-35765000D02*
G75*
G02*
X161985000Y-35765000I100000J0D01*
G01*
D11*
%TO.C,D29*%
X172052500Y-138015000D02*
X174337500Y-138015000D01*
X172052500Y-139485000D02*
X172052500Y-138015000D01*
X174337500Y-139485000D02*
X172052500Y-139485000D01*
%TO.C,D70*%
X139765000Y-39765000D02*
X142050000Y-39765000D01*
X139765000Y-41235000D02*
X139765000Y-39765000D01*
X142050000Y-41235000D02*
X139765000Y-41235000D01*
%TO.C,D43*%
X151200000Y-101265000D02*
X153485000Y-101265000D01*
X153485000Y-101265000D02*
X153485000Y-102735000D01*
X153485000Y-102735000D02*
X151200000Y-102735000D01*
%TO.C,C9*%
X174290580Y-73340000D02*
X174009420Y-73340000D01*
X174290580Y-74360000D02*
X174009420Y-74360000D01*
%TO.C,TP4*%
X71400000Y-49700000D02*
G75*
G02*
X69000000Y-49700000I-1200000J0D01*
G01*
X69000000Y-49700000D02*
G75*
G02*
X71400000Y-49700000I1200000J0D01*
G01*
%TO.C,D32*%
X166552500Y-153765000D02*
X168837500Y-153765000D01*
X166552500Y-155235000D02*
X166552500Y-153765000D01*
X168837500Y-155235000D02*
X166552500Y-155235000D01*
%TO.C,D27*%
X169302500Y-129265000D02*
X171587500Y-129265000D01*
X169302500Y-130735000D02*
X169302500Y-129265000D01*
X171587500Y-130735000D02*
X169302500Y-130735000D01*
%TO.C,D58*%
X147500000Y-61465000D02*
X149785000Y-61465000D01*
X149785000Y-61465000D02*
X149785000Y-62935000D01*
X149785000Y-62935000D02*
X147500000Y-62935000D01*
%TO.C,D77*%
X104855971Y-30153548D02*
X103713471Y-28174680D01*
X104986529Y-27439680D02*
X106129029Y-29418548D01*
X106129029Y-29418548D02*
X104855971Y-30153548D01*
%TO.C,D44*%
X152200000Y-106265000D02*
X154485000Y-106265000D01*
X154485000Y-106265000D02*
X154485000Y-107735000D01*
X154485000Y-107735000D02*
X152200000Y-107735000D01*
%TO.C,TP3*%
X71400000Y-54600000D02*
G75*
G02*
X69000000Y-54600000I-1200000J0D01*
G01*
X69000000Y-54600000D02*
G75*
G02*
X71400000Y-54600000I1200000J0D01*
G01*
%TO.C,D46*%
X162450000Y-111265000D02*
X164735000Y-111265000D01*
X164735000Y-111265000D02*
X164735000Y-112735000D01*
X164735000Y-112735000D02*
X162450000Y-112735000D01*
%TO.C,R11*%
X127037258Y-162777500D02*
X126562742Y-162777500D01*
X127037258Y-163822500D02*
X126562742Y-163822500D01*
%TO.C,D71*%
X141015000Y-44015000D02*
X143300000Y-44015000D01*
X141015000Y-45485000D02*
X141015000Y-44015000D01*
X143300000Y-45485000D02*
X141015000Y-45485000D01*
%TO.C,R8*%
X145727500Y-138437742D02*
X145727500Y-138912258D01*
X146772500Y-138437742D02*
X146772500Y-138912258D01*
%TO.C,D59*%
X147350000Y-65765000D02*
X149635000Y-65765000D01*
X149635000Y-65765000D02*
X149635000Y-67235000D01*
X149635000Y-67235000D02*
X147350000Y-67235000D01*
%TO.C,D60*%
X147650000Y-69715000D02*
X149935000Y-69715000D01*
X149935000Y-69715000D02*
X149935000Y-71185000D01*
X149935000Y-71185000D02*
X147650000Y-71185000D01*
%TO.C,D79*%
X111870971Y-23631048D02*
X113013471Y-21652180D01*
X113144029Y-24366048D02*
X111870971Y-23631048D01*
X114286529Y-22387180D02*
X113144029Y-24366048D01*
%TO.C,D62*%
X148100000Y-79465000D02*
X150385000Y-79465000D01*
X150385000Y-79465000D02*
X150385000Y-80935000D01*
X150385000Y-80935000D02*
X148100000Y-80935000D01*
%TO.C,TP5*%
X71600000Y-45200000D02*
G75*
G02*
X69200000Y-45200000I-1200000J0D01*
G01*
X69200000Y-45200000D02*
G75*
G02*
X71600000Y-45200000I1200000J0D01*
G01*
%TO.C,D31*%
X169727500Y-148515000D02*
X172012500Y-148515000D01*
X169727500Y-149985000D02*
X169727500Y-148515000D01*
X172012500Y-149985000D02*
X169727500Y-149985000D01*
D12*
%TO.C,U3*%
X134850000Y-137100000D02*
X134850000Y-132700000D01*
X144550000Y-137100000D02*
X144550000Y-132700000D01*
D13*
X144435000Y-139340000D02*
G75*
G02*
X144235000Y-139340000I-100000J0D01*
G01*
X144235000Y-139340000D02*
G75*
G02*
X144435000Y-139340000I100000J0D01*
G01*
D12*
%TO.C,SW4*%
X104800000Y-115000000D02*
X104800000Y-119000000D01*
X104800000Y-119000000D02*
X105030000Y-119000000D01*
X105030000Y-115000000D02*
X104800000Y-115000000D01*
X107700000Y-115000000D02*
X107470000Y-115000000D01*
X107700000Y-119000000D02*
X107470000Y-119000000D01*
X107700000Y-119000000D02*
X107700000Y-115000000D01*
D11*
%TO.C,R9*%
X127037258Y-160177500D02*
X126562742Y-160177500D01*
X127037258Y-161222500D02*
X126562742Y-161222500D01*
%TO.C,D66*%
X130120971Y-28918548D02*
X131263471Y-26939680D01*
X131394029Y-29653548D02*
X130120971Y-28918548D01*
X132536529Y-27674680D02*
X131394029Y-29653548D01*
%TO.C,D67*%
X133120971Y-30918548D02*
X134263471Y-28939680D01*
X134394029Y-31653548D02*
X133120971Y-30918548D01*
X135536529Y-29674680D02*
X134394029Y-31653548D01*
%TO.C,D47*%
X157515000Y-110765000D02*
X158985000Y-110765000D01*
X157515000Y-113050000D02*
X157515000Y-110765000D01*
X158985000Y-110765000D02*
X158985000Y-113050000D01*
%TO.C,D48*%
X164737500Y-114515000D02*
X167022500Y-114515000D01*
X167022500Y-114515000D02*
X167022500Y-115985000D01*
X167022500Y-115985000D02*
X164737500Y-115985000D01*
%TO.C,D69*%
X138265000Y-35265000D02*
X140550000Y-35265000D01*
X138265000Y-36735000D02*
X138265000Y-35265000D01*
X140550000Y-36735000D02*
X138265000Y-36735000D01*
%TO.C,D65*%
X125620971Y-27168548D02*
X126763471Y-25189680D01*
X126894029Y-27903548D02*
X125620971Y-27168548D01*
X128036529Y-25924680D02*
X126894029Y-27903548D01*
%TD*%
M02*
