%TF.GenerationSoftware,KiCad,Pcbnew,9.0.0*%
%TF.CreationDate,2025-04-18T09:14:46-04:00*%
%TF.ProjectId,where_is_my_ion,77686572-655f-4697-935f-6d795f696f6e,rev?*%
%TF.SameCoordinates,Original*%
%TF.FileFunction,Soldermask,Bot*%
%TF.FilePolarity,Negative*%
%FSLAX46Y46*%
G04 Gerber Fmt 4.6, Leading zero omitted, Abs format (unit mm)*
G04 Created by KiCad (PCBNEW 9.0.0) date 2025-04-18 09:14:46*
%MOMM*%
%LPD*%
G01*
G04 APERTURE LIST*
G04 Aperture macros list*
%AMRoundRect*
0 Rectangle with rounded corners*
0 $1 Rounding radius*
0 $2 $3 $4 $5 $6 $7 $8 $9 X,Y pos of 4 corners*
0 Add a 4 corners polygon primitive as box body*
4,1,4,$2,$3,$4,$5,$6,$7,$8,$9,$2,$3,0*
0 Add four circle primitives for the rounded corners*
1,1,$1+$1,$2,$3*
1,1,$1+$1,$4,$5*
1,1,$1+$1,$6,$7*
1,1,$1+$1,$8,$9*
0 Add four rect primitives between the rounded corners*
20,1,$1+$1,$2,$3,$4,$5,0*
20,1,$1+$1,$4,$5,$6,$7,0*
20,1,$1+$1,$6,$7,$8,$9,0*
20,1,$1+$1,$8,$9,$2,$3,0*%
G04 Aperture macros list end*
%ADD10C,2.200000*%
%ADD11C,0.650000*%
%ADD12O,1.000000X2.100000*%
%ADD13O,1.000000X1.600000*%
%ADD14RoundRect,0.218750X-0.218750X-0.256250X0.218750X-0.256250X0.218750X0.256250X-0.218750X0.256250X0*%
%ADD15RoundRect,0.218750X0.218750X0.256250X-0.218750X0.256250X-0.218750X-0.256250X0.218750X-0.256250X0*%
%ADD16R,1.800000X1.350000*%
%ADD17RoundRect,0.051250X0.153750X-0.733750X0.153750X0.733750X-0.153750X0.733750X-0.153750X-0.733750X0*%
%ADD18RoundRect,0.218750X0.331294X-0.061318X0.112544X0.317568X-0.331294X0.061318X-0.112544X-0.317568X0*%
%ADD19C,2.000000*%
%ADD20RoundRect,0.150000X0.587500X0.150000X-0.587500X0.150000X-0.587500X-0.150000X0.587500X-0.150000X0*%
%ADD21RoundRect,0.218750X0.256250X-0.218750X0.256250X0.218750X-0.256250X0.218750X-0.256250X-0.218750X0*%
%ADD22RoundRect,0.218750X0.061318X0.331294X-0.317568X0.112544X-0.061318X-0.331294X0.317568X-0.112544X0*%
%ADD23RoundRect,0.200000X0.275000X-0.200000X0.275000X0.200000X-0.275000X0.200000X-0.275000X-0.200000X0*%
%ADD24RoundRect,0.218750X0.112544X-0.317568X0.331294X0.061318X-0.112544X0.317568X-0.331294X-0.061318X0*%
%ADD25RoundRect,0.200000X0.200000X0.275000X-0.200000X0.275000X-0.200000X-0.275000X0.200000X-0.275000X0*%
%ADD26RoundRect,0.250000X0.925000X-0.412500X0.925000X0.412500X-0.925000X0.412500X-0.925000X-0.412500X0*%
%ADD27RoundRect,0.225000X0.250000X-0.225000X0.250000X0.225000X-0.250000X0.225000X-0.250000X-0.225000X0*%
%ADD28RoundRect,0.218750X-0.061318X-0.331294X0.317568X-0.112544X0.061318X0.331294X-0.317568X0.112544X0*%
%ADD29RoundRect,0.150000X-0.587500X-0.150000X0.587500X-0.150000X0.587500X0.150000X-0.587500X0.150000X0*%
%ADD30RoundRect,0.051250X0.733750X0.153750X-0.733750X0.153750X-0.733750X-0.153750X0.733750X-0.153750X0*%
%ADD31RoundRect,0.225000X0.225000X0.250000X-0.225000X0.250000X-0.225000X-0.250000X0.225000X-0.250000X0*%
%ADD32RoundRect,0.200000X-0.275000X0.200000X-0.275000X-0.200000X0.275000X-0.200000X0.275000X0.200000X0*%
%ADD33RoundRect,0.218750X-0.256250X0.218750X-0.256250X-0.218750X0.256250X-0.218750X0.256250X0.218750X0*%
G04 APERTURE END LIST*
D10*
%TO.C,H3*%
X104500000Y-162750000D03*
%TD*%
%TO.C,H2*%
X174500000Y-17750000D03*
%TD*%
D11*
%TO.C,J1*%
X135090000Y-158500000D03*
X140870000Y-158500000D03*
D12*
X133660000Y-157970000D03*
D13*
X133660000Y-162150000D03*
D12*
X142300000Y-157970000D03*
D13*
X142300000Y-162150000D03*
%TD*%
D10*
%TO.C,H4*%
X174500000Y-162750000D03*
%TD*%
%TO.C,H1*%
X104500000Y-17750000D03*
%TD*%
D14*
%TO.C,D26*%
X169712500Y-126000000D03*
X171287500Y-126000000D03*
%TD*%
%TO.C,D30*%
X172675000Y-144250000D03*
X174250000Y-144250000D03*
%TD*%
D15*
%TO.C,D45*%
X154787500Y-111750000D03*
X153212500Y-111750000D03*
%TD*%
D16*
%TO.C,SW1*%
X112000000Y-114925000D03*
X112000000Y-119075000D03*
%TD*%
D17*
%TO.C,U5*%
X175425000Y-82715000D03*
X174775000Y-82715000D03*
X174125000Y-82715000D03*
X173475000Y-82715000D03*
X172825000Y-82715000D03*
X172175000Y-82715000D03*
X171525000Y-82715000D03*
X170875000Y-82715000D03*
X170225000Y-82715000D03*
X169575000Y-82715000D03*
X168925000Y-82715000D03*
X168275000Y-82715000D03*
X167625000Y-82715000D03*
X166975000Y-82715000D03*
X166975000Y-76975000D03*
X167625000Y-76975000D03*
X168275000Y-76975000D03*
X168925000Y-76975000D03*
X169575000Y-76975000D03*
X170225000Y-76975000D03*
X170875000Y-76975000D03*
X171525000Y-76975000D03*
X172175000Y-76975000D03*
X172825000Y-76975000D03*
X173475000Y-76975000D03*
X174125000Y-76975000D03*
X174775000Y-76975000D03*
X175425000Y-76975000D03*
%TD*%
D18*
%TO.C,D78*%
X108893750Y-25219495D03*
X108106250Y-23855505D03*
%TD*%
D15*
%TO.C,D63*%
X150087500Y-85150000D03*
X148512500Y-85150000D03*
%TD*%
D19*
%TO.C,TP2*%
X70200000Y-59200000D03*
%TD*%
D15*
%TO.C,D61*%
X149387500Y-75000000D03*
X147812500Y-75000000D03*
%TD*%
%TO.C,D41*%
X151637500Y-89950000D03*
X150062500Y-89950000D03*
%TD*%
D20*
%TO.C,Q1*%
X107675000Y-130450000D03*
X107675000Y-132350000D03*
X105800000Y-131400000D03*
%TD*%
D21*
%TO.C,D64*%
X122000000Y-26787500D03*
X122000000Y-25212500D03*
%TD*%
D22*
%TO.C,D76*%
X108181995Y-34106250D03*
X106818005Y-34893750D03*
%TD*%
D23*
%TO.C,R7*%
X160250000Y-34075000D03*
X160250000Y-32425000D03*
%TD*%
D14*
%TO.C,D28*%
X172250000Y-133750000D03*
X173825000Y-133750000D03*
%TD*%
%TO.C,D25*%
X165925000Y-118750000D03*
X167500000Y-118750000D03*
%TD*%
D19*
%TO.C,TP1*%
X69900000Y-64000000D03*
%TD*%
D15*
%TO.C,D42*%
X152287500Y-96400000D03*
X150712500Y-96400000D03*
%TD*%
D24*
%TO.C,D80*%
X116106250Y-26431995D03*
X116893750Y-25068005D03*
%TD*%
D25*
%TO.C,R12*%
X175425000Y-85250000D03*
X173775000Y-85250000D03*
%TD*%
D26*
%TO.C,C8*%
X107700000Y-81837500D03*
X107700000Y-78762500D03*
%TD*%
%TO.C,C15*%
X117505000Y-43437500D03*
X117505000Y-40362500D03*
%TD*%
D15*
%TO.C,D57*%
X147937500Y-57950000D03*
X146362500Y-57950000D03*
%TD*%
D27*
%TO.C,C7*%
X104700000Y-81300000D03*
X104700000Y-79750000D03*
%TD*%
D15*
%TO.C,D56*%
X145287500Y-51250000D03*
X143712500Y-51250000D03*
%TD*%
D28*
%TO.C,D68*%
X136568005Y-32893750D03*
X137931995Y-32106250D03*
%TD*%
D29*
%TO.C,Q2*%
X105800000Y-137450000D03*
X105800000Y-135550000D03*
X107675000Y-136500000D03*
%TD*%
D27*
%TO.C,C14*%
X120375000Y-43025000D03*
X120375000Y-41475000D03*
%TD*%
D30*
%TO.C,U2*%
X160315000Y-36175000D03*
X160315000Y-36825000D03*
X160315000Y-37475000D03*
X160315000Y-38125000D03*
X160315000Y-38775000D03*
X160315000Y-39425000D03*
X160315000Y-40075000D03*
X160315000Y-40725000D03*
X160315000Y-41375000D03*
X160315000Y-42025000D03*
X160315000Y-42675000D03*
X160315000Y-43325000D03*
X160315000Y-43975000D03*
X160315000Y-44625000D03*
X154575000Y-44625000D03*
X154575000Y-43975000D03*
X154575000Y-43325000D03*
X154575000Y-42675000D03*
X154575000Y-42025000D03*
X154575000Y-41375000D03*
X154575000Y-40725000D03*
X154575000Y-40075000D03*
X154575000Y-39425000D03*
X154575000Y-38775000D03*
X154575000Y-38125000D03*
X154575000Y-37475000D03*
X154575000Y-36825000D03*
X154575000Y-36175000D03*
%TD*%
D14*
%TO.C,D29*%
X172750000Y-138750000D03*
X174325000Y-138750000D03*
%TD*%
%TO.C,D70*%
X140462500Y-40500000D03*
X142037500Y-40500000D03*
%TD*%
D15*
%TO.C,D43*%
X152787500Y-102000000D03*
X151212500Y-102000000D03*
%TD*%
D31*
%TO.C,C9*%
X174925000Y-73850000D03*
X173375000Y-73850000D03*
%TD*%
D19*
%TO.C,TP4*%
X70200000Y-49700000D03*
%TD*%
D14*
%TO.C,D32*%
X167250000Y-154500000D03*
X168825000Y-154500000D03*
%TD*%
%TO.C,D27*%
X170000000Y-130000000D03*
X171575000Y-130000000D03*
%TD*%
D15*
%TO.C,D58*%
X149087500Y-62200000D03*
X147512500Y-62200000D03*
%TD*%
D18*
%TO.C,D77*%
X105143750Y-29181995D03*
X104356250Y-27818005D03*
%TD*%
D15*
%TO.C,D44*%
X153787500Y-107000000D03*
X152212500Y-107000000D03*
%TD*%
D19*
%TO.C,TP3*%
X70200000Y-54600000D03*
%TD*%
D15*
%TO.C,D46*%
X164037500Y-112000000D03*
X162462500Y-112000000D03*
%TD*%
D25*
%TO.C,R11*%
X127625000Y-163300000D03*
X125975000Y-163300000D03*
%TD*%
D14*
%TO.C,D71*%
X141712500Y-44750000D03*
X143287500Y-44750000D03*
%TD*%
D32*
%TO.C,R8*%
X146250000Y-137850000D03*
X146250000Y-139500000D03*
%TD*%
D15*
%TO.C,D59*%
X148937500Y-66500000D03*
X147362500Y-66500000D03*
%TD*%
%TO.C,D60*%
X149237500Y-70450000D03*
X147662500Y-70450000D03*
%TD*%
D24*
%TO.C,D79*%
X112856250Y-23394495D03*
X113643750Y-22030505D03*
%TD*%
D15*
%TO.C,D62*%
X149687500Y-80200000D03*
X148112500Y-80200000D03*
%TD*%
D19*
%TO.C,TP5*%
X70400000Y-45200000D03*
%TD*%
D14*
%TO.C,D31*%
X170425000Y-149250000D03*
X172000000Y-149250000D03*
%TD*%
D17*
%TO.C,U3*%
X143925000Y-137770000D03*
X143275000Y-137770000D03*
X142625000Y-137770000D03*
X141975000Y-137770000D03*
X141325000Y-137770000D03*
X140675000Y-137770000D03*
X140025000Y-137770000D03*
X139375000Y-137770000D03*
X138725000Y-137770000D03*
X138075000Y-137770000D03*
X137425000Y-137770000D03*
X136775000Y-137770000D03*
X136125000Y-137770000D03*
X135475000Y-137770000D03*
X135475000Y-132030000D03*
X136125000Y-132030000D03*
X136775000Y-132030000D03*
X137425000Y-132030000D03*
X138075000Y-132030000D03*
X138725000Y-132030000D03*
X139375000Y-132030000D03*
X140025000Y-132030000D03*
X140675000Y-132030000D03*
X141325000Y-132030000D03*
X141975000Y-132030000D03*
X142625000Y-132030000D03*
X143275000Y-132030000D03*
X143925000Y-132030000D03*
%TD*%
D16*
%TO.C,SW4*%
X106250000Y-114925000D03*
X106250000Y-119075000D03*
%TD*%
D25*
%TO.C,R9*%
X127625000Y-160700000D03*
X125975000Y-160700000D03*
%TD*%
D24*
%TO.C,D66*%
X131106250Y-28681995D03*
X131893750Y-27318005D03*
%TD*%
%TO.C,D67*%
X134106250Y-30681995D03*
X134893750Y-29318005D03*
%TD*%
D33*
%TO.C,D47*%
X158250000Y-111462500D03*
X158250000Y-113037500D03*
%TD*%
D15*
%TO.C,D48*%
X166325000Y-115250000D03*
X164750000Y-115250000D03*
%TD*%
D14*
%TO.C,D69*%
X138962500Y-36000000D03*
X140537500Y-36000000D03*
%TD*%
D24*
%TO.C,D65*%
X126606250Y-26931995D03*
X127393750Y-25568005D03*
%TD*%
M02*
