%TF.GenerationSoftware,KiCad,Pcbnew,9.0.0*%
%TF.CreationDate,2025-04-18T09:14:46-04:00*%
%TF.ProjectId,where_is_my_ion,77686572-655f-4697-935f-6d795f696f6e,rev?*%
%TF.SameCoordinates,Original*%
%TF.FileFunction,Paste,Top*%
%TF.FilePolarity,Positive*%
%FSLAX46Y46*%
G04 Gerber Fmt 4.6, Leading zero omitted, Abs format (unit mm)*
G04 Created by KiCad (PCBNEW 9.0.0) date 2025-04-18 09:14:46*
%MOMM*%
%LPD*%
G01*
G04 APERTURE LIST*
G04 Aperture macros list*
%AMRoundRect*
0 Rectangle with rounded corners*
0 $1 Rounding radius*
0 $2 $3 $4 $5 $6 $7 $8 $9 X,Y pos of 4 corners*
0 Add a 4 corners polygon primitive as box body*
4,1,4,$2,$3,$4,$5,$6,$7,$8,$9,$2,$3,0*
0 Add four circle primitives for the rounded corners*
1,1,$1+$1,$2,$3*
1,1,$1+$1,$4,$5*
1,1,$1+$1,$6,$7*
1,1,$1+$1,$8,$9*
0 Add four rect primitives between the rounded corners*
20,1,$1+$1,$2,$3,$4,$5,0*
20,1,$1+$1,$4,$5,$6,$7,0*
20,1,$1+$1,$6,$7,$8,$9,0*
20,1,$1+$1,$8,$9,$2,$3,0*%
G04 Aperture macros list end*
%ADD10RoundRect,0.218750X0.317568X0.112544X-0.061318X0.331294X-0.317568X-0.112544X0.061318X-0.331294X0*%
%ADD11RoundRect,0.250000X0.925000X-0.412500X0.925000X0.412500X-0.925000X0.412500X-0.925000X-0.412500X0*%
%ADD12R,1.350000X1.800000*%
%ADD13RoundRect,0.218750X0.218750X0.256250X-0.218750X0.256250X-0.218750X-0.256250X0.218750X-0.256250X0*%
%ADD14RoundRect,0.200000X0.200000X0.275000X-0.200000X0.275000X-0.200000X-0.275000X0.200000X-0.275000X0*%
%ADD15RoundRect,0.200000X0.275000X-0.200000X0.275000X0.200000X-0.275000X0.200000X-0.275000X-0.200000X0*%
%ADD16RoundRect,0.218750X-0.218750X-0.256250X0.218750X-0.256250X0.218750X0.256250X-0.218750X0.256250X0*%
%ADD17RoundRect,0.218750X-0.256250X0.218750X-0.256250X-0.218750X0.256250X-0.218750X0.256250X0.218750X0*%
%ADD18RoundRect,0.200000X-0.200000X-0.275000X0.200000X-0.275000X0.200000X0.275000X-0.200000X0.275000X0*%
%ADD19RoundRect,0.225000X-0.225000X0.225000X-0.225000X-0.225000X0.225000X-0.225000X0.225000X0.225000X0*%
%ADD20RoundRect,0.062500X-0.062500X0.337500X-0.062500X-0.337500X0.062500X-0.337500X0.062500X0.337500X0*%
%ADD21RoundRect,0.062500X-0.337500X0.062500X-0.337500X-0.062500X0.337500X-0.062500X0.337500X0.062500X0*%
%ADD22RoundRect,0.250000X-0.925000X0.412500X-0.925000X-0.412500X0.925000X-0.412500X0.925000X0.412500X0*%
%ADD23RoundRect,0.150000X0.200000X-0.150000X0.200000X0.150000X-0.200000X0.150000X-0.200000X-0.150000X0*%
%ADD24RoundRect,0.218750X0.335876X0.026517X0.026517X0.335876X-0.335876X-0.026517X-0.026517X-0.335876X0*%
%ADD25RoundRect,0.250000X0.475000X-0.250000X0.475000X0.250000X-0.475000X0.250000X-0.475000X-0.250000X0*%
%ADD26RoundRect,0.051250X0.733750X0.153750X-0.733750X0.153750X-0.733750X-0.153750X0.733750X-0.153750X0*%
%ADD27RoundRect,0.218750X0.331294X-0.061318X0.112544X0.317568X-0.331294X0.061318X-0.112544X-0.317568X0*%
%ADD28RoundRect,0.200000X-0.275000X0.200000X-0.275000X-0.200000X0.275000X-0.200000X0.275000X0.200000X0*%
%ADD29RoundRect,0.218750X0.026517X-0.335876X0.335876X-0.026517X-0.026517X0.335876X-0.335876X0.026517X0*%
%ADD30RoundRect,0.250000X0.412500X0.925000X-0.412500X0.925000X-0.412500X-0.925000X0.412500X-0.925000X0*%
%ADD31RoundRect,0.225000X0.225000X0.250000X-0.225000X0.250000X-0.225000X-0.250000X0.225000X-0.250000X0*%
%ADD32RoundRect,0.250000X-0.412500X-0.925000X0.412500X-0.925000X0.412500X0.925000X-0.412500X0.925000X0*%
%ADD33RoundRect,0.218750X0.256250X-0.218750X0.256250X0.218750X-0.256250X0.218750X-0.256250X-0.218750X0*%
%ADD34RoundRect,0.225000X-0.225000X-0.375000X0.225000X-0.375000X0.225000X0.375000X-0.225000X0.375000X0*%
%ADD35R,0.600000X1.450000*%
%ADD36R,0.300000X1.450000*%
%ADD37R,0.700000X0.700000*%
%ADD38R,0.900000X1.500000*%
%ADD39RoundRect,0.150000X0.512500X0.150000X-0.512500X0.150000X-0.512500X-0.150000X0.512500X-0.150000X0*%
%ADD40RoundRect,0.225000X-0.250000X0.225000X-0.250000X-0.225000X0.250000X-0.225000X0.250000X0.225000X0*%
%ADD41RoundRect,0.150000X-0.150000X-0.200000X0.150000X-0.200000X0.150000X0.200000X-0.150000X0.200000X0*%
G04 APERTURE END LIST*
D10*
%TO.C,D23*%
X141681995Y-32693750D03*
X140318005Y-31906250D03*
%TD*%
D11*
%TO.C,C16*%
X123100000Y-163637500D03*
X123100000Y-160562500D03*
%TD*%
D12*
%TO.C,SW2*%
X157125000Y-141500000D03*
X152975000Y-141500000D03*
%TD*%
D13*
%TO.C,D15*%
X109750000Y-124250000D03*
X108175000Y-124250000D03*
%TD*%
D14*
%TO.C,R6*%
X162250000Y-164000000D03*
X160600000Y-164000000D03*
%TD*%
D15*
%TO.C,R5*%
X159800000Y-160125000D03*
X159800000Y-158475000D03*
%TD*%
%TO.C,R20*%
X150800000Y-163400000D03*
X150800000Y-161750000D03*
%TD*%
D13*
%TO.C,D10*%
X109037500Y-149000000D03*
X107462500Y-149000000D03*
%TD*%
D16*
%TO.C,D39*%
X129412500Y-70000000D03*
X130987500Y-70000000D03*
%TD*%
D13*
%TO.C,D75*%
X105087500Y-39200000D03*
X103512500Y-39200000D03*
%TD*%
%TO.C,D12*%
X105587500Y-138750000D03*
X104012500Y-138750000D03*
%TD*%
D16*
%TO.C,D53*%
X123412500Y-113600000D03*
X124987500Y-113600000D03*
%TD*%
D17*
%TO.C,D51*%
X115400000Y-110012500D03*
X115400000Y-111587500D03*
%TD*%
D16*
%TO.C,D34*%
X126212500Y-96200000D03*
X127787500Y-96200000D03*
%TD*%
D18*
%TO.C,R10*%
X112875000Y-83400000D03*
X114525000Y-83400000D03*
%TD*%
D19*
%TO.C,U1*%
X168240000Y-160560000D03*
X167120000Y-160560000D03*
X166000000Y-160560000D03*
X168240000Y-161680000D03*
X167120000Y-161680000D03*
X166000000Y-161680000D03*
X168240000Y-162800000D03*
X167120000Y-162800000D03*
X166000000Y-162800000D03*
D20*
X168620000Y-159230000D03*
X168120000Y-159230000D03*
X167620000Y-159230000D03*
X167120000Y-159230000D03*
X166620000Y-159230000D03*
X166120000Y-159230000D03*
X165620000Y-159230000D03*
D21*
X164670000Y-160180000D03*
X164670000Y-160680000D03*
X164670000Y-161180000D03*
X164670000Y-161680000D03*
X164670000Y-162180000D03*
X164670000Y-162680000D03*
X164670000Y-163180000D03*
D20*
X165620000Y-164130000D03*
X166120000Y-164130000D03*
X166620000Y-164130000D03*
X167120000Y-164130000D03*
X167620000Y-164130000D03*
X168120000Y-164130000D03*
X168620000Y-164130000D03*
D21*
X169570000Y-163180000D03*
X169570000Y-162680000D03*
X169570000Y-162180000D03*
X169570000Y-161680000D03*
X169570000Y-161180000D03*
X169570000Y-160680000D03*
X169570000Y-160180000D03*
%TD*%
D12*
%TO.C,SW3*%
X157200000Y-145800000D03*
X153050000Y-145800000D03*
%TD*%
D15*
%TO.C,R22*%
X154450000Y-164075000D03*
X154450000Y-162425000D03*
%TD*%
D22*
%TO.C,C3*%
X159900000Y-36012500D03*
X159900000Y-39087500D03*
%TD*%
D23*
%TO.C,D83*%
X139200000Y-152700000D03*
X139200000Y-154100000D03*
%TD*%
D24*
%TO.C,D5*%
X166006847Y-22806847D03*
X164893153Y-21693153D03*
%TD*%
D13*
%TO.C,D74*%
X105075000Y-42200000D03*
X103500000Y-42200000D03*
%TD*%
D16*
%TO.C,D36*%
X128612500Y-85000000D03*
X130187500Y-85000000D03*
%TD*%
D25*
%TO.C,C6*%
X161900000Y-160200000D03*
X161900000Y-158300000D03*
%TD*%
D14*
%TO.C,R21*%
X140700000Y-19600000D03*
X139050000Y-19600000D03*
%TD*%
D13*
%TO.C,D81*%
X140612500Y-17300000D03*
X139037500Y-17300000D03*
%TD*%
D16*
%TO.C,D50*%
X112212500Y-115800000D03*
X113787500Y-115800000D03*
%TD*%
D13*
%TO.C,D13*%
X106387500Y-133800000D03*
X104812500Y-133800000D03*
%TD*%
D15*
%TO.C,R13*%
X161500000Y-135775000D03*
X161500000Y-134125000D03*
%TD*%
D13*
%TO.C,D19*%
X134775000Y-50700000D03*
X133200000Y-50700000D03*
%TD*%
D18*
%TO.C,R24*%
X144630000Y-160550000D03*
X146280000Y-160550000D03*
%TD*%
D26*
%TO.C,U4*%
X110515000Y-82025000D03*
X110515000Y-81375000D03*
X110515000Y-80725000D03*
X110515000Y-80075000D03*
X110515000Y-79425000D03*
X110515000Y-78775000D03*
X110515000Y-78125000D03*
X110515000Y-77475000D03*
X110515000Y-76825000D03*
X110515000Y-76175000D03*
X110515000Y-75525000D03*
X110515000Y-74875000D03*
X110515000Y-74225000D03*
X110515000Y-73575000D03*
X104775000Y-73575000D03*
X104775000Y-74225000D03*
X104775000Y-74875000D03*
X104775000Y-75525000D03*
X104775000Y-76175000D03*
X104775000Y-76825000D03*
X104775000Y-77475000D03*
X104775000Y-78125000D03*
X104775000Y-78775000D03*
X104775000Y-79425000D03*
X104775000Y-80075000D03*
X104775000Y-80725000D03*
X104775000Y-81375000D03*
X104775000Y-82025000D03*
%TD*%
D10*
%TO.C,D21*%
X137881995Y-40443750D03*
X136518005Y-39656250D03*
%TD*%
D27*
%TO.C,D4*%
X162150000Y-26100000D03*
X161362500Y-24736008D03*
%TD*%
D25*
%TO.C,C13*%
X175600000Y-118950000D03*
X175600000Y-117050000D03*
%TD*%
D28*
%TO.C,R17*%
X173400000Y-114075000D03*
X173400000Y-115725000D03*
%TD*%
D13*
%TO.C,D17*%
X130350000Y-61850000D03*
X128775000Y-61850000D03*
%TD*%
D29*
%TO.C,D6*%
X168943153Y-24006847D03*
X170056847Y-22893153D03*
%TD*%
D26*
%TO.C,U7*%
X122995000Y-43725000D03*
X122995000Y-43075000D03*
X122995000Y-42425000D03*
X122995000Y-41775000D03*
X122995000Y-41125000D03*
X122995000Y-40475000D03*
X122995000Y-39825000D03*
X122995000Y-39175000D03*
X122995000Y-38525000D03*
X122995000Y-37875000D03*
X122995000Y-37225000D03*
X122995000Y-36575000D03*
X122995000Y-35925000D03*
X122995000Y-35275000D03*
X117255000Y-35275000D03*
X117255000Y-35925000D03*
X117255000Y-36575000D03*
X117255000Y-37225000D03*
X117255000Y-37875000D03*
X117255000Y-38525000D03*
X117255000Y-39175000D03*
X117255000Y-39825000D03*
X117255000Y-40475000D03*
X117255000Y-41125000D03*
X117255000Y-41775000D03*
X117255000Y-42425000D03*
X117255000Y-43075000D03*
X117255000Y-43725000D03*
%TD*%
D18*
%TO.C,R1*%
X160600000Y-162100000D03*
X162250000Y-162100000D03*
%TD*%
D28*
%TO.C,R15*%
X173400000Y-117375000D03*
X173400000Y-119025000D03*
%TD*%
D16*
%TO.C,D55*%
X124812500Y-105400000D03*
X126387500Y-105400000D03*
%TD*%
D30*
%TO.C,C5*%
X143787500Y-138000000D03*
X140712500Y-138000000D03*
%TD*%
D23*
%TO.C,D84*%
X136750000Y-152650000D03*
X136750000Y-154050000D03*
%TD*%
D13*
%TO.C,D11*%
X105787500Y-144250000D03*
X104212500Y-144250000D03*
%TD*%
D30*
%TO.C,C10*%
X175537500Y-77250000D03*
X172462500Y-77250000D03*
%TD*%
D16*
%TO.C,D37*%
X128812500Y-79600000D03*
X130387500Y-79600000D03*
%TD*%
D31*
%TO.C,C4*%
X143237500Y-135000000D03*
X141687500Y-135000000D03*
%TD*%
D32*
%TO.C,C1*%
X165462500Y-154400000D03*
X168537500Y-154400000D03*
%TD*%
D13*
%TO.C,D9*%
X111987500Y-153500000D03*
X110412500Y-153500000D03*
%TD*%
D33*
%TO.C,D3*%
X156856250Y-26455505D03*
X156856250Y-24880503D03*
%TD*%
D27*
%TO.C,D2*%
X152887500Y-26700000D03*
X152100000Y-25336008D03*
%TD*%
D13*
%TO.C,D14*%
X108787500Y-129750000D03*
X107212500Y-129750000D03*
%TD*%
%TO.C,D18*%
X132237500Y-57550000D03*
X130662500Y-57550000D03*
%TD*%
D16*
%TO.C,D33*%
X125812500Y-101800000D03*
X127387500Y-101800000D03*
%TD*%
D11*
%TO.C,C19*%
X109050000Y-163787500D03*
X109050000Y-160712500D03*
%TD*%
D10*
%TO.C,D20*%
X136581995Y-44643750D03*
X135218005Y-43856250D03*
%TD*%
D17*
%TO.C,D49*%
X104700000Y-68075000D03*
X104700000Y-69650000D03*
%TD*%
D10*
%TO.C,D22*%
X139450000Y-36000000D03*
X138086010Y-35212500D03*
%TD*%
D18*
%TO.C,R16*%
X159875000Y-130600000D03*
X161525000Y-130600000D03*
%TD*%
D34*
%TO.C,D72*%
X128030000Y-156800000D03*
X131330000Y-156800000D03*
%TD*%
D35*
%TO.C,J1*%
X134730000Y-157055000D03*
X135530000Y-157055000D03*
D36*
X136730000Y-157055000D03*
X137730000Y-157055000D03*
X138230000Y-157055000D03*
X139230000Y-157055000D03*
D35*
X140430000Y-157055000D03*
X141230000Y-157055000D03*
X141230000Y-157055000D03*
X140430000Y-157055000D03*
D36*
X139730000Y-157055000D03*
X138730000Y-157055000D03*
X137230000Y-157055000D03*
X136230000Y-157055000D03*
D35*
X135530000Y-157055000D03*
X134730000Y-157055000D03*
%TD*%
D16*
%TO.C,D38*%
X129012500Y-74800000D03*
X130587500Y-74800000D03*
%TD*%
D37*
%TO.C,U6*%
X170800000Y-134585000D03*
X169700000Y-134585000D03*
X168600000Y-134585000D03*
X170800000Y-135685000D03*
X169700000Y-135685000D03*
X168600000Y-135685000D03*
X170800000Y-136785000D03*
X169700000Y-136785000D03*
X168600000Y-136785000D03*
D38*
X175900000Y-125975000D03*
X174400000Y-125975000D03*
X172900000Y-125975000D03*
X171400000Y-125975000D03*
X169900000Y-125975000D03*
X168400000Y-125975000D03*
X166900000Y-125975000D03*
X165400000Y-125975000D03*
X163900000Y-125975000D03*
X163900000Y-143475000D03*
X165400000Y-143475000D03*
X166900000Y-143475000D03*
X168400000Y-143475000D03*
X169900000Y-143475000D03*
X171400000Y-143475000D03*
X172900000Y-143475000D03*
X174400000Y-143475000D03*
X175900000Y-143475000D03*
%TD*%
D39*
%TO.C,U8*%
X117137500Y-163800000D03*
X117137500Y-162850000D03*
X117137500Y-161900000D03*
X114862500Y-161900000D03*
X114862500Y-163800000D03*
%TD*%
D18*
%TO.C,R4*%
X144530000Y-155900000D03*
X146180000Y-155900000D03*
%TD*%
D16*
%TO.C,D54*%
X123812500Y-109000000D03*
X125387500Y-109000000D03*
%TD*%
D29*
%TO.C,D7*%
X173693153Y-29056847D03*
X174806847Y-27943153D03*
%TD*%
D40*
%TO.C,C18*%
X112500000Y-162325000D03*
X112500000Y-163875000D03*
%TD*%
D15*
%TO.C,R19*%
X152700000Y-163400000D03*
X152700000Y-161750000D03*
%TD*%
D24*
%TO.C,D8*%
X171350000Y-34650000D03*
X170236306Y-33536306D03*
%TD*%
D14*
%TO.C,R14*%
X161550000Y-132400000D03*
X159900000Y-132400000D03*
%TD*%
D10*
%TO.C,D24*%
X144531995Y-29993750D03*
X143168005Y-29206250D03*
%TD*%
D13*
%TO.C,D73*%
X105075000Y-45250000D03*
X103500000Y-45250000D03*
%TD*%
D15*
%TO.C,R3*%
X175800000Y-156725000D03*
X175800000Y-155075000D03*
%TD*%
D41*
%TO.C,D82*%
X145950000Y-157900000D03*
X144550000Y-157900000D03*
%TD*%
D30*
%TO.C,C11*%
X170737500Y-118800000D03*
X167662500Y-118800000D03*
%TD*%
D17*
%TO.C,D52*%
X120200000Y-111612500D03*
X120200000Y-113187500D03*
%TD*%
D13*
%TO.C,D16*%
X111587500Y-120000000D03*
X110012500Y-120000000D03*
%TD*%
D31*
%TO.C,C12*%
X169975000Y-122200000D03*
X168425000Y-122200000D03*
%TD*%
D40*
%TO.C,C17*%
X119800000Y-162300000D03*
X119800000Y-163850000D03*
%TD*%
D15*
%TO.C,R23*%
X156350000Y-164075000D03*
X156350000Y-162425000D03*
%TD*%
D16*
%TO.C,D35*%
X126812500Y-89600000D03*
X128387500Y-89600000D03*
%TD*%
D24*
%TO.C,D1*%
X147556847Y-27956847D03*
X146443153Y-26843153D03*
%TD*%
D15*
%TO.C,R2*%
X173200000Y-156725000D03*
X173200000Y-155075000D03*
%TD*%
D40*
%TO.C,C2*%
X157150000Y-36825000D03*
X157150000Y-38375000D03*
%TD*%
D14*
%TO.C,R25*%
X131405000Y-160300000D03*
X129755000Y-160300000D03*
%TD*%
D16*
%TO.C,D40*%
X129612500Y-66000000D03*
X131187500Y-66000000D03*
%TD*%
D28*
%TO.C,R18*%
X123000000Y-45975000D03*
X123000000Y-47625000D03*
%TD*%
M02*
